%TF.GenerationSoftware,KiCad,Pcbnew,9.0.8+dfsg-1*%
%TF.CreationDate,2026-07-05T08:02:23+02:00*%
%TF.ProjectId,CoffeeRoast-Control-RevA,436f6666-6565-4526-9f61-73742d436f6e,A.1-draft*%
%TF.SameCoordinates,Original*%
%TF.FileFunction,Copper,L1,Top*%
%TF.FilePolarity,Positive*%
%FSLAX46Y46*%
G04 Gerber Fmt 4.6, Leading zero omitted, Abs format (unit mm)*
G04 Created by KiCad (PCBNEW 9.0.8+dfsg-1) date 2026-07-05 08:02:23*
%MOMM*%
%LPD*%
G01*
G04 APERTURE LIST*
G04 Aperture macros list*
%AMRoundRect*
0 Rectangle with rounded corners*
0 $1 Rounding radius*
0 $2 $3 $4 $5 $6 $7 $8 $9 X,Y pos of 4 corners*
0 Add a 4 corners polygon primitive as box body*
4,1,4,$2,$3,$4,$5,$6,$7,$8,$9,$2,$3,0*
0 Add four circle primitives for the rounded corners*
1,1,$1+$1,$2,$3*
1,1,$1+$1,$4,$5*
1,1,$1+$1,$6,$7*
1,1,$1+$1,$8,$9*
0 Add four rect primitives between the rounded corners*
20,1,$1+$1,$2,$3,$4,$5,0*
20,1,$1+$1,$4,$5,$6,$7,0*
20,1,$1+$1,$6,$7,$8,$9,0*
20,1,$1+$1,$8,$9,$2,$3,0*%
G04 Aperture macros list end*
%TA.AperFunction,SMDPad,CuDef*%
%ADD10RoundRect,0.085000X-0.095000X-0.085000X0.095000X-0.085000X0.095000X0.085000X-0.095000X0.085000X0*%
%TD*%
%TA.AperFunction,SMDPad,CuDef*%
%ADD11RoundRect,0.130000X-0.130000X-0.145000X0.130000X-0.145000X0.130000X0.145000X-0.130000X0.145000X0*%
%TD*%
%TA.AperFunction,SMDPad,CuDef*%
%ADD12C,1.800000*%
%TD*%
%TA.AperFunction,SMDPad,CuDef*%
%ADD13R,1.150000X0.300000*%
%TD*%
%TA.AperFunction,HeatsinkPad*%
%ADD14O,2.100000X1.000000*%
%TD*%
%TA.AperFunction,HeatsinkPad*%
%ADD15O,1.600000X1.000000*%
%TD*%
%TA.AperFunction,ComponentPad*%
%ADD16R,2.400000X2.400000*%
%TD*%
%TA.AperFunction,SMDPad,CuDef*%
%ADD17RoundRect,0.130000X-0.145000X-0.130000X0.145000X-0.130000X0.145000X0.130000X-0.145000X0.130000X0*%
%TD*%
%TA.AperFunction,SMDPad,CuDef*%
%ADD18R,1.000000X1.200000*%
%TD*%
%TA.AperFunction,ComponentPad*%
%ADD19R,1.600000X1.600000*%
%TD*%
%TA.AperFunction,SMDPad,CuDef*%
%ADD20R,1.500000X0.900000*%
%TD*%
%TA.AperFunction,SMDPad,CuDef*%
%ADD21R,0.900000X1.500000*%
%TD*%
%TA.AperFunction,HeatsinkPad*%
%ADD22C,0.600000*%
%TD*%
%TA.AperFunction,HeatsinkPad*%
%ADD23R,3.900000X3.900000*%
%TD*%
%TA.AperFunction,ComponentPad*%
%ADD24R,2.000000X2.000000*%
%TD*%
%TA.AperFunction,SMDPad,CuDef*%
%ADD25R,1.450000X0.600000*%
%TD*%
%TA.AperFunction,SMDPad,CuDef*%
%ADD26R,0.650000X0.650000*%
%TD*%
%TA.AperFunction,SMDPad,CuDef*%
%ADD27R,2.000000X1.400000*%
%TD*%
%TA.AperFunction,SMDPad,CuDef*%
%ADD28RoundRect,0.075000X-0.075000X-0.115000X0.075000X-0.115000X0.075000X0.115000X-0.075000X0.115000X0*%
%TD*%
%TA.AperFunction,SMDPad,CuDef*%
%ADD29R,1.200000X1.800000*%
%TD*%
%TA.AperFunction,SMDPad,CuDef*%
%ADD30R,3.500000X2.500000*%
%TD*%
%TA.AperFunction,ComponentPad*%
%ADD31R,1.800000X1.800000*%
%TD*%
%TA.AperFunction,SMDPad,CuDef*%
%ADD32R,1.200000X1.000000*%
%TD*%
%TA.AperFunction,SMDPad,CuDef*%
%ADD33R,0.650000X1.000000*%
%TD*%
%TA.AperFunction,ComponentPad*%
%ADD34C,2.000000*%
%TD*%
%TA.AperFunction,ViaPad*%
%ADD35C,0.500000*%
%TD*%
%TA.AperFunction,Conductor*%
%ADD36C,0.200000*%
%TD*%
%TA.AperFunction,Conductor*%
%ADD37C,0.450000*%
%TD*%
%TA.AperFunction,Conductor*%
%ADD38C,0.250000*%
%TD*%
%TA.AperFunction,Conductor*%
%ADD39C,0.350000*%
%TD*%
%TA.AperFunction,Conductor*%
%ADD40C,0.220000*%
%TD*%
%TA.AperFunction,Conductor*%
%ADD41C,0.180000*%
%TD*%
G04 APERTURE END LIST*
D10*
%TO.P,TPESP15,1*%
%TO.N,GPIO3*%
X78015000Y-38280000D03*
%TD*%
D11*
%TO.P,TPESP25,1*%
%TO.N,GPIO48*%
X90715000Y-38450000D03*
%TD*%
D12*
%TO.P,TP5V,1*%
%TO.N,+5V*%
X50000000Y-72000000D03*
%TD*%
D13*
%TO.P,J5,A1*%
%TO.N,GND*%
X141330000Y-34350000D03*
%TO.P,J5,A4*%
%TO.N,USB_VBUS*%
X141330000Y-33550000D03*
%TO.P,J5,A5*%
%TO.N,USB_CC1*%
X141330000Y-32250000D03*
%TO.P,J5,A6*%
%TO.N,USB_DP*%
X141330000Y-31250000D03*
%TO.P,J5,A7*%
%TO.N,USB_DN*%
X141330000Y-30750000D03*
%TO.P,J5,A8*%
%TO.N,N/C*%
X141330000Y-29750000D03*
%TO.P,J5,A9*%
%TO.N,USB_VBUS*%
X141330000Y-28450000D03*
%TO.P,J5,A12*%
%TO.N,GND*%
X141330000Y-27650000D03*
%TO.P,J5,B1*%
X141330000Y-27950000D03*
%TO.P,J5,B4*%
%TO.N,USB_VBUS*%
X141330000Y-28750000D03*
%TO.P,J5,B5*%
%TO.N,USB_CC2*%
X141330000Y-29250000D03*
%TO.P,J5,B6*%
%TO.N,USB_DP*%
X141330000Y-30250000D03*
%TO.P,J5,B7*%
%TO.N,USB_DN*%
X141330000Y-31750000D03*
%TO.P,J5,B8*%
%TO.N,N/C*%
X141330000Y-32750000D03*
%TO.P,J5,B9*%
%TO.N,USB_VBUS*%
X141330000Y-33250000D03*
%TO.P,J5,B12*%
%TO.N,GND*%
X141330000Y-34050000D03*
D14*
%TO.P,J5,S1*%
X141895000Y-35320000D03*
D15*
X146075000Y-35320000D03*
D14*
X141895000Y-26680000D03*
D15*
X146075000Y-26680000D03*
%TD*%
D11*
%TO.P,TPESP16,1*%
%TO.N,GPIO46*%
X79285000Y-38450000D03*
%TD*%
D16*
%TO.P,J4,1*%
%TO.N,THERMO_PLUS*%
X137460000Y-52000000D03*
%TO.P,J4,2*%
%TO.N,THERMO_MINUS*%
X142540000Y-52000000D03*
%TD*%
D17*
%TO.P,TPESP27,1*%
%TO.N,BOOT*%
X94700000Y-36250000D03*
%TD*%
D18*
%TO.P,R8,1*%
%TO.N,USB_DP_MCU*%
X127050000Y-31000000D03*
%TO.P,R8,2*%
%TO.N,USB_DP*%
X128949999Y-31000000D03*
%TD*%
D17*
%TO.P,TPESP31,1*%
%TO.N,GPIO38*%
X94700000Y-31170000D03*
%TD*%
%TO.P,TPESP14,1*%
%TO.N,USB_DP_MCU*%
X75300000Y-36250000D03*
%TD*%
%TO.P,TPESP35,1*%
%TO.N,GPIO42*%
X94700000Y-26090000D03*
%TD*%
D19*
%TO.P,SW2,1*%
%TO.N,BOOT*%
X40750000Y-39750000D03*
%TO.P,SW2,2*%
X45250000Y-39750000D03*
%TO.P,SW2,3*%
%TO.N,GND*%
X40750000Y-44250000D03*
%TO.P,SW2,4*%
X45250000Y-44250000D03*
%TD*%
D18*
%TO.P,C2,1*%
%TO.N,+3V3*%
X75050000Y-86000000D03*
%TO.P,C2,2*%
%TO.N,GND*%
X76950000Y-86000000D03*
%TD*%
D19*
%TO.P,SW1,1*%
%TO.N,EN*%
X40750000Y-29750000D03*
%TO.P,SW1,2*%
X45250000Y-29750000D03*
%TO.P,SW1,3*%
%TO.N,GND*%
X40750000Y-34250000D03*
%TO.P,SW1,4*%
X45250000Y-34250000D03*
%TD*%
D17*
%TO.P,TPESP2,1*%
%TO.N,+3V3*%
X75300000Y-21010000D03*
%TD*%
%TO.P,TPESP33,1*%
%TO.N,GPIO40*%
X94700000Y-28630000D03*
%TD*%
D16*
%TO.P,J2,1*%
%TO.N,+24V_FUSED*%
X7460000Y-48000000D03*
%TO.P,J2,2*%
%TO.N,FAN_NEG*%
X12540000Y-48000000D03*
%TD*%
D11*
%TO.P,TPESP20,1*%
%TO.N,MAX_CS*%
X84365000Y-38450000D03*
%TD*%
D17*
%TO.P,TPESP12,1*%
%TO.N,GPIO8*%
X75300000Y-33710000D03*
%TD*%
D16*
%TO.P,J1,1*%
%TO.N,+24V_RAW*%
X7460000Y-18000000D03*
%TO.P,J1,2*%
%TO.N,GND*%
X12540000Y-18000000D03*
%TD*%
D20*
%TO.P,U1,1*%
%TO.N,GND*%
X76250000Y-19740000D03*
%TO.P,U1,2*%
%TO.N,+3V3*%
X76250000Y-21010000D03*
%TO.P,U1,3*%
%TO.N,EN*%
X76250000Y-22280000D03*
%TO.P,U1,4*%
%TO.N,GPIO4*%
X76250000Y-23550000D03*
%TO.P,U1,5*%
%TO.N,GPIO5*%
X76250000Y-24820000D03*
%TO.P,U1,6*%
%TO.N,GPIO6*%
X76250000Y-26090000D03*
%TO.P,U1,7*%
%TO.N,GPIO7*%
X76250000Y-27360000D03*
%TO.P,U1,8*%
%TO.N,GPIO15*%
X76250000Y-28630000D03*
%TO.P,U1,9*%
%TO.N,GPIO16*%
X76250000Y-29900000D03*
%TO.P,U1,10*%
%TO.N,GPIO17*%
X76250000Y-31170000D03*
%TO.P,U1,11*%
%TO.N,GPIO18*%
X76250000Y-32440000D03*
%TO.P,U1,12*%
%TO.N,GPIO8*%
X76250000Y-33710000D03*
%TO.P,U1,13*%
%TO.N,USB_DN_MCU*%
X76250000Y-34980000D03*
%TO.P,U1,14*%
%TO.N,USB_DP_MCU*%
X76250000Y-36250000D03*
D21*
%TO.P,U1,15*%
%TO.N,GPIO3*%
X78015000Y-37500000D03*
%TO.P,U1,16*%
%TO.N,GPIO46*%
X79285000Y-37500000D03*
%TO.P,U1,17*%
%TO.N,GPIO9*%
X80555000Y-37500000D03*
%TO.P,U1,18*%
%TO.N,GPIO10*%
X81825000Y-37500000D03*
%TO.P,U1,19*%
%TO.N,MAX_DO*%
X83095000Y-37500000D03*
%TO.P,U1,20*%
%TO.N,MAX_CS*%
X84365000Y-37500000D03*
%TO.P,U1,21*%
%TO.N,MAX_SCK*%
X85635000Y-37500000D03*
%TO.P,U1,22*%
%TO.N,GPIO14*%
X86905000Y-37500000D03*
%TO.P,U1,23*%
%TO.N,GPIO21*%
X88175000Y-37500000D03*
%TO.P,U1,24*%
%TO.N,GPIO47*%
X89445000Y-37500000D03*
%TO.P,U1,25*%
%TO.N,GPIO48*%
X90715000Y-37500000D03*
%TO.P,U1,26*%
%TO.N,GPIO45*%
X91985000Y-37500000D03*
D20*
%TO.P,U1,27*%
%TO.N,BOOT*%
X93750000Y-36250000D03*
%TO.P,U1,28*%
%TO.N,GPIO35*%
X93750000Y-34980000D03*
%TO.P,U1,29*%
%TO.N,GPIO36*%
X93750000Y-33710000D03*
%TO.P,U1,30*%
%TO.N,GPIO37*%
X93750000Y-32440000D03*
%TO.P,U1,31*%
%TO.N,GPIO38*%
X93750000Y-31170000D03*
%TO.P,U1,32*%
%TO.N,GPIO39*%
X93750000Y-29900000D03*
%TO.P,U1,33*%
%TO.N,GPIO40*%
X93750000Y-28630000D03*
%TO.P,U1,34*%
%TO.N,GPIO41*%
X93750000Y-27360000D03*
%TO.P,U1,35*%
%TO.N,GPIO42*%
X93750000Y-26090000D03*
%TO.P,U1,36*%
%TO.N,RXD0_GPIO44*%
X93750000Y-24820000D03*
%TO.P,U1,37*%
%TO.N,TXD0_GPIO43*%
X93750000Y-23550000D03*
%TO.P,U1,38*%
%TO.N,FAN_PWM*%
X93750000Y-22280000D03*
%TO.P,U1,39*%
%TO.N,HEATER_PWM*%
X93750000Y-21010000D03*
%TO.P,U1,40*%
%TO.N,GND*%
X93750000Y-19740000D03*
D22*
%TO.P,U1,41*%
%TO.N,N/C*%
X82100000Y-26760000D03*
X82100000Y-28160000D03*
X82800000Y-26060000D03*
X82800000Y-27460000D03*
X82800000Y-28860000D03*
X83500000Y-26760000D03*
D23*
X83500000Y-27460000D03*
D22*
X83500000Y-28160000D03*
X84200000Y-26060000D03*
X84200000Y-27460000D03*
X84200000Y-28860000D03*
X84900000Y-26760000D03*
X84900000Y-28160000D03*
%TD*%
D17*
%TO.P,TPESP36,1*%
%TO.N,RXD0_GPIO44*%
X94700000Y-24820000D03*
%TD*%
D18*
%TO.P,R1,1*%
%TO.N,FAN_PWM*%
X64050000Y-48000000D03*
%TO.P,R1,2*%
%TO.N,FAN_GATE*%
X65950000Y-48000000D03*
%TD*%
D11*
%TO.P,TPESP22,1*%
%TO.N,GPIO14*%
X86905000Y-38450000D03*
%TD*%
D17*
%TO.P,TPESP13,1*%
%TO.N,USB_DN_MCU*%
X75300000Y-34980000D03*
%TD*%
D11*
%TO.P,TPESP17,1*%
%TO.N,GPIO9*%
X80555000Y-38450000D03*
%TD*%
D17*
%TO.P,TPESP29,1*%
%TO.N,GPIO36*%
X94700000Y-33710000D03*
%TD*%
%TO.P,TPESP39,1*%
%TO.N,HEATER_PWM*%
X94700000Y-21010000D03*
%TD*%
%TO.P,TPESP7,1*%
%TO.N,GPIO7*%
X75300000Y-27360000D03*
%TD*%
D16*
%TO.P,F1,1*%
%TO.N,+24V_RAW*%
X21000000Y-18000000D03*
%TO.P,F1,2*%
%TO.N,+24V_FUSED*%
X43000000Y-18000000D03*
%TD*%
D17*
%TO.P,TPESP9,1*%
%TO.N,GPIO16*%
X75300000Y-29900000D03*
%TD*%
D11*
%TO.P,TPESP26,1*%
%TO.N,GPIO45*%
X91985000Y-38450000D03*
%TD*%
%TO.P,TPESP21,1*%
%TO.N,MAX_SCK*%
X85635000Y-38450000D03*
%TD*%
D18*
%TO.P,C3,1*%
%TO.N,+3V3*%
X90050000Y-63000000D03*
%TO.P,C3,2*%
%TO.N,GND*%
X91950000Y-63000000D03*
%TD*%
D24*
%TO.P,Q1,1*%
%TO.N,FAN_GATE*%
X42460000Y-48000000D03*
%TO.P,Q1,2*%
%TO.N,FAN_NEG*%
X45000000Y-48000000D03*
%TO.P,Q1,3*%
%TO.N,GND*%
X47540000Y-48000000D03*
%TD*%
D25*
%TO.P,U2,1*%
%TO.N,GND*%
X95300000Y-56905000D03*
%TO.P,U2,2*%
%TO.N,THERMO_MINUS*%
X95300000Y-55635000D03*
%TO.P,U2,3*%
%TO.N,THERMO_PLUS*%
X95300000Y-54365000D03*
%TO.P,U2,4*%
%TO.N,+3V3*%
X95300000Y-53095000D03*
%TO.P,U2,5*%
%TO.N,MAX_SCK*%
X100700000Y-53095000D03*
%TO.P,U2,6*%
%TO.N,MAX_CS*%
X100700000Y-54365000D03*
%TO.P,U2,7*%
%TO.N,MAX_DO*%
X100700000Y-55635000D03*
%TO.P,U2,8*%
%TO.N,GND*%
X100700000Y-56905000D03*
%TD*%
D17*
%TO.P,TPESP3,1*%
%TO.N,EN*%
X75300000Y-22280000D03*
%TD*%
D18*
%TO.P,R11,1*%
%TO.N,USB_CC2*%
X129050000Y-40000000D03*
%TO.P,R11,2*%
%TO.N,GND*%
X130949999Y-40000000D03*
%TD*%
D26*
%TO.P,U5,1*%
%TO.N,USB_DN*%
X133000000Y-27000000D03*
%TO.P,U5,2*%
%TO.N,USB_DP*%
X133000000Y-31000000D03*
%TO.P,U5,3*%
%TO.N,GND*%
X133000000Y-26000000D03*
%TO.P,U5,4*%
X134400000Y-26000000D03*
%TO.P,U5,5*%
%TO.N,USB_DP*%
X134400000Y-31000000D03*
%TO.P,U5,6*%
%TO.N,USB_DN*%
X134400000Y-27000000D03*
%TD*%
D11*
%TO.P,TPESP19,1*%
%TO.N,MAX_DO*%
X83095000Y-38450000D03*
%TD*%
D17*
%TO.P,TPESP11,1*%
%TO.N,GPIO18*%
X75300000Y-32439999D03*
%TD*%
D24*
%TO.P,U4,1*%
%TO.N,+24V_FUSED*%
X25000000Y-72000000D03*
%TO.P,U4,2*%
%TO.N,GND*%
X25000000Y-84000000D03*
%TO.P,U4,3*%
%TO.N,+5V*%
X47000000Y-72000000D03*
%TO.P,U4,4*%
%TO.N,GND*%
X47000000Y-84000000D03*
%TD*%
D17*
%TO.P,TPESP32,1*%
%TO.N,GPIO39*%
X94700000Y-29900000D03*
%TD*%
D18*
%TO.P,R4,1*%
%TO.N,SSR_GATE*%
X111050000Y-26000000D03*
%TO.P,R4,2*%
%TO.N,GND*%
X112950000Y-26000000D03*
%TD*%
D27*
%TO.P,D3,1*%
%TO.N,+24V_FUSED*%
X7460000Y-43000000D03*
%TO.P,D3,2*%
%TO.N,FAN_NEG*%
X12540000Y-43000000D03*
%TD*%
D18*
%TO.P,R2,1*%
%TO.N,FAN_GATE*%
X64050000Y-52000000D03*
%TO.P,R2,2*%
%TO.N,GND*%
X65950000Y-52000000D03*
%TD*%
D28*
%TO.P,TPESP30,1*%
%TO.N,GPIO37*%
X94200000Y-32439999D03*
%TD*%
D29*
%TO.P,U3,1*%
%TO.N,GND*%
X65700000Y-80800000D03*
D30*
%TO.P,U3,2*%
%TO.N,+3V3*%
X68000000Y-75700000D03*
D29*
X68000000Y-80800000D03*
%TO.P,U3,3*%
%TO.N,+5V*%
X70300000Y-80800000D03*
%TD*%
D31*
%TO.P,D1,1*%
%TO.N,FAN_NEG*%
X22920000Y-48000000D03*
%TO.P,D1,2*%
%TO.N,+24V_FUSED*%
X33080000Y-48000000D03*
%TD*%
D17*
%TO.P,TPESP28,1*%
%TO.N,GPIO35*%
X94700000Y-34980000D03*
%TD*%
%TO.P,TPESP8,1*%
%TO.N,GPIO15*%
X75300000Y-28630000D03*
%TD*%
D18*
%TO.P,R6,1*%
%TO.N,+3V3*%
X54050000Y-36000000D03*
%TO.P,R6,2*%
%TO.N,BOOT*%
X55950000Y-36000000D03*
%TD*%
D17*
%TO.P,TPESP38,1*%
%TO.N,FAN_PWM*%
X94700000Y-22280000D03*
%TD*%
D18*
%TO.P,R10,1*%
%TO.N,USB_CC1*%
X129050000Y-36000000D03*
%TO.P,R10,2*%
%TO.N,GND*%
X130949999Y-36000000D03*
%TD*%
D11*
%TO.P,TPESP24,1*%
%TO.N,GPIO47*%
X89445000Y-38450000D03*
%TD*%
D12*
%TO.P,TPGND,1*%
%TO.N,GND*%
X50000000Y-84000000D03*
%TD*%
D18*
%TO.P,R3,1*%
%TO.N,HEATER_PWM*%
X104050000Y-22000000D03*
%TO.P,R3,2*%
%TO.N,SSR_GATE*%
X105950000Y-22000000D03*
%TD*%
D12*
%TO.P,TP24V,1*%
%TO.N,+24V_FUSED*%
X22000000Y-72000000D03*
%TD*%
D11*
%TO.P,TPESP23,1*%
%TO.N,GPIO21*%
X88175000Y-38450000D03*
%TD*%
%TO.P,TPESP18,1*%
%TO.N,GPIO10*%
X81825000Y-38450000D03*
%TD*%
D17*
%TO.P,TPESP34,1*%
%TO.N,GPIO41*%
X94700000Y-27360000D03*
%TD*%
D18*
%TO.P,C1,1*%
%TO.N,+5V*%
X60050000Y-86000000D03*
%TO.P,C1,2*%
%TO.N,GND*%
X61950000Y-86000000D03*
%TD*%
D17*
%TO.P,TPESP40,1*%
%TO.N,GND*%
X94700000Y-19740000D03*
%TD*%
D18*
%TO.P,R5,1*%
%TO.N,+3V3*%
X54050000Y-32000000D03*
%TO.P,R5,2*%
%TO.N,EN*%
X55950000Y-32000000D03*
%TD*%
D32*
%TO.P,C5,1*%
%TO.N,THERMO_PLUS*%
X137460000Y-47000000D03*
%TO.P,C5,2*%
%TO.N,THERMO_MINUS*%
X142540000Y-47000000D03*
%TD*%
D33*
%TO.P,Q2,1*%
%TO.N,SSR_GATE*%
X117050000Y-70950000D03*
%TO.P,Q2,2*%
%TO.N,GND*%
X118950000Y-70950000D03*
%TO.P,Q2,3*%
%TO.N,SSR_NEG*%
X118000000Y-69050000D03*
%TD*%
D12*
%TO.P,TP3V3,1*%
%TO.N,+3V3*%
X72000000Y-76000000D03*
%TD*%
D17*
%TO.P,TPESP37,1*%
%TO.N,TXD0_GPIO43*%
X94700000Y-23550000D03*
%TD*%
D18*
%TO.P,R7,1*%
%TO.N,USB_DN_MCU*%
X127050000Y-27000000D03*
%TO.P,R7,2*%
%TO.N,USB_DN*%
X128949999Y-27000000D03*
%TD*%
D17*
%TO.P,TPESP10,1*%
%TO.N,GPIO17*%
X75300000Y-31170000D03*
%TD*%
%TO.P,TPESP6,1*%
%TO.N,GPIO6*%
X75300000Y-26090000D03*
%TD*%
%TO.P,TPESP4,1*%
%TO.N,GPIO4*%
X75300000Y-23550000D03*
%TD*%
%TO.P,TPESP1,1*%
%TO.N,GND*%
X75300000Y-19740000D03*
%TD*%
D34*
%TO.P,C4,1*%
%TO.N,+24V_RAW*%
X7460000Y-23200000D03*
%TO.P,C4,2*%
%TO.N,GND*%
X12540000Y-23200000D03*
%TD*%
D27*
%TO.P,D2,1*%
%TO.N,+24V_RAW*%
X7460000Y-26200000D03*
%TO.P,D2,2*%
%TO.N,GND*%
X12540000Y-26200000D03*
%TD*%
D16*
%TO.P,J3,1*%
%TO.N,+5V*%
X137460000Y-70000000D03*
%TO.P,J3,2*%
%TO.N,SSR_NEG*%
X142540000Y-70000000D03*
%TD*%
D17*
%TO.P,TPESP5,1*%
%TO.N,GPIO5*%
X75300000Y-24820000D03*
%TD*%
D35*
%TO.N,GND*%
X64260000Y-19740000D03*
X112546700Y-24984400D03*
X108184600Y-57592900D03*
%TO.N,+3V3*%
X65530000Y-21010000D03*
X75029500Y-57418300D03*
%TO.N,FAN_PWM*%
X73241500Y-43965200D03*
X108059700Y-25185100D03*
%TO.N,HEATER_PWM*%
X104119200Y-23014600D03*
%TO.N,SSR_GATE*%
X110146600Y-25911200D03*
X116968800Y-70043900D03*
%TO.N,MAX_DO*%
X97213900Y-55743500D03*
X83614600Y-38969600D03*
%TO.N,MAX_CS*%
X88213000Y-50675900D03*
%TO.N,MAX_SCK*%
X90243700Y-44692200D03*
%TO.N,USB_DN_MCU*%
X66089500Y-34980000D03*
%TO.N,USB_DP_MCU*%
X81625500Y-35694000D03*
X73966000Y-36621900D03*
X87797600Y-40394700D03*
%TO.N,USB_DN*%
X139894100Y-31625000D03*
X137065400Y-27000000D03*
%TO.N,EN*%
X65797399Y-22597900D03*
%TO.N,BOOT*%
X90351200Y-36195700D03*
X96317800Y-37613000D03*
%TO.N,GPIO4*%
X65570700Y-23550000D03*
%TO.N,GPIO5*%
X66906000Y-24820000D03*
%TO.N,GPIO6*%
X64522999Y-25960700D03*
%TO.N,GPIO7*%
X65137600Y-27360000D03*
%TO.N,GPIO15*%
X67128800Y-30392600D03*
%TO.N,GPIO16*%
X67632100Y-29900000D03*
%TO.N,GPIO17*%
X64465700Y-32863300D03*
%TO.N,GPIO18*%
X67275300Y-33367500D03*
%TO.N,GPIO8*%
X63902900Y-33948400D03*
%TO.N,GPIO3*%
X73988600Y-38280000D03*
%TO.N,GPIO46*%
X78707700Y-39010800D03*
%TO.N,GPIO9*%
X78517600Y-39941700D03*
%TO.N,GPIO10*%
X81825000Y-39156500D03*
%TO.N,GPIO14*%
X87259100Y-39146700D03*
%TO.N,GPIO21*%
X88175000Y-39138500D03*
%TO.N,GPIO47*%
X89692900Y-39146100D03*
%TO.N,GPIO48*%
X92452200Y-39713700D03*
%TO.N,GPIO45*%
X96312300Y-39680500D03*
%TO.N,GPIO35*%
X104843100Y-34980000D03*
%TO.N,GPIO36*%
X96388300Y-33710000D03*
%TO.N,GPIO37*%
X104326900Y-32439999D03*
%TO.N,GPIO38*%
X108126000Y-32661600D03*
%TO.N,GPIO39*%
X104176600Y-30086500D03*
%TO.N,GPIO40*%
X103655200Y-29584800D03*
%TO.N,GPIO41*%
X106363100Y-28693900D03*
%TO.N,GPIO42*%
X108142200Y-27591600D03*
%TO.N,RXD0_GPIO44*%
X108912500Y-30295600D03*
%TO.N,TXD0_GPIO43*%
X101987500Y-23637100D03*
%TD*%
D36*
%TO.N,GND*%
X12540000Y-18000000D02*
X13941700Y-18000000D01*
X50300000Y-81901700D02*
X48201700Y-84000000D01*
X47000000Y-84000000D02*
X47600900Y-84000000D01*
X146075000Y-26680000D02*
X141895000Y-26680000D01*
X140643300Y-26680000D02*
X140553300Y-26770000D01*
X141206700Y-35320000D02*
X140553300Y-34666600D01*
X93750000Y-19740000D02*
X94700000Y-19740000D01*
X101626700Y-56905000D02*
X101626700Y-63000000D01*
X141330000Y-27950000D02*
X141330000Y-27650000D01*
X112760600Y-25198300D02*
X112950000Y-25198300D01*
X76950000Y-86000000D02*
X76248300Y-86000000D01*
X140553300Y-34666600D02*
X140553300Y-34350000D01*
X64596100Y-48862100D02*
X49603800Y-48862100D01*
X141895000Y-26680000D02*
X140643300Y-26680000D01*
X47540000Y-48000000D02*
X48741700Y-48000000D01*
D37*
X12540000Y-18000000D02*
X12540000Y-23200000D01*
X12540000Y-23200000D02*
X12540000Y-26200000D01*
D36*
X76250000Y-19740000D02*
X75300000Y-19740000D01*
X60709700Y-86801700D02*
X61248300Y-86263100D01*
X118423300Y-70950000D02*
X118423300Y-70747800D01*
X100700000Y-56905000D02*
X101626700Y-56905000D01*
X139783300Y-26000000D02*
X112950000Y-26000000D01*
X45250000Y-34250000D02*
X40750000Y-34250000D01*
X47600900Y-84000000D02*
X48201700Y-84000000D01*
X110675500Y-63000000D02*
X101626700Y-63000000D01*
X76250000Y-19740000D02*
X93750000Y-19740000D01*
X30191700Y-34250000D02*
X40750000Y-34250000D01*
X45250000Y-44250000D02*
X40750000Y-44250000D01*
X118423300Y-70747800D02*
X110675500Y-63000000D01*
D38*
X50000000Y-84000000D02*
X47000000Y-84000000D01*
D36*
X76248300Y-86689700D02*
X76248300Y-86000000D01*
X61950000Y-86000000D02*
X61248300Y-86000000D01*
X146075000Y-35320000D02*
X141895000Y-35320000D01*
X66663000Y-51287000D02*
X66663000Y-47327800D01*
X50402600Y-86801700D02*
X60709700Y-86801700D01*
X47600900Y-84000000D02*
X50402600Y-86801700D01*
X65700000Y-81901700D02*
X50300000Y-81901700D01*
X118950000Y-70950000D02*
X118423300Y-70950000D01*
X112546700Y-24984400D02*
X107302300Y-19740000D01*
X65366500Y-47198300D02*
X65248300Y-47316500D01*
X102314600Y-57592900D02*
X101626700Y-56905000D01*
X75834600Y-87103400D02*
X76248300Y-86689700D01*
X66663000Y-47327800D02*
X66533500Y-47198300D01*
X130949999Y-36000000D02*
X130949999Y-40000000D01*
X61950000Y-86000000D02*
X62651700Y-86000000D01*
X62651700Y-86000000D02*
X63755100Y-87103400D01*
X63755100Y-87103400D02*
X75834600Y-87103400D01*
X65700000Y-80800000D02*
X65700000Y-81901700D01*
X140553300Y-26770000D02*
X139783300Y-26000000D01*
X130949999Y-36000000D02*
X139963300Y-36000000D01*
X49603800Y-48862100D02*
X48741700Y-48000000D01*
X75300000Y-19740000D02*
X64260000Y-19740000D01*
X13941700Y-18000000D02*
X30191700Y-34250000D01*
X65950000Y-52000000D02*
X66663000Y-51287000D01*
X112950000Y-26000000D02*
X112950000Y-25198300D01*
X112546700Y-24984400D02*
X112760600Y-25198300D01*
X25000000Y-84000000D02*
X47000000Y-84000000D01*
X139963300Y-36000000D02*
X140643300Y-35320000D01*
X65248300Y-48209900D02*
X64596100Y-48862100D01*
X141330000Y-27650000D02*
X140553300Y-27650000D01*
X65248300Y-47316500D02*
X65248300Y-48209900D01*
X108184600Y-57592900D02*
X102314600Y-57592900D01*
X141206700Y-35320000D02*
X140643300Y-35320000D01*
X141330000Y-34050000D02*
X141330000Y-34350000D01*
X107302300Y-19740000D02*
X94700000Y-19740000D01*
X61248300Y-86263100D02*
X61248300Y-86000000D01*
X66533500Y-47198300D02*
X65366500Y-47198300D01*
X141895000Y-35320000D02*
X141206700Y-35320000D01*
X101626700Y-63000000D02*
X91950000Y-63000000D01*
X140553300Y-26770000D02*
X140553300Y-27650000D01*
X100700000Y-56905000D02*
X95300000Y-56905000D01*
X141330000Y-34350000D02*
X140553300Y-34350000D01*
D37*
%TO.N,+24V_RAW*%
X7460000Y-23200000D02*
X7460000Y-26200000D01*
X7460000Y-18000000D02*
X7460000Y-23200000D01*
D36*
X10263400Y-16598299D02*
X8861700Y-18000000D01*
X18196600Y-16598299D02*
X10263400Y-16598299D01*
X21000000Y-18000000D02*
X19598300Y-18000000D01*
X19598300Y-18000000D02*
X18196600Y-16598299D01*
X7460000Y-18000000D02*
X8861700Y-18000000D01*
D37*
%TO.N,+24V_FUSED*%
X7460000Y-48000000D02*
X7460000Y-43000000D01*
D36*
X31978300Y-48000000D02*
X30576600Y-49401700D01*
D39*
X22000000Y-72000000D02*
X25000000Y-72000000D01*
D36*
X7460000Y-48000000D02*
X8861700Y-48000000D01*
X30576600Y-49401700D02*
X10263400Y-49401700D01*
X33080000Y-48000000D02*
X31978300Y-48000000D01*
X10263400Y-49401700D02*
X8861700Y-48000000D01*
%TO.N,FAN_NEG*%
X43798300Y-48000000D02*
X43798300Y-47023600D01*
X22920000Y-48000000D02*
X24021700Y-48000000D01*
D37*
X12540000Y-48000000D02*
X12540000Y-43000000D01*
D36*
X45000000Y-48000000D02*
X43798300Y-48000000D01*
X25252300Y-46769400D02*
X24021700Y-48000000D01*
X43544100Y-46769400D02*
X25252300Y-46769400D01*
X43798300Y-47023600D02*
X43544100Y-46769400D01*
X22920000Y-48000000D02*
X12540000Y-48000000D01*
%TO.N,+5V*%
X124156600Y-81901700D02*
X75795400Y-81901700D01*
X62331400Y-84157200D02*
X60751700Y-85736900D01*
X47000000Y-72000000D02*
X58685200Y-72000000D01*
X75795400Y-81901700D02*
X70300000Y-81901700D01*
X60050000Y-86000000D02*
X60751700Y-86000000D01*
D38*
X50000000Y-72000000D02*
X47000000Y-72000000D01*
D36*
X137460000Y-70000000D02*
X136058300Y-70000000D01*
X66501700Y-84157200D02*
X62331400Y-84157200D01*
X58685200Y-72000000D02*
X66501700Y-79816500D01*
X66501700Y-79816500D02*
X66501700Y-84157200D01*
X70300000Y-80800000D02*
X70300000Y-81901700D01*
X136058300Y-70000000D02*
X124156600Y-81901700D01*
X75634100Y-86801700D02*
X69146200Y-86801700D01*
X75795400Y-81901700D02*
X75795400Y-86640400D01*
X75795400Y-86640400D02*
X75634100Y-86801700D01*
X60751700Y-85736900D02*
X60751700Y-86000000D01*
X69146200Y-86801700D02*
X66501700Y-84157200D01*
%TO.N,+3V3*%
X68000000Y-75700000D02*
X68000000Y-74248300D01*
X76250000Y-21010000D02*
X75300000Y-21010000D01*
X64993399Y-24344100D02*
X64993399Y-21546600D01*
X90050000Y-57418300D02*
X94373300Y-53095000D01*
X54050000Y-32812500D02*
X54050000Y-36000000D01*
X68000000Y-80800000D02*
X68000000Y-75700000D01*
X90050000Y-63000000D02*
X89348300Y-63000000D01*
X68000000Y-80800000D02*
X68000000Y-81901700D01*
X95300000Y-53095000D02*
X94373300Y-53095000D01*
X75300000Y-21010000D02*
X65530000Y-21010000D01*
X90050000Y-57418300D02*
X75029500Y-57418300D01*
X75050000Y-86000000D02*
X72098300Y-86000000D01*
X54050000Y-32812500D02*
X56525000Y-32812500D01*
X64993399Y-21546600D02*
X65530000Y-21010000D01*
D40*
X72000000Y-76000000D02*
X68000000Y-75700000D01*
D36*
X90050000Y-63000000D02*
X90050000Y-57418300D01*
X56525000Y-32812500D02*
X64993399Y-24344100D01*
X68000000Y-74248300D02*
X78100000Y-74248300D01*
X78100000Y-74248300D02*
X89348300Y-63000000D01*
X72098300Y-86000000D02*
X68000000Y-81901700D01*
X54050000Y-32000000D02*
X54050000Y-32812500D01*
%TO.N,FAN_PWM*%
X104290700Y-25185100D02*
X101385600Y-22280000D01*
X108059700Y-25185100D02*
X104290700Y-25185100D01*
X64751700Y-48000000D02*
X64751700Y-47386500D01*
X64751700Y-47386500D02*
X68173000Y-43965200D01*
X101385600Y-22280000D02*
X94700000Y-22280000D01*
X68173000Y-43965200D02*
X73241500Y-43965200D01*
X93750000Y-22280000D02*
X94700000Y-22280000D01*
X64050000Y-48000000D02*
X64751700Y-48000000D01*
%TO.N,FAN_GATE*%
X64751700Y-52000000D02*
X64751700Y-49198300D01*
X64050000Y-52000000D02*
X64751700Y-52000000D01*
X46460000Y-52000000D02*
X64050000Y-52000000D01*
X42460000Y-48000000D02*
X46460000Y-52000000D01*
X64751700Y-49198300D02*
X65950000Y-48000000D01*
%TO.N,HEATER_PWM*%
X104050000Y-22945400D02*
X104050000Y-22000000D01*
X104119200Y-23014600D02*
X104050000Y-22945400D01*
X93750000Y-21010000D02*
X94700000Y-21010000D01*
X103348300Y-22000000D02*
X102358300Y-21010000D01*
X104050000Y-22000000D02*
X103348300Y-22000000D01*
X102358300Y-21010000D02*
X94700000Y-21010000D01*
%TO.N,SSR_GATE*%
X117050000Y-70950000D02*
X117050000Y-70248300D01*
X110259500Y-25911200D02*
X110348300Y-26000000D01*
X111050000Y-26000000D02*
X110348300Y-26000000D01*
X117050000Y-70248300D02*
X116968800Y-70167100D01*
X105950000Y-22000000D02*
X106651700Y-22000000D01*
X106651700Y-22416300D02*
X110146600Y-25911200D01*
X116968800Y-70167100D02*
X116968800Y-70043900D01*
X110146600Y-25911200D02*
X110259500Y-25911200D01*
X106651700Y-22000000D02*
X106651700Y-22416300D01*
%TO.N,SSR_NEG*%
X142540000Y-70000000D02*
X141138300Y-70000000D01*
X118000000Y-69050000D02*
X118526700Y-69050000D01*
X139736600Y-68598300D02*
X141138300Y-70000000D01*
X118978400Y-68598300D02*
X139736600Y-68598300D01*
X118526700Y-69050000D02*
X118978400Y-68598300D01*
%TO.N,MAX_DO*%
X100700000Y-55635000D02*
X99773300Y-55635000D01*
X99664800Y-55743500D02*
X99773300Y-55635000D01*
X83095000Y-38450000D02*
X83614600Y-38969600D01*
X97213900Y-55743500D02*
X99664800Y-55743500D01*
X83095000Y-37500000D02*
X83095000Y-38450000D01*
%TO.N,MAX_CS*%
X84365000Y-38450000D02*
X88213000Y-42298000D01*
X88213000Y-42298000D02*
X88213000Y-50675900D01*
X88213000Y-50677500D02*
X88213000Y-50675900D01*
X100700000Y-54365000D02*
X99773300Y-54365000D01*
X96085800Y-50677500D02*
X88213000Y-50677500D01*
X84365000Y-37500000D02*
X84365000Y-38450000D01*
X99773300Y-54365000D02*
X96085800Y-50677500D01*
%TO.N,MAX_SCK*%
X90243700Y-43565400D02*
X90243700Y-44692200D01*
X85635000Y-37500000D02*
X85635000Y-38450000D01*
X85635000Y-38956700D02*
X90243700Y-43565400D01*
X100700000Y-53095000D02*
X99773300Y-53095000D01*
X91370500Y-44692200D02*
X90243700Y-44692200D01*
X85635000Y-38450000D02*
X85635000Y-38956700D01*
X99773300Y-53095000D02*
X91370500Y-44692200D01*
%TO.N,THERMO_PLUS*%
X136058300Y-52000000D02*
X133185300Y-54873000D01*
D41*
X137460000Y-52000000D02*
X137460000Y-47000000D01*
D36*
X95300000Y-54365000D02*
X96226700Y-54365000D01*
X96734700Y-54873000D02*
X96226700Y-54365000D01*
X137460000Y-52000000D02*
X136058300Y-52000000D01*
X133185300Y-54873000D02*
X96734700Y-54873000D01*
D41*
%TO.N,THERMO_MINUS*%
X142540000Y-52000000D02*
X142540000Y-47000000D01*
D36*
X96226700Y-55635000D02*
X96836900Y-56245200D01*
X96836900Y-56245200D02*
X136893100Y-56245200D01*
X95300000Y-55635000D02*
X96226700Y-55635000D01*
X136893100Y-56245200D02*
X141138300Y-52000000D01*
X142540000Y-52000000D02*
X141138300Y-52000000D01*
%TO.N,USB_VBUS*%
X141330000Y-28750000D02*
X141330000Y-28450000D01*
X141330000Y-33250000D02*
X141330000Y-33549999D01*
X141876900Y-33250000D02*
X142454100Y-32672800D01*
X142454100Y-29341400D02*
X141862700Y-28750000D01*
X142454100Y-32672800D02*
X142454100Y-29341400D01*
X141330000Y-33250000D02*
X141876900Y-33250000D01*
X141862700Y-28750000D02*
X141330000Y-28750000D01*
%TO.N,USB_DN_MCU*%
X76250000Y-34980000D02*
X75300000Y-34980000D01*
X91031000Y-34980000D02*
X76250000Y-34980000D01*
X94107700Y-38140200D02*
X92717500Y-36750000D01*
X115208100Y-38140200D02*
X94107700Y-38140200D01*
X126348300Y-27000000D02*
X115208100Y-38140200D01*
X92717500Y-36666500D02*
X91031000Y-34980000D01*
X75300000Y-34980000D02*
X66089500Y-34980000D01*
X92717500Y-36750000D02*
X92717500Y-36666500D01*
X127050000Y-27000000D02*
X126348300Y-27000000D01*
%TO.N,USB_DP_MCU*%
X87797600Y-40394700D02*
X116953600Y-40394700D01*
X76250000Y-36250000D02*
X75300000Y-36250000D01*
X73966000Y-36621900D02*
X74928100Y-36621900D01*
X77757700Y-35694000D02*
X81625500Y-35694000D01*
X116953600Y-40394700D02*
X126348300Y-31000000D01*
X127050000Y-31000000D02*
X126348300Y-31000000D01*
X74928100Y-36621900D02*
X75300000Y-36250000D01*
X77201700Y-36250000D02*
X77757700Y-35694000D01*
X76250000Y-36250000D02*
X77201700Y-36250000D01*
%TO.N,USB_DN*%
X141330000Y-31750000D02*
X140553300Y-31750000D01*
X141330000Y-31750000D02*
X142106700Y-31750000D01*
X140428300Y-31625000D02*
X140553300Y-31750000D01*
X128949999Y-27000000D02*
X137065400Y-27000000D01*
X142106700Y-30750000D02*
X142106700Y-31750000D01*
X139894100Y-31625000D02*
X140428300Y-31625000D01*
X141330000Y-30750000D02*
X142106700Y-30750000D01*
%TO.N,USB_DP*%
X140551600Y-31000000D02*
X140553300Y-31001700D01*
X141330000Y-31250000D02*
X140553300Y-31250000D01*
X128949999Y-31000000D02*
X129651700Y-31000000D01*
X140553300Y-31001700D02*
X140553300Y-31250000D01*
X129651700Y-31000000D02*
X140551600Y-31000000D01*
X140553300Y-30998300D02*
X140551600Y-31000000D01*
X140553300Y-30250000D02*
X140553300Y-30998300D01*
X141330000Y-30250000D02*
X140553300Y-30250000D01*
%TO.N,EN*%
X55950000Y-32000000D02*
X55248300Y-32000000D01*
X55248300Y-31736900D02*
X53261400Y-29750000D01*
X45250000Y-29750000D02*
X40750000Y-29750000D01*
X55248300Y-32000000D02*
X55248300Y-31736900D01*
X74982100Y-22597900D02*
X65797399Y-22597900D01*
X76250000Y-22280000D02*
X75300000Y-22280000D01*
X75300000Y-22280000D02*
X74982100Y-22597900D01*
X53261400Y-29750000D02*
X45250000Y-29750000D01*
%TO.N,BOOT*%
X57806500Y-37154800D02*
X76913000Y-37154800D01*
X77282500Y-36673100D02*
X77759900Y-36195700D01*
X55248300Y-36000000D02*
X55248300Y-36263100D01*
X55950000Y-36000000D02*
X55248300Y-36000000D01*
X45250000Y-39750000D02*
X40750000Y-39750000D01*
X94700000Y-36250000D02*
X96063000Y-37613000D01*
X55950000Y-36000000D02*
X56651700Y-36000000D01*
X55248300Y-36263100D02*
X51761400Y-39750000D01*
X77759900Y-36195700D02*
X90351200Y-36195700D01*
X76913000Y-37154800D02*
X77282500Y-36785300D01*
X93750000Y-36250000D02*
X94700000Y-36250000D01*
X77282500Y-36785300D02*
X77282500Y-36673100D01*
X96063000Y-37613000D02*
X96317800Y-37613000D01*
X56651700Y-36000000D02*
X57806500Y-37154800D01*
X51761400Y-39750000D02*
X45250000Y-39750000D01*
%TO.N,USB_CC1*%
X129751700Y-35736900D02*
X133238599Y-32250000D01*
X133238599Y-32250000D02*
X141330000Y-32250000D01*
X129050000Y-36000000D02*
X129751700Y-36000000D01*
X129751700Y-36000000D02*
X129751700Y-35736900D01*
%TO.N,USB_CC2*%
X129050000Y-40000000D02*
X128348300Y-40000000D01*
X128223600Y-39875300D02*
X128348300Y-40000000D01*
X129279500Y-29250000D02*
X128223600Y-30305900D01*
X128223600Y-30305900D02*
X128223600Y-39875300D01*
X141330000Y-29250000D02*
X129279500Y-29250000D01*
%TO.N,GPIO4*%
X65570700Y-23550000D02*
X75300000Y-23550000D01*
X76250000Y-23550000D02*
X75300000Y-23550000D01*
%TO.N,GPIO5*%
X75300000Y-24820000D02*
X66906000Y-24820000D01*
X76250000Y-24820000D02*
X75300000Y-24820000D01*
%TO.N,GPIO6*%
X75300000Y-26090000D02*
X64652300Y-26090000D01*
X64652300Y-26090000D02*
X64522999Y-25960700D01*
X76250000Y-26090000D02*
X75300000Y-26090000D01*
%TO.N,GPIO7*%
X76250000Y-27360000D02*
X75300000Y-27360000D01*
X65137600Y-27360000D02*
X75300000Y-27360000D01*
%TO.N,GPIO15*%
X76250000Y-28630000D02*
X75300000Y-28630000D01*
X75300000Y-28630000D02*
X68141200Y-28630000D01*
X68141200Y-28630000D02*
X67128800Y-29642400D01*
X67128800Y-29642400D02*
X67128800Y-30392600D01*
%TO.N,GPIO16*%
X76250000Y-29900000D02*
X75300000Y-29900000D01*
X75300000Y-29900000D02*
X67632100Y-29900000D01*
%TO.N,GPIO17*%
X75300000Y-31170000D02*
X73606700Y-32863300D01*
X73606700Y-32863300D02*
X64465700Y-32863300D01*
X76250000Y-31170000D02*
X75300000Y-31170000D01*
%TO.N,GPIO18*%
X76250000Y-32439999D02*
X75300000Y-32439999D01*
X74372500Y-33367500D02*
X67275300Y-33367500D01*
X75300000Y-32439999D02*
X74372500Y-33367500D01*
%TO.N,GPIO8*%
X76250000Y-33710000D02*
X75300000Y-33710000D01*
X75061600Y-33948400D02*
X63902900Y-33948400D01*
X75300000Y-33710000D02*
X75061600Y-33948400D01*
%TO.N,GPIO3*%
X78015000Y-37500000D02*
X78015000Y-38280000D01*
X78015000Y-38280000D02*
X73988600Y-38280000D01*
%TO.N,GPIO46*%
X78707700Y-39010800D02*
X78724200Y-39010800D01*
X79285000Y-37500000D02*
X79285000Y-38450000D01*
X78724200Y-39010800D02*
X79285000Y-38450000D01*
%TO.N,GPIO9*%
X80555000Y-37500000D02*
X80555000Y-38450000D01*
X78517600Y-39941700D02*
X79063300Y-39941700D01*
X79063300Y-39941700D02*
X80555000Y-38450000D01*
%TO.N,GPIO10*%
X81825000Y-37500000D02*
X81825000Y-38450000D01*
X81825000Y-39156500D02*
X81825000Y-38450000D01*
%TO.N,GPIO14*%
X86905000Y-38450000D02*
X86905000Y-38792600D01*
X86905000Y-37500000D02*
X86905000Y-38450000D01*
X86905000Y-38792600D02*
X87259100Y-39146700D01*
%TO.N,GPIO21*%
X88175000Y-37500000D02*
X88175000Y-38450000D01*
X88175000Y-39138500D02*
X88175000Y-38450000D01*
%TO.N,GPIO47*%
X89445000Y-38898200D02*
X89692900Y-39146100D01*
X89445000Y-37500000D02*
X89445000Y-38450000D01*
X89445000Y-38450000D02*
X89445000Y-38898200D01*
%TO.N,GPIO48*%
X92452200Y-39713700D02*
X91978700Y-39713700D01*
X91978700Y-39713700D02*
X90715000Y-38450000D01*
X90715000Y-37500000D02*
X90715000Y-38450000D01*
%TO.N,GPIO45*%
X91985000Y-38450000D02*
X93215500Y-39680500D01*
X91985000Y-37500000D02*
X91985000Y-38450000D01*
X93215500Y-39680500D02*
X96312300Y-39680500D01*
%TO.N,GPIO35*%
X94700000Y-34980000D02*
X104843100Y-34980000D01*
X93750000Y-34980000D02*
X94700000Y-34980000D01*
%TO.N,GPIO36*%
X93750000Y-33710000D02*
X94700000Y-33710000D01*
X96388300Y-33710000D02*
X94700000Y-33710000D01*
%TO.N,GPIO37*%
X104326900Y-32439999D02*
X94200000Y-32439999D01*
X94200000Y-32439999D02*
X93750000Y-32439999D01*
%TO.N,GPIO38*%
X93750000Y-31170000D02*
X94700000Y-31170000D01*
X94700000Y-31170000D02*
X106634400Y-31170000D01*
X106634400Y-31170000D02*
X108126000Y-32661600D01*
%TO.N,GPIO39*%
X94700000Y-29900000D02*
X94886500Y-30086500D01*
X93750000Y-29900000D02*
X94700000Y-29900000D01*
X94886500Y-30086500D02*
X104176600Y-30086500D01*
%TO.N,GPIO40*%
X94700000Y-28630000D02*
X95654800Y-29584800D01*
X93750000Y-28630000D02*
X94700000Y-28630000D01*
X95654800Y-29584800D02*
X103655200Y-29584800D01*
%TO.N,GPIO41*%
X94700000Y-27360000D02*
X96033900Y-28693900D01*
X93750000Y-27360000D02*
X94700000Y-27360000D01*
X96033900Y-28693900D02*
X106363100Y-28693900D01*
%TO.N,GPIO42*%
X106640600Y-26090000D02*
X108142200Y-27591600D01*
X93750000Y-26090000D02*
X94700000Y-26090000D01*
X94700000Y-26090000D02*
X106640600Y-26090000D01*
%TO.N,RXD0_GPIO44*%
X95490200Y-25610200D02*
X106881500Y-25610200D01*
X106881500Y-25610200D02*
X108912500Y-27641200D01*
X94700000Y-24820000D02*
X95490200Y-25610200D01*
X108912500Y-27641200D02*
X108912500Y-30295600D01*
X93750000Y-24820000D02*
X94700000Y-24820000D01*
%TO.N,TXD0_GPIO43*%
X94700000Y-23550000D02*
X94787100Y-23637100D01*
X94787100Y-23637100D02*
X101987500Y-23637100D01*
X93750000Y-23550000D02*
X94700000Y-23550000D01*
%TD*%
M02*
