%TF.GenerationSoftware,KiCad,Pcbnew,9.0.8+dfsg-1*%
%TF.CreationDate,2026-07-05T08:02:23+02:00*%
%TF.ProjectId,CoffeeRoast-Control-RevA,436f6666-6565-4526-9f61-73742d436f6e,A.1-draft*%
%TF.SameCoordinates,Original*%
%TF.FileFunction,Soldermask,Bot*%
%TF.FilePolarity,Negative*%
%FSLAX46Y46*%
G04 Gerber Fmt 4.6, Leading zero omitted, Abs format (unit mm)*
G04 Created by KiCad (PCBNEW 9.0.8+dfsg-1) date 2026-07-05 08:02:23*
%MOMM*%
%LPD*%
G01*
G04 APERTURE LIST*
G04 Aperture macros list*
%AMRoundRect*
0 Rectangle with rounded corners*
0 $1 Rounding radius*
0 $2 $3 $4 $5 $6 $7 $8 $9 X,Y pos of 4 corners*
0 Add a 4 corners polygon primitive as box body*
4,1,4,$2,$3,$4,$5,$6,$7,$8,$9,$2,$3,0*
0 Add four circle primitives for the rounded corners*
1,1,$1+$1,$2,$3*
1,1,$1+$1,$4,$5*
1,1,$1+$1,$6,$7*
1,1,$1+$1,$8,$9*
0 Add four rect primitives between the rounded corners*
20,1,$1+$1,$2,$3,$4,$5,0*
20,1,$1+$1,$4,$5,$6,$7,0*
20,1,$1+$1,$6,$7,$8,$9,0*
20,1,$1+$1,$8,$9,$2,$3,0*%
G04 Aperture macros list end*
%ADD10C,0.650000*%
%ADD11O,2.100000X1.000000*%
%ADD12O,1.600000X1.000000*%
%ADD13R,2.400000X2.400000*%
%ADD14R,1.600000X1.600000*%
%ADD15R,2.000000X2.000000*%
%ADD16R,1.800000X1.800000*%
%ADD17C,2.000000*%
%ADD18RoundRect,0.287500X-0.387500X-0.287500X0.387500X-0.287500X0.387500X0.287500X-0.387500X0.287500X0*%
G04 APERTURE END LIST*
D10*
%TO.C,J5*%
X142395000Y-33890000D03*
X142395000Y-28110000D03*
D11*
X141895000Y-35320000D03*
D12*
X146075000Y-35320000D03*
D11*
X141895000Y-26680000D03*
D12*
X146075000Y-26680000D03*
%TD*%
D13*
%TO.C,J4*%
X137460000Y-52000000D03*
X142540000Y-52000000D03*
%TD*%
D14*
%TO.C,SW2*%
X40750000Y-39750000D03*
X45250000Y-39750000D03*
X40750000Y-44250000D03*
X45250000Y-44250000D03*
%TD*%
%TO.C,SW1*%
X40750000Y-29750000D03*
X45250000Y-29750000D03*
X40750000Y-34250000D03*
X45250000Y-34250000D03*
%TD*%
D13*
%TO.C,J2*%
X7460000Y-48000000D03*
X12540000Y-48000000D03*
%TD*%
%TO.C,J1*%
X7460000Y-18000000D03*
X12540000Y-18000000D03*
%TD*%
%TO.C,F1*%
X21000000Y-18000000D03*
X43000000Y-18000000D03*
%TD*%
D15*
%TO.C,Q1*%
X42460000Y-48000000D03*
X45000000Y-48000000D03*
X47540000Y-48000000D03*
%TD*%
%TO.C,U4*%
X25000000Y-72000000D03*
X25000000Y-84000000D03*
X47000000Y-72000000D03*
X47000000Y-84000000D03*
%TD*%
D16*
%TO.C,D1*%
X22920000Y-48000000D03*
X33080000Y-48000000D03*
%TD*%
D17*
%TO.C,C4*%
X7460000Y-23200000D03*
X12540000Y-23200000D03*
%TD*%
D13*
%TO.C,J3*%
X137460000Y-70000000D03*
X142540000Y-70000000D03*
%TD*%
D18*
%TO.C,PADESP22*%
X90780000Y-58500000D03*
%TD*%
%TO.C,PADESP16*%
X75540000Y-58500000D03*
%TD*%
%TO.C,PADESP35*%
X108000000Y-34200000D03*
%TD*%
%TO.C,PADESP24*%
X95860000Y-58500000D03*
%TD*%
%TO.C,PADESP11*%
X62500000Y-46900000D03*
%TD*%
%TO.C,PADESP20*%
X85700000Y-58500000D03*
%TD*%
%TO.C,PADESP37*%
X108000000Y-29120000D03*
%TD*%
%TO.C,PADESP6*%
X62500000Y-34200000D03*
%TD*%
%TO.C,PADESP9*%
X62500000Y-41820000D03*
%TD*%
%TO.C,PADESP21*%
X88240000Y-58500000D03*
%TD*%
%TO.C,PADESP3*%
X62500000Y-26580000D03*
%TD*%
%TO.C,PADESP33*%
X108000000Y-39280000D03*
%TD*%
%TO.C,PADESP7*%
X62500000Y-36740000D03*
%TD*%
%TO.C,PADESP1*%
X62500000Y-21500000D03*
%TD*%
%TO.C,PADESP31*%
X108000000Y-44360000D03*
%TD*%
%TO.C,PADESP29*%
X108250000Y-49440000D03*
%TD*%
%TO.C,PADESP27*%
X108000000Y-54520000D03*
%TD*%
%TO.C,PADESP10*%
X62500000Y-44360000D03*
%TD*%
%TO.C,PADESP40*%
X108000000Y-21500000D03*
%TD*%
%TO.C,PADESP34*%
X108000000Y-36740000D03*
%TD*%
%TO.C,PADESP25*%
X98400000Y-58500000D03*
%TD*%
%TO.C,PADESP39*%
X108000000Y-24040000D03*
%TD*%
%TO.C,PADESP12*%
X62500000Y-49440000D03*
%TD*%
%TO.C,PADESP23*%
X93320000Y-58500000D03*
%TD*%
%TO.C,PADESP32*%
X108000000Y-41820000D03*
%TD*%
%TO.C,PADESP5*%
X62500000Y-31660000D03*
%TD*%
%TO.C,PADESP2*%
X62500000Y-24040000D03*
%TD*%
%TO.C,PADESP4*%
X62500000Y-29120000D03*
%TD*%
%TO.C,PADESP26*%
X100940000Y-58500000D03*
%TD*%
%TO.C,PADESP18*%
X80620000Y-58500000D03*
%TD*%
%TO.C,PADESP38*%
X108000000Y-26580000D03*
%TD*%
%TO.C,PADESP8*%
X62500000Y-39280000D03*
%TD*%
%TO.C,PADESP14*%
X62500000Y-54520000D03*
%TD*%
%TO.C,PADESP36*%
X108000000Y-31660000D03*
%TD*%
%TO.C,PADESP28*%
X108000000Y-51980000D03*
%TD*%
%TO.C,PADESP15*%
X73000000Y-58500000D03*
%TD*%
%TO.C,PADESP30*%
X108000000Y-46900000D03*
%TD*%
%TO.C,PADESP19*%
X83160000Y-58500000D03*
%TD*%
%TO.C,PADESP17*%
X78080000Y-58500000D03*
%TD*%
%TO.C,PADESP13*%
X62500000Y-51980000D03*
%TD*%
M02*
