%TF.GenerationSoftware,KiCad,Pcbnew,9.0.8+dfsg-1*%
%TF.CreationDate,2026-07-05T07:23:31+02:00*%
%TF.ProjectId,CoffeeRoast-Control-RevA,436f6666-6565-4526-9f61-73742d436f6e,A.1-draft*%
%TF.SameCoordinates,Original*%
%TF.FileFunction,Paste,Top*%
%TF.FilePolarity,Positive*%
%FSLAX46Y46*%
G04 Gerber Fmt 4.6, Leading zero omitted, Abs format (unit mm)*
G04 Created by KiCad (PCBNEW 9.0.8+dfsg-1) date 2026-07-05 07:23:31*
%MOMM*%
%LPD*%
G01*
G04 APERTURE LIST*
%ADD10R,1.150000X0.300000*%
%ADD11R,1.000000X1.200000*%
%ADD12R,0.900000X0.900000*%
%ADD13R,1.500000X0.900000*%
%ADD14R,0.900000X1.500000*%
%ADD15R,1.450000X0.600000*%
%ADD16R,0.650000X0.650000*%
%ADD17R,2.000000X1.400000*%
%ADD18R,1.200000X1.800000*%
%ADD19R,3.500000X2.500000*%
%ADD20R,1.200000X1.000000*%
%ADD21R,0.650000X1.000000*%
G04 APERTURE END LIST*
D10*
%TO.C,J5*%
X141330000Y-34350000D03*
X141330000Y-33550000D03*
X141330000Y-32250000D03*
X141330000Y-31250000D03*
X141330000Y-30750000D03*
X141330000Y-29750000D03*
X141330000Y-28450000D03*
X141330000Y-27650000D03*
X141330000Y-27950000D03*
X141330000Y-28750000D03*
X141330000Y-29250000D03*
X141330000Y-30250000D03*
X141330000Y-31750000D03*
X141330000Y-32750000D03*
X141330000Y-33250000D03*
X141330000Y-34050000D03*
%TD*%
D11*
%TO.C,R8*%
X127050000Y-31000000D03*
X128949999Y-31000000D03*
%TD*%
%TO.C,C2*%
X75050000Y-86000000D03*
X76950000Y-86000000D03*
%TD*%
D12*
%TO.C,U1*%
X82100000Y-26060000D03*
X82100000Y-27460000D03*
X82100000Y-28860000D03*
X83500000Y-26060000D03*
X83500000Y-27460000D03*
X83500000Y-28860000D03*
X84900000Y-26060000D03*
X84900000Y-27460000D03*
X84900000Y-28860000D03*
D13*
X76250000Y-19740000D03*
X76250000Y-21010000D03*
X76250000Y-22280000D03*
X76250000Y-23550000D03*
X76250000Y-24820000D03*
X76250000Y-26090000D03*
X76250000Y-27360000D03*
X76250000Y-28630000D03*
X76250000Y-29900000D03*
X76250000Y-31170000D03*
X76250000Y-32440000D03*
X76250000Y-33710000D03*
X76250000Y-34980000D03*
X76250000Y-36250000D03*
D14*
X78015000Y-37500000D03*
X79285000Y-37500000D03*
X80555000Y-37500000D03*
X81825000Y-37500000D03*
X83095000Y-37500000D03*
X84365000Y-37500000D03*
X85635000Y-37500000D03*
X86905000Y-37500000D03*
X88175000Y-37500000D03*
X89445000Y-37500000D03*
X90715000Y-37500000D03*
X91985000Y-37500000D03*
D13*
X93750000Y-36250000D03*
X93750000Y-34980000D03*
X93750000Y-33710000D03*
X93750000Y-32440000D03*
X93750000Y-31170000D03*
X93750000Y-29900000D03*
X93750000Y-28630000D03*
X93750000Y-27360000D03*
X93750000Y-26090000D03*
X93750000Y-24820000D03*
X93750000Y-23550000D03*
X93750000Y-22280000D03*
X93750000Y-21010000D03*
X93750000Y-19740000D03*
%TD*%
D11*
%TO.C,R1*%
X64050000Y-48000000D03*
X65950000Y-48000000D03*
%TD*%
%TO.C,C3*%
X90050000Y-63000000D03*
X91950000Y-63000000D03*
%TD*%
D15*
%TO.C,U2*%
X95300000Y-56905000D03*
X95300000Y-55635000D03*
X95300000Y-54365000D03*
X95300000Y-53095000D03*
X100700000Y-53095000D03*
X100700000Y-54365000D03*
X100700000Y-55635000D03*
X100700000Y-56905000D03*
%TD*%
D11*
%TO.C,R11*%
X129050000Y-40000000D03*
X130949999Y-40000000D03*
%TD*%
D16*
%TO.C,U5*%
X133000000Y-27000000D03*
X133000000Y-31000000D03*
X133000000Y-26000000D03*
X134400000Y-26000000D03*
X134400000Y-31000000D03*
X134400000Y-27000000D03*
%TD*%
D11*
%TO.C,R4*%
X111050000Y-26000000D03*
X112950000Y-26000000D03*
%TD*%
D17*
%TO.C,D3*%
X7460000Y-43000000D03*
X12540000Y-43000000D03*
%TD*%
D11*
%TO.C,R2*%
X64050000Y-52000000D03*
X65950000Y-52000000D03*
%TD*%
D18*
%TO.C,U3*%
X65700000Y-80800000D03*
D19*
X68000000Y-75700000D03*
D18*
X68000000Y-80800000D03*
X70300000Y-80800000D03*
%TD*%
D11*
%TO.C,R6*%
X54050000Y-36000000D03*
X55950000Y-36000000D03*
%TD*%
%TO.C,R10*%
X129050000Y-36000000D03*
X130949999Y-36000000D03*
%TD*%
%TO.C,R3*%
X104050000Y-22000000D03*
X105950000Y-22000000D03*
%TD*%
%TO.C,C1*%
X60050000Y-86000000D03*
X61950000Y-86000000D03*
%TD*%
%TO.C,R5*%
X54050000Y-32000000D03*
X55950000Y-32000000D03*
%TD*%
D20*
%TO.C,C5*%
X137460000Y-47000000D03*
X142540000Y-47000000D03*
%TD*%
D21*
%TO.C,Q2*%
X117050000Y-70950000D03*
X118950000Y-70950000D03*
X118000000Y-69050000D03*
%TD*%
D11*
%TO.C,R7*%
X127050000Y-27000000D03*
X128949999Y-27000000D03*
%TD*%
D17*
%TO.C,D2*%
X7460000Y-26200000D03*
X12540000Y-26200000D03*
%TD*%
M02*
