%TF.GenerationSoftware,KiCad,Pcbnew,9.0.8+dfsg-1*%
%TF.CreationDate,2026-07-05T07:10:09+02:00*%
%TF.ProjectId,CoffeeRoast-Control-RevA,436f6666-6565-4526-9f61-73742d436f6e,A.1-draft*%
%TF.SameCoordinates,Original*%
%TF.FileFunction,Legend,Top*%
%TF.FilePolarity,Positive*%
%FSLAX46Y46*%
G04 Gerber Fmt 4.6, Leading zero omitted, Abs format (unit mm)*
G04 Created by KiCad (PCBNEW 9.0.8+dfsg-1) date 2026-07-05 07:10:09*
%MOMM*%
%LPD*%
G01*
G04 APERTURE LIST*
G04 Aperture macros list*
%AMRoundRect*
0 Rectangle with rounded corners*
0 $1 Rounding radius*
0 $2 $3 $4 $5 $6 $7 $8 $9 X,Y pos of 4 corners*
0 Add a 4 corners polygon primitive as box body*
4,1,4,$2,$3,$4,$5,$6,$7,$8,$9,$2,$3,0*
0 Add four circle primitives for the rounded corners*
1,1,$1+$1,$2,$3*
1,1,$1+$1,$4,$5*
1,1,$1+$1,$6,$7*
1,1,$1+$1,$8,$9*
0 Add four rect primitives between the rounded corners*
20,1,$1+$1,$2,$3,$4,$5,0*
20,1,$1+$1,$4,$5,$6,$7,0*
20,1,$1+$1,$6,$7,$8,$9,0*
20,1,$1+$1,$8,$9,$2,$3,0*%
G04 Aperture macros list end*
%ADD10C,0.100000*%
%ADD11C,0.096000*%
%ADD12C,0.144000*%
%ADD13C,0.120000*%
%ADD14C,0.150000*%
%ADD15RoundRect,0.085000X-0.095000X-0.085000X0.095000X-0.085000X0.095000X0.085000X-0.095000X0.085000X0*%
%ADD16RoundRect,0.130000X-0.130000X-0.145000X0.130000X-0.145000X0.130000X0.145000X-0.130000X0.145000X0*%
%ADD17C,1.800000*%
%ADD18C,0.650000*%
%ADD19R,1.150000X0.300000*%
%ADD20O,2.100000X1.000000*%
%ADD21O,1.600000X1.000000*%
%ADD22R,2.400000X2.400000*%
%ADD23RoundRect,0.130000X-0.145000X-0.130000X0.145000X-0.130000X0.145000X0.130000X-0.145000X0.130000X0*%
%ADD24R,1.000000X1.200000*%
%ADD25R,1.600000X1.600000*%
%ADD26R,1.500000X0.900000*%
%ADD27R,0.900000X1.500000*%
%ADD28C,0.600000*%
%ADD29R,3.900000X3.900000*%
%ADD30R,2.000000X2.000000*%
%ADD31R,1.450000X0.600000*%
%ADD32R,0.650000X0.650000*%
%ADD33R,2.000000X1.400000*%
%ADD34RoundRect,0.075000X-0.075000X-0.115000X0.075000X-0.115000X0.075000X0.115000X-0.075000X0.115000X0*%
%ADD35R,1.200000X1.800000*%
%ADD36R,3.500000X2.500000*%
%ADD37R,1.800000X1.800000*%
%ADD38R,1.200000X1.000000*%
%ADD39R,0.650000X1.000000*%
%ADD40C,2.000000*%
G04 APERTURE END LIST*
D10*
X38803572Y-42291764D02*
X39232144Y-42291764D01*
X39017858Y-43041764D02*
X39017858Y-42291764D01*
X39482144Y-43041764D02*
X39482144Y-42291764D01*
X39482144Y-42291764D02*
X39767858Y-42291764D01*
X39767858Y-42291764D02*
X39839287Y-42327478D01*
X39839287Y-42327478D02*
X39875001Y-42363192D01*
X39875001Y-42363192D02*
X39910715Y-42434621D01*
X39910715Y-42434621D02*
X39910715Y-42541764D01*
X39910715Y-42541764D02*
X39875001Y-42613192D01*
X39875001Y-42613192D02*
X39839287Y-42648907D01*
X39839287Y-42648907D02*
X39767858Y-42684621D01*
X39767858Y-42684621D02*
X39482144Y-42684621D01*
X40232144Y-42648907D02*
X40482144Y-42648907D01*
X40589287Y-43041764D02*
X40232144Y-43041764D01*
X40232144Y-43041764D02*
X40232144Y-42291764D01*
X40232144Y-42291764D02*
X40589287Y-42291764D01*
X40875001Y-43006050D02*
X40982144Y-43041764D01*
X40982144Y-43041764D02*
X41160715Y-43041764D01*
X41160715Y-43041764D02*
X41232144Y-43006050D01*
X41232144Y-43006050D02*
X41267858Y-42970335D01*
X41267858Y-42970335D02*
X41303572Y-42898907D01*
X41303572Y-42898907D02*
X41303572Y-42827478D01*
X41303572Y-42827478D02*
X41267858Y-42756050D01*
X41267858Y-42756050D02*
X41232144Y-42720335D01*
X41232144Y-42720335D02*
X41160715Y-42684621D01*
X41160715Y-42684621D02*
X41017858Y-42648907D01*
X41017858Y-42648907D02*
X40946429Y-42613192D01*
X40946429Y-42613192D02*
X40910715Y-42577478D01*
X40910715Y-42577478D02*
X40875001Y-42506050D01*
X40875001Y-42506050D02*
X40875001Y-42434621D01*
X40875001Y-42434621D02*
X40910715Y-42363192D01*
X40910715Y-42363192D02*
X40946429Y-42327478D01*
X40946429Y-42327478D02*
X41017858Y-42291764D01*
X41017858Y-42291764D02*
X41196429Y-42291764D01*
X41196429Y-42291764D02*
X41303572Y-42327478D01*
X41625001Y-43041764D02*
X41625001Y-42291764D01*
X41625001Y-42291764D02*
X41910715Y-42291764D01*
X41910715Y-42291764D02*
X41982144Y-42327478D01*
X41982144Y-42327478D02*
X42017858Y-42363192D01*
X42017858Y-42363192D02*
X42053572Y-42434621D01*
X42053572Y-42434621D02*
X42053572Y-42541764D01*
X42053572Y-42541764D02*
X42017858Y-42613192D01*
X42017858Y-42613192D02*
X41982144Y-42648907D01*
X41982144Y-42648907D02*
X41910715Y-42684621D01*
X41910715Y-42684621D02*
X41625001Y-42684621D01*
X42767858Y-43041764D02*
X42339287Y-43041764D01*
X42553572Y-43041764D02*
X42553572Y-42291764D01*
X42553572Y-42291764D02*
X42482144Y-42398907D01*
X42482144Y-42398907D02*
X42410715Y-42470335D01*
X42410715Y-42470335D02*
X42339287Y-42506050D01*
X43089287Y-42756050D02*
X43660716Y-42756050D01*
X44339287Y-42541764D02*
X44339287Y-43041764D01*
X44160715Y-42256050D02*
X43982144Y-42791764D01*
X43982144Y-42791764D02*
X44446429Y-42791764D01*
X44875001Y-42291764D02*
X44946430Y-42291764D01*
X44946430Y-42291764D02*
X45017858Y-42327478D01*
X45017858Y-42327478D02*
X45053573Y-42363192D01*
X45053573Y-42363192D02*
X45089287Y-42434621D01*
X45089287Y-42434621D02*
X45125001Y-42577478D01*
X45125001Y-42577478D02*
X45125001Y-42756050D01*
X45125001Y-42756050D02*
X45089287Y-42898907D01*
X45089287Y-42898907D02*
X45053573Y-42970335D01*
X45053573Y-42970335D02*
X45017858Y-43006050D01*
X45017858Y-43006050D02*
X44946430Y-43041764D01*
X44946430Y-43041764D02*
X44875001Y-43041764D01*
X44875001Y-43041764D02*
X44803573Y-43006050D01*
X44803573Y-43006050D02*
X44767858Y-42970335D01*
X44767858Y-42970335D02*
X44732144Y-42898907D01*
X44732144Y-42898907D02*
X44696430Y-42756050D01*
X44696430Y-42756050D02*
X44696430Y-42577478D01*
X44696430Y-42577478D02*
X44732144Y-42434621D01*
X44732144Y-42434621D02*
X44767858Y-42363192D01*
X44767858Y-42363192D02*
X44803573Y-42327478D01*
X44803573Y-42327478D02*
X44875001Y-42291764D01*
X46017859Y-42648907D02*
X46267859Y-42648907D01*
X46375002Y-43041764D02*
X46017859Y-43041764D01*
X46017859Y-43041764D02*
X46017859Y-42291764D01*
X46017859Y-42291764D02*
X46375002Y-42291764D01*
X46660716Y-43006050D02*
X46767859Y-43041764D01*
X46767859Y-43041764D02*
X46946430Y-43041764D01*
X46946430Y-43041764D02*
X47017859Y-43006050D01*
X47017859Y-43006050D02*
X47053573Y-42970335D01*
X47053573Y-42970335D02*
X47089287Y-42898907D01*
X47089287Y-42898907D02*
X47089287Y-42827478D01*
X47089287Y-42827478D02*
X47053573Y-42756050D01*
X47053573Y-42756050D02*
X47017859Y-42720335D01*
X47017859Y-42720335D02*
X46946430Y-42684621D01*
X46946430Y-42684621D02*
X46803573Y-42648907D01*
X46803573Y-42648907D02*
X46732144Y-42613192D01*
X46732144Y-42613192D02*
X46696430Y-42577478D01*
X46696430Y-42577478D02*
X46660716Y-42506050D01*
X46660716Y-42506050D02*
X46660716Y-42434621D01*
X46660716Y-42434621D02*
X46696430Y-42363192D01*
X46696430Y-42363192D02*
X46732144Y-42327478D01*
X46732144Y-42327478D02*
X46803573Y-42291764D01*
X46803573Y-42291764D02*
X46982144Y-42291764D01*
X46982144Y-42291764D02*
X47089287Y-42327478D01*
X47410716Y-43041764D02*
X47410716Y-42291764D01*
X47410716Y-42291764D02*
X47696430Y-42291764D01*
X47696430Y-42291764D02*
X47767859Y-42327478D01*
X47767859Y-42327478D02*
X47803573Y-42363192D01*
X47803573Y-42363192D02*
X47839287Y-42434621D01*
X47839287Y-42434621D02*
X47839287Y-42541764D01*
X47839287Y-42541764D02*
X47803573Y-42613192D01*
X47803573Y-42613192D02*
X47767859Y-42648907D01*
X47767859Y-42648907D02*
X47696430Y-42684621D01*
X47696430Y-42684621D02*
X47410716Y-42684621D01*
X48089287Y-42291764D02*
X48553573Y-42291764D01*
X48553573Y-42291764D02*
X48303573Y-42577478D01*
X48303573Y-42577478D02*
X48410716Y-42577478D01*
X48410716Y-42577478D02*
X48482145Y-42613192D01*
X48482145Y-42613192D02*
X48517859Y-42648907D01*
X48517859Y-42648907D02*
X48553573Y-42720335D01*
X48553573Y-42720335D02*
X48553573Y-42898907D01*
X48553573Y-42898907D02*
X48517859Y-42970335D01*
X48517859Y-42970335D02*
X48482145Y-43006050D01*
X48482145Y-43006050D02*
X48410716Y-43041764D01*
X48410716Y-43041764D02*
X48196430Y-43041764D01*
X48196430Y-43041764D02*
X48125002Y-43006050D01*
X48125002Y-43006050D02*
X48089287Y-42970335D01*
X48839288Y-42363192D02*
X48875002Y-42327478D01*
X48875002Y-42327478D02*
X48946431Y-42291764D01*
X48946431Y-42291764D02*
X49125002Y-42291764D01*
X49125002Y-42291764D02*
X49196431Y-42327478D01*
X49196431Y-42327478D02*
X49232145Y-42363192D01*
X49232145Y-42363192D02*
X49267859Y-42434621D01*
X49267859Y-42434621D02*
X49267859Y-42506050D01*
X49267859Y-42506050D02*
X49232145Y-42613192D01*
X49232145Y-42613192D02*
X48803573Y-43041764D01*
X48803573Y-43041764D02*
X49267859Y-43041764D01*
X50482146Y-43041764D02*
X50482146Y-42291764D01*
X50482146Y-43006050D02*
X50410717Y-43041764D01*
X50410717Y-43041764D02*
X50267860Y-43041764D01*
X50267860Y-43041764D02*
X50196431Y-43006050D01*
X50196431Y-43006050D02*
X50160717Y-42970335D01*
X50160717Y-42970335D02*
X50125003Y-42898907D01*
X50125003Y-42898907D02*
X50125003Y-42684621D01*
X50125003Y-42684621D02*
X50160717Y-42613192D01*
X50160717Y-42613192D02*
X50196431Y-42577478D01*
X50196431Y-42577478D02*
X50267860Y-42541764D01*
X50267860Y-42541764D02*
X50410717Y-42541764D01*
X50410717Y-42541764D02*
X50482146Y-42577478D01*
X51125002Y-43006050D02*
X51053574Y-43041764D01*
X51053574Y-43041764D02*
X50910717Y-43041764D01*
X50910717Y-43041764D02*
X50839288Y-43006050D01*
X50839288Y-43006050D02*
X50803574Y-42934621D01*
X50803574Y-42934621D02*
X50803574Y-42648907D01*
X50803574Y-42648907D02*
X50839288Y-42577478D01*
X50839288Y-42577478D02*
X50910717Y-42541764D01*
X50910717Y-42541764D02*
X51053574Y-42541764D01*
X51053574Y-42541764D02*
X51125002Y-42577478D01*
X51125002Y-42577478D02*
X51160717Y-42648907D01*
X51160717Y-42648907D02*
X51160717Y-42720335D01*
X51160717Y-42720335D02*
X50803574Y-42791764D01*
X51482145Y-43041764D02*
X51482145Y-42291764D01*
X51482145Y-42577478D02*
X51553574Y-42541764D01*
X51553574Y-42541764D02*
X51696431Y-42541764D01*
X51696431Y-42541764D02*
X51767859Y-42577478D01*
X51767859Y-42577478D02*
X51803574Y-42613192D01*
X51803574Y-42613192D02*
X51839288Y-42684621D01*
X51839288Y-42684621D02*
X51839288Y-42898907D01*
X51839288Y-42898907D02*
X51803574Y-42970335D01*
X51803574Y-42970335D02*
X51767859Y-43006050D01*
X51767859Y-43006050D02*
X51696431Y-43041764D01*
X51696431Y-43041764D02*
X51553574Y-43041764D01*
X51553574Y-43041764D02*
X51482145Y-43006050D01*
X52482145Y-42541764D02*
X52482145Y-43041764D01*
X52160716Y-42541764D02*
X52160716Y-42934621D01*
X52160716Y-42934621D02*
X52196430Y-43006050D01*
X52196430Y-43006050D02*
X52267859Y-43041764D01*
X52267859Y-43041764D02*
X52375002Y-43041764D01*
X52375002Y-43041764D02*
X52446430Y-43006050D01*
X52446430Y-43006050D02*
X52482145Y-42970335D01*
X53160716Y-42541764D02*
X53160716Y-43148907D01*
X53160716Y-43148907D02*
X53125001Y-43220335D01*
X53125001Y-43220335D02*
X53089287Y-43256050D01*
X53089287Y-43256050D02*
X53017858Y-43291764D01*
X53017858Y-43291764D02*
X52910716Y-43291764D01*
X52910716Y-43291764D02*
X52839287Y-43256050D01*
X53160716Y-43006050D02*
X53089287Y-43041764D01*
X53089287Y-43041764D02*
X52946430Y-43041764D01*
X52946430Y-43041764D02*
X52875001Y-43006050D01*
X52875001Y-43006050D02*
X52839287Y-42970335D01*
X52839287Y-42970335D02*
X52803573Y-42898907D01*
X52803573Y-42898907D02*
X52803573Y-42684621D01*
X52803573Y-42684621D02*
X52839287Y-42613192D01*
X52839287Y-42613192D02*
X52875001Y-42577478D01*
X52875001Y-42577478D02*
X52946430Y-42541764D01*
X52946430Y-42541764D02*
X53089287Y-42541764D01*
X53089287Y-42541764D02*
X53160716Y-42577478D01*
X54089287Y-42541764D02*
X54089287Y-43291764D01*
X54089287Y-42577478D02*
X54160716Y-42541764D01*
X54160716Y-42541764D02*
X54303573Y-42541764D01*
X54303573Y-42541764D02*
X54375001Y-42577478D01*
X54375001Y-42577478D02*
X54410716Y-42613192D01*
X54410716Y-42613192D02*
X54446430Y-42684621D01*
X54446430Y-42684621D02*
X54446430Y-42898907D01*
X54446430Y-42898907D02*
X54410716Y-42970335D01*
X54410716Y-42970335D02*
X54375001Y-43006050D01*
X54375001Y-43006050D02*
X54303573Y-43041764D01*
X54303573Y-43041764D02*
X54160716Y-43041764D01*
X54160716Y-43041764D02*
X54089287Y-43006050D01*
X55089287Y-43041764D02*
X55089287Y-42648907D01*
X55089287Y-42648907D02*
X55053572Y-42577478D01*
X55053572Y-42577478D02*
X54982144Y-42541764D01*
X54982144Y-42541764D02*
X54839287Y-42541764D01*
X54839287Y-42541764D02*
X54767858Y-42577478D01*
X55089287Y-43006050D02*
X55017858Y-43041764D01*
X55017858Y-43041764D02*
X54839287Y-43041764D01*
X54839287Y-43041764D02*
X54767858Y-43006050D01*
X54767858Y-43006050D02*
X54732144Y-42934621D01*
X54732144Y-42934621D02*
X54732144Y-42863192D01*
X54732144Y-42863192D02*
X54767858Y-42791764D01*
X54767858Y-42791764D02*
X54839287Y-42756050D01*
X54839287Y-42756050D02*
X55017858Y-42756050D01*
X55017858Y-42756050D02*
X55089287Y-42720335D01*
X55767858Y-43041764D02*
X55767858Y-42291764D01*
X55767858Y-43006050D02*
X55696429Y-43041764D01*
X55696429Y-43041764D02*
X55553572Y-43041764D01*
X55553572Y-43041764D02*
X55482143Y-43006050D01*
X55482143Y-43006050D02*
X55446429Y-42970335D01*
X55446429Y-42970335D02*
X55410715Y-42898907D01*
X55410715Y-42898907D02*
X55410715Y-42684621D01*
X55410715Y-42684621D02*
X55446429Y-42613192D01*
X55446429Y-42613192D02*
X55482143Y-42577478D01*
X55482143Y-42577478D02*
X55553572Y-42541764D01*
X55553572Y-42541764D02*
X55696429Y-42541764D01*
X55696429Y-42541764D02*
X55767858Y-42577478D01*
X56089286Y-43006050D02*
X56160714Y-43041764D01*
X56160714Y-43041764D02*
X56303571Y-43041764D01*
X56303571Y-43041764D02*
X56375000Y-43006050D01*
X56375000Y-43006050D02*
X56410714Y-42934621D01*
X56410714Y-42934621D02*
X56410714Y-42898907D01*
X56410714Y-42898907D02*
X56375000Y-42827478D01*
X56375000Y-42827478D02*
X56303571Y-42791764D01*
X56303571Y-42791764D02*
X56196429Y-42791764D01*
X56196429Y-42791764D02*
X56125000Y-42756050D01*
X56125000Y-42756050D02*
X56089286Y-42684621D01*
X56089286Y-42684621D02*
X56089286Y-42648907D01*
X56089286Y-42648907D02*
X56125000Y-42577478D01*
X56125000Y-42577478D02*
X56196429Y-42541764D01*
X56196429Y-42541764D02*
X56303571Y-42541764D01*
X56303571Y-42541764D02*
X56375000Y-42577478D01*
X57517858Y-43327478D02*
X57482143Y-43291764D01*
X57482143Y-43291764D02*
X57410715Y-43184621D01*
X57410715Y-43184621D02*
X57375001Y-43113192D01*
X57375001Y-43113192D02*
X57339286Y-43006050D01*
X57339286Y-43006050D02*
X57303572Y-42827478D01*
X57303572Y-42827478D02*
X57303572Y-42684621D01*
X57303572Y-42684621D02*
X57339286Y-42506050D01*
X57339286Y-42506050D02*
X57375001Y-42398907D01*
X57375001Y-42398907D02*
X57410715Y-42327478D01*
X57410715Y-42327478D02*
X57482143Y-42220335D01*
X57482143Y-42220335D02*
X57517858Y-42184621D01*
X57803572Y-43041764D02*
X57803572Y-42541764D01*
X57803572Y-42613192D02*
X57839286Y-42577478D01*
X57839286Y-42577478D02*
X57910715Y-42541764D01*
X57910715Y-42541764D02*
X58017858Y-42541764D01*
X58017858Y-42541764D02*
X58089286Y-42577478D01*
X58089286Y-42577478D02*
X58125001Y-42648907D01*
X58125001Y-42648907D02*
X58125001Y-43041764D01*
X58125001Y-42648907D02*
X58160715Y-42577478D01*
X58160715Y-42577478D02*
X58232143Y-42541764D01*
X58232143Y-42541764D02*
X58339286Y-42541764D01*
X58339286Y-42541764D02*
X58410715Y-42577478D01*
X58410715Y-42577478D02*
X58446429Y-42648907D01*
X58446429Y-42648907D02*
X58446429Y-43041764D01*
X59125001Y-43041764D02*
X59125001Y-42648907D01*
X59125001Y-42648907D02*
X59089286Y-42577478D01*
X59089286Y-42577478D02*
X59017858Y-42541764D01*
X59017858Y-42541764D02*
X58875001Y-42541764D01*
X58875001Y-42541764D02*
X58803572Y-42577478D01*
X59125001Y-43006050D02*
X59053572Y-43041764D01*
X59053572Y-43041764D02*
X58875001Y-43041764D01*
X58875001Y-43041764D02*
X58803572Y-43006050D01*
X58803572Y-43006050D02*
X58767858Y-42934621D01*
X58767858Y-42934621D02*
X58767858Y-42863192D01*
X58767858Y-42863192D02*
X58803572Y-42791764D01*
X58803572Y-42791764D02*
X58875001Y-42756050D01*
X58875001Y-42756050D02*
X59053572Y-42756050D01*
X59053572Y-42756050D02*
X59125001Y-42720335D01*
X59482143Y-42541764D02*
X59482143Y-43291764D01*
X59482143Y-42577478D02*
X59553572Y-42541764D01*
X59553572Y-42541764D02*
X59696429Y-42541764D01*
X59696429Y-42541764D02*
X59767857Y-42577478D01*
X59767857Y-42577478D02*
X59803572Y-42613192D01*
X59803572Y-42613192D02*
X59839286Y-42684621D01*
X59839286Y-42684621D02*
X59839286Y-42898907D01*
X59839286Y-42898907D02*
X59803572Y-42970335D01*
X59803572Y-42970335D02*
X59767857Y-43006050D01*
X59767857Y-43006050D02*
X59696429Y-43041764D01*
X59696429Y-43041764D02*
X59553572Y-43041764D01*
X59553572Y-43041764D02*
X59482143Y-43006050D01*
X60732143Y-43041764D02*
X60732143Y-42541764D01*
X60732143Y-42291764D02*
X60696429Y-42327478D01*
X60696429Y-42327478D02*
X60732143Y-42363192D01*
X60732143Y-42363192D02*
X60767857Y-42327478D01*
X60767857Y-42327478D02*
X60732143Y-42291764D01*
X60732143Y-42291764D02*
X60732143Y-42363192D01*
X61089286Y-42541764D02*
X61089286Y-43041764D01*
X61089286Y-42613192D02*
X61125000Y-42577478D01*
X61125000Y-42577478D02*
X61196429Y-42541764D01*
X61196429Y-42541764D02*
X61303572Y-42541764D01*
X61303572Y-42541764D02*
X61375000Y-42577478D01*
X61375000Y-42577478D02*
X61410715Y-42648907D01*
X61410715Y-42648907D02*
X61410715Y-43041764D01*
X62660715Y-43041764D02*
X62660715Y-42291764D01*
X62660715Y-43006050D02*
X62589286Y-43041764D01*
X62589286Y-43041764D02*
X62446429Y-43041764D01*
X62446429Y-43041764D02*
X62375000Y-43006050D01*
X62375000Y-43006050D02*
X62339286Y-42970335D01*
X62339286Y-42970335D02*
X62303572Y-42898907D01*
X62303572Y-42898907D02*
X62303572Y-42684621D01*
X62303572Y-42684621D02*
X62339286Y-42613192D01*
X62339286Y-42613192D02*
X62375000Y-42577478D01*
X62375000Y-42577478D02*
X62446429Y-42541764D01*
X62446429Y-42541764D02*
X62589286Y-42541764D01*
X62589286Y-42541764D02*
X62660715Y-42577478D01*
X63125000Y-43041764D02*
X63053571Y-43006050D01*
X63053571Y-43006050D02*
X63017857Y-42970335D01*
X63017857Y-42970335D02*
X62982143Y-42898907D01*
X62982143Y-42898907D02*
X62982143Y-42684621D01*
X62982143Y-42684621D02*
X63017857Y-42613192D01*
X63017857Y-42613192D02*
X63053571Y-42577478D01*
X63053571Y-42577478D02*
X63125000Y-42541764D01*
X63125000Y-42541764D02*
X63232143Y-42541764D01*
X63232143Y-42541764D02*
X63303571Y-42577478D01*
X63303571Y-42577478D02*
X63339286Y-42613192D01*
X63339286Y-42613192D02*
X63375000Y-42684621D01*
X63375000Y-42684621D02*
X63375000Y-42898907D01*
X63375000Y-42898907D02*
X63339286Y-42970335D01*
X63339286Y-42970335D02*
X63303571Y-43006050D01*
X63303571Y-43006050D02*
X63232143Y-43041764D01*
X63232143Y-43041764D02*
X63125000Y-43041764D01*
X64017857Y-43006050D02*
X63946428Y-43041764D01*
X63946428Y-43041764D02*
X63803571Y-43041764D01*
X63803571Y-43041764D02*
X63732142Y-43006050D01*
X63732142Y-43006050D02*
X63696428Y-42970335D01*
X63696428Y-42970335D02*
X63660714Y-42898907D01*
X63660714Y-42898907D02*
X63660714Y-42684621D01*
X63660714Y-42684621D02*
X63696428Y-42613192D01*
X63696428Y-42613192D02*
X63732142Y-42577478D01*
X63732142Y-42577478D02*
X63803571Y-42541764D01*
X63803571Y-42541764D02*
X63946428Y-42541764D01*
X63946428Y-42541764D02*
X64017857Y-42577478D01*
X64303571Y-43006050D02*
X64374999Y-43041764D01*
X64374999Y-43041764D02*
X64517856Y-43041764D01*
X64517856Y-43041764D02*
X64589285Y-43006050D01*
X64589285Y-43006050D02*
X64624999Y-42934621D01*
X64624999Y-42934621D02*
X64624999Y-42898907D01*
X64624999Y-42898907D02*
X64589285Y-42827478D01*
X64589285Y-42827478D02*
X64517856Y-42791764D01*
X64517856Y-42791764D02*
X64410714Y-42791764D01*
X64410714Y-42791764D02*
X64339285Y-42756050D01*
X64339285Y-42756050D02*
X64303571Y-42684621D01*
X64303571Y-42684621D02*
X64303571Y-42648907D01*
X64303571Y-42648907D02*
X64339285Y-42577478D01*
X64339285Y-42577478D02*
X64410714Y-42541764D01*
X64410714Y-42541764D02*
X64517856Y-42541764D01*
X64517856Y-42541764D02*
X64589285Y-42577478D01*
X64874999Y-43327478D02*
X64910714Y-43291764D01*
X64910714Y-43291764D02*
X64982142Y-43184621D01*
X64982142Y-43184621D02*
X65017857Y-43113192D01*
X65017857Y-43113192D02*
X65053571Y-43006050D01*
X65053571Y-43006050D02*
X65089285Y-42827478D01*
X65089285Y-42827478D02*
X65089285Y-42684621D01*
X65089285Y-42684621D02*
X65053571Y-42506050D01*
X65053571Y-42506050D02*
X65017857Y-42398907D01*
X65017857Y-42398907D02*
X64982142Y-42327478D01*
X64982142Y-42327478D02*
X64910714Y-42220335D01*
X64910714Y-42220335D02*
X64874999Y-42184621D01*
D11*
X120799998Y-35565103D02*
X120799998Y-36212722D01*
X120799998Y-36212722D02*
X120838093Y-36288912D01*
X120838093Y-36288912D02*
X120876188Y-36327008D01*
X120876188Y-36327008D02*
X120952379Y-36365103D01*
X120952379Y-36365103D02*
X121104760Y-36365103D01*
X121104760Y-36365103D02*
X121180950Y-36327008D01*
X121180950Y-36327008D02*
X121219045Y-36288912D01*
X121219045Y-36288912D02*
X121257141Y-36212722D01*
X121257141Y-36212722D02*
X121257141Y-35565103D01*
X121599997Y-36327008D02*
X121714283Y-36365103D01*
X121714283Y-36365103D02*
X121904759Y-36365103D01*
X121904759Y-36365103D02*
X121980950Y-36327008D01*
X121980950Y-36327008D02*
X122019045Y-36288912D01*
X122019045Y-36288912D02*
X122057140Y-36212722D01*
X122057140Y-36212722D02*
X122057140Y-36136531D01*
X122057140Y-36136531D02*
X122019045Y-36060341D01*
X122019045Y-36060341D02*
X121980950Y-36022246D01*
X121980950Y-36022246D02*
X121904759Y-35984150D01*
X121904759Y-35984150D02*
X121752378Y-35946055D01*
X121752378Y-35946055D02*
X121676188Y-35907960D01*
X121676188Y-35907960D02*
X121638093Y-35869865D01*
X121638093Y-35869865D02*
X121599997Y-35793674D01*
X121599997Y-35793674D02*
X121599997Y-35717484D01*
X121599997Y-35717484D02*
X121638093Y-35641293D01*
X121638093Y-35641293D02*
X121676188Y-35603198D01*
X121676188Y-35603198D02*
X121752378Y-35565103D01*
X121752378Y-35565103D02*
X121942855Y-35565103D01*
X121942855Y-35565103D02*
X122057140Y-35603198D01*
X122666664Y-35946055D02*
X122780950Y-35984150D01*
X122780950Y-35984150D02*
X122819045Y-36022246D01*
X122819045Y-36022246D02*
X122857141Y-36098436D01*
X122857141Y-36098436D02*
X122857141Y-36212722D01*
X122857141Y-36212722D02*
X122819045Y-36288912D01*
X122819045Y-36288912D02*
X122780950Y-36327008D01*
X122780950Y-36327008D02*
X122704760Y-36365103D01*
X122704760Y-36365103D02*
X122399998Y-36365103D01*
X122399998Y-36365103D02*
X122399998Y-35565103D01*
X122399998Y-35565103D02*
X122666664Y-35565103D01*
X122666664Y-35565103D02*
X122742855Y-35603198D01*
X122742855Y-35603198D02*
X122780950Y-35641293D01*
X122780950Y-35641293D02*
X122819045Y-35717484D01*
X122819045Y-35717484D02*
X122819045Y-35793674D01*
X122819045Y-35793674D02*
X122780950Y-35869865D01*
X122780950Y-35869865D02*
X122742855Y-35907960D01*
X122742855Y-35907960D02*
X122666664Y-35946055D01*
X122666664Y-35946055D02*
X122399998Y-35946055D01*
X123199998Y-36060341D02*
X123809522Y-36060341D01*
X124647617Y-36288912D02*
X124609521Y-36327008D01*
X124609521Y-36327008D02*
X124495236Y-36365103D01*
X124495236Y-36365103D02*
X124419045Y-36365103D01*
X124419045Y-36365103D02*
X124304759Y-36327008D01*
X124304759Y-36327008D02*
X124228569Y-36250817D01*
X124228569Y-36250817D02*
X124190474Y-36174627D01*
X124190474Y-36174627D02*
X124152378Y-36022246D01*
X124152378Y-36022246D02*
X124152378Y-35907960D01*
X124152378Y-35907960D02*
X124190474Y-35755579D01*
X124190474Y-35755579D02*
X124228569Y-35679388D01*
X124228569Y-35679388D02*
X124304759Y-35603198D01*
X124304759Y-35603198D02*
X124419045Y-35565103D01*
X124419045Y-35565103D02*
X124495236Y-35565103D01*
X124495236Y-35565103D02*
X124609521Y-35603198D01*
X124609521Y-35603198D02*
X124647617Y-35641293D01*
X125599998Y-35831769D02*
X125599998Y-36365103D01*
X125599998Y-35907960D02*
X125638093Y-35869865D01*
X125638093Y-35869865D02*
X125714283Y-35831769D01*
X125714283Y-35831769D02*
X125828569Y-35831769D01*
X125828569Y-35831769D02*
X125904760Y-35869865D01*
X125904760Y-35869865D02*
X125942855Y-35946055D01*
X125942855Y-35946055D02*
X125942855Y-36365103D01*
X126666665Y-36365103D02*
X126666665Y-35946055D01*
X126666665Y-35946055D02*
X126628570Y-35869865D01*
X126628570Y-35869865D02*
X126552379Y-35831769D01*
X126552379Y-35831769D02*
X126399998Y-35831769D01*
X126399998Y-35831769D02*
X126323808Y-35869865D01*
X126666665Y-36327008D02*
X126590474Y-36365103D01*
X126590474Y-36365103D02*
X126399998Y-36365103D01*
X126399998Y-36365103D02*
X126323808Y-36327008D01*
X126323808Y-36327008D02*
X126285712Y-36250817D01*
X126285712Y-36250817D02*
X126285712Y-36174627D01*
X126285712Y-36174627D02*
X126323808Y-36098436D01*
X126323808Y-36098436D02*
X126399998Y-36060341D01*
X126399998Y-36060341D02*
X126590474Y-36060341D01*
X126590474Y-36060341D02*
X126666665Y-36022246D01*
X126933332Y-35831769D02*
X127238094Y-35831769D01*
X127047618Y-35565103D02*
X127047618Y-36250817D01*
X127047618Y-36250817D02*
X127085713Y-36327008D01*
X127085713Y-36327008D02*
X127161903Y-36365103D01*
X127161903Y-36365103D02*
X127238094Y-36365103D01*
X127504761Y-36365103D02*
X127504761Y-35831769D01*
X127504761Y-35565103D02*
X127466665Y-35603198D01*
X127466665Y-35603198D02*
X127504761Y-35641293D01*
X127504761Y-35641293D02*
X127542856Y-35603198D01*
X127542856Y-35603198D02*
X127504761Y-35565103D01*
X127504761Y-35565103D02*
X127504761Y-35641293D01*
X127809522Y-35831769D02*
X127999998Y-36365103D01*
X127999998Y-36365103D02*
X128190475Y-35831769D01*
X128799999Y-36327008D02*
X128723808Y-36365103D01*
X128723808Y-36365103D02*
X128571427Y-36365103D01*
X128571427Y-36365103D02*
X128495237Y-36327008D01*
X128495237Y-36327008D02*
X128457141Y-36250817D01*
X128457141Y-36250817D02*
X128457141Y-35946055D01*
X128457141Y-35946055D02*
X128495237Y-35869865D01*
X128495237Y-35869865D02*
X128571427Y-35831769D01*
X128571427Y-35831769D02*
X128723808Y-35831769D01*
X128723808Y-35831769D02*
X128799999Y-35869865D01*
X128799999Y-35869865D02*
X128838094Y-35946055D01*
X128838094Y-35946055D02*
X128838094Y-36022246D01*
X128838094Y-36022246D02*
X128457141Y-36098436D01*
X130133332Y-36365103D02*
X130133332Y-35565103D01*
X130133332Y-36327008D02*
X130057141Y-36365103D01*
X130057141Y-36365103D02*
X129904760Y-36365103D01*
X129904760Y-36365103D02*
X129828570Y-36327008D01*
X129828570Y-36327008D02*
X129790475Y-36288912D01*
X129790475Y-36288912D02*
X129752379Y-36212722D01*
X129752379Y-36212722D02*
X129752379Y-35984150D01*
X129752379Y-35984150D02*
X129790475Y-35907960D01*
X129790475Y-35907960D02*
X129828570Y-35869865D01*
X129828570Y-35869865D02*
X129904760Y-35831769D01*
X129904760Y-35831769D02*
X130057141Y-35831769D01*
X130057141Y-35831769D02*
X130133332Y-35869865D01*
X130857142Y-36365103D02*
X130857142Y-35946055D01*
X130857142Y-35946055D02*
X130819047Y-35869865D01*
X130819047Y-35869865D02*
X130742856Y-35831769D01*
X130742856Y-35831769D02*
X130590475Y-35831769D01*
X130590475Y-35831769D02*
X130514285Y-35869865D01*
X130857142Y-36327008D02*
X130780951Y-36365103D01*
X130780951Y-36365103D02*
X130590475Y-36365103D01*
X130590475Y-36365103D02*
X130514285Y-36327008D01*
X130514285Y-36327008D02*
X130476189Y-36250817D01*
X130476189Y-36250817D02*
X130476189Y-36174627D01*
X130476189Y-36174627D02*
X130514285Y-36098436D01*
X130514285Y-36098436D02*
X130590475Y-36060341D01*
X130590475Y-36060341D02*
X130780951Y-36060341D01*
X130780951Y-36060341D02*
X130857142Y-36022246D01*
X131123809Y-35831769D02*
X131428571Y-35831769D01*
X131238095Y-35565103D02*
X131238095Y-36250817D01*
X131238095Y-36250817D02*
X131276190Y-36327008D01*
X131276190Y-36327008D02*
X131352380Y-36365103D01*
X131352380Y-36365103D02*
X131428571Y-36365103D01*
X132038095Y-36365103D02*
X132038095Y-35946055D01*
X132038095Y-35946055D02*
X132000000Y-35869865D01*
X132000000Y-35869865D02*
X131923809Y-35831769D01*
X131923809Y-35831769D02*
X131771428Y-35831769D01*
X131771428Y-35831769D02*
X131695238Y-35869865D01*
X132038095Y-36327008D02*
X131961904Y-36365103D01*
X131961904Y-36365103D02*
X131771428Y-36365103D01*
X131771428Y-36365103D02*
X131695238Y-36327008D01*
X131695238Y-36327008D02*
X131657142Y-36250817D01*
X131657142Y-36250817D02*
X131657142Y-36174627D01*
X131657142Y-36174627D02*
X131695238Y-36098436D01*
X131695238Y-36098436D02*
X131771428Y-36060341D01*
X131771428Y-36060341D02*
X131961904Y-36060341D01*
X131961904Y-36060341D02*
X132038095Y-36022246D01*
X132457143Y-36327008D02*
X132457143Y-36365103D01*
X132457143Y-36365103D02*
X132419048Y-36441293D01*
X132419048Y-36441293D02*
X132380952Y-36479388D01*
X132419048Y-35869865D02*
X132457143Y-35907960D01*
X132457143Y-35907960D02*
X132419048Y-35946055D01*
X132419048Y-35946055D02*
X132380952Y-35907960D01*
X132380952Y-35907960D02*
X132419048Y-35869865D01*
X132419048Y-35869865D02*
X132419048Y-35946055D01*
X133295238Y-35565103D02*
X133561905Y-36365103D01*
X133561905Y-36365103D02*
X133828571Y-35565103D01*
X134361904Y-35946055D02*
X134476190Y-35984150D01*
X134476190Y-35984150D02*
X134514285Y-36022246D01*
X134514285Y-36022246D02*
X134552381Y-36098436D01*
X134552381Y-36098436D02*
X134552381Y-36212722D01*
X134552381Y-36212722D02*
X134514285Y-36288912D01*
X134514285Y-36288912D02*
X134476190Y-36327008D01*
X134476190Y-36327008D02*
X134400000Y-36365103D01*
X134400000Y-36365103D02*
X134095238Y-36365103D01*
X134095238Y-36365103D02*
X134095238Y-35565103D01*
X134095238Y-35565103D02*
X134361904Y-35565103D01*
X134361904Y-35565103D02*
X134438095Y-35603198D01*
X134438095Y-35603198D02*
X134476190Y-35641293D01*
X134476190Y-35641293D02*
X134514285Y-35717484D01*
X134514285Y-35717484D02*
X134514285Y-35793674D01*
X134514285Y-35793674D02*
X134476190Y-35869865D01*
X134476190Y-35869865D02*
X134438095Y-35907960D01*
X134438095Y-35907960D02*
X134361904Y-35946055D01*
X134361904Y-35946055D02*
X134095238Y-35946055D01*
X134895238Y-35565103D02*
X134895238Y-36212722D01*
X134895238Y-36212722D02*
X134933333Y-36288912D01*
X134933333Y-36288912D02*
X134971428Y-36327008D01*
X134971428Y-36327008D02*
X135047619Y-36365103D01*
X135047619Y-36365103D02*
X135200000Y-36365103D01*
X135200000Y-36365103D02*
X135276190Y-36327008D01*
X135276190Y-36327008D02*
X135314285Y-36288912D01*
X135314285Y-36288912D02*
X135352381Y-36212722D01*
X135352381Y-36212722D02*
X135352381Y-35565103D01*
X135695237Y-36327008D02*
X135809523Y-36365103D01*
X135809523Y-36365103D02*
X135999999Y-36365103D01*
X135999999Y-36365103D02*
X136076190Y-36327008D01*
X136076190Y-36327008D02*
X136114285Y-36288912D01*
X136114285Y-36288912D02*
X136152380Y-36212722D01*
X136152380Y-36212722D02*
X136152380Y-36136531D01*
X136152380Y-36136531D02*
X136114285Y-36060341D01*
X136114285Y-36060341D02*
X136076190Y-36022246D01*
X136076190Y-36022246D02*
X135999999Y-35984150D01*
X135999999Y-35984150D02*
X135847618Y-35946055D01*
X135847618Y-35946055D02*
X135771428Y-35907960D01*
X135771428Y-35907960D02*
X135733333Y-35869865D01*
X135733333Y-35869865D02*
X135695237Y-35793674D01*
X135695237Y-35793674D02*
X135695237Y-35717484D01*
X135695237Y-35717484D02*
X135733333Y-35641293D01*
X135733333Y-35641293D02*
X135771428Y-35603198D01*
X135771428Y-35603198D02*
X135847618Y-35565103D01*
X135847618Y-35565103D02*
X136038095Y-35565103D01*
X136038095Y-35565103D02*
X136152380Y-35603198D01*
X137066666Y-36327008D02*
X137142857Y-36365103D01*
X137142857Y-36365103D02*
X137295238Y-36365103D01*
X137295238Y-36365103D02*
X137371428Y-36327008D01*
X137371428Y-36327008D02*
X137409524Y-36250817D01*
X137409524Y-36250817D02*
X137409524Y-36212722D01*
X137409524Y-36212722D02*
X137371428Y-36136531D01*
X137371428Y-36136531D02*
X137295238Y-36098436D01*
X137295238Y-36098436D02*
X137180952Y-36098436D01*
X137180952Y-36098436D02*
X137104762Y-36060341D01*
X137104762Y-36060341D02*
X137066666Y-35984150D01*
X137066666Y-35984150D02*
X137066666Y-35946055D01*
X137066666Y-35946055D02*
X137104762Y-35869865D01*
X137104762Y-35869865D02*
X137180952Y-35831769D01*
X137180952Y-35831769D02*
X137295238Y-35831769D01*
X137295238Y-35831769D02*
X137371428Y-35869865D01*
X138057143Y-36327008D02*
X137980952Y-36365103D01*
X137980952Y-36365103D02*
X137828571Y-36365103D01*
X137828571Y-36365103D02*
X137752381Y-36327008D01*
X137752381Y-36327008D02*
X137714285Y-36250817D01*
X137714285Y-36250817D02*
X137714285Y-35946055D01*
X137714285Y-35946055D02*
X137752381Y-35869865D01*
X137752381Y-35869865D02*
X137828571Y-35831769D01*
X137828571Y-35831769D02*
X137980952Y-35831769D01*
X137980952Y-35831769D02*
X138057143Y-35869865D01*
X138057143Y-35869865D02*
X138095238Y-35946055D01*
X138095238Y-35946055D02*
X138095238Y-36022246D01*
X138095238Y-36022246D02*
X137714285Y-36098436D01*
X138438095Y-35831769D02*
X138438095Y-36365103D01*
X138438095Y-35907960D02*
X138476190Y-35869865D01*
X138476190Y-35869865D02*
X138552380Y-35831769D01*
X138552380Y-35831769D02*
X138666666Y-35831769D01*
X138666666Y-35831769D02*
X138742857Y-35869865D01*
X138742857Y-35869865D02*
X138780952Y-35946055D01*
X138780952Y-35946055D02*
X138780952Y-36365103D01*
X139123809Y-36327008D02*
X139200000Y-36365103D01*
X139200000Y-36365103D02*
X139352381Y-36365103D01*
X139352381Y-36365103D02*
X139428571Y-36327008D01*
X139428571Y-36327008D02*
X139466667Y-36250817D01*
X139466667Y-36250817D02*
X139466667Y-36212722D01*
X139466667Y-36212722D02*
X139428571Y-36136531D01*
X139428571Y-36136531D02*
X139352381Y-36098436D01*
X139352381Y-36098436D02*
X139238095Y-36098436D01*
X139238095Y-36098436D02*
X139161905Y-36060341D01*
X139161905Y-36060341D02*
X139123809Y-35984150D01*
X139123809Y-35984150D02*
X139123809Y-35946055D01*
X139123809Y-35946055D02*
X139161905Y-35869865D01*
X139161905Y-35869865D02*
X139238095Y-35831769D01*
X139238095Y-35831769D02*
X139352381Y-35831769D01*
X139352381Y-35831769D02*
X139428571Y-35869865D01*
X140114286Y-36327008D02*
X140038095Y-36365103D01*
X140038095Y-36365103D02*
X139885714Y-36365103D01*
X139885714Y-36365103D02*
X139809524Y-36327008D01*
X139809524Y-36327008D02*
X139771428Y-36250817D01*
X139771428Y-36250817D02*
X139771428Y-35946055D01*
X139771428Y-35946055D02*
X139809524Y-35869865D01*
X139809524Y-35869865D02*
X139885714Y-35831769D01*
X139885714Y-35831769D02*
X140038095Y-35831769D01*
X140038095Y-35831769D02*
X140114286Y-35869865D01*
X140114286Y-35869865D02*
X140152381Y-35946055D01*
X140152381Y-35946055D02*
X140152381Y-36022246D01*
X140152381Y-36022246D02*
X139771428Y-36098436D01*
X141219047Y-36365103D02*
X141142857Y-36327008D01*
X141142857Y-36327008D02*
X141104762Y-36288912D01*
X141104762Y-36288912D02*
X141066666Y-36212722D01*
X141066666Y-36212722D02*
X141066666Y-35984150D01*
X141066666Y-35984150D02*
X141104762Y-35907960D01*
X141104762Y-35907960D02*
X141142857Y-35869865D01*
X141142857Y-35869865D02*
X141219047Y-35831769D01*
X141219047Y-35831769D02*
X141333333Y-35831769D01*
X141333333Y-35831769D02*
X141409524Y-35869865D01*
X141409524Y-35869865D02*
X141447619Y-35907960D01*
X141447619Y-35907960D02*
X141485714Y-35984150D01*
X141485714Y-35984150D02*
X141485714Y-36212722D01*
X141485714Y-36212722D02*
X141447619Y-36288912D01*
X141447619Y-36288912D02*
X141409524Y-36327008D01*
X141409524Y-36327008D02*
X141333333Y-36365103D01*
X141333333Y-36365103D02*
X141219047Y-36365103D01*
X141828572Y-35831769D02*
X141828572Y-36365103D01*
X141828572Y-35907960D02*
X141866667Y-35869865D01*
X141866667Y-35869865D02*
X141942857Y-35831769D01*
X141942857Y-35831769D02*
X142057143Y-35831769D01*
X142057143Y-35831769D02*
X142133334Y-35869865D01*
X142133334Y-35869865D02*
X142171429Y-35946055D01*
X142171429Y-35946055D02*
X142171429Y-36365103D01*
X142666667Y-36365103D02*
X142590477Y-36327008D01*
X142590477Y-36327008D02*
X142552382Y-36250817D01*
X142552382Y-36250817D02*
X142552382Y-35565103D01*
X142895239Y-35831769D02*
X143085715Y-36365103D01*
X143276192Y-35831769D02*
X143085715Y-36365103D01*
X143085715Y-36365103D02*
X143009525Y-36555579D01*
X143009525Y-36555579D02*
X142971430Y-36593674D01*
X142971430Y-36593674D02*
X142895239Y-36631769D01*
D12*
X53285717Y-96433369D02*
X53228574Y-96490512D01*
X53228574Y-96490512D02*
X53057146Y-96547654D01*
X53057146Y-96547654D02*
X52942860Y-96547654D01*
X52942860Y-96547654D02*
X52771431Y-96490512D01*
X52771431Y-96490512D02*
X52657146Y-96376226D01*
X52657146Y-96376226D02*
X52600003Y-96261940D01*
X52600003Y-96261940D02*
X52542860Y-96033369D01*
X52542860Y-96033369D02*
X52542860Y-95861940D01*
X52542860Y-95861940D02*
X52600003Y-95633369D01*
X52600003Y-95633369D02*
X52657146Y-95519083D01*
X52657146Y-95519083D02*
X52771431Y-95404797D01*
X52771431Y-95404797D02*
X52942860Y-95347654D01*
X52942860Y-95347654D02*
X53057146Y-95347654D01*
X53057146Y-95347654D02*
X53228574Y-95404797D01*
X53228574Y-95404797D02*
X53285717Y-95461940D01*
X53971431Y-96547654D02*
X53857146Y-96490512D01*
X53857146Y-96490512D02*
X53800003Y-96433369D01*
X53800003Y-96433369D02*
X53742860Y-96319083D01*
X53742860Y-96319083D02*
X53742860Y-95976226D01*
X53742860Y-95976226D02*
X53800003Y-95861940D01*
X53800003Y-95861940D02*
X53857146Y-95804797D01*
X53857146Y-95804797D02*
X53971431Y-95747654D01*
X53971431Y-95747654D02*
X54142860Y-95747654D01*
X54142860Y-95747654D02*
X54257146Y-95804797D01*
X54257146Y-95804797D02*
X54314289Y-95861940D01*
X54314289Y-95861940D02*
X54371431Y-95976226D01*
X54371431Y-95976226D02*
X54371431Y-96319083D01*
X54371431Y-96319083D02*
X54314289Y-96433369D01*
X54314289Y-96433369D02*
X54257146Y-96490512D01*
X54257146Y-96490512D02*
X54142860Y-96547654D01*
X54142860Y-96547654D02*
X53971431Y-96547654D01*
X54714288Y-95747654D02*
X55171431Y-95747654D01*
X54885717Y-96547654D02*
X54885717Y-95519083D01*
X54885717Y-95519083D02*
X54942860Y-95404797D01*
X54942860Y-95404797D02*
X55057145Y-95347654D01*
X55057145Y-95347654D02*
X55171431Y-95347654D01*
X55400002Y-95747654D02*
X55857145Y-95747654D01*
X55571431Y-96547654D02*
X55571431Y-95519083D01*
X55571431Y-95519083D02*
X55628574Y-95404797D01*
X55628574Y-95404797D02*
X55742859Y-95347654D01*
X55742859Y-95347654D02*
X55857145Y-95347654D01*
X56714288Y-96490512D02*
X56600002Y-96547654D01*
X56600002Y-96547654D02*
X56371431Y-96547654D01*
X56371431Y-96547654D02*
X56257145Y-96490512D01*
X56257145Y-96490512D02*
X56200002Y-96376226D01*
X56200002Y-96376226D02*
X56200002Y-95919083D01*
X56200002Y-95919083D02*
X56257145Y-95804797D01*
X56257145Y-95804797D02*
X56371431Y-95747654D01*
X56371431Y-95747654D02*
X56600002Y-95747654D01*
X56600002Y-95747654D02*
X56714288Y-95804797D01*
X56714288Y-95804797D02*
X56771431Y-95919083D01*
X56771431Y-95919083D02*
X56771431Y-96033369D01*
X56771431Y-96033369D02*
X56200002Y-96147654D01*
X57742859Y-96490512D02*
X57628573Y-96547654D01*
X57628573Y-96547654D02*
X57400002Y-96547654D01*
X57400002Y-96547654D02*
X57285716Y-96490512D01*
X57285716Y-96490512D02*
X57228573Y-96376226D01*
X57228573Y-96376226D02*
X57228573Y-95919083D01*
X57228573Y-95919083D02*
X57285716Y-95804797D01*
X57285716Y-95804797D02*
X57400002Y-95747654D01*
X57400002Y-95747654D02*
X57628573Y-95747654D01*
X57628573Y-95747654D02*
X57742859Y-95804797D01*
X57742859Y-95804797D02*
X57800002Y-95919083D01*
X57800002Y-95919083D02*
X57800002Y-96033369D01*
X57800002Y-96033369D02*
X57228573Y-96147654D01*
X59000001Y-96547654D02*
X58600001Y-95976226D01*
X58314287Y-96547654D02*
X58314287Y-95347654D01*
X58314287Y-95347654D02*
X58771430Y-95347654D01*
X58771430Y-95347654D02*
X58885715Y-95404797D01*
X58885715Y-95404797D02*
X58942858Y-95461940D01*
X58942858Y-95461940D02*
X59000001Y-95576226D01*
X59000001Y-95576226D02*
X59000001Y-95747654D01*
X59000001Y-95747654D02*
X58942858Y-95861940D01*
X58942858Y-95861940D02*
X58885715Y-95919083D01*
X58885715Y-95919083D02*
X58771430Y-95976226D01*
X58771430Y-95976226D02*
X58314287Y-95976226D01*
X59685715Y-96547654D02*
X59571430Y-96490512D01*
X59571430Y-96490512D02*
X59514287Y-96433369D01*
X59514287Y-96433369D02*
X59457144Y-96319083D01*
X59457144Y-96319083D02*
X59457144Y-95976226D01*
X59457144Y-95976226D02*
X59514287Y-95861940D01*
X59514287Y-95861940D02*
X59571430Y-95804797D01*
X59571430Y-95804797D02*
X59685715Y-95747654D01*
X59685715Y-95747654D02*
X59857144Y-95747654D01*
X59857144Y-95747654D02*
X59971430Y-95804797D01*
X59971430Y-95804797D02*
X60028573Y-95861940D01*
X60028573Y-95861940D02*
X60085715Y-95976226D01*
X60085715Y-95976226D02*
X60085715Y-96319083D01*
X60085715Y-96319083D02*
X60028573Y-96433369D01*
X60028573Y-96433369D02*
X59971430Y-96490512D01*
X59971430Y-96490512D02*
X59857144Y-96547654D01*
X59857144Y-96547654D02*
X59685715Y-96547654D01*
X61114287Y-96547654D02*
X61114287Y-95919083D01*
X61114287Y-95919083D02*
X61057144Y-95804797D01*
X61057144Y-95804797D02*
X60942858Y-95747654D01*
X60942858Y-95747654D02*
X60714287Y-95747654D01*
X60714287Y-95747654D02*
X60600001Y-95804797D01*
X61114287Y-96490512D02*
X61000001Y-96547654D01*
X61000001Y-96547654D02*
X60714287Y-96547654D01*
X60714287Y-96547654D02*
X60600001Y-96490512D01*
X60600001Y-96490512D02*
X60542858Y-96376226D01*
X60542858Y-96376226D02*
X60542858Y-96261940D01*
X60542858Y-96261940D02*
X60600001Y-96147654D01*
X60600001Y-96147654D02*
X60714287Y-96090512D01*
X60714287Y-96090512D02*
X61000001Y-96090512D01*
X61000001Y-96090512D02*
X61114287Y-96033369D01*
X61628572Y-96490512D02*
X61742858Y-96547654D01*
X61742858Y-96547654D02*
X61971429Y-96547654D01*
X61971429Y-96547654D02*
X62085715Y-96490512D01*
X62085715Y-96490512D02*
X62142858Y-96376226D01*
X62142858Y-96376226D02*
X62142858Y-96319083D01*
X62142858Y-96319083D02*
X62085715Y-96204797D01*
X62085715Y-96204797D02*
X61971429Y-96147654D01*
X61971429Y-96147654D02*
X61800001Y-96147654D01*
X61800001Y-96147654D02*
X61685715Y-96090512D01*
X61685715Y-96090512D02*
X61628572Y-95976226D01*
X61628572Y-95976226D02*
X61628572Y-95919083D01*
X61628572Y-95919083D02*
X61685715Y-95804797D01*
X61685715Y-95804797D02*
X61800001Y-95747654D01*
X61800001Y-95747654D02*
X61971429Y-95747654D01*
X61971429Y-95747654D02*
X62085715Y-95804797D01*
X62485715Y-95747654D02*
X62942858Y-95747654D01*
X62657144Y-95347654D02*
X62657144Y-96376226D01*
X62657144Y-96376226D02*
X62714287Y-96490512D01*
X62714287Y-96490512D02*
X62828572Y-96547654D01*
X62828572Y-96547654D02*
X62942858Y-96547654D01*
X64942858Y-96433369D02*
X64885715Y-96490512D01*
X64885715Y-96490512D02*
X64714287Y-96547654D01*
X64714287Y-96547654D02*
X64600001Y-96547654D01*
X64600001Y-96547654D02*
X64428572Y-96490512D01*
X64428572Y-96490512D02*
X64314287Y-96376226D01*
X64314287Y-96376226D02*
X64257144Y-96261940D01*
X64257144Y-96261940D02*
X64200001Y-96033369D01*
X64200001Y-96033369D02*
X64200001Y-95861940D01*
X64200001Y-95861940D02*
X64257144Y-95633369D01*
X64257144Y-95633369D02*
X64314287Y-95519083D01*
X64314287Y-95519083D02*
X64428572Y-95404797D01*
X64428572Y-95404797D02*
X64600001Y-95347654D01*
X64600001Y-95347654D02*
X64714287Y-95347654D01*
X64714287Y-95347654D02*
X64885715Y-95404797D01*
X64885715Y-95404797D02*
X64942858Y-95461940D01*
X65628572Y-96547654D02*
X65514287Y-96490512D01*
X65514287Y-96490512D02*
X65457144Y-96433369D01*
X65457144Y-96433369D02*
X65400001Y-96319083D01*
X65400001Y-96319083D02*
X65400001Y-95976226D01*
X65400001Y-95976226D02*
X65457144Y-95861940D01*
X65457144Y-95861940D02*
X65514287Y-95804797D01*
X65514287Y-95804797D02*
X65628572Y-95747654D01*
X65628572Y-95747654D02*
X65800001Y-95747654D01*
X65800001Y-95747654D02*
X65914287Y-95804797D01*
X65914287Y-95804797D02*
X65971430Y-95861940D01*
X65971430Y-95861940D02*
X66028572Y-95976226D01*
X66028572Y-95976226D02*
X66028572Y-96319083D01*
X66028572Y-96319083D02*
X65971430Y-96433369D01*
X65971430Y-96433369D02*
X65914287Y-96490512D01*
X65914287Y-96490512D02*
X65800001Y-96547654D01*
X65800001Y-96547654D02*
X65628572Y-96547654D01*
X66542858Y-95747654D02*
X66542858Y-96547654D01*
X66542858Y-95861940D02*
X66600001Y-95804797D01*
X66600001Y-95804797D02*
X66714286Y-95747654D01*
X66714286Y-95747654D02*
X66885715Y-95747654D01*
X66885715Y-95747654D02*
X67000001Y-95804797D01*
X67000001Y-95804797D02*
X67057144Y-95919083D01*
X67057144Y-95919083D02*
X67057144Y-96547654D01*
X67457143Y-95747654D02*
X67914286Y-95747654D01*
X67628572Y-95347654D02*
X67628572Y-96376226D01*
X67628572Y-96376226D02*
X67685715Y-96490512D01*
X67685715Y-96490512D02*
X67800000Y-96547654D01*
X67800000Y-96547654D02*
X67914286Y-96547654D01*
X68314286Y-96547654D02*
X68314286Y-95747654D01*
X68314286Y-95976226D02*
X68371429Y-95861940D01*
X68371429Y-95861940D02*
X68428572Y-95804797D01*
X68428572Y-95804797D02*
X68542857Y-95747654D01*
X68542857Y-95747654D02*
X68657143Y-95747654D01*
X69228571Y-96547654D02*
X69114286Y-96490512D01*
X69114286Y-96490512D02*
X69057143Y-96433369D01*
X69057143Y-96433369D02*
X69000000Y-96319083D01*
X69000000Y-96319083D02*
X69000000Y-95976226D01*
X69000000Y-95976226D02*
X69057143Y-95861940D01*
X69057143Y-95861940D02*
X69114286Y-95804797D01*
X69114286Y-95804797D02*
X69228571Y-95747654D01*
X69228571Y-95747654D02*
X69400000Y-95747654D01*
X69400000Y-95747654D02*
X69514286Y-95804797D01*
X69514286Y-95804797D02*
X69571429Y-95861940D01*
X69571429Y-95861940D02*
X69628571Y-95976226D01*
X69628571Y-95976226D02*
X69628571Y-96319083D01*
X69628571Y-96319083D02*
X69571429Y-96433369D01*
X69571429Y-96433369D02*
X69514286Y-96490512D01*
X69514286Y-96490512D02*
X69400000Y-96547654D01*
X69400000Y-96547654D02*
X69228571Y-96547654D01*
X70314285Y-96547654D02*
X70200000Y-96490512D01*
X70200000Y-96490512D02*
X70142857Y-96376226D01*
X70142857Y-96376226D02*
X70142857Y-95347654D01*
X72371428Y-96547654D02*
X71971428Y-95976226D01*
X71685714Y-96547654D02*
X71685714Y-95347654D01*
X71685714Y-95347654D02*
X72142857Y-95347654D01*
X72142857Y-95347654D02*
X72257142Y-95404797D01*
X72257142Y-95404797D02*
X72314285Y-95461940D01*
X72314285Y-95461940D02*
X72371428Y-95576226D01*
X72371428Y-95576226D02*
X72371428Y-95747654D01*
X72371428Y-95747654D02*
X72314285Y-95861940D01*
X72314285Y-95861940D02*
X72257142Y-95919083D01*
X72257142Y-95919083D02*
X72142857Y-95976226D01*
X72142857Y-95976226D02*
X71685714Y-95976226D01*
X73342857Y-96490512D02*
X73228571Y-96547654D01*
X73228571Y-96547654D02*
X73000000Y-96547654D01*
X73000000Y-96547654D02*
X72885714Y-96490512D01*
X72885714Y-96490512D02*
X72828571Y-96376226D01*
X72828571Y-96376226D02*
X72828571Y-95919083D01*
X72828571Y-95919083D02*
X72885714Y-95804797D01*
X72885714Y-95804797D02*
X73000000Y-95747654D01*
X73000000Y-95747654D02*
X73228571Y-95747654D01*
X73228571Y-95747654D02*
X73342857Y-95804797D01*
X73342857Y-95804797D02*
X73400000Y-95919083D01*
X73400000Y-95919083D02*
X73400000Y-96033369D01*
X73400000Y-96033369D02*
X72828571Y-96147654D01*
X73799999Y-95747654D02*
X74085713Y-96547654D01*
X74085713Y-96547654D02*
X74371428Y-95747654D01*
X74771428Y-96204797D02*
X75342857Y-96204797D01*
X74657142Y-96547654D02*
X75057142Y-95347654D01*
X75057142Y-95347654D02*
X75457142Y-96547654D01*
X76771428Y-96090512D02*
X77685714Y-96090512D01*
X79114285Y-95461940D02*
X79171428Y-95404797D01*
X79171428Y-95404797D02*
X79285714Y-95347654D01*
X79285714Y-95347654D02*
X79571428Y-95347654D01*
X79571428Y-95347654D02*
X79685714Y-95404797D01*
X79685714Y-95404797D02*
X79742856Y-95461940D01*
X79742856Y-95461940D02*
X79799999Y-95576226D01*
X79799999Y-95576226D02*
X79799999Y-95690512D01*
X79799999Y-95690512D02*
X79742856Y-95861940D01*
X79742856Y-95861940D02*
X79057142Y-96547654D01*
X79057142Y-96547654D02*
X79799999Y-96547654D01*
X80828571Y-95747654D02*
X80828571Y-96547654D01*
X80542856Y-95290512D02*
X80257142Y-96147654D01*
X80257142Y-96147654D02*
X80999999Y-96147654D01*
X81285713Y-95347654D02*
X81685713Y-96547654D01*
X81685713Y-96547654D02*
X82085713Y-95347654D01*
X83342856Y-95290512D02*
X82314284Y-96833369D01*
X83628570Y-95347654D02*
X84371427Y-95347654D01*
X84371427Y-95347654D02*
X83971427Y-95804797D01*
X83971427Y-95804797D02*
X84142856Y-95804797D01*
X84142856Y-95804797D02*
X84257142Y-95861940D01*
X84257142Y-95861940D02*
X84314284Y-95919083D01*
X84314284Y-95919083D02*
X84371427Y-96033369D01*
X84371427Y-96033369D02*
X84371427Y-96319083D01*
X84371427Y-96319083D02*
X84314284Y-96433369D01*
X84314284Y-96433369D02*
X84257142Y-96490512D01*
X84257142Y-96490512D02*
X84142856Y-96547654D01*
X84142856Y-96547654D02*
X83799999Y-96547654D01*
X83799999Y-96547654D02*
X83685713Y-96490512D01*
X83685713Y-96490512D02*
X83628570Y-96433369D01*
X84828570Y-96204797D02*
X85399999Y-96204797D01*
X84714284Y-96547654D02*
X85114284Y-95347654D01*
X85114284Y-95347654D02*
X85514284Y-96547654D01*
X86828570Y-96547654D02*
X86828570Y-95747654D01*
X86828570Y-95347654D02*
X86771427Y-95404797D01*
X86771427Y-95404797D02*
X86828570Y-95461940D01*
X86828570Y-95461940D02*
X86885713Y-95404797D01*
X86885713Y-95404797D02*
X86828570Y-95347654D01*
X86828570Y-95347654D02*
X86828570Y-95461940D01*
X87399999Y-95747654D02*
X87399999Y-96547654D01*
X87399999Y-95861940D02*
X87457142Y-95804797D01*
X87457142Y-95804797D02*
X87571427Y-95747654D01*
X87571427Y-95747654D02*
X87742856Y-95747654D01*
X87742856Y-95747654D02*
X87857142Y-95804797D01*
X87857142Y-95804797D02*
X87914285Y-95919083D01*
X87914285Y-95919083D02*
X87914285Y-96547654D01*
X88485713Y-95747654D02*
X88485713Y-96947654D01*
X88485713Y-95804797D02*
X88599999Y-95747654D01*
X88599999Y-95747654D02*
X88828570Y-95747654D01*
X88828570Y-95747654D02*
X88942856Y-95804797D01*
X88942856Y-95804797D02*
X88999999Y-95861940D01*
X88999999Y-95861940D02*
X89057141Y-95976226D01*
X89057141Y-95976226D02*
X89057141Y-96319083D01*
X89057141Y-96319083D02*
X88999999Y-96433369D01*
X88999999Y-96433369D02*
X88942856Y-96490512D01*
X88942856Y-96490512D02*
X88828570Y-96547654D01*
X88828570Y-96547654D02*
X88599999Y-96547654D01*
X88599999Y-96547654D02*
X88485713Y-96490512D01*
X90085713Y-95747654D02*
X90085713Y-96547654D01*
X89571427Y-95747654D02*
X89571427Y-96376226D01*
X89571427Y-96376226D02*
X89628570Y-96490512D01*
X89628570Y-96490512D02*
X89742855Y-96547654D01*
X89742855Y-96547654D02*
X89914284Y-96547654D01*
X89914284Y-96547654D02*
X90028570Y-96490512D01*
X90028570Y-96490512D02*
X90085713Y-96433369D01*
X90485712Y-95747654D02*
X90942855Y-95747654D01*
X90657141Y-95347654D02*
X90657141Y-96376226D01*
X90657141Y-96376226D02*
X90714284Y-96490512D01*
X90714284Y-96490512D02*
X90828569Y-96547654D01*
X90828569Y-96547654D02*
X90942855Y-96547654D01*
X91399998Y-96490512D02*
X91399998Y-96547654D01*
X91399998Y-96547654D02*
X91342855Y-96661940D01*
X91342855Y-96661940D02*
X91285712Y-96719083D01*
X92828570Y-95747654D02*
X92828570Y-96547654D01*
X92828570Y-95861940D02*
X92885713Y-95804797D01*
X92885713Y-95804797D02*
X92999998Y-95747654D01*
X92999998Y-95747654D02*
X93171427Y-95747654D01*
X93171427Y-95747654D02*
X93285713Y-95804797D01*
X93285713Y-95804797D02*
X93342856Y-95919083D01*
X93342856Y-95919083D02*
X93342856Y-96547654D01*
X94085712Y-96547654D02*
X93971427Y-96490512D01*
X93971427Y-96490512D02*
X93914284Y-96433369D01*
X93914284Y-96433369D02*
X93857141Y-96319083D01*
X93857141Y-96319083D02*
X93857141Y-95976226D01*
X93857141Y-95976226D02*
X93914284Y-95861940D01*
X93914284Y-95861940D02*
X93971427Y-95804797D01*
X93971427Y-95804797D02*
X94085712Y-95747654D01*
X94085712Y-95747654D02*
X94257141Y-95747654D01*
X94257141Y-95747654D02*
X94371427Y-95804797D01*
X94371427Y-95804797D02*
X94428570Y-95861940D01*
X94428570Y-95861940D02*
X94485712Y-95976226D01*
X94485712Y-95976226D02*
X94485712Y-96319083D01*
X94485712Y-96319083D02*
X94428570Y-96433369D01*
X94428570Y-96433369D02*
X94371427Y-96490512D01*
X94371427Y-96490512D02*
X94257141Y-96547654D01*
X94257141Y-96547654D02*
X94085712Y-96547654D01*
X95857141Y-95461940D02*
X95914284Y-95404797D01*
X95914284Y-95404797D02*
X96028570Y-95347654D01*
X96028570Y-95347654D02*
X96314284Y-95347654D01*
X96314284Y-95347654D02*
X96428570Y-95404797D01*
X96428570Y-95404797D02*
X96485712Y-95461940D01*
X96485712Y-95461940D02*
X96542855Y-95576226D01*
X96542855Y-95576226D02*
X96542855Y-95690512D01*
X96542855Y-95690512D02*
X96485712Y-95861940D01*
X96485712Y-95861940D02*
X95799998Y-96547654D01*
X95799998Y-96547654D02*
X96542855Y-96547654D01*
X96942855Y-95347654D02*
X97685712Y-95347654D01*
X97685712Y-95347654D02*
X97285712Y-95804797D01*
X97285712Y-95804797D02*
X97457141Y-95804797D01*
X97457141Y-95804797D02*
X97571427Y-95861940D01*
X97571427Y-95861940D02*
X97628569Y-95919083D01*
X97628569Y-95919083D02*
X97685712Y-96033369D01*
X97685712Y-96033369D02*
X97685712Y-96319083D01*
X97685712Y-96319083D02*
X97628569Y-96433369D01*
X97628569Y-96433369D02*
X97571427Y-96490512D01*
X97571427Y-96490512D02*
X97457141Y-96547654D01*
X97457141Y-96547654D02*
X97114284Y-96547654D01*
X97114284Y-96547654D02*
X96999998Y-96490512D01*
X96999998Y-96490512D02*
X96942855Y-96433369D01*
X98428569Y-95347654D02*
X98542855Y-95347654D01*
X98542855Y-95347654D02*
X98657141Y-95404797D01*
X98657141Y-95404797D02*
X98714284Y-95461940D01*
X98714284Y-95461940D02*
X98771426Y-95576226D01*
X98771426Y-95576226D02*
X98828569Y-95804797D01*
X98828569Y-95804797D02*
X98828569Y-96090512D01*
X98828569Y-96090512D02*
X98771426Y-96319083D01*
X98771426Y-96319083D02*
X98714284Y-96433369D01*
X98714284Y-96433369D02*
X98657141Y-96490512D01*
X98657141Y-96490512D02*
X98542855Y-96547654D01*
X98542855Y-96547654D02*
X98428569Y-96547654D01*
X98428569Y-96547654D02*
X98314284Y-96490512D01*
X98314284Y-96490512D02*
X98257141Y-96433369D01*
X98257141Y-96433369D02*
X98199998Y-96319083D01*
X98199998Y-96319083D02*
X98142855Y-96090512D01*
X98142855Y-96090512D02*
X98142855Y-95804797D01*
X98142855Y-95804797D02*
X98199998Y-95576226D01*
X98199998Y-95576226D02*
X98257141Y-95461940D01*
X98257141Y-95461940D02*
X98314284Y-95404797D01*
X98314284Y-95404797D02*
X98428569Y-95347654D01*
X99171426Y-95347654D02*
X99571426Y-96547654D01*
X99571426Y-96547654D02*
X99971426Y-95347654D01*
X101457140Y-96547654D02*
X101342855Y-96490512D01*
X101342855Y-96490512D02*
X101285712Y-96433369D01*
X101285712Y-96433369D02*
X101228569Y-96319083D01*
X101228569Y-96319083D02*
X101228569Y-95976226D01*
X101228569Y-95976226D02*
X101285712Y-95861940D01*
X101285712Y-95861940D02*
X101342855Y-95804797D01*
X101342855Y-95804797D02*
X101457140Y-95747654D01*
X101457140Y-95747654D02*
X101628569Y-95747654D01*
X101628569Y-95747654D02*
X101742855Y-95804797D01*
X101742855Y-95804797D02*
X101799998Y-95861940D01*
X101799998Y-95861940D02*
X101857140Y-95976226D01*
X101857140Y-95976226D02*
X101857140Y-96319083D01*
X101857140Y-96319083D02*
X101799998Y-96433369D01*
X101799998Y-96433369D02*
X101742855Y-96490512D01*
X101742855Y-96490512D02*
X101628569Y-96547654D01*
X101628569Y-96547654D02*
X101457140Y-96547654D01*
X102371426Y-95747654D02*
X102371426Y-96547654D01*
X102371426Y-95861940D02*
X102428569Y-95804797D01*
X102428569Y-95804797D02*
X102542854Y-95747654D01*
X102542854Y-95747654D02*
X102714283Y-95747654D01*
X102714283Y-95747654D02*
X102828569Y-95804797D01*
X102828569Y-95804797D02*
X102885712Y-95919083D01*
X102885712Y-95919083D02*
X102885712Y-96547654D01*
X104371426Y-96547654D02*
X104371426Y-95347654D01*
X104371426Y-95347654D02*
X104828569Y-95347654D01*
X104828569Y-95347654D02*
X104942854Y-95404797D01*
X104942854Y-95404797D02*
X104999997Y-95461940D01*
X104999997Y-95461940D02*
X105057140Y-95576226D01*
X105057140Y-95576226D02*
X105057140Y-95747654D01*
X105057140Y-95747654D02*
X104999997Y-95861940D01*
X104999997Y-95861940D02*
X104942854Y-95919083D01*
X104942854Y-95919083D02*
X104828569Y-95976226D01*
X104828569Y-95976226D02*
X104371426Y-95976226D01*
X106257140Y-96433369D02*
X106199997Y-96490512D01*
X106199997Y-96490512D02*
X106028569Y-96547654D01*
X106028569Y-96547654D02*
X105914283Y-96547654D01*
X105914283Y-96547654D02*
X105742854Y-96490512D01*
X105742854Y-96490512D02*
X105628569Y-96376226D01*
X105628569Y-96376226D02*
X105571426Y-96261940D01*
X105571426Y-96261940D02*
X105514283Y-96033369D01*
X105514283Y-96033369D02*
X105514283Y-95861940D01*
X105514283Y-95861940D02*
X105571426Y-95633369D01*
X105571426Y-95633369D02*
X105628569Y-95519083D01*
X105628569Y-95519083D02*
X105742854Y-95404797D01*
X105742854Y-95404797D02*
X105914283Y-95347654D01*
X105914283Y-95347654D02*
X106028569Y-95347654D01*
X106028569Y-95347654D02*
X106199997Y-95404797D01*
X106199997Y-95404797D02*
X106257140Y-95461940D01*
X107171426Y-95919083D02*
X107342854Y-95976226D01*
X107342854Y-95976226D02*
X107399997Y-96033369D01*
X107399997Y-96033369D02*
X107457140Y-96147654D01*
X107457140Y-96147654D02*
X107457140Y-96319083D01*
X107457140Y-96319083D02*
X107399997Y-96433369D01*
X107399997Y-96433369D02*
X107342854Y-96490512D01*
X107342854Y-96490512D02*
X107228569Y-96547654D01*
X107228569Y-96547654D02*
X106771426Y-96547654D01*
X106771426Y-96547654D02*
X106771426Y-95347654D01*
X106771426Y-95347654D02*
X107171426Y-95347654D01*
X107171426Y-95347654D02*
X107285712Y-95404797D01*
X107285712Y-95404797D02*
X107342854Y-95461940D01*
X107342854Y-95461940D02*
X107399997Y-95576226D01*
X107399997Y-95576226D02*
X107399997Y-95690512D01*
X107399997Y-95690512D02*
X107342854Y-95804797D01*
X107342854Y-95804797D02*
X107285712Y-95861940D01*
X107285712Y-95861940D02*
X107171426Y-95919083D01*
X107171426Y-95919083D02*
X106771426Y-95919083D01*
D13*
X48647619Y-70163855D02*
X49104762Y-70163855D01*
X48876190Y-70963855D02*
X48876190Y-70163855D01*
X49371429Y-70963855D02*
X49371429Y-70163855D01*
X49371429Y-70163855D02*
X49676191Y-70163855D01*
X49676191Y-70163855D02*
X49752381Y-70201950D01*
X49752381Y-70201950D02*
X49790476Y-70240045D01*
X49790476Y-70240045D02*
X49828572Y-70316236D01*
X49828572Y-70316236D02*
X49828572Y-70430521D01*
X49828572Y-70430521D02*
X49790476Y-70506712D01*
X49790476Y-70506712D02*
X49752381Y-70544807D01*
X49752381Y-70544807D02*
X49676191Y-70582902D01*
X49676191Y-70582902D02*
X49371429Y-70582902D01*
X50552381Y-70163855D02*
X50171429Y-70163855D01*
X50171429Y-70163855D02*
X50133333Y-70544807D01*
X50133333Y-70544807D02*
X50171429Y-70506712D01*
X50171429Y-70506712D02*
X50247619Y-70468617D01*
X50247619Y-70468617D02*
X50438095Y-70468617D01*
X50438095Y-70468617D02*
X50514286Y-70506712D01*
X50514286Y-70506712D02*
X50552381Y-70544807D01*
X50552381Y-70544807D02*
X50590476Y-70620998D01*
X50590476Y-70620998D02*
X50590476Y-70811474D01*
X50590476Y-70811474D02*
X50552381Y-70887664D01*
X50552381Y-70887664D02*
X50514286Y-70925760D01*
X50514286Y-70925760D02*
X50438095Y-70963855D01*
X50438095Y-70963855D02*
X50247619Y-70963855D01*
X50247619Y-70963855D02*
X50171429Y-70925760D01*
X50171429Y-70925760D02*
X50133333Y-70887664D01*
X50819048Y-70163855D02*
X51085715Y-70963855D01*
X51085715Y-70963855D02*
X51352381Y-70163855D01*
D14*
X138739819Y-31333333D02*
X139454104Y-31333333D01*
X139454104Y-31333333D02*
X139596961Y-31380952D01*
X139596961Y-31380952D02*
X139692200Y-31476190D01*
X139692200Y-31476190D02*
X139739819Y-31619047D01*
X139739819Y-31619047D02*
X139739819Y-31714285D01*
X138739819Y-30380952D02*
X138739819Y-30857142D01*
X138739819Y-30857142D02*
X139216009Y-30904761D01*
X139216009Y-30904761D02*
X139168390Y-30857142D01*
X139168390Y-30857142D02*
X139120771Y-30761904D01*
X139120771Y-30761904D02*
X139120771Y-30523809D01*
X139120771Y-30523809D02*
X139168390Y-30428571D01*
X139168390Y-30428571D02*
X139216009Y-30380952D01*
X139216009Y-30380952D02*
X139311247Y-30333333D01*
X139311247Y-30333333D02*
X139549342Y-30333333D01*
X139549342Y-30333333D02*
X139644580Y-30380952D01*
X139644580Y-30380952D02*
X139692200Y-30428571D01*
X139692200Y-30428571D02*
X139739819Y-30523809D01*
X139739819Y-30523809D02*
X139739819Y-30761904D01*
X139739819Y-30761904D02*
X139692200Y-30857142D01*
X139692200Y-30857142D02*
X139644580Y-30904761D01*
X139666666Y-48454819D02*
X139666666Y-49169104D01*
X139666666Y-49169104D02*
X139619047Y-49311961D01*
X139619047Y-49311961D02*
X139523809Y-49407200D01*
X139523809Y-49407200D02*
X139380952Y-49454819D01*
X139380952Y-49454819D02*
X139285714Y-49454819D01*
X140571428Y-48788152D02*
X140571428Y-49454819D01*
X140333333Y-48407200D02*
X140095238Y-49121485D01*
X140095238Y-49121485D02*
X140714285Y-49121485D01*
X127833333Y-28454819D02*
X127500000Y-27978628D01*
X127261905Y-28454819D02*
X127261905Y-27454819D01*
X127261905Y-27454819D02*
X127642857Y-27454819D01*
X127642857Y-27454819D02*
X127738095Y-27502438D01*
X127738095Y-27502438D02*
X127785714Y-27550057D01*
X127785714Y-27550057D02*
X127833333Y-27645295D01*
X127833333Y-27645295D02*
X127833333Y-27788152D01*
X127833333Y-27788152D02*
X127785714Y-27883390D01*
X127785714Y-27883390D02*
X127738095Y-27931009D01*
X127738095Y-27931009D02*
X127642857Y-27978628D01*
X127642857Y-27978628D02*
X127261905Y-27978628D01*
X128404762Y-27883390D02*
X128309524Y-27835771D01*
X128309524Y-27835771D02*
X128261905Y-27788152D01*
X128261905Y-27788152D02*
X128214286Y-27692914D01*
X128214286Y-27692914D02*
X128214286Y-27645295D01*
X128214286Y-27645295D02*
X128261905Y-27550057D01*
X128261905Y-27550057D02*
X128309524Y-27502438D01*
X128309524Y-27502438D02*
X128404762Y-27454819D01*
X128404762Y-27454819D02*
X128595238Y-27454819D01*
X128595238Y-27454819D02*
X128690476Y-27502438D01*
X128690476Y-27502438D02*
X128738095Y-27550057D01*
X128738095Y-27550057D02*
X128785714Y-27645295D01*
X128785714Y-27645295D02*
X128785714Y-27692914D01*
X128785714Y-27692914D02*
X128738095Y-27788152D01*
X128738095Y-27788152D02*
X128690476Y-27835771D01*
X128690476Y-27835771D02*
X128595238Y-27883390D01*
X128595238Y-27883390D02*
X128404762Y-27883390D01*
X128404762Y-27883390D02*
X128309524Y-27931009D01*
X128309524Y-27931009D02*
X128261905Y-27978628D01*
X128261905Y-27978628D02*
X128214286Y-28073866D01*
X128214286Y-28073866D02*
X128214286Y-28264342D01*
X128214286Y-28264342D02*
X128261905Y-28359580D01*
X128261905Y-28359580D02*
X128309524Y-28407200D01*
X128309524Y-28407200D02*
X128404762Y-28454819D01*
X128404762Y-28454819D02*
X128595238Y-28454819D01*
X128595238Y-28454819D02*
X128690476Y-28407200D01*
X128690476Y-28407200D02*
X128738095Y-28359580D01*
X128738095Y-28359580D02*
X128785714Y-28264342D01*
X128785714Y-28264342D02*
X128785714Y-28073866D01*
X128785714Y-28073866D02*
X128738095Y-27978628D01*
X128738095Y-27978628D02*
X128690476Y-27931009D01*
X128690476Y-27931009D02*
X128595238Y-27883390D01*
X41666667Y-39407200D02*
X41809524Y-39454819D01*
X41809524Y-39454819D02*
X42047619Y-39454819D01*
X42047619Y-39454819D02*
X42142857Y-39407200D01*
X42142857Y-39407200D02*
X42190476Y-39359580D01*
X42190476Y-39359580D02*
X42238095Y-39264342D01*
X42238095Y-39264342D02*
X42238095Y-39169104D01*
X42238095Y-39169104D02*
X42190476Y-39073866D01*
X42190476Y-39073866D02*
X42142857Y-39026247D01*
X42142857Y-39026247D02*
X42047619Y-38978628D01*
X42047619Y-38978628D02*
X41857143Y-38931009D01*
X41857143Y-38931009D02*
X41761905Y-38883390D01*
X41761905Y-38883390D02*
X41714286Y-38835771D01*
X41714286Y-38835771D02*
X41666667Y-38740533D01*
X41666667Y-38740533D02*
X41666667Y-38645295D01*
X41666667Y-38645295D02*
X41714286Y-38550057D01*
X41714286Y-38550057D02*
X41761905Y-38502438D01*
X41761905Y-38502438D02*
X41857143Y-38454819D01*
X41857143Y-38454819D02*
X42095238Y-38454819D01*
X42095238Y-38454819D02*
X42238095Y-38502438D01*
X42571429Y-38454819D02*
X42809524Y-39454819D01*
X42809524Y-39454819D02*
X43000000Y-38740533D01*
X43000000Y-38740533D02*
X43190476Y-39454819D01*
X43190476Y-39454819D02*
X43428572Y-38454819D01*
X43761905Y-38550057D02*
X43809524Y-38502438D01*
X43809524Y-38502438D02*
X43904762Y-38454819D01*
X43904762Y-38454819D02*
X44142857Y-38454819D01*
X44142857Y-38454819D02*
X44238095Y-38502438D01*
X44238095Y-38502438D02*
X44285714Y-38550057D01*
X44285714Y-38550057D02*
X44333333Y-38645295D01*
X44333333Y-38645295D02*
X44333333Y-38740533D01*
X44333333Y-38740533D02*
X44285714Y-38883390D01*
X44285714Y-38883390D02*
X43714286Y-39454819D01*
X43714286Y-39454819D02*
X44333333Y-39454819D01*
X75833333Y-83359580D02*
X75785714Y-83407200D01*
X75785714Y-83407200D02*
X75642857Y-83454819D01*
X75642857Y-83454819D02*
X75547619Y-83454819D01*
X75547619Y-83454819D02*
X75404762Y-83407200D01*
X75404762Y-83407200D02*
X75309524Y-83311961D01*
X75309524Y-83311961D02*
X75261905Y-83216723D01*
X75261905Y-83216723D02*
X75214286Y-83026247D01*
X75214286Y-83026247D02*
X75214286Y-82883390D01*
X75214286Y-82883390D02*
X75261905Y-82692914D01*
X75261905Y-82692914D02*
X75309524Y-82597676D01*
X75309524Y-82597676D02*
X75404762Y-82502438D01*
X75404762Y-82502438D02*
X75547619Y-82454819D01*
X75547619Y-82454819D02*
X75642857Y-82454819D01*
X75642857Y-82454819D02*
X75785714Y-82502438D01*
X75785714Y-82502438D02*
X75833333Y-82550057D01*
X76214286Y-82550057D02*
X76261905Y-82502438D01*
X76261905Y-82502438D02*
X76357143Y-82454819D01*
X76357143Y-82454819D02*
X76595238Y-82454819D01*
X76595238Y-82454819D02*
X76690476Y-82502438D01*
X76690476Y-82502438D02*
X76738095Y-82550057D01*
X76738095Y-82550057D02*
X76785714Y-82645295D01*
X76785714Y-82645295D02*
X76785714Y-82740533D01*
X76785714Y-82740533D02*
X76738095Y-82883390D01*
X76738095Y-82883390D02*
X76166667Y-83454819D01*
X76166667Y-83454819D02*
X76785714Y-83454819D01*
X41666667Y-29407200D02*
X41809524Y-29454819D01*
X41809524Y-29454819D02*
X42047619Y-29454819D01*
X42047619Y-29454819D02*
X42142857Y-29407200D01*
X42142857Y-29407200D02*
X42190476Y-29359580D01*
X42190476Y-29359580D02*
X42238095Y-29264342D01*
X42238095Y-29264342D02*
X42238095Y-29169104D01*
X42238095Y-29169104D02*
X42190476Y-29073866D01*
X42190476Y-29073866D02*
X42142857Y-29026247D01*
X42142857Y-29026247D02*
X42047619Y-28978628D01*
X42047619Y-28978628D02*
X41857143Y-28931009D01*
X41857143Y-28931009D02*
X41761905Y-28883390D01*
X41761905Y-28883390D02*
X41714286Y-28835771D01*
X41714286Y-28835771D02*
X41666667Y-28740533D01*
X41666667Y-28740533D02*
X41666667Y-28645295D01*
X41666667Y-28645295D02*
X41714286Y-28550057D01*
X41714286Y-28550057D02*
X41761905Y-28502438D01*
X41761905Y-28502438D02*
X41857143Y-28454819D01*
X41857143Y-28454819D02*
X42095238Y-28454819D01*
X42095238Y-28454819D02*
X42238095Y-28502438D01*
X42571429Y-28454819D02*
X42809524Y-29454819D01*
X42809524Y-29454819D02*
X43000000Y-28740533D01*
X43000000Y-28740533D02*
X43190476Y-29454819D01*
X43190476Y-29454819D02*
X43428572Y-28454819D01*
X44333333Y-29454819D02*
X43761905Y-29454819D01*
X44047619Y-29454819D02*
X44047619Y-28454819D01*
X44047619Y-28454819D02*
X43952381Y-28597676D01*
X43952381Y-28597676D02*
X43857143Y-28692914D01*
X43857143Y-28692914D02*
X43761905Y-28740533D01*
X9666666Y-44454819D02*
X9666666Y-45169104D01*
X9666666Y-45169104D02*
X9619047Y-45311961D01*
X9619047Y-45311961D02*
X9523809Y-45407200D01*
X9523809Y-45407200D02*
X9380952Y-45454819D01*
X9380952Y-45454819D02*
X9285714Y-45454819D01*
X10095238Y-44550057D02*
X10142857Y-44502438D01*
X10142857Y-44502438D02*
X10238095Y-44454819D01*
X10238095Y-44454819D02*
X10476190Y-44454819D01*
X10476190Y-44454819D02*
X10571428Y-44502438D01*
X10571428Y-44502438D02*
X10619047Y-44550057D01*
X10619047Y-44550057D02*
X10666666Y-44645295D01*
X10666666Y-44645295D02*
X10666666Y-44740533D01*
X10666666Y-44740533D02*
X10619047Y-44883390D01*
X10619047Y-44883390D02*
X10047619Y-45454819D01*
X10047619Y-45454819D02*
X10666666Y-45454819D01*
X9666666Y-14454819D02*
X9666666Y-15169104D01*
X9666666Y-15169104D02*
X9619047Y-15311961D01*
X9619047Y-15311961D02*
X9523809Y-15407200D01*
X9523809Y-15407200D02*
X9380952Y-15454819D01*
X9380952Y-15454819D02*
X9285714Y-15454819D01*
X10666666Y-15454819D02*
X10095238Y-15454819D01*
X10380952Y-15454819D02*
X10380952Y-14454819D01*
X10380952Y-14454819D02*
X10285714Y-14597676D01*
X10285714Y-14597676D02*
X10190476Y-14692914D01*
X10190476Y-14692914D02*
X10095238Y-14740533D01*
X73954819Y-37161904D02*
X74764342Y-37161904D01*
X74764342Y-37161904D02*
X74859580Y-37114285D01*
X74859580Y-37114285D02*
X74907200Y-37066666D01*
X74907200Y-37066666D02*
X74954819Y-36971428D01*
X74954819Y-36971428D02*
X74954819Y-36780952D01*
X74954819Y-36780952D02*
X74907200Y-36685714D01*
X74907200Y-36685714D02*
X74859580Y-36638095D01*
X74859580Y-36638095D02*
X74764342Y-36590476D01*
X74764342Y-36590476D02*
X73954819Y-36590476D01*
X74954819Y-35590476D02*
X74954819Y-36161904D01*
X74954819Y-35876190D02*
X73954819Y-35876190D01*
X73954819Y-35876190D02*
X74097676Y-35971428D01*
X74097676Y-35971428D02*
X74192914Y-36066666D01*
X74192914Y-36066666D02*
X74240533Y-36161904D01*
X64833333Y-45454819D02*
X64500000Y-44978628D01*
X64261905Y-45454819D02*
X64261905Y-44454819D01*
X64261905Y-44454819D02*
X64642857Y-44454819D01*
X64642857Y-44454819D02*
X64738095Y-44502438D01*
X64738095Y-44502438D02*
X64785714Y-44550057D01*
X64785714Y-44550057D02*
X64833333Y-44645295D01*
X64833333Y-44645295D02*
X64833333Y-44788152D01*
X64833333Y-44788152D02*
X64785714Y-44883390D01*
X64785714Y-44883390D02*
X64738095Y-44931009D01*
X64738095Y-44931009D02*
X64642857Y-44978628D01*
X64642857Y-44978628D02*
X64261905Y-44978628D01*
X65785714Y-45454819D02*
X65214286Y-45454819D01*
X65500000Y-45454819D02*
X65500000Y-44454819D01*
X65500000Y-44454819D02*
X65404762Y-44597676D01*
X65404762Y-44597676D02*
X65309524Y-44692914D01*
X65309524Y-44692914D02*
X65214286Y-44740533D01*
X31666666Y-14931009D02*
X31333333Y-14931009D01*
X31333333Y-15454819D02*
X31333333Y-14454819D01*
X31333333Y-14454819D02*
X31809523Y-14454819D01*
X32714285Y-15454819D02*
X32142857Y-15454819D01*
X32428571Y-15454819D02*
X32428571Y-14454819D01*
X32428571Y-14454819D02*
X32333333Y-14597676D01*
X32333333Y-14597676D02*
X32238095Y-14692914D01*
X32238095Y-14692914D02*
X32142857Y-14740533D01*
X90833333Y-60359580D02*
X90785714Y-60407200D01*
X90785714Y-60407200D02*
X90642857Y-60454819D01*
X90642857Y-60454819D02*
X90547619Y-60454819D01*
X90547619Y-60454819D02*
X90404762Y-60407200D01*
X90404762Y-60407200D02*
X90309524Y-60311961D01*
X90309524Y-60311961D02*
X90261905Y-60216723D01*
X90261905Y-60216723D02*
X90214286Y-60026247D01*
X90214286Y-60026247D02*
X90214286Y-59883390D01*
X90214286Y-59883390D02*
X90261905Y-59692914D01*
X90261905Y-59692914D02*
X90309524Y-59597676D01*
X90309524Y-59597676D02*
X90404762Y-59502438D01*
X90404762Y-59502438D02*
X90547619Y-59454819D01*
X90547619Y-59454819D02*
X90642857Y-59454819D01*
X90642857Y-59454819D02*
X90785714Y-59502438D01*
X90785714Y-59502438D02*
X90833333Y-59550057D01*
X91166667Y-59454819D02*
X91785714Y-59454819D01*
X91785714Y-59454819D02*
X91452381Y-59835771D01*
X91452381Y-59835771D02*
X91595238Y-59835771D01*
X91595238Y-59835771D02*
X91690476Y-59883390D01*
X91690476Y-59883390D02*
X91738095Y-59931009D01*
X91738095Y-59931009D02*
X91785714Y-60026247D01*
X91785714Y-60026247D02*
X91785714Y-60264342D01*
X91785714Y-60264342D02*
X91738095Y-60359580D01*
X91738095Y-60359580D02*
X91690476Y-60407200D01*
X91690476Y-60407200D02*
X91595238Y-60454819D01*
X91595238Y-60454819D02*
X91309524Y-60454819D01*
X91309524Y-60454819D02*
X91214286Y-60407200D01*
X91214286Y-60407200D02*
X91166667Y-60359580D01*
X44904761Y-45550057D02*
X44809523Y-45502438D01*
X44809523Y-45502438D02*
X44714285Y-45407200D01*
X44714285Y-45407200D02*
X44571428Y-45264342D01*
X44571428Y-45264342D02*
X44476190Y-45216723D01*
X44476190Y-45216723D02*
X44380952Y-45216723D01*
X44428571Y-45454819D02*
X44333333Y-45407200D01*
X44333333Y-45407200D02*
X44238095Y-45311961D01*
X44238095Y-45311961D02*
X44190476Y-45121485D01*
X44190476Y-45121485D02*
X44190476Y-44788152D01*
X44190476Y-44788152D02*
X44238095Y-44597676D01*
X44238095Y-44597676D02*
X44333333Y-44502438D01*
X44333333Y-44502438D02*
X44428571Y-44454819D01*
X44428571Y-44454819D02*
X44619047Y-44454819D01*
X44619047Y-44454819D02*
X44714285Y-44502438D01*
X44714285Y-44502438D02*
X44809523Y-44597676D01*
X44809523Y-44597676D02*
X44857142Y-44788152D01*
X44857142Y-44788152D02*
X44857142Y-45121485D01*
X44857142Y-45121485D02*
X44809523Y-45311961D01*
X44809523Y-45311961D02*
X44714285Y-45407200D01*
X44714285Y-45407200D02*
X44619047Y-45454819D01*
X44619047Y-45454819D02*
X44428571Y-45454819D01*
X45809523Y-45454819D02*
X45238095Y-45454819D01*
X45523809Y-45454819D02*
X45523809Y-44454819D01*
X45523809Y-44454819D02*
X45428571Y-44597676D01*
X45428571Y-44597676D02*
X45333333Y-44692914D01*
X45333333Y-44692914D02*
X45238095Y-44740533D01*
X97238095Y-51454819D02*
X97238095Y-52264342D01*
X97238095Y-52264342D02*
X97285714Y-52359580D01*
X97285714Y-52359580D02*
X97333333Y-52407200D01*
X97333333Y-52407200D02*
X97428571Y-52454819D01*
X97428571Y-52454819D02*
X97619047Y-52454819D01*
X97619047Y-52454819D02*
X97714285Y-52407200D01*
X97714285Y-52407200D02*
X97761904Y-52359580D01*
X97761904Y-52359580D02*
X97809523Y-52264342D01*
X97809523Y-52264342D02*
X97809523Y-51454819D01*
X98238095Y-51550057D02*
X98285714Y-51502438D01*
X98285714Y-51502438D02*
X98380952Y-51454819D01*
X98380952Y-51454819D02*
X98619047Y-51454819D01*
X98619047Y-51454819D02*
X98714285Y-51502438D01*
X98714285Y-51502438D02*
X98761904Y-51550057D01*
X98761904Y-51550057D02*
X98809523Y-51645295D01*
X98809523Y-51645295D02*
X98809523Y-51740533D01*
X98809523Y-51740533D02*
X98761904Y-51883390D01*
X98761904Y-51883390D02*
X98190476Y-52454819D01*
X98190476Y-52454819D02*
X98809523Y-52454819D01*
X129357142Y-37454819D02*
X129023809Y-36978628D01*
X128785714Y-37454819D02*
X128785714Y-36454819D01*
X128785714Y-36454819D02*
X129166666Y-36454819D01*
X129166666Y-36454819D02*
X129261904Y-36502438D01*
X129261904Y-36502438D02*
X129309523Y-36550057D01*
X129309523Y-36550057D02*
X129357142Y-36645295D01*
X129357142Y-36645295D02*
X129357142Y-36788152D01*
X129357142Y-36788152D02*
X129309523Y-36883390D01*
X129309523Y-36883390D02*
X129261904Y-36931009D01*
X129261904Y-36931009D02*
X129166666Y-36978628D01*
X129166666Y-36978628D02*
X128785714Y-36978628D01*
X130309523Y-37454819D02*
X129738095Y-37454819D01*
X130023809Y-37454819D02*
X130023809Y-36454819D01*
X130023809Y-36454819D02*
X129928571Y-36597676D01*
X129928571Y-36597676D02*
X129833333Y-36692914D01*
X129833333Y-36692914D02*
X129738095Y-36740533D01*
X131261904Y-37454819D02*
X130690476Y-37454819D01*
X130976190Y-37454819D02*
X130976190Y-36454819D01*
X130976190Y-36454819D02*
X130880952Y-36597676D01*
X130880952Y-36597676D02*
X130785714Y-36692914D01*
X130785714Y-36692914D02*
X130690476Y-36740533D01*
D13*
X132390476Y-26163855D02*
X132390476Y-26811474D01*
X132390476Y-26811474D02*
X132428571Y-26887664D01*
X132428571Y-26887664D02*
X132466666Y-26925760D01*
X132466666Y-26925760D02*
X132542857Y-26963855D01*
X132542857Y-26963855D02*
X132695238Y-26963855D01*
X132695238Y-26963855D02*
X132771428Y-26925760D01*
X132771428Y-26925760D02*
X132809523Y-26887664D01*
X132809523Y-26887664D02*
X132847619Y-26811474D01*
X132847619Y-26811474D02*
X132847619Y-26163855D01*
X133609523Y-26163855D02*
X133228571Y-26163855D01*
X133228571Y-26163855D02*
X133190475Y-26544807D01*
X133190475Y-26544807D02*
X133228571Y-26506712D01*
X133228571Y-26506712D02*
X133304761Y-26468617D01*
X133304761Y-26468617D02*
X133495237Y-26468617D01*
X133495237Y-26468617D02*
X133571428Y-26506712D01*
X133571428Y-26506712D02*
X133609523Y-26544807D01*
X133609523Y-26544807D02*
X133647618Y-26620998D01*
X133647618Y-26620998D02*
X133647618Y-26811474D01*
X133647618Y-26811474D02*
X133609523Y-26887664D01*
X133609523Y-26887664D02*
X133571428Y-26925760D01*
X133571428Y-26925760D02*
X133495237Y-26963855D01*
X133495237Y-26963855D02*
X133304761Y-26963855D01*
X133304761Y-26963855D02*
X133228571Y-26925760D01*
X133228571Y-26925760D02*
X133190475Y-26887664D01*
D14*
X35238095Y-74454819D02*
X35238095Y-75264342D01*
X35238095Y-75264342D02*
X35285714Y-75359580D01*
X35285714Y-75359580D02*
X35333333Y-75407200D01*
X35333333Y-75407200D02*
X35428571Y-75454819D01*
X35428571Y-75454819D02*
X35619047Y-75454819D01*
X35619047Y-75454819D02*
X35714285Y-75407200D01*
X35714285Y-75407200D02*
X35761904Y-75359580D01*
X35761904Y-75359580D02*
X35809523Y-75264342D01*
X35809523Y-75264342D02*
X35809523Y-74454819D01*
X36714285Y-74788152D02*
X36714285Y-75454819D01*
X36476190Y-74407200D02*
X36238095Y-75121485D01*
X36238095Y-75121485D02*
X36857142Y-75121485D01*
X111833333Y-23454819D02*
X111500000Y-22978628D01*
X111261905Y-23454819D02*
X111261905Y-22454819D01*
X111261905Y-22454819D02*
X111642857Y-22454819D01*
X111642857Y-22454819D02*
X111738095Y-22502438D01*
X111738095Y-22502438D02*
X111785714Y-22550057D01*
X111785714Y-22550057D02*
X111833333Y-22645295D01*
X111833333Y-22645295D02*
X111833333Y-22788152D01*
X111833333Y-22788152D02*
X111785714Y-22883390D01*
X111785714Y-22883390D02*
X111738095Y-22931009D01*
X111738095Y-22931009D02*
X111642857Y-22978628D01*
X111642857Y-22978628D02*
X111261905Y-22978628D01*
X112690476Y-22788152D02*
X112690476Y-23454819D01*
X112452381Y-22407200D02*
X112214286Y-23121485D01*
X112214286Y-23121485D02*
X112833333Y-23121485D01*
D13*
X9409524Y-41963855D02*
X9409524Y-41163855D01*
X9409524Y-41163855D02*
X9600000Y-41163855D01*
X9600000Y-41163855D02*
X9714286Y-41201950D01*
X9714286Y-41201950D02*
X9790476Y-41278140D01*
X9790476Y-41278140D02*
X9828571Y-41354331D01*
X9828571Y-41354331D02*
X9866667Y-41506712D01*
X9866667Y-41506712D02*
X9866667Y-41620998D01*
X9866667Y-41620998D02*
X9828571Y-41773379D01*
X9828571Y-41773379D02*
X9790476Y-41849569D01*
X9790476Y-41849569D02*
X9714286Y-41925760D01*
X9714286Y-41925760D02*
X9600000Y-41963855D01*
X9600000Y-41963855D02*
X9409524Y-41963855D01*
X10133333Y-41163855D02*
X10628571Y-41163855D01*
X10628571Y-41163855D02*
X10361905Y-41468617D01*
X10361905Y-41468617D02*
X10476190Y-41468617D01*
X10476190Y-41468617D02*
X10552381Y-41506712D01*
X10552381Y-41506712D02*
X10590476Y-41544807D01*
X10590476Y-41544807D02*
X10628571Y-41620998D01*
X10628571Y-41620998D02*
X10628571Y-41811474D01*
X10628571Y-41811474D02*
X10590476Y-41887664D01*
X10590476Y-41887664D02*
X10552381Y-41925760D01*
X10552381Y-41925760D02*
X10476190Y-41963855D01*
X10476190Y-41963855D02*
X10247619Y-41963855D01*
X10247619Y-41963855D02*
X10171428Y-41925760D01*
X10171428Y-41925760D02*
X10133333Y-41887664D01*
D14*
X64833333Y-49454819D02*
X64500000Y-48978628D01*
X64261905Y-49454819D02*
X64261905Y-48454819D01*
X64261905Y-48454819D02*
X64642857Y-48454819D01*
X64642857Y-48454819D02*
X64738095Y-48502438D01*
X64738095Y-48502438D02*
X64785714Y-48550057D01*
X64785714Y-48550057D02*
X64833333Y-48645295D01*
X64833333Y-48645295D02*
X64833333Y-48788152D01*
X64833333Y-48788152D02*
X64785714Y-48883390D01*
X64785714Y-48883390D02*
X64738095Y-48931009D01*
X64738095Y-48931009D02*
X64642857Y-48978628D01*
X64642857Y-48978628D02*
X64261905Y-48978628D01*
X65214286Y-48550057D02*
X65261905Y-48502438D01*
X65261905Y-48502438D02*
X65357143Y-48454819D01*
X65357143Y-48454819D02*
X65595238Y-48454819D01*
X65595238Y-48454819D02*
X65690476Y-48502438D01*
X65690476Y-48502438D02*
X65738095Y-48550057D01*
X65738095Y-48550057D02*
X65785714Y-48645295D01*
X65785714Y-48645295D02*
X65785714Y-48740533D01*
X65785714Y-48740533D02*
X65738095Y-48883390D01*
X65738095Y-48883390D02*
X65166667Y-49454819D01*
X65166667Y-49454819D02*
X65785714Y-49454819D01*
X67238095Y-74454819D02*
X67238095Y-75264342D01*
X67238095Y-75264342D02*
X67285714Y-75359580D01*
X67285714Y-75359580D02*
X67333333Y-75407200D01*
X67333333Y-75407200D02*
X67428571Y-75454819D01*
X67428571Y-75454819D02*
X67619047Y-75454819D01*
X67619047Y-75454819D02*
X67714285Y-75407200D01*
X67714285Y-75407200D02*
X67761904Y-75359580D01*
X67761904Y-75359580D02*
X67809523Y-75264342D01*
X67809523Y-75264342D02*
X67809523Y-74454819D01*
X68190476Y-74454819D02*
X68809523Y-74454819D01*
X68809523Y-74454819D02*
X68476190Y-74835771D01*
X68476190Y-74835771D02*
X68619047Y-74835771D01*
X68619047Y-74835771D02*
X68714285Y-74883390D01*
X68714285Y-74883390D02*
X68761904Y-74931009D01*
X68761904Y-74931009D02*
X68809523Y-75026247D01*
X68809523Y-75026247D02*
X68809523Y-75264342D01*
X68809523Y-75264342D02*
X68761904Y-75359580D01*
X68761904Y-75359580D02*
X68714285Y-75407200D01*
X68714285Y-75407200D02*
X68619047Y-75454819D01*
X68619047Y-75454819D02*
X68333333Y-75454819D01*
X68333333Y-75454819D02*
X68238095Y-75407200D01*
X68238095Y-75407200D02*
X68190476Y-75359580D01*
X27261905Y-45454819D02*
X27261905Y-44454819D01*
X27261905Y-44454819D02*
X27500000Y-44454819D01*
X27500000Y-44454819D02*
X27642857Y-44502438D01*
X27642857Y-44502438D02*
X27738095Y-44597676D01*
X27738095Y-44597676D02*
X27785714Y-44692914D01*
X27785714Y-44692914D02*
X27833333Y-44883390D01*
X27833333Y-44883390D02*
X27833333Y-45026247D01*
X27833333Y-45026247D02*
X27785714Y-45216723D01*
X27785714Y-45216723D02*
X27738095Y-45311961D01*
X27738095Y-45311961D02*
X27642857Y-45407200D01*
X27642857Y-45407200D02*
X27500000Y-45454819D01*
X27500000Y-45454819D02*
X27261905Y-45454819D01*
X28785714Y-45454819D02*
X28214286Y-45454819D01*
X28500000Y-45454819D02*
X28500000Y-44454819D01*
X28500000Y-44454819D02*
X28404762Y-44597676D01*
X28404762Y-44597676D02*
X28309524Y-44692914D01*
X28309524Y-44692914D02*
X28214286Y-44740533D01*
X54833333Y-33454819D02*
X54500000Y-32978628D01*
X54261905Y-33454819D02*
X54261905Y-32454819D01*
X54261905Y-32454819D02*
X54642857Y-32454819D01*
X54642857Y-32454819D02*
X54738095Y-32502438D01*
X54738095Y-32502438D02*
X54785714Y-32550057D01*
X54785714Y-32550057D02*
X54833333Y-32645295D01*
X54833333Y-32645295D02*
X54833333Y-32788152D01*
X54833333Y-32788152D02*
X54785714Y-32883390D01*
X54785714Y-32883390D02*
X54738095Y-32931009D01*
X54738095Y-32931009D02*
X54642857Y-32978628D01*
X54642857Y-32978628D02*
X54261905Y-32978628D01*
X55690476Y-32454819D02*
X55500000Y-32454819D01*
X55500000Y-32454819D02*
X55404762Y-32502438D01*
X55404762Y-32502438D02*
X55357143Y-32550057D01*
X55357143Y-32550057D02*
X55261905Y-32692914D01*
X55261905Y-32692914D02*
X55214286Y-32883390D01*
X55214286Y-32883390D02*
X55214286Y-33264342D01*
X55214286Y-33264342D02*
X55261905Y-33359580D01*
X55261905Y-33359580D02*
X55309524Y-33407200D01*
X55309524Y-33407200D02*
X55404762Y-33454819D01*
X55404762Y-33454819D02*
X55595238Y-33454819D01*
X55595238Y-33454819D02*
X55690476Y-33407200D01*
X55690476Y-33407200D02*
X55738095Y-33359580D01*
X55738095Y-33359580D02*
X55785714Y-33264342D01*
X55785714Y-33264342D02*
X55785714Y-33026247D01*
X55785714Y-33026247D02*
X55738095Y-32931009D01*
X55738095Y-32931009D02*
X55690476Y-32883390D01*
X55690476Y-32883390D02*
X55595238Y-32835771D01*
X55595238Y-32835771D02*
X55404762Y-32835771D01*
X55404762Y-32835771D02*
X55309524Y-32883390D01*
X55309524Y-32883390D02*
X55261905Y-32931009D01*
X55261905Y-32931009D02*
X55214286Y-33026247D01*
X129357142Y-33454819D02*
X129023809Y-32978628D01*
X128785714Y-33454819D02*
X128785714Y-32454819D01*
X128785714Y-32454819D02*
X129166666Y-32454819D01*
X129166666Y-32454819D02*
X129261904Y-32502438D01*
X129261904Y-32502438D02*
X129309523Y-32550057D01*
X129309523Y-32550057D02*
X129357142Y-32645295D01*
X129357142Y-32645295D02*
X129357142Y-32788152D01*
X129357142Y-32788152D02*
X129309523Y-32883390D01*
X129309523Y-32883390D02*
X129261904Y-32931009D01*
X129261904Y-32931009D02*
X129166666Y-32978628D01*
X129166666Y-32978628D02*
X128785714Y-32978628D01*
X130309523Y-33454819D02*
X129738095Y-33454819D01*
X130023809Y-33454819D02*
X130023809Y-32454819D01*
X130023809Y-32454819D02*
X129928571Y-32597676D01*
X129928571Y-32597676D02*
X129833333Y-32692914D01*
X129833333Y-32692914D02*
X129738095Y-32740533D01*
X130928571Y-32454819D02*
X131023809Y-32454819D01*
X131023809Y-32454819D02*
X131119047Y-32502438D01*
X131119047Y-32502438D02*
X131166666Y-32550057D01*
X131166666Y-32550057D02*
X131214285Y-32645295D01*
X131214285Y-32645295D02*
X131261904Y-32835771D01*
X131261904Y-32835771D02*
X131261904Y-33073866D01*
X131261904Y-33073866D02*
X131214285Y-33264342D01*
X131214285Y-33264342D02*
X131166666Y-33359580D01*
X131166666Y-33359580D02*
X131119047Y-33407200D01*
X131119047Y-33407200D02*
X131023809Y-33454819D01*
X131023809Y-33454819D02*
X130928571Y-33454819D01*
X130928571Y-33454819D02*
X130833333Y-33407200D01*
X130833333Y-33407200D02*
X130785714Y-33359580D01*
X130785714Y-33359580D02*
X130738095Y-33264342D01*
X130738095Y-33264342D02*
X130690476Y-33073866D01*
X130690476Y-33073866D02*
X130690476Y-32835771D01*
X130690476Y-32835771D02*
X130738095Y-32645295D01*
X130738095Y-32645295D02*
X130785714Y-32550057D01*
X130785714Y-32550057D02*
X130833333Y-32502438D01*
X130833333Y-32502438D02*
X130928571Y-32454819D01*
D13*
X48152381Y-82163855D02*
X48609524Y-82163855D01*
X48380952Y-82963855D02*
X48380952Y-82163855D01*
X48876191Y-82963855D02*
X48876191Y-82163855D01*
X48876191Y-82163855D02*
X49180953Y-82163855D01*
X49180953Y-82163855D02*
X49257143Y-82201950D01*
X49257143Y-82201950D02*
X49295238Y-82240045D01*
X49295238Y-82240045D02*
X49333334Y-82316236D01*
X49333334Y-82316236D02*
X49333334Y-82430521D01*
X49333334Y-82430521D02*
X49295238Y-82506712D01*
X49295238Y-82506712D02*
X49257143Y-82544807D01*
X49257143Y-82544807D02*
X49180953Y-82582902D01*
X49180953Y-82582902D02*
X48876191Y-82582902D01*
X50095238Y-82201950D02*
X50019048Y-82163855D01*
X50019048Y-82163855D02*
X49904762Y-82163855D01*
X49904762Y-82163855D02*
X49790476Y-82201950D01*
X49790476Y-82201950D02*
X49714286Y-82278140D01*
X49714286Y-82278140D02*
X49676191Y-82354331D01*
X49676191Y-82354331D02*
X49638095Y-82506712D01*
X49638095Y-82506712D02*
X49638095Y-82620998D01*
X49638095Y-82620998D02*
X49676191Y-82773379D01*
X49676191Y-82773379D02*
X49714286Y-82849569D01*
X49714286Y-82849569D02*
X49790476Y-82925760D01*
X49790476Y-82925760D02*
X49904762Y-82963855D01*
X49904762Y-82963855D02*
X49980953Y-82963855D01*
X49980953Y-82963855D02*
X50095238Y-82925760D01*
X50095238Y-82925760D02*
X50133334Y-82887664D01*
X50133334Y-82887664D02*
X50133334Y-82620998D01*
X50133334Y-82620998D02*
X49980953Y-82620998D01*
X50476191Y-82963855D02*
X50476191Y-82163855D01*
X50476191Y-82163855D02*
X50933334Y-82963855D01*
X50933334Y-82963855D02*
X50933334Y-82163855D01*
X51314286Y-82963855D02*
X51314286Y-82163855D01*
X51314286Y-82163855D02*
X51504762Y-82163855D01*
X51504762Y-82163855D02*
X51619048Y-82201950D01*
X51619048Y-82201950D02*
X51695238Y-82278140D01*
X51695238Y-82278140D02*
X51733333Y-82354331D01*
X51733333Y-82354331D02*
X51771429Y-82506712D01*
X51771429Y-82506712D02*
X51771429Y-82620998D01*
X51771429Y-82620998D02*
X51733333Y-82773379D01*
X51733333Y-82773379D02*
X51695238Y-82849569D01*
X51695238Y-82849569D02*
X51619048Y-82925760D01*
X51619048Y-82925760D02*
X51504762Y-82963855D01*
X51504762Y-82963855D02*
X51314286Y-82963855D01*
D14*
X104833333Y-19454819D02*
X104500000Y-18978628D01*
X104261905Y-19454819D02*
X104261905Y-18454819D01*
X104261905Y-18454819D02*
X104642857Y-18454819D01*
X104642857Y-18454819D02*
X104738095Y-18502438D01*
X104738095Y-18502438D02*
X104785714Y-18550057D01*
X104785714Y-18550057D02*
X104833333Y-18645295D01*
X104833333Y-18645295D02*
X104833333Y-18788152D01*
X104833333Y-18788152D02*
X104785714Y-18883390D01*
X104785714Y-18883390D02*
X104738095Y-18931009D01*
X104738095Y-18931009D02*
X104642857Y-18978628D01*
X104642857Y-18978628D02*
X104261905Y-18978628D01*
X105166667Y-18454819D02*
X105785714Y-18454819D01*
X105785714Y-18454819D02*
X105452381Y-18835771D01*
X105452381Y-18835771D02*
X105595238Y-18835771D01*
X105595238Y-18835771D02*
X105690476Y-18883390D01*
X105690476Y-18883390D02*
X105738095Y-18931009D01*
X105738095Y-18931009D02*
X105785714Y-19026247D01*
X105785714Y-19026247D02*
X105785714Y-19264342D01*
X105785714Y-19264342D02*
X105738095Y-19359580D01*
X105738095Y-19359580D02*
X105690476Y-19407200D01*
X105690476Y-19407200D02*
X105595238Y-19454819D01*
X105595238Y-19454819D02*
X105309524Y-19454819D01*
X105309524Y-19454819D02*
X105214286Y-19407200D01*
X105214286Y-19407200D02*
X105166667Y-19359580D01*
D13*
X20266666Y-70163855D02*
X20723809Y-70163855D01*
X20495237Y-70963855D02*
X20495237Y-70163855D01*
X20990476Y-70963855D02*
X20990476Y-70163855D01*
X20990476Y-70163855D02*
X21295238Y-70163855D01*
X21295238Y-70163855D02*
X21371428Y-70201950D01*
X21371428Y-70201950D02*
X21409523Y-70240045D01*
X21409523Y-70240045D02*
X21447619Y-70316236D01*
X21447619Y-70316236D02*
X21447619Y-70430521D01*
X21447619Y-70430521D02*
X21409523Y-70506712D01*
X21409523Y-70506712D02*
X21371428Y-70544807D01*
X21371428Y-70544807D02*
X21295238Y-70582902D01*
X21295238Y-70582902D02*
X20990476Y-70582902D01*
X21752380Y-70240045D02*
X21790476Y-70201950D01*
X21790476Y-70201950D02*
X21866666Y-70163855D01*
X21866666Y-70163855D02*
X22057142Y-70163855D01*
X22057142Y-70163855D02*
X22133333Y-70201950D01*
X22133333Y-70201950D02*
X22171428Y-70240045D01*
X22171428Y-70240045D02*
X22209523Y-70316236D01*
X22209523Y-70316236D02*
X22209523Y-70392426D01*
X22209523Y-70392426D02*
X22171428Y-70506712D01*
X22171428Y-70506712D02*
X21714285Y-70963855D01*
X21714285Y-70963855D02*
X22209523Y-70963855D01*
X22895238Y-70430521D02*
X22895238Y-70963855D01*
X22704762Y-70125760D02*
X22514285Y-70697188D01*
X22514285Y-70697188D02*
X23009524Y-70697188D01*
X23200000Y-70163855D02*
X23466667Y-70963855D01*
X23466667Y-70963855D02*
X23733333Y-70163855D01*
D14*
X60833333Y-83359580D02*
X60785714Y-83407200D01*
X60785714Y-83407200D02*
X60642857Y-83454819D01*
X60642857Y-83454819D02*
X60547619Y-83454819D01*
X60547619Y-83454819D02*
X60404762Y-83407200D01*
X60404762Y-83407200D02*
X60309524Y-83311961D01*
X60309524Y-83311961D02*
X60261905Y-83216723D01*
X60261905Y-83216723D02*
X60214286Y-83026247D01*
X60214286Y-83026247D02*
X60214286Y-82883390D01*
X60214286Y-82883390D02*
X60261905Y-82692914D01*
X60261905Y-82692914D02*
X60309524Y-82597676D01*
X60309524Y-82597676D02*
X60404762Y-82502438D01*
X60404762Y-82502438D02*
X60547619Y-82454819D01*
X60547619Y-82454819D02*
X60642857Y-82454819D01*
X60642857Y-82454819D02*
X60785714Y-82502438D01*
X60785714Y-82502438D02*
X60833333Y-82550057D01*
X61785714Y-83454819D02*
X61214286Y-83454819D01*
X61500000Y-83454819D02*
X61500000Y-82454819D01*
X61500000Y-82454819D02*
X61404762Y-82597676D01*
X61404762Y-82597676D02*
X61309524Y-82692914D01*
X61309524Y-82692914D02*
X61214286Y-82740533D01*
X54833333Y-29454819D02*
X54500000Y-28978628D01*
X54261905Y-29454819D02*
X54261905Y-28454819D01*
X54261905Y-28454819D02*
X54642857Y-28454819D01*
X54642857Y-28454819D02*
X54738095Y-28502438D01*
X54738095Y-28502438D02*
X54785714Y-28550057D01*
X54785714Y-28550057D02*
X54833333Y-28645295D01*
X54833333Y-28645295D02*
X54833333Y-28788152D01*
X54833333Y-28788152D02*
X54785714Y-28883390D01*
X54785714Y-28883390D02*
X54738095Y-28931009D01*
X54738095Y-28931009D02*
X54642857Y-28978628D01*
X54642857Y-28978628D02*
X54261905Y-28978628D01*
X55738095Y-28454819D02*
X55261905Y-28454819D01*
X55261905Y-28454819D02*
X55214286Y-28931009D01*
X55214286Y-28931009D02*
X55261905Y-28883390D01*
X55261905Y-28883390D02*
X55357143Y-28835771D01*
X55357143Y-28835771D02*
X55595238Y-28835771D01*
X55595238Y-28835771D02*
X55690476Y-28883390D01*
X55690476Y-28883390D02*
X55738095Y-28931009D01*
X55738095Y-28931009D02*
X55785714Y-29026247D01*
X55785714Y-29026247D02*
X55785714Y-29264342D01*
X55785714Y-29264342D02*
X55738095Y-29359580D01*
X55738095Y-29359580D02*
X55690476Y-29407200D01*
X55690476Y-29407200D02*
X55595238Y-29454819D01*
X55595238Y-29454819D02*
X55357143Y-29454819D01*
X55357143Y-29454819D02*
X55261905Y-29407200D01*
X55261905Y-29407200D02*
X55214286Y-29359580D01*
D13*
X139866667Y-45887664D02*
X139828571Y-45925760D01*
X139828571Y-45925760D02*
X139714286Y-45963855D01*
X139714286Y-45963855D02*
X139638095Y-45963855D01*
X139638095Y-45963855D02*
X139523809Y-45925760D01*
X139523809Y-45925760D02*
X139447619Y-45849569D01*
X139447619Y-45849569D02*
X139409524Y-45773379D01*
X139409524Y-45773379D02*
X139371428Y-45620998D01*
X139371428Y-45620998D02*
X139371428Y-45506712D01*
X139371428Y-45506712D02*
X139409524Y-45354331D01*
X139409524Y-45354331D02*
X139447619Y-45278140D01*
X139447619Y-45278140D02*
X139523809Y-45201950D01*
X139523809Y-45201950D02*
X139638095Y-45163855D01*
X139638095Y-45163855D02*
X139714286Y-45163855D01*
X139714286Y-45163855D02*
X139828571Y-45201950D01*
X139828571Y-45201950D02*
X139866667Y-45240045D01*
X140590476Y-45163855D02*
X140209524Y-45163855D01*
X140209524Y-45163855D02*
X140171428Y-45544807D01*
X140171428Y-45544807D02*
X140209524Y-45506712D01*
X140209524Y-45506712D02*
X140285714Y-45468617D01*
X140285714Y-45468617D02*
X140476190Y-45468617D01*
X140476190Y-45468617D02*
X140552381Y-45506712D01*
X140552381Y-45506712D02*
X140590476Y-45544807D01*
X140590476Y-45544807D02*
X140628571Y-45620998D01*
X140628571Y-45620998D02*
X140628571Y-45811474D01*
X140628571Y-45811474D02*
X140590476Y-45887664D01*
X140590476Y-45887664D02*
X140552381Y-45925760D01*
X140552381Y-45925760D02*
X140476190Y-45963855D01*
X140476190Y-45963855D02*
X140285714Y-45963855D01*
X140285714Y-45963855D02*
X140209524Y-45925760D01*
X140209524Y-45925760D02*
X140171428Y-45887664D01*
D14*
X117904761Y-67550057D02*
X117809523Y-67502438D01*
X117809523Y-67502438D02*
X117714285Y-67407200D01*
X117714285Y-67407200D02*
X117571428Y-67264342D01*
X117571428Y-67264342D02*
X117476190Y-67216723D01*
X117476190Y-67216723D02*
X117380952Y-67216723D01*
X117428571Y-67454819D02*
X117333333Y-67407200D01*
X117333333Y-67407200D02*
X117238095Y-67311961D01*
X117238095Y-67311961D02*
X117190476Y-67121485D01*
X117190476Y-67121485D02*
X117190476Y-66788152D01*
X117190476Y-66788152D02*
X117238095Y-66597676D01*
X117238095Y-66597676D02*
X117333333Y-66502438D01*
X117333333Y-66502438D02*
X117428571Y-66454819D01*
X117428571Y-66454819D02*
X117619047Y-66454819D01*
X117619047Y-66454819D02*
X117714285Y-66502438D01*
X117714285Y-66502438D02*
X117809523Y-66597676D01*
X117809523Y-66597676D02*
X117857142Y-66788152D01*
X117857142Y-66788152D02*
X117857142Y-67121485D01*
X117857142Y-67121485D02*
X117809523Y-67311961D01*
X117809523Y-67311961D02*
X117714285Y-67407200D01*
X117714285Y-67407200D02*
X117619047Y-67454819D01*
X117619047Y-67454819D02*
X117428571Y-67454819D01*
X118238095Y-66550057D02*
X118285714Y-66502438D01*
X118285714Y-66502438D02*
X118380952Y-66454819D01*
X118380952Y-66454819D02*
X118619047Y-66454819D01*
X118619047Y-66454819D02*
X118714285Y-66502438D01*
X118714285Y-66502438D02*
X118761904Y-66550057D01*
X118761904Y-66550057D02*
X118809523Y-66645295D01*
X118809523Y-66645295D02*
X118809523Y-66740533D01*
X118809523Y-66740533D02*
X118761904Y-66883390D01*
X118761904Y-66883390D02*
X118190476Y-67454819D01*
X118190476Y-67454819D02*
X118809523Y-67454819D01*
D13*
X70266666Y-74163855D02*
X70723809Y-74163855D01*
X70495237Y-74963855D02*
X70495237Y-74163855D01*
X70990476Y-74963855D02*
X70990476Y-74163855D01*
X70990476Y-74163855D02*
X71295238Y-74163855D01*
X71295238Y-74163855D02*
X71371428Y-74201950D01*
X71371428Y-74201950D02*
X71409523Y-74240045D01*
X71409523Y-74240045D02*
X71447619Y-74316236D01*
X71447619Y-74316236D02*
X71447619Y-74430521D01*
X71447619Y-74430521D02*
X71409523Y-74506712D01*
X71409523Y-74506712D02*
X71371428Y-74544807D01*
X71371428Y-74544807D02*
X71295238Y-74582902D01*
X71295238Y-74582902D02*
X70990476Y-74582902D01*
X71714285Y-74163855D02*
X72209523Y-74163855D01*
X72209523Y-74163855D02*
X71942857Y-74468617D01*
X71942857Y-74468617D02*
X72057142Y-74468617D01*
X72057142Y-74468617D02*
X72133333Y-74506712D01*
X72133333Y-74506712D02*
X72171428Y-74544807D01*
X72171428Y-74544807D02*
X72209523Y-74620998D01*
X72209523Y-74620998D02*
X72209523Y-74811474D01*
X72209523Y-74811474D02*
X72171428Y-74887664D01*
X72171428Y-74887664D02*
X72133333Y-74925760D01*
X72133333Y-74925760D02*
X72057142Y-74963855D01*
X72057142Y-74963855D02*
X71828571Y-74963855D01*
X71828571Y-74963855D02*
X71752380Y-74925760D01*
X71752380Y-74925760D02*
X71714285Y-74887664D01*
X72438095Y-74163855D02*
X72704762Y-74963855D01*
X72704762Y-74963855D02*
X72971428Y-74163855D01*
X73161904Y-74163855D02*
X73657142Y-74163855D01*
X73657142Y-74163855D02*
X73390476Y-74468617D01*
X73390476Y-74468617D02*
X73504761Y-74468617D01*
X73504761Y-74468617D02*
X73580952Y-74506712D01*
X73580952Y-74506712D02*
X73619047Y-74544807D01*
X73619047Y-74544807D02*
X73657142Y-74620998D01*
X73657142Y-74620998D02*
X73657142Y-74811474D01*
X73657142Y-74811474D02*
X73619047Y-74887664D01*
X73619047Y-74887664D02*
X73580952Y-74925760D01*
X73580952Y-74925760D02*
X73504761Y-74963855D01*
X73504761Y-74963855D02*
X73276190Y-74963855D01*
X73276190Y-74963855D02*
X73199999Y-74925760D01*
X73199999Y-74925760D02*
X73161904Y-74887664D01*
D14*
X127833333Y-24454819D02*
X127500000Y-23978628D01*
X127261905Y-24454819D02*
X127261905Y-23454819D01*
X127261905Y-23454819D02*
X127642857Y-23454819D01*
X127642857Y-23454819D02*
X127738095Y-23502438D01*
X127738095Y-23502438D02*
X127785714Y-23550057D01*
X127785714Y-23550057D02*
X127833333Y-23645295D01*
X127833333Y-23645295D02*
X127833333Y-23788152D01*
X127833333Y-23788152D02*
X127785714Y-23883390D01*
X127785714Y-23883390D02*
X127738095Y-23931009D01*
X127738095Y-23931009D02*
X127642857Y-23978628D01*
X127642857Y-23978628D02*
X127261905Y-23978628D01*
X128166667Y-23454819D02*
X128833333Y-23454819D01*
X128833333Y-23454819D02*
X128404762Y-24454819D01*
D13*
X9866667Y-22087664D02*
X9828571Y-22125760D01*
X9828571Y-22125760D02*
X9714286Y-22163855D01*
X9714286Y-22163855D02*
X9638095Y-22163855D01*
X9638095Y-22163855D02*
X9523809Y-22125760D01*
X9523809Y-22125760D02*
X9447619Y-22049569D01*
X9447619Y-22049569D02*
X9409524Y-21973379D01*
X9409524Y-21973379D02*
X9371428Y-21820998D01*
X9371428Y-21820998D02*
X9371428Y-21706712D01*
X9371428Y-21706712D02*
X9409524Y-21554331D01*
X9409524Y-21554331D02*
X9447619Y-21478140D01*
X9447619Y-21478140D02*
X9523809Y-21401950D01*
X9523809Y-21401950D02*
X9638095Y-21363855D01*
X9638095Y-21363855D02*
X9714286Y-21363855D01*
X9714286Y-21363855D02*
X9828571Y-21401950D01*
X9828571Y-21401950D02*
X9866667Y-21440045D01*
X10552381Y-21630521D02*
X10552381Y-22163855D01*
X10361905Y-21325760D02*
X10171428Y-21897188D01*
X10171428Y-21897188D02*
X10666667Y-21897188D01*
X9409524Y-25163855D02*
X9409524Y-24363855D01*
X9409524Y-24363855D02*
X9600000Y-24363855D01*
X9600000Y-24363855D02*
X9714286Y-24401950D01*
X9714286Y-24401950D02*
X9790476Y-24478140D01*
X9790476Y-24478140D02*
X9828571Y-24554331D01*
X9828571Y-24554331D02*
X9866667Y-24706712D01*
X9866667Y-24706712D02*
X9866667Y-24820998D01*
X9866667Y-24820998D02*
X9828571Y-24973379D01*
X9828571Y-24973379D02*
X9790476Y-25049569D01*
X9790476Y-25049569D02*
X9714286Y-25125760D01*
X9714286Y-25125760D02*
X9600000Y-25163855D01*
X9600000Y-25163855D02*
X9409524Y-25163855D01*
X10171428Y-24440045D02*
X10209524Y-24401950D01*
X10209524Y-24401950D02*
X10285714Y-24363855D01*
X10285714Y-24363855D02*
X10476190Y-24363855D01*
X10476190Y-24363855D02*
X10552381Y-24401950D01*
X10552381Y-24401950D02*
X10590476Y-24440045D01*
X10590476Y-24440045D02*
X10628571Y-24516236D01*
X10628571Y-24516236D02*
X10628571Y-24592426D01*
X10628571Y-24592426D02*
X10590476Y-24706712D01*
X10590476Y-24706712D02*
X10133333Y-25163855D01*
X10133333Y-25163855D02*
X10628571Y-25163855D01*
D14*
X139666666Y-66454819D02*
X139666666Y-67169104D01*
X139666666Y-67169104D02*
X139619047Y-67311961D01*
X139619047Y-67311961D02*
X139523809Y-67407200D01*
X139523809Y-67407200D02*
X139380952Y-67454819D01*
X139380952Y-67454819D02*
X139285714Y-67454819D01*
X140047619Y-66454819D02*
X140666666Y-66454819D01*
X140666666Y-66454819D02*
X140333333Y-66835771D01*
X140333333Y-66835771D02*
X140476190Y-66835771D01*
X140476190Y-66835771D02*
X140571428Y-66883390D01*
X140571428Y-66883390D02*
X140619047Y-66931009D01*
X140619047Y-66931009D02*
X140666666Y-67026247D01*
X140666666Y-67026247D02*
X140666666Y-67264342D01*
X140666666Y-67264342D02*
X140619047Y-67359580D01*
X140619047Y-67359580D02*
X140571428Y-67407200D01*
X140571428Y-67407200D02*
X140476190Y-67454819D01*
X140476190Y-67454819D02*
X140190476Y-67454819D01*
X140190476Y-67454819D02*
X140095238Y-67407200D01*
X140095238Y-67407200D02*
X140047619Y-67359580D01*
D13*
%TO.C,J5*%
X143150000Y-35580000D02*
X145070000Y-35580000D01*
X145070000Y-26420000D02*
X143150000Y-26420000D01*
X147080000Y-26420000D02*
X148785000Y-26420000D01*
X148785000Y-26420000D02*
X148785000Y-35580000D01*
X148785000Y-35580000D02*
X147080000Y-35580000D01*
%TO.C,J4*%
X135000000Y-48500000D02*
X145000000Y-48500000D01*
X135000000Y-55500000D02*
X135000000Y-48500000D01*
X145000000Y-48500000D02*
X145000000Y-55500000D01*
X145000000Y-55500000D02*
X135000000Y-55500000D01*
%TO.C,R8*%
X126850000Y-30400000D02*
X129150000Y-30400000D01*
X126850000Y-31600000D02*
X126850000Y-30400000D01*
X129150000Y-30400000D02*
X129150000Y-31600000D01*
X129150000Y-31600000D02*
X126850000Y-31600000D01*
%TO.C,SW2*%
X40000000Y-39000000D02*
X46000000Y-39000000D01*
X40000000Y-45000000D02*
X40000000Y-39000000D01*
X46000000Y-39000000D02*
X46000000Y-45000000D01*
X46000000Y-45000000D02*
X40000000Y-45000000D01*
%TO.C,C2*%
X74850000Y-85400000D02*
X77150000Y-85400000D01*
X74850000Y-86600000D02*
X74850000Y-85400000D01*
X77150000Y-85400000D02*
X77150000Y-86600000D01*
X77150000Y-86600000D02*
X74850000Y-86600000D01*
%TO.C,SW1*%
X40000000Y-29000000D02*
X46000000Y-29000000D01*
X40000000Y-35000000D02*
X40000000Y-29000000D01*
X46000000Y-29000000D02*
X46000000Y-35000000D01*
X46000000Y-35000000D02*
X40000000Y-35000000D01*
%TO.C,J2*%
X5000000Y-44500000D02*
X15000000Y-44500000D01*
X5000000Y-51500000D02*
X5000000Y-44500000D01*
X15000000Y-44500000D02*
X15000000Y-51500000D01*
X15000000Y-51500000D02*
X5000000Y-51500000D01*
%TO.C,J1*%
X5000000Y-14500000D02*
X15000000Y-14500000D01*
X5000000Y-21500000D02*
X5000000Y-14500000D01*
X15000000Y-14500000D02*
X15000000Y-21500000D01*
X15000000Y-21500000D02*
X5000000Y-21500000D01*
%TO.C,U1*%
X75800000Y-12100000D02*
X75800000Y-18300000D01*
X75800000Y-12100000D02*
X94200000Y-12100000D01*
X75800000Y-36950000D02*
X75800000Y-37950000D01*
X75800000Y-37950000D02*
X77300000Y-37950000D01*
X94200000Y-12100000D02*
X94200000Y-18300000D01*
X94200000Y-37950000D02*
X92700000Y-37950000D01*
X94200000Y-37950000D02*
X94200000Y-36950000D01*
X75800000Y-18975000D02*
X75300000Y-18975000D01*
X75800000Y-18475000D01*
X75800000Y-18975000D01*
G36*
X75800000Y-18975000D02*
G01*
X75300000Y-18975000D01*
X75800000Y-18475000D01*
X75800000Y-18975000D01*
G37*
%TO.C,R1*%
X63850000Y-47400000D02*
X66150000Y-47400000D01*
X63850000Y-48600000D02*
X63850000Y-47400000D01*
X66150000Y-47400000D02*
X66150000Y-48600000D01*
X66150000Y-48600000D02*
X63850000Y-48600000D01*
%TO.C,F1*%
X19000000Y-15000000D02*
X45000000Y-15000000D01*
X19000000Y-21000000D02*
X19000000Y-15000000D01*
X45000000Y-15000000D02*
X45000000Y-21000000D01*
X45000000Y-21000000D02*
X19000000Y-21000000D01*
%TO.C,C3*%
X89850000Y-62400000D02*
X92150000Y-62400000D01*
X89850000Y-63600000D02*
X89850000Y-62400000D01*
X92150000Y-62400000D02*
X92150000Y-63600000D01*
X92150000Y-63600000D02*
X89850000Y-63600000D01*
%TO.C,Q1*%
X39750000Y-45500000D02*
X50250000Y-45500000D01*
X39750000Y-50500000D02*
X39750000Y-45500000D01*
X50250000Y-45500000D02*
X50250000Y-50500000D01*
X50250000Y-50500000D02*
X39750000Y-50500000D01*
%TO.C,U2*%
X95100000Y-52300000D02*
X100900000Y-52300000D01*
X95100000Y-57700000D02*
X95100000Y-52300000D01*
X100900000Y-52300000D02*
X100900000Y-57700000D01*
X100900000Y-57700000D02*
X95100000Y-57700000D01*
%TO.C,R11*%
X128850000Y-39400000D02*
X131150000Y-39400000D01*
X128850000Y-40600000D02*
X128850000Y-39400000D01*
X131150000Y-39400000D02*
X131150000Y-40600000D01*
X131150000Y-40600000D02*
X128850000Y-40600000D01*
%TO.C,U4*%
X22000000Y-69000000D02*
X50000000Y-69000000D01*
X22000000Y-87000000D02*
X22000000Y-69000000D01*
X50000000Y-69000000D02*
X50000000Y-87000000D01*
X50000000Y-87000000D02*
X22000000Y-87000000D01*
%TO.C,R4*%
X110850000Y-25400000D02*
X113150000Y-25400000D01*
X110850000Y-26600000D02*
X110850000Y-25400000D01*
X113150000Y-25400000D02*
X113150000Y-26600000D01*
X113150000Y-26600000D02*
X110850000Y-26600000D01*
%TO.C,R2*%
X63850000Y-51400000D02*
X66150000Y-51400000D01*
X63850000Y-52600000D02*
X63850000Y-51400000D01*
X66150000Y-51400000D02*
X66150000Y-52600000D01*
X66150000Y-52600000D02*
X63850000Y-52600000D01*
%TO.C,U3*%
X64250000Y-74500000D02*
X71750000Y-74500000D01*
X64250000Y-81500000D02*
X64250000Y-74500000D01*
X71750000Y-74500000D02*
X71750000Y-81500000D01*
X71750000Y-81500000D02*
X64250000Y-81500000D01*
%TO.C,D1*%
X21500000Y-46000000D02*
X34500000Y-46000000D01*
X21500000Y-50000000D02*
X21500000Y-46000000D01*
X34500000Y-46000000D02*
X34500000Y-50000000D01*
X34500000Y-50000000D02*
X21500000Y-50000000D01*
%TO.C,R6*%
X53850000Y-35400000D02*
X56150000Y-35400000D01*
X53850000Y-36600000D02*
X53850000Y-35400000D01*
X56150000Y-35400000D02*
X56150000Y-36600000D01*
X56150000Y-36600000D02*
X53850000Y-36600000D01*
%TO.C,R10*%
X128850000Y-35400000D02*
X131150000Y-35400000D01*
X128850000Y-36600000D02*
X128850000Y-35400000D01*
X131150000Y-35400000D02*
X131150000Y-36600000D01*
X131150000Y-36600000D02*
X128850000Y-36600000D01*
%TO.C,R3*%
X103850000Y-21400000D02*
X106150000Y-21400000D01*
X103850000Y-22600000D02*
X103850000Y-21400000D01*
X106150000Y-21400000D02*
X106150000Y-22600000D01*
X106150000Y-22600000D02*
X103850000Y-22600000D01*
%TO.C,C1*%
X59850000Y-85400000D02*
X62150000Y-85400000D01*
X59850000Y-86600000D02*
X59850000Y-85400000D01*
X62150000Y-85400000D02*
X62150000Y-86600000D01*
X62150000Y-86600000D02*
X59850000Y-86600000D01*
%TO.C,R5*%
X53850000Y-31400000D02*
X56150000Y-31400000D01*
X53850000Y-32600000D02*
X53850000Y-31400000D01*
X56150000Y-31400000D02*
X56150000Y-32600000D01*
X56150000Y-32600000D02*
X53850000Y-32600000D01*
%TO.C,Q2*%
X116400000Y-68600000D02*
X119600000Y-68600000D01*
X116400000Y-71400000D02*
X116400000Y-68600000D01*
X119600000Y-68600000D02*
X119600000Y-71400000D01*
X119600000Y-71400000D02*
X116400000Y-71400000D01*
%TO.C,R7*%
X126850000Y-26400000D02*
X129150000Y-26400000D01*
X126850000Y-27600000D02*
X126850000Y-26400000D01*
X129150000Y-26400000D02*
X129150000Y-27600000D01*
X129150000Y-27600000D02*
X126850000Y-27600000D01*
%TO.C,J3*%
X135000000Y-66500000D02*
X145000000Y-66500000D01*
X135000000Y-73500000D02*
X135000000Y-66500000D01*
X145000000Y-66500000D02*
X145000000Y-73500000D01*
X145000000Y-73500000D02*
X135000000Y-73500000D01*
%TD*%
%LPC*%
D15*
%TO.C,TPESP15*%
X78015000Y-38280000D03*
%TD*%
D16*
%TO.C,TPESP25*%
X90715000Y-38450000D03*
%TD*%
D17*
%TO.C,TP5V*%
X50000000Y-72000000D03*
%TD*%
D18*
%TO.C,J5*%
X142395000Y-33890000D03*
X142395000Y-28110000D03*
D19*
X141330000Y-34350000D03*
X141330000Y-33550000D03*
X141330000Y-32250000D03*
X141330000Y-31250000D03*
X141330000Y-30750000D03*
X141330000Y-29750000D03*
X141330000Y-28450000D03*
X141330000Y-27650000D03*
X141330000Y-27950000D03*
X141330000Y-28750000D03*
X141330000Y-29250000D03*
X141330000Y-30250000D03*
X141330000Y-31750000D03*
X141330000Y-32750000D03*
X141330000Y-33250000D03*
X141330000Y-34050000D03*
D20*
X141895000Y-35320000D03*
D21*
X146075000Y-35320000D03*
D20*
X141895000Y-26680000D03*
D21*
X146075000Y-26680000D03*
%TD*%
D16*
%TO.C,TPESP16*%
X79285000Y-38450000D03*
%TD*%
D22*
%TO.C,J4*%
X137460000Y-52000000D03*
X142540000Y-52000000D03*
%TD*%
D23*
%TO.C,TPESP27*%
X94700000Y-36250000D03*
%TD*%
D24*
%TO.C,R8*%
X127050000Y-31000000D03*
X128949999Y-31000000D03*
%TD*%
D23*
%TO.C,TPESP31*%
X94700000Y-31170000D03*
%TD*%
%TO.C,TPESP14*%
X75300000Y-36250000D03*
%TD*%
%TO.C,TPESP35*%
X94700000Y-26090000D03*
%TD*%
D25*
%TO.C,SW2*%
X40750000Y-39750000D03*
X45250000Y-39750000D03*
X40750000Y-44250000D03*
X45250000Y-44250000D03*
%TD*%
D24*
%TO.C,C2*%
X75050000Y-86000000D03*
X76950000Y-86000000D03*
%TD*%
D25*
%TO.C,SW1*%
X40750000Y-29750000D03*
X45250000Y-29750000D03*
X40750000Y-34250000D03*
X45250000Y-34250000D03*
%TD*%
D23*
%TO.C,TPESP2*%
X75300000Y-21010000D03*
%TD*%
%TO.C,TPESP33*%
X94700000Y-28630000D03*
%TD*%
D22*
%TO.C,J2*%
X7460000Y-48000000D03*
X12540000Y-48000000D03*
%TD*%
D16*
%TO.C,TPESP20*%
X84365000Y-38450000D03*
%TD*%
D23*
%TO.C,TPESP12*%
X75300000Y-33710000D03*
%TD*%
D22*
%TO.C,J1*%
X7460000Y-18000000D03*
X12540000Y-18000000D03*
%TD*%
D26*
%TO.C,U1*%
X76250000Y-19740000D03*
X76250000Y-21010000D03*
X76250000Y-22280000D03*
X76250000Y-23550000D03*
X76250000Y-24820000D03*
X76250000Y-26090000D03*
X76250000Y-27360000D03*
X76250000Y-28630000D03*
X76250000Y-29900000D03*
X76250000Y-31170000D03*
X76250000Y-32440000D03*
X76250000Y-33710000D03*
X76250000Y-34980000D03*
X76250000Y-36250000D03*
D27*
X78015000Y-37500000D03*
X79285000Y-37500000D03*
X80555000Y-37500000D03*
X81825000Y-37500000D03*
X83095000Y-37500000D03*
X84365000Y-37500000D03*
X85635000Y-37500000D03*
X86905000Y-37500000D03*
X88175000Y-37500000D03*
X89445000Y-37500000D03*
X90715000Y-37500000D03*
X91985000Y-37500000D03*
D26*
X93750000Y-36250000D03*
X93750000Y-34980000D03*
X93750000Y-33710000D03*
X93750000Y-32440000D03*
X93750000Y-31170000D03*
X93750000Y-29900000D03*
X93750000Y-28630000D03*
X93750000Y-27360000D03*
X93750000Y-26090000D03*
X93750000Y-24820000D03*
X93750000Y-23550000D03*
X93750000Y-22280000D03*
X93750000Y-21010000D03*
X93750000Y-19740000D03*
D28*
X82100000Y-26760000D03*
X82100000Y-28160000D03*
X82800000Y-26060000D03*
X82800000Y-27460000D03*
X82800000Y-28860000D03*
X83500000Y-26760000D03*
D29*
X83500000Y-27460000D03*
D28*
X83500000Y-28160000D03*
X84200000Y-26060000D03*
X84200000Y-27460000D03*
X84200000Y-28860000D03*
X84900000Y-26760000D03*
X84900000Y-28160000D03*
%TD*%
D23*
%TO.C,TPESP36*%
X94700000Y-24820000D03*
%TD*%
D24*
%TO.C,R1*%
X64050000Y-48000000D03*
X65950000Y-48000000D03*
%TD*%
D16*
%TO.C,TPESP22*%
X86905000Y-38450000D03*
%TD*%
D23*
%TO.C,TPESP13*%
X75300000Y-34980000D03*
%TD*%
D16*
%TO.C,TPESP17*%
X80555000Y-38450000D03*
%TD*%
D23*
%TO.C,TPESP29*%
X94700000Y-33710000D03*
%TD*%
%TO.C,TPESP39*%
X94700000Y-21010000D03*
%TD*%
%TO.C,TPESP7*%
X75300000Y-27360000D03*
%TD*%
D22*
%TO.C,F1*%
X21000000Y-18000000D03*
X43000000Y-18000000D03*
%TD*%
D23*
%TO.C,TPESP9*%
X75300000Y-29900000D03*
%TD*%
D16*
%TO.C,TPESP26*%
X91985000Y-38450000D03*
%TD*%
%TO.C,TPESP21*%
X85635000Y-38450000D03*
%TD*%
D24*
%TO.C,C3*%
X90050000Y-63000000D03*
X91950000Y-63000000D03*
%TD*%
D30*
%TO.C,Q1*%
X42460000Y-48000000D03*
X45000000Y-48000000D03*
X47540000Y-48000000D03*
%TD*%
D31*
%TO.C,U2*%
X95300000Y-56905000D03*
X95300000Y-55635000D03*
X95300000Y-54365000D03*
X95300000Y-53095000D03*
X100700000Y-53095000D03*
X100700000Y-54365000D03*
X100700000Y-55635000D03*
X100700000Y-56905000D03*
%TD*%
D23*
%TO.C,TPESP3*%
X75300000Y-22280000D03*
%TD*%
D24*
%TO.C,R11*%
X129050000Y-40000000D03*
X130949999Y-40000000D03*
%TD*%
D32*
%TO.C,U5*%
X133000000Y-27000000D03*
X133000000Y-31000000D03*
X133000000Y-26000000D03*
X134400000Y-26000000D03*
X134400000Y-31000000D03*
X134400000Y-27000000D03*
%TD*%
D16*
%TO.C,TPESP19*%
X83095000Y-38450000D03*
%TD*%
D23*
%TO.C,TPESP11*%
X75300000Y-32439999D03*
%TD*%
D30*
%TO.C,U4*%
X25000000Y-72000000D03*
X25000000Y-84000000D03*
X47000000Y-72000000D03*
X47000000Y-84000000D03*
%TD*%
D23*
%TO.C,TPESP32*%
X94700000Y-29900000D03*
%TD*%
D24*
%TO.C,R4*%
X111050000Y-26000000D03*
X112950000Y-26000000D03*
%TD*%
D33*
%TO.C,D3*%
X7460000Y-43000000D03*
X12540000Y-43000000D03*
%TD*%
D24*
%TO.C,R2*%
X64050000Y-52000000D03*
X65950000Y-52000000D03*
%TD*%
D34*
%TO.C,TPESP30*%
X94200000Y-32439999D03*
%TD*%
D35*
%TO.C,U3*%
X65700000Y-80800000D03*
D36*
X68000000Y-75700000D03*
D35*
X68000000Y-80800000D03*
X70300000Y-80800000D03*
%TD*%
D37*
%TO.C,D1*%
X22920000Y-48000000D03*
X33080000Y-48000000D03*
%TD*%
D23*
%TO.C,TPESP28*%
X94700000Y-34980000D03*
%TD*%
%TO.C,TPESP8*%
X75300000Y-28630000D03*
%TD*%
D24*
%TO.C,R6*%
X54050000Y-36000000D03*
X55950000Y-36000000D03*
%TD*%
D23*
%TO.C,TPESP38*%
X94700000Y-22280000D03*
%TD*%
D24*
%TO.C,R10*%
X129050000Y-36000000D03*
X130949999Y-36000000D03*
%TD*%
D16*
%TO.C,TPESP24*%
X89445000Y-38450000D03*
%TD*%
D17*
%TO.C,TPGND*%
X50000000Y-84000000D03*
%TD*%
D24*
%TO.C,R3*%
X104050000Y-22000000D03*
X105950000Y-22000000D03*
%TD*%
D17*
%TO.C,TP24V*%
X22000000Y-72000000D03*
%TD*%
D16*
%TO.C,TPESP23*%
X88175000Y-38450000D03*
%TD*%
%TO.C,TPESP18*%
X81825000Y-38450000D03*
%TD*%
D23*
%TO.C,TPESP34*%
X94700000Y-27360000D03*
%TD*%
D24*
%TO.C,C1*%
X60050000Y-86000000D03*
X61950000Y-86000000D03*
%TD*%
D23*
%TO.C,TPESP40*%
X94700000Y-19740000D03*
%TD*%
D24*
%TO.C,R5*%
X54050000Y-32000000D03*
X55950000Y-32000000D03*
%TD*%
D38*
%TO.C,C5*%
X137460000Y-47000000D03*
X142540000Y-47000000D03*
%TD*%
D39*
%TO.C,Q2*%
X117050000Y-70950000D03*
X118950000Y-70950000D03*
X118000000Y-69050000D03*
%TD*%
D17*
%TO.C,TP3V3*%
X72000000Y-76000000D03*
%TD*%
D23*
%TO.C,TPESP37*%
X94700000Y-23550000D03*
%TD*%
D24*
%TO.C,R7*%
X127050000Y-27000000D03*
X128949999Y-27000000D03*
%TD*%
D23*
%TO.C,TPESP10*%
X75300000Y-31170000D03*
%TD*%
%TO.C,TPESP6*%
X75300000Y-26090000D03*
%TD*%
%TO.C,TPESP4*%
X75300000Y-23550000D03*
%TD*%
%TO.C,TPESP1*%
X75300000Y-19740000D03*
%TD*%
D40*
%TO.C,C4*%
X7460000Y-23200000D03*
X12540000Y-23200000D03*
%TD*%
D33*
%TO.C,D2*%
X7460000Y-26200000D03*
X12540000Y-26200000D03*
%TD*%
D22*
%TO.C,J3*%
X137460000Y-70000000D03*
X142540000Y-70000000D03*
%TD*%
D23*
%TO.C,TPESP5*%
X75300000Y-24820000D03*
%TD*%
%LPD*%
M02*
