%TF.GenerationSoftware,KiCad,Pcbnew,9.0.8+dfsg-1*%
%TF.CreationDate,2026-07-07T05:18:09+02:00*%
%TF.ProjectId,CoffeeRoast-Control-RevA,436f6666-6565-4526-9f61-73742d436f6e,A.1-draft*%
%TF.SameCoordinates,Original*%
%TF.FileFunction,Copper,L2,Bot*%
%TF.FilePolarity,Positive*%
%FSLAX46Y46*%
G04 Gerber Fmt 4.6, Leading zero omitted, Abs format (unit mm)*
G04 Created by KiCad (PCBNEW 9.0.8+dfsg-1) date 2026-07-07 05:18:09*
%MOMM*%
%LPD*%
G01*
G04 APERTURE LIST*
G04 Aperture macros list*
%AMRoundRect*
0 Rectangle with rounded corners*
0 $1 Rounding radius*
0 $2 $3 $4 $5 $6 $7 $8 $9 X,Y pos of 4 corners*
0 Add a 4 corners polygon primitive as box body*
4,1,4,$2,$3,$4,$5,$6,$7,$8,$9,$2,$3,0*
0 Add four circle primitives for the rounded corners*
1,1,$1+$1,$2,$3*
1,1,$1+$1,$4,$5*
1,1,$1+$1,$6,$7*
1,1,$1+$1,$8,$9*
0 Add four rect primitives between the rounded corners*
20,1,$1+$1,$2,$3,$4,$5,0*
20,1,$1+$1,$4,$5,$6,$7,0*
20,1,$1+$1,$6,$7,$8,$9,0*
20,1,$1+$1,$8,$9,$2,$3,0*%
G04 Aperture macros list end*
%TA.AperFunction,HeatsinkPad*%
%ADD10O,2.100000X1.000000*%
%TD*%
%TA.AperFunction,HeatsinkPad*%
%ADD11O,1.600000X1.000000*%
%TD*%
%TA.AperFunction,ComponentPad*%
%ADD12R,3.000000X3.000000*%
%TD*%
%TA.AperFunction,ComponentPad*%
%ADD13R,1.600000X1.600000*%
%TD*%
%TA.AperFunction,HeatsinkPad*%
%ADD14C,0.600000*%
%TD*%
%TA.AperFunction,ComponentPad*%
%ADD15R,2.400000X2.400000*%
%TD*%
%TA.AperFunction,ComponentPad*%
%ADD16R,2.000000X2.000000*%
%TD*%
%TA.AperFunction,ComponentPad*%
%ADD17R,1.800000X1.800000*%
%TD*%
%TA.AperFunction,ComponentPad*%
%ADD18C,1.600000*%
%TD*%
%TA.AperFunction,ComponentPad*%
%ADD19C,2.000000*%
%TD*%
%TA.AperFunction,SMDPad,CuDef*%
%ADD20RoundRect,0.287500X-0.387500X-0.287500X0.387500X-0.287500X0.387500X0.287500X-0.387500X0.287500X0*%
%TD*%
%TA.AperFunction,SMDPad,CuDef*%
%ADD21C,1.000000*%
%TD*%
%TA.AperFunction,ViaPad*%
%ADD22C,0.550000*%
%TD*%
%TA.AperFunction,Conductor*%
%ADD23C,0.200000*%
%TD*%
%TA.AperFunction,Conductor*%
%ADD24C,0.600000*%
%TD*%
%TA.AperFunction,Conductor*%
%ADD25C,0.300000*%
%TD*%
%TA.AperFunction,Conductor*%
%ADD26C,0.160000*%
%TD*%
G04 APERTURE END LIST*
D10*
%TO.P,J5,S1*%
%TO.N,GND*%
X150895000Y-35320000D03*
D11*
X155075000Y-35320000D03*
D10*
X150895000Y-26680000D03*
D11*
X155075000Y-26680000D03*
%TD*%
D12*
%TO.P,J4,1*%
%TO.N,THERMO_PLUS*%
X137460000Y-52000000D03*
%TO.P,J4,2*%
%TO.N,THERMO_MINUS*%
X142540000Y-52000000D03*
%TD*%
D13*
%TO.P,SW2,1*%
%TO.N,BOOT*%
X40750000Y-39750000D03*
%TO.P,SW2,2*%
X45250000Y-39750000D03*
%TO.P,SW2,3*%
%TO.N,GND*%
X40750000Y-44250000D03*
%TO.P,SW2,4*%
X45250000Y-44250000D03*
%TD*%
%TO.P,SW1,1*%
%TO.N,EN*%
X40750000Y-29750000D03*
%TO.P,SW1,2*%
X45250000Y-29750000D03*
%TO.P,SW1,3*%
%TO.N,GND*%
X40750000Y-34250000D03*
%TO.P,SW1,4*%
X45250000Y-34250000D03*
%TD*%
D12*
%TO.P,J2,1*%
%TO.N,+24V_FUSED*%
X7460000Y-48000000D03*
%TO.P,J2,2*%
%TO.N,FAN_NEG*%
X12540000Y-48000000D03*
%TD*%
%TO.P,J1,1*%
%TO.N,+24V_RAW*%
X7460000Y-18000000D03*
%TO.P,J1,2*%
%TO.N,GND*%
X12540000Y-18000000D03*
%TD*%
D14*
%TO.P,U1,41*%
%TO.N,N/C*%
X82100000Y-26760000D03*
X82100000Y-28160000D03*
X82800000Y-26060000D03*
X82800000Y-27460000D03*
X82800000Y-28860000D03*
X83500000Y-26760000D03*
X83500000Y-28160000D03*
X84200000Y-26060000D03*
X84200000Y-27460000D03*
X84200000Y-28860000D03*
X84900000Y-26760000D03*
X84900000Y-28160000D03*
%TD*%
D15*
%TO.P,F1,1*%
%TO.N,+24V_RAW*%
X21000000Y-18000000D03*
%TO.P,F1,2*%
%TO.N,+24V_FUSED*%
X43000000Y-18000000D03*
%TD*%
D16*
%TO.P,Q1,1*%
%TO.N,FAN_GATE*%
X42460000Y-48000000D03*
%TO.P,Q1,2*%
%TO.N,FAN_NEG*%
X45000000Y-48000000D03*
%TO.P,Q1,3*%
%TO.N,GND*%
X47540000Y-48000000D03*
%TD*%
%TO.P,U4,1*%
%TO.N,+24V_FUSED*%
X25000000Y-72000000D03*
%TO.P,U4,2*%
%TO.N,GND*%
X25000000Y-84000000D03*
%TO.P,U4,3*%
%TO.N,+5V*%
X47000000Y-72000000D03*
%TO.P,U4,4*%
%TO.N,GND*%
X47000000Y-84000000D03*
%TD*%
D17*
%TO.P,D1,1*%
%TO.N,FAN_NEG*%
X22920000Y-48000000D03*
%TO.P,D1,2*%
%TO.N,+24V_FUSED*%
X33080000Y-48000000D03*
%TD*%
D18*
%TO.P,JGPIO1,1*%
%TO.N,GPIO3*%
X104000000Y-92000000D03*
%TO.P,JGPIO1,2*%
%TO.N,GPIO46*%
X106540000Y-92000000D03*
%TO.P,JGPIO1,3*%
%TO.N,GPIO9*%
X109080000Y-92000000D03*
%TO.P,JGPIO1,4*%
%TO.N,GPIO10*%
X111620000Y-92000000D03*
%TO.P,JGPIO1,5*%
%TO.N,GPIO48*%
X114160000Y-92000000D03*
%TO.P,JGPIO1,6*%
%TO.N,GPIO45*%
X116700000Y-92000000D03*
%TD*%
D19*
%TO.P,C4,1*%
%TO.N,+24V_RAW*%
X7460000Y-23200000D03*
%TO.P,C4,2*%
%TO.N,GND*%
X12540000Y-23200000D03*
%TD*%
D12*
%TO.P,J3,1*%
%TO.N,+5V*%
X137460000Y-70000000D03*
%TO.P,J3,2*%
%TO.N,SSR_NEG*%
X142540000Y-70000000D03*
%TD*%
D20*
%TO.P,PADESP22,1*%
%TO.N,GPIO14*%
X90780000Y-58500000D03*
%TD*%
%TO.P,PADESP16,1*%
%TO.N,GPIO46*%
X75540000Y-58500000D03*
%TD*%
%TO.P,PADESP35,1*%
%TO.N,GPIO42*%
X108000000Y-34200000D03*
%TD*%
%TO.P,PADESP24,1*%
%TO.N,GPIO47*%
X95860000Y-58500000D03*
%TD*%
%TO.P,PADESP11,1*%
%TO.N,GPIO18*%
X62500000Y-46900000D03*
%TD*%
%TO.P,PADESP20,1*%
%TO.N,MAX_CS*%
X85700000Y-58500000D03*
%TD*%
%TO.P,PADESP37,1*%
%TO.N,TXD0_GPIO43*%
X108000000Y-29120000D03*
%TD*%
%TO.P,PADESP6,1*%
%TO.N,GPIO6*%
X62500000Y-34200000D03*
%TD*%
%TO.P,PADESP9,1*%
%TO.N,GPIO16*%
X62500000Y-41820000D03*
%TD*%
%TO.P,PADESP21,1*%
%TO.N,MAX_SCK*%
X88240000Y-58500000D03*
%TD*%
%TO.P,PADESP3,1*%
%TO.N,EN*%
X62500000Y-26580000D03*
%TD*%
%TO.P,PADESP33,1*%
%TO.N,GPIO40*%
X108000000Y-39280000D03*
%TD*%
%TO.P,PADESP7,1*%
%TO.N,GPIO7*%
X62500000Y-36740000D03*
%TD*%
%TO.P,PADESP1,1*%
%TO.N,GND*%
X62500000Y-21500000D03*
%TD*%
%TO.P,PADESP31,1*%
%TO.N,GPIO38*%
X108000000Y-44360000D03*
%TD*%
%TO.P,PADESP29,1*%
%TO.N,GPIO36*%
X108250000Y-49440000D03*
%TD*%
%TO.P,PADESP27,1*%
%TO.N,BOOT*%
X108000000Y-54520000D03*
%TD*%
%TO.P,PADESP10,1*%
%TO.N,GPIO17*%
X62500000Y-44360000D03*
%TD*%
%TO.P,PADESP40,1*%
%TO.N,GND*%
X108000000Y-21500000D03*
%TD*%
%TO.P,PADESP34,1*%
%TO.N,GPIO41*%
X108000000Y-36740000D03*
%TD*%
%TO.P,PADESP25,1*%
%TO.N,GPIO48*%
X98400000Y-58500000D03*
%TD*%
%TO.P,PADESP39,1*%
%TO.N,HEATER_PWM*%
X108000000Y-24040000D03*
%TD*%
%TO.P,PADESP12,1*%
%TO.N,GPIO8*%
X62500000Y-49440000D03*
%TD*%
%TO.P,PADESP23,1*%
%TO.N,GPIO21*%
X93320000Y-58500000D03*
%TD*%
%TO.P,PADESP32,1*%
%TO.N,GPIO39*%
X108000000Y-41820000D03*
%TD*%
D21*
%TO.P,FID6,1*%
%TO.N,GND*%
X154000000Y-94000000D03*
%TD*%
D20*
%TO.P,PADESP5,1*%
%TO.N,GPIO5*%
X62500000Y-31660000D03*
%TD*%
%TO.P,PADESP2,1*%
%TO.N,+3V3*%
X62500000Y-24040000D03*
%TD*%
%TO.P,PADESP4,1*%
%TO.N,GPIO4*%
X62500000Y-29120000D03*
%TD*%
%TO.P,PADESP26,1*%
%TO.N,GPIO45*%
X100940000Y-58500000D03*
%TD*%
%TO.P,PADESP18,1*%
%TO.N,GPIO10*%
X80620000Y-58500000D03*
%TD*%
%TO.P,PADESP38,1*%
%TO.N,FAN_PWM*%
X108000000Y-26580000D03*
%TD*%
%TO.P,PADESP8,1*%
%TO.N,GPIO15*%
X62500000Y-39280000D03*
%TD*%
%TO.P,PADESP14,1*%
%TO.N,USB_DP_MCU*%
X62500000Y-54520000D03*
%TD*%
%TO.P,PADESP36,1*%
%TO.N,RXD0_GPIO44*%
X108000000Y-31660000D03*
%TD*%
D21*
%TO.P,FID5,1*%
%TO.N,GND*%
X154000000Y-6000000D03*
%TD*%
D20*
%TO.P,PADESP28,1*%
%TO.N,GPIO35*%
X108000000Y-51980000D03*
%TD*%
%TO.P,PADESP15,1*%
%TO.N,GPIO3*%
X73000000Y-58500000D03*
%TD*%
%TO.P,PADESP30,1*%
%TO.N,GPIO37*%
X108000000Y-46900000D03*
%TD*%
D21*
%TO.P,FID4,1*%
%TO.N,GND*%
X6000000Y-6000000D03*
%TD*%
D20*
%TO.P,PADESP19,1*%
%TO.N,MAX_DO*%
X83160000Y-58500000D03*
%TD*%
%TO.P,PADESP17,1*%
%TO.N,GPIO9*%
X78080000Y-58500000D03*
%TD*%
%TO.P,PADESP13,1*%
%TO.N,USB_DN_MCU*%
X62500000Y-51980000D03*
%TD*%
D22*
%TO.N,GND*%
X64260000Y-19740000D03*
X112546700Y-24984400D03*
X108184600Y-57592900D03*
X53000000Y-73400000D03*
X73200000Y-19750000D03*
%TO.N,+3V3*%
X68400000Y-76400000D03*
X67600000Y-76400000D03*
X65530000Y-21010000D03*
X68000000Y-75700000D03*
X67600000Y-80800000D03*
X68400000Y-80800000D03*
X68800000Y-75700000D03*
X75029500Y-57418300D03*
X67200000Y-75700000D03*
%TO.N,FAN_PWM*%
X73241500Y-43965200D03*
X108059700Y-25185100D03*
%TO.N,HEATER_PWM*%
X104119200Y-23014600D03*
%TO.N,SSR_GATE*%
X110146600Y-25911200D03*
X116968800Y-70043900D03*
%TO.N,MAX_DO*%
X97213900Y-55743500D03*
X83614600Y-38969600D03*
%TO.N,MAX_CS*%
X88213000Y-50675900D03*
%TO.N,MAX_SCK*%
X90243700Y-44692200D03*
%TO.N,USB_DN_MCU*%
X66089500Y-34980000D03*
%TO.N,USB_DP_MCU*%
X81625500Y-35694000D03*
X73966000Y-36621900D03*
X87797600Y-40394700D03*
%TO.N,USB_DN*%
X139894100Y-31625000D03*
X137065400Y-27000000D03*
%TO.N,EN*%
X65797399Y-22597900D03*
%TO.N,BOOT*%
X90351200Y-36195700D03*
X96317800Y-37613000D03*
%TO.N,GPIO4*%
X65570700Y-23550000D03*
%TO.N,GPIO5*%
X66906000Y-24820000D03*
%TO.N,GPIO6*%
X64522999Y-25960700D03*
%TO.N,GPIO7*%
X65137600Y-27360000D03*
%TO.N,GPIO15*%
X67128800Y-30392600D03*
%TO.N,GPIO16*%
X67632100Y-29900000D03*
%TO.N,GPIO17*%
X64465700Y-32863300D03*
%TO.N,GPIO18*%
X67275300Y-33367500D03*
%TO.N,GPIO8*%
X63902900Y-33948400D03*
%TO.N,GPIO3*%
X73988600Y-38280000D03*
%TO.N,GPIO46*%
X78707700Y-39010800D03*
%TO.N,GPIO9*%
X78517600Y-39941700D03*
%TO.N,GPIO10*%
X81825000Y-39156500D03*
%TO.N,GPIO14*%
X87259100Y-39146700D03*
%TO.N,GPIO21*%
X88175000Y-39138500D03*
%TO.N,GPIO47*%
X89692900Y-39146100D03*
%TO.N,GPIO48*%
X92452200Y-39713700D03*
%TO.N,GPIO45*%
X96312300Y-39680500D03*
%TO.N,GPIO35*%
X104843100Y-34980000D03*
%TO.N,GPIO36*%
X96388300Y-33710000D03*
%TO.N,GPIO37*%
X104326900Y-32439999D03*
%TO.N,GPIO38*%
X108126000Y-32661600D03*
%TO.N,GPIO39*%
X104176600Y-30086500D03*
%TO.N,GPIO40*%
X103655200Y-29584800D03*
%TO.N,GPIO41*%
X106363100Y-28693900D03*
%TO.N,GPIO42*%
X108142200Y-27591600D03*
%TO.N,RXD0_GPIO44*%
X108912500Y-30295600D03*
%TO.N,TXD0_GPIO43*%
X101987500Y-23637100D03*
%TD*%
D23*
%TO.N,GND*%
X109619000Y-25605200D02*
X109619000Y-56158500D01*
X44248300Y-28796700D02*
X44248300Y-32246600D01*
X41751700Y-36253400D02*
X41751700Y-42246600D01*
X62500000Y-21500000D02*
X51545000Y-21500000D01*
X45250000Y-44250000D02*
X45250000Y-45251700D01*
X46796600Y-46798300D02*
X45250000Y-45251700D01*
X51545000Y-21500000D02*
X44248300Y-28796700D01*
X44248300Y-32246600D02*
X45250000Y-33248300D01*
X48201700Y-81596600D02*
X48201700Y-49863400D01*
X47000000Y-82798300D02*
X48201700Y-81596600D01*
X41751700Y-42246600D02*
X40750000Y-43248300D01*
X40750000Y-35251700D02*
X41751700Y-36253400D01*
X110862100Y-24362100D02*
X109619000Y-25605200D01*
X47540000Y-46798300D02*
X46796600Y-46798300D01*
X112546700Y-24984400D02*
X111924400Y-24362100D01*
X40750000Y-34250000D02*
X40750000Y-35251700D01*
X47540000Y-48000000D02*
X47540000Y-49201700D01*
X45250000Y-34250000D02*
X45250000Y-33248300D01*
X155075000Y-35320000D02*
X154073300Y-35320000D01*
X111924400Y-24362100D02*
X110862100Y-24362100D01*
X155075000Y-26680000D02*
X154073300Y-26680000D01*
X40750000Y-44250000D02*
X40750000Y-43248300D01*
X47540000Y-48000000D02*
X47540000Y-46798300D01*
X108000000Y-21500000D02*
X110862100Y-24362100D01*
X62500000Y-21500000D02*
X64260000Y-19740000D01*
X47000000Y-84000000D02*
X47000000Y-82798300D01*
X48201700Y-49863400D02*
X47540000Y-49201700D01*
X154073300Y-26680000D02*
X154073300Y-35320000D01*
X109619000Y-56158500D02*
X108184600Y-57592900D01*
D24*
%TO.N,+24V_FUSED*%
X25000000Y-72000000D02*
X25000000Y-70798300D01*
X33080000Y-29321700D02*
X33080000Y-48000000D01*
X43000000Y-19401700D02*
X33080000Y-29321700D01*
X43000000Y-18000000D02*
X43000000Y-19401700D01*
X33080000Y-62718300D02*
X25000000Y-70798300D01*
X33080000Y-48000000D02*
X33080000Y-62718300D01*
D23*
%TO.N,+3V3*%
X62500000Y-24040000D02*
X65530000Y-21010000D01*
X65530000Y-21010000D02*
X74506000Y-29986000D01*
D25*
X68800000Y-75700000D02*
X68400000Y-80800000D01*
X67600000Y-76400000D02*
X68400000Y-76400000D01*
D23*
X74506000Y-29986000D02*
X74506000Y-41922400D01*
D25*
X67200000Y-75700000D02*
X68000000Y-75700000D01*
D23*
X72739800Y-43688600D02*
X72739800Y-55128600D01*
D25*
X67600000Y-76400000D02*
X67200000Y-75700000D01*
D23*
X72739800Y-55128600D02*
X75029500Y-57418300D01*
D25*
X68400000Y-76400000D02*
X68800000Y-75700000D01*
D23*
X74506000Y-41922400D02*
X72739800Y-43688600D01*
D25*
X68400000Y-80800000D02*
X67600000Y-80800000D01*
X68000000Y-75700000D02*
X68800000Y-75700000D01*
X67600000Y-80800000D02*
X67200000Y-75700000D01*
D23*
%TO.N,FAN_PWM*%
X103130900Y-23066200D02*
X93543900Y-23066200D01*
X105948100Y-25883400D02*
X103130900Y-23066200D01*
X108000000Y-25883400D02*
X105948100Y-25883400D01*
X108000000Y-26580000D02*
X108000000Y-25883400D01*
X93543900Y-23066200D02*
X81123800Y-35486300D01*
X108059700Y-25185100D02*
X108059700Y-25823700D01*
X81123800Y-35882200D02*
X73241500Y-43764500D01*
X81123800Y-35486300D02*
X81123800Y-35882200D01*
X108059700Y-25823700D02*
X108000000Y-25883400D01*
X73241500Y-43764500D02*
X73241500Y-43965200D01*
%TO.N,HEATER_PWM*%
X105144600Y-24040000D02*
X104119200Y-23014600D01*
X108000000Y-24040000D02*
X105144600Y-24040000D01*
%TO.N,SSR_GATE*%
X116968800Y-32733400D02*
X116968800Y-70043900D01*
X110146600Y-25911200D02*
X116968800Y-32733400D01*
%TO.N,MAX_DO*%
X83160000Y-58500000D02*
X83956800Y-59296800D01*
X96440900Y-59296800D02*
X97213900Y-58523800D01*
X83160000Y-58500000D02*
X83160000Y-39424200D01*
X83160000Y-39424200D02*
X83614600Y-38969600D01*
X83956800Y-59296800D02*
X96440900Y-59296800D01*
X97213900Y-58523800D02*
X97213900Y-55743500D01*
%TO.N,MAX_CS*%
X85700000Y-58500000D02*
X85700000Y-53188900D01*
X85700000Y-53188900D02*
X88213000Y-50675900D01*
%TO.N,MAX_SCK*%
X90243700Y-56496300D02*
X90243700Y-44692200D01*
X88240000Y-58500000D02*
X90243700Y-56496300D01*
%TO.N,USB_DN_MCU*%
X66089500Y-34980000D02*
X66089500Y-48390500D01*
X66089500Y-48390500D02*
X62500000Y-51980000D01*
%TO.N,USB_DP_MCU*%
X62500000Y-54520000D02*
X66589699Y-50430300D01*
X66589699Y-43998200D02*
X73966000Y-36621900D01*
X66589699Y-50430300D02*
X66589699Y-43998200D01*
X81625500Y-35694000D02*
X86326200Y-40394700D01*
X86326200Y-40394700D02*
X87797600Y-40394700D01*
%TO.N,USB_DN*%
X139894100Y-29828700D02*
X137065400Y-27000000D01*
X139894100Y-31625000D02*
X139894100Y-29828700D01*
%TO.N,EN*%
X45250000Y-29750000D02*
X46251700Y-29750000D01*
X62500000Y-26580000D02*
X62500000Y-25895300D01*
X62500000Y-26580000D02*
X49421700Y-26580000D01*
X49421700Y-26580000D02*
X46251700Y-29750000D01*
X62500000Y-25895300D02*
X65797399Y-22597900D01*
%TO.N,BOOT*%
X96317800Y-37613000D02*
X91768500Y-37613000D01*
X105934600Y-47229800D02*
X105934600Y-52454600D01*
X105934600Y-52454600D02*
X108000000Y-54520000D01*
X91768500Y-37613000D02*
X90351200Y-36195700D01*
X96317800Y-37613000D02*
X105934600Y-47229800D01*
%TO.N,GPIO4*%
X62500000Y-28693400D02*
X62500000Y-29120000D01*
X65570700Y-25622700D02*
X62500000Y-28693400D01*
X65570700Y-23550000D02*
X65570700Y-25622700D01*
%TO.N,GPIO5*%
X64213100Y-27512900D02*
X66906000Y-24820000D01*
X64213100Y-29946900D02*
X64213100Y-27512900D01*
X62500000Y-31660000D02*
X64213100Y-29946900D01*
%TO.N,GPIO6*%
X62789800Y-27693900D02*
X64522999Y-25960700D01*
X62554800Y-27693900D02*
X62789800Y-27693900D01*
X62500000Y-34200000D02*
X61580000Y-33280000D01*
X61580000Y-33280000D02*
X61580000Y-28668700D01*
X61580000Y-28668700D02*
X62554800Y-27693900D01*
%TO.N,GPIO7*%
X65137600Y-27360000D02*
X65137600Y-33942400D01*
X62500000Y-36580000D02*
X62500000Y-36740000D01*
X65137600Y-33942400D02*
X62500000Y-36580000D01*
%TO.N,GPIO15*%
X64201800Y-37578200D02*
X64201800Y-35304800D01*
X62500000Y-39280000D02*
X64201800Y-37578200D01*
X64201800Y-35304800D02*
X67128800Y-32377800D01*
X67128800Y-32377800D02*
X67128800Y-30392600D01*
%TO.N,GPIO16*%
X64908000Y-35025200D02*
X67632100Y-32301100D01*
X64908000Y-39412000D02*
X64908000Y-35025200D01*
X67632100Y-32301100D02*
X67632100Y-29900000D01*
X62500000Y-41820000D02*
X64908000Y-39412000D01*
%TO.N,GPIO17*%
X62860600Y-35716000D02*
X64465700Y-34110900D01*
X62500000Y-44360000D02*
X61563500Y-43423500D01*
X64465700Y-34110900D02*
X64465700Y-32863300D01*
X62135000Y-35716000D02*
X62860600Y-35716000D01*
X61563500Y-36287500D02*
X62135000Y-35716000D01*
X61563500Y-43423500D02*
X61563500Y-36287500D01*
%TO.N,GPIO18*%
X66992300Y-33367500D02*
X67275300Y-33367500D01*
X65209700Y-44190300D02*
X65209700Y-35150100D01*
X62500000Y-46900000D02*
X65209700Y-44190300D01*
X65209700Y-35150100D02*
X66992300Y-33367500D01*
%TO.N,GPIO8*%
X61261800Y-48201800D02*
X61261800Y-36162600D01*
X62500000Y-49440000D02*
X61261800Y-48201800D01*
X62010100Y-35414300D02*
X62665300Y-35414300D01*
X63902900Y-34176700D02*
X63902900Y-33948400D01*
X61261800Y-36162600D02*
X62010100Y-35414300D01*
X62665300Y-35414300D02*
X63902900Y-34176700D01*
D26*
%TO.N,GPIO3*%
X73000000Y-58500000D02*
X104000000Y-92000000D01*
D23*
X72438100Y-39830500D02*
X73988600Y-38280000D01*
X73000000Y-58500000D02*
X72438100Y-57938100D01*
X72438100Y-57938100D02*
X72438100Y-39830500D01*
%TO.N,GPIO46*%
X75540000Y-42178500D02*
X78707700Y-39010800D01*
D26*
X75540000Y-58500000D02*
X106540000Y-92000000D01*
D23*
X75540000Y-58500000D02*
X75540000Y-42178500D01*
D26*
%TO.N,GPIO9*%
X78080000Y-58500000D02*
X109080000Y-92000000D01*
D23*
X78080000Y-58500000D02*
X78080000Y-40379300D01*
X78080000Y-40379300D02*
X78517600Y-39941700D01*
%TO.N,GPIO10*%
X80620000Y-58500000D02*
X80620000Y-40361500D01*
D26*
X80620000Y-58500000D02*
X111620000Y-92000000D01*
D23*
X80620000Y-40361500D02*
X81825000Y-39156500D01*
%TO.N,GPIO14*%
X90780000Y-58500000D02*
X90780000Y-42667600D01*
X90780000Y-42667600D02*
X87259100Y-39146700D01*
%TO.N,GPIO21*%
X93320000Y-44283500D02*
X93320000Y-58500000D01*
X88175000Y-39138500D02*
X93320000Y-44283500D01*
%TO.N,GPIO47*%
X95860000Y-58500000D02*
X95860000Y-45313200D01*
X95860000Y-45313200D02*
X89692900Y-39146100D01*
D26*
%TO.N,GPIO48*%
X98400000Y-58500000D02*
X114160000Y-92000000D01*
D23*
X98400000Y-58500000D02*
X98400000Y-45661500D01*
X98400000Y-45661500D02*
X92452200Y-39713700D01*
%TO.N,GPIO45*%
X100940000Y-44308200D02*
X100940000Y-58500000D01*
D26*
X100940000Y-58500000D02*
X116700000Y-92000000D01*
D23*
X96312300Y-39680500D02*
X100940000Y-44308200D01*
%TO.N,GPIO35*%
X104843100Y-42592100D02*
X104843100Y-34980000D01*
X107122200Y-51102200D02*
X107122200Y-48956400D01*
X107416400Y-48662200D02*
X107635300Y-48662200D01*
X108000000Y-51980000D02*
X107122200Y-51102200D01*
X107122200Y-48956400D02*
X107416400Y-48662200D01*
X108092400Y-45599200D02*
X107850200Y-45599200D01*
X107635300Y-48662200D02*
X108877800Y-47419700D01*
X107850200Y-45599200D02*
X104843100Y-42592100D01*
X108877800Y-47419700D02*
X108877800Y-46384600D01*
X108877800Y-46384600D02*
X108092400Y-45599200D01*
%TO.N,GPIO36*%
X106386300Y-51786600D02*
X106386300Y-46525800D01*
X108000000Y-49440000D02*
X108887900Y-50327900D01*
X107384400Y-52784700D02*
X106386300Y-51786600D01*
X106386300Y-46525800D02*
X96388300Y-36527800D01*
X108588400Y-52784700D02*
X107384400Y-52784700D01*
X96388300Y-36527800D02*
X96388300Y-33710000D01*
X108887900Y-50327900D02*
X108887900Y-52485200D01*
X108887900Y-52485200D02*
X108588400Y-52784700D01*
%TO.N,GPIO37*%
X104326900Y-32439999D02*
X104326900Y-43226900D01*
X104326900Y-43226900D02*
X108000000Y-46900000D01*
%TO.N,GPIO38*%
X108000000Y-44360000D02*
X108888100Y-43471900D01*
X108888100Y-43471900D02*
X108888100Y-33423699D01*
X108888100Y-33423699D02*
X108126000Y-32661600D01*
%TO.N,GPIO39*%
X108000000Y-41820000D02*
X105706100Y-39526100D01*
X105706100Y-39526100D02*
X105706100Y-31616000D01*
X105706100Y-31616000D02*
X104176600Y-30086500D01*
%TO.N,GPIO40*%
X104390600Y-29584800D02*
X103655200Y-29584800D01*
X106062900Y-31257100D02*
X104390600Y-29584800D01*
X106062900Y-37342900D02*
X106062900Y-31257100D01*
X108000000Y-39280000D02*
X106062900Y-37342900D01*
%TO.N,GPIO41*%
X106364600Y-28695400D02*
X106363100Y-28693900D01*
X108000000Y-36740000D02*
X106364600Y-35104600D01*
X106364600Y-35104600D02*
X106364600Y-28695400D01*
%TO.N,GPIO42*%
X108101100Y-30390000D02*
X108877800Y-29613300D01*
X107842700Y-30390000D02*
X108101100Y-30390000D01*
X108877800Y-29613300D02*
X108877800Y-28327200D01*
X108000000Y-34200000D02*
X107122200Y-33322200D01*
X108877800Y-28327200D02*
X108142200Y-27591600D01*
X107122200Y-33322200D02*
X107122200Y-31110500D01*
X107122200Y-31110500D02*
X107842700Y-30390000D01*
%TO.N,RXD0_GPIO44*%
X108000000Y-31660000D02*
X108912500Y-30747500D01*
X108912500Y-30747500D02*
X108912500Y-30295600D01*
%TO.N,TXD0_GPIO43*%
X108000000Y-29120000D02*
X102517100Y-23637100D01*
X102517100Y-23637100D02*
X101987500Y-23637100D01*
%TD*%
%TA.AperFunction,Conductor*%
%TO.N,GND*%
G36*
X60978326Y-522174D02*
G01*
X61000000Y-574500D01*
X61000000Y-15250000D01*
X109000000Y-15250000D01*
X109000000Y-6611525D01*
X153565250Y-6611525D01*
X153565250Y-6611526D01*
X153644742Y-6664641D01*
X153781232Y-6721177D01*
X153781239Y-6721179D01*
X153926132Y-6750000D01*
X154073868Y-6750000D01*
X154218760Y-6721179D01*
X154218767Y-6721177D01*
X154355253Y-6664643D01*
X154434748Y-6611525D01*
X154000000Y-6176776D01*
X153565250Y-6611525D01*
X109000000Y-6611525D01*
X109000000Y-5926131D01*
X153250000Y-5926131D01*
X153250000Y-6073868D01*
X153278820Y-6218760D01*
X153278822Y-6218767D01*
X153335357Y-6355254D01*
X153388472Y-6434747D01*
X153823222Y-5999999D01*
X154176776Y-5999999D01*
X154611525Y-6434748D01*
X154664643Y-6355253D01*
X154721177Y-6218767D01*
X154721179Y-6218760D01*
X154750000Y-6073868D01*
X154750000Y-5926131D01*
X154721179Y-5781239D01*
X154721177Y-5781232D01*
X154664641Y-5644742D01*
X154611525Y-5565250D01*
X154176776Y-5999999D01*
X153823222Y-5999999D01*
X153388472Y-5565250D01*
X153335359Y-5644741D01*
X153278822Y-5781232D01*
X153278820Y-5781239D01*
X153250000Y-5926131D01*
X109000000Y-5926131D01*
X109000000Y-5388472D01*
X153565250Y-5388472D01*
X153999999Y-5823222D01*
X154434748Y-5388472D01*
X154355254Y-5335357D01*
X154218767Y-5278822D01*
X154218760Y-5278820D01*
X154073868Y-5250000D01*
X153926132Y-5250000D01*
X153781239Y-5278820D01*
X153781232Y-5278822D01*
X153644741Y-5335359D01*
X153565250Y-5388472D01*
X109000000Y-5388472D01*
X109000000Y-574500D01*
X109021674Y-522174D01*
X109074000Y-500500D01*
X159425500Y-500500D01*
X159477826Y-522174D01*
X159499500Y-574500D01*
X159499500Y-99425500D01*
X159477826Y-99477826D01*
X159425500Y-99499500D01*
X574500Y-99499500D01*
X522174Y-99477826D01*
X500500Y-99425500D01*
X500500Y-94611525D01*
X153565250Y-94611525D01*
X153565250Y-94611526D01*
X153644742Y-94664641D01*
X153781232Y-94721177D01*
X153781239Y-94721179D01*
X153926132Y-94750000D01*
X154073868Y-94750000D01*
X154218760Y-94721179D01*
X154218767Y-94721177D01*
X154355253Y-94664643D01*
X154434748Y-94611525D01*
X154000000Y-94176776D01*
X153565250Y-94611525D01*
X500500Y-94611525D01*
X500500Y-93926131D01*
X153250000Y-93926131D01*
X153250000Y-94073868D01*
X153278820Y-94218760D01*
X153278822Y-94218767D01*
X153335357Y-94355254D01*
X153388472Y-94434747D01*
X153823222Y-93999999D01*
X154176776Y-93999999D01*
X154611525Y-94434748D01*
X154664643Y-94355253D01*
X154721177Y-94218767D01*
X154721179Y-94218760D01*
X154750000Y-94073868D01*
X154750000Y-93926131D01*
X154721179Y-93781239D01*
X154721177Y-93781232D01*
X154664641Y-93644742D01*
X154611525Y-93565250D01*
X154176776Y-93999999D01*
X153823222Y-93999999D01*
X153388472Y-93565250D01*
X153335359Y-93644741D01*
X153278822Y-93781232D01*
X153278820Y-93781239D01*
X153250000Y-93926131D01*
X500500Y-93926131D01*
X500500Y-93388472D01*
X153565250Y-93388472D01*
X153999999Y-93823222D01*
X154434748Y-93388472D01*
X154355254Y-93335357D01*
X154218767Y-93278822D01*
X154218760Y-93278820D01*
X154073868Y-93250000D01*
X153926132Y-93250000D01*
X153781239Y-93278820D01*
X153781232Y-93278822D01*
X153644741Y-93335359D01*
X153565250Y-93388472D01*
X500500Y-93388472D01*
X500500Y-82975376D01*
X23750000Y-82975376D01*
X23750000Y-85024623D01*
X23758063Y-85065159D01*
X24532666Y-84290555D01*
X24559890Y-84337708D01*
X24662292Y-84440110D01*
X24709443Y-84467332D01*
X23934839Y-85241935D01*
X23975378Y-85250000D01*
X26024622Y-85250000D01*
X26065158Y-85241935D01*
X25290556Y-84467332D01*
X25337708Y-84440110D01*
X25440110Y-84337708D01*
X25467332Y-84290555D01*
X26241935Y-85065158D01*
X26250000Y-85024622D01*
X26250000Y-82975377D01*
X26250000Y-82975376D01*
X45750000Y-82975376D01*
X45750000Y-85024623D01*
X45758063Y-85065159D01*
X46532666Y-84290555D01*
X46559890Y-84337708D01*
X46662292Y-84440110D01*
X46709443Y-84467332D01*
X45934839Y-85241935D01*
X45975378Y-85250000D01*
X48024622Y-85250000D01*
X48065158Y-85241935D01*
X47290556Y-84467332D01*
X47337708Y-84440110D01*
X47440110Y-84337708D01*
X47467332Y-84290555D01*
X48241935Y-85065158D01*
X48250000Y-85024622D01*
X48250000Y-82975377D01*
X48241935Y-82934839D01*
X47467332Y-83709442D01*
X47440110Y-83662292D01*
X47337708Y-83559890D01*
X47290555Y-83532666D01*
X48065159Y-82758063D01*
X48024623Y-82750000D01*
X45975377Y-82750000D01*
X45934839Y-82758063D01*
X46709443Y-83532667D01*
X46662292Y-83559890D01*
X46559890Y-83662292D01*
X46532667Y-83709443D01*
X45758063Y-82934839D01*
X45750000Y-82975376D01*
X26250000Y-82975376D01*
X26241935Y-82934839D01*
X25467332Y-83709442D01*
X25440110Y-83662292D01*
X25337708Y-83559890D01*
X25290555Y-83532666D01*
X26065159Y-82758063D01*
X26024623Y-82750000D01*
X23975377Y-82750000D01*
X23934839Y-82758063D01*
X24709443Y-83532667D01*
X24662292Y-83559890D01*
X24559890Y-83662292D01*
X24532667Y-83709443D01*
X23758063Y-82934839D01*
X23750000Y-82975376D01*
X500500Y-82975376D01*
X500500Y-75647270D01*
X66799500Y-75647270D01*
X66799500Y-75752729D01*
X66826791Y-75854582D01*
X66826795Y-75854591D01*
X66879520Y-75945913D01*
X66956237Y-76022630D01*
X66977684Y-76069170D01*
X67323145Y-80473796D01*
X67305629Y-80527656D01*
X67301699Y-80531907D01*
X67279520Y-80554086D01*
X67226795Y-80645408D01*
X67226791Y-80645417D01*
X67199500Y-80747270D01*
X67199500Y-80852729D01*
X67226791Y-80954582D01*
X67226792Y-80954585D01*
X67226793Y-80954587D01*
X67279520Y-81045913D01*
X67354087Y-81120480D01*
X67445413Y-81173207D01*
X67547270Y-81200499D01*
X67547271Y-81200500D01*
X67547273Y-81200500D01*
X67652729Y-81200500D01*
X67652729Y-81200499D01*
X67754587Y-81173207D01*
X67845913Y-81120480D01*
X67894219Y-81072174D01*
X67946545Y-81050500D01*
X68053455Y-81050500D01*
X68105781Y-81072174D01*
X68154087Y-81120480D01*
X68245413Y-81173207D01*
X68347270Y-81200499D01*
X68347271Y-81200500D01*
X68347273Y-81200500D01*
X68452729Y-81200500D01*
X68452729Y-81200499D01*
X68554587Y-81173207D01*
X68645913Y-81120480D01*
X68720480Y-81045913D01*
X68773207Y-80954587D01*
X68800499Y-80852729D01*
X68800500Y-80852729D01*
X68800500Y-80747271D01*
X68800499Y-80747270D01*
X68773208Y-80645417D01*
X68773207Y-80645413D01*
X68720480Y-80554087D01*
X68698300Y-80531907D01*
X68676626Y-80479581D01*
X68676852Y-80473809D01*
X69022314Y-76069170D01*
X69043761Y-76022631D01*
X69045910Y-76020481D01*
X69045913Y-76020480D01*
X69120480Y-75945913D01*
X69173207Y-75854587D01*
X69200499Y-75752729D01*
X69200500Y-75752729D01*
X69200500Y-75647271D01*
X69200499Y-75647270D01*
X69173208Y-75545417D01*
X69173207Y-75545413D01*
X69120480Y-75454087D01*
X69045913Y-75379520D01*
X68954591Y-75326795D01*
X68954582Y-75326791D01*
X68852729Y-75299500D01*
X68852727Y-75299500D01*
X68747273Y-75299500D01*
X68747271Y-75299500D01*
X68645417Y-75326791D01*
X68645408Y-75326795D01*
X68554086Y-75379520D01*
X68505781Y-75427826D01*
X68453455Y-75449500D01*
X68346545Y-75449500D01*
X68294219Y-75427826D01*
X68245913Y-75379520D01*
X68154591Y-75326795D01*
X68154582Y-75326791D01*
X68052729Y-75299500D01*
X68052727Y-75299500D01*
X67947273Y-75299500D01*
X67947271Y-75299500D01*
X67845417Y-75326791D01*
X67845408Y-75326795D01*
X67754086Y-75379520D01*
X67705781Y-75427826D01*
X67653455Y-75449500D01*
X67546545Y-75449500D01*
X67494219Y-75427826D01*
X67445913Y-75379520D01*
X67354591Y-75326795D01*
X67354582Y-75326791D01*
X67252729Y-75299500D01*
X67252727Y-75299500D01*
X67147273Y-75299500D01*
X67147271Y-75299500D01*
X67045417Y-75326791D01*
X67045408Y-75326795D01*
X66954086Y-75379520D01*
X66879520Y-75454086D01*
X66826795Y-75545408D01*
X66826791Y-75545417D01*
X66799500Y-75647270D01*
X500500Y-75647270D01*
X500500Y-70990102D01*
X23899500Y-70990102D01*
X23899500Y-73009897D01*
X23905331Y-73039215D01*
X23927540Y-73072454D01*
X23927542Y-73072456D01*
X23927543Y-73072457D01*
X23960787Y-73094669D01*
X23990101Y-73100500D01*
X26009898Y-73100499D01*
X26039213Y-73094669D01*
X26039214Y-73094668D01*
X26039215Y-73094668D01*
X26072454Y-73072459D01*
X26072453Y-73072459D01*
X26072457Y-73072457D01*
X26094669Y-73039213D01*
X26100500Y-73009899D01*
X26100499Y-70990102D01*
X45899500Y-70990102D01*
X45899500Y-73009897D01*
X45905331Y-73039215D01*
X45927540Y-73072454D01*
X45927542Y-73072456D01*
X45927543Y-73072457D01*
X45960787Y-73094669D01*
X45990101Y-73100500D01*
X48009898Y-73100499D01*
X48039213Y-73094669D01*
X48039214Y-73094668D01*
X48039215Y-73094668D01*
X48072454Y-73072459D01*
X48072453Y-73072459D01*
X48072457Y-73072457D01*
X48094669Y-73039213D01*
X48100500Y-73009899D01*
X48100499Y-70990102D01*
X48094669Y-70960787D01*
X48094668Y-70960786D01*
X48094668Y-70960784D01*
X48072459Y-70927545D01*
X48072456Y-70927542D01*
X48039213Y-70905331D01*
X48039211Y-70905330D01*
X48021559Y-70901819D01*
X48009899Y-70899500D01*
X48009897Y-70899500D01*
X45990102Y-70899500D01*
X45960784Y-70905331D01*
X45927545Y-70927540D01*
X45927542Y-70927543D01*
X45905331Y-70960786D01*
X45905330Y-70960788D01*
X45899500Y-70990102D01*
X26100499Y-70990102D01*
X26094669Y-70960787D01*
X26094668Y-70960786D01*
X26094668Y-70960784D01*
X26072459Y-70927545D01*
X26072456Y-70927542D01*
X26039213Y-70905331D01*
X26039211Y-70905330D01*
X26021559Y-70901819D01*
X26009899Y-70899500D01*
X26009897Y-70899500D01*
X25643844Y-70899500D01*
X25591518Y-70877826D01*
X25569844Y-70825500D01*
X25591518Y-70773174D01*
X26710215Y-69654477D01*
X33325910Y-63038781D01*
X33325913Y-63038780D01*
X33400480Y-62964213D01*
X33453207Y-62872887D01*
X33480500Y-62771029D01*
X33480501Y-62771029D01*
X33480501Y-62661044D01*
X33480500Y-62661026D01*
X33480500Y-49074499D01*
X33502174Y-49022173D01*
X33554500Y-49000499D01*
X33989898Y-49000499D01*
X34019213Y-48994669D01*
X34019214Y-48994668D01*
X34019215Y-48994668D01*
X34052454Y-48972459D01*
X34052453Y-48972459D01*
X34052457Y-48972457D01*
X34074669Y-48939213D01*
X34080500Y-48909899D01*
X34080499Y-47090102D01*
X34074669Y-47060787D01*
X34052479Y-47027576D01*
X34052479Y-47027575D01*
X34052478Y-47027574D01*
X34052457Y-47027543D01*
X34052456Y-47027542D01*
X34019213Y-47005331D01*
X34019211Y-47005330D01*
X34001559Y-47001819D01*
X33989899Y-46999500D01*
X33989897Y-46999500D01*
X33554500Y-46999500D01*
X33531811Y-46990102D01*
X41359500Y-46990102D01*
X41359500Y-49009897D01*
X41365331Y-49039215D01*
X41387540Y-49072454D01*
X41387542Y-49072456D01*
X41387543Y-49072457D01*
X41420787Y-49094669D01*
X41450101Y-49100500D01*
X43469898Y-49100499D01*
X43499213Y-49094669D01*
X43499214Y-49094668D01*
X43499215Y-49094668D01*
X43532454Y-49072459D01*
X43532453Y-49072459D01*
X43532457Y-49072457D01*
X43554669Y-49039213D01*
X43560500Y-49009899D01*
X43560499Y-46990102D01*
X43899500Y-46990102D01*
X43899500Y-49009897D01*
X43905331Y-49039215D01*
X43927540Y-49072454D01*
X43927542Y-49072456D01*
X43927543Y-49072457D01*
X43960787Y-49094669D01*
X43990101Y-49100500D01*
X46009898Y-49100499D01*
X46039213Y-49094669D01*
X46039214Y-49094668D01*
X46039215Y-49094668D01*
X46072454Y-49072459D01*
X46072453Y-49072459D01*
X46072457Y-49072457D01*
X46094669Y-49039213D01*
X46100500Y-49009899D01*
X46100499Y-46990102D01*
X46097570Y-46975376D01*
X46290000Y-46975376D01*
X46290000Y-49024623D01*
X46298063Y-49065159D01*
X47072666Y-48290555D01*
X47099890Y-48337708D01*
X47202292Y-48440110D01*
X47249443Y-48467332D01*
X46474839Y-49241935D01*
X46515378Y-49250000D01*
X48564622Y-49250000D01*
X48605158Y-49241935D01*
X47830556Y-48467332D01*
X47877708Y-48440110D01*
X47980110Y-48337708D01*
X48007332Y-48290555D01*
X48781935Y-49065158D01*
X48790000Y-49024622D01*
X48790000Y-46975377D01*
X48781935Y-46934839D01*
X48007332Y-47709442D01*
X47980110Y-47662292D01*
X47877708Y-47559890D01*
X47830555Y-47532666D01*
X48605159Y-46758063D01*
X48564623Y-46750000D01*
X46515377Y-46750000D01*
X46474839Y-46758063D01*
X47249443Y-47532667D01*
X47202292Y-47559890D01*
X47099890Y-47662292D01*
X47072667Y-47709443D01*
X46298063Y-46934839D01*
X46290000Y-46975376D01*
X46097570Y-46975376D01*
X46094669Y-46960787D01*
X46094668Y-46960786D01*
X46094668Y-46960784D01*
X46072459Y-46927545D01*
X46072456Y-46927542D01*
X46039213Y-46905331D01*
X46039211Y-46905330D01*
X46021559Y-46901819D01*
X46009899Y-46899500D01*
X46009897Y-46899500D01*
X43990102Y-46899500D01*
X43960784Y-46905331D01*
X43927545Y-46927540D01*
X43927542Y-46927543D01*
X43905331Y-46960786D01*
X43905330Y-46960788D01*
X43899500Y-46990102D01*
X43560499Y-46990102D01*
X43554669Y-46960787D01*
X43554668Y-46960786D01*
X43554668Y-46960784D01*
X43532459Y-46927545D01*
X43532456Y-46927542D01*
X43499213Y-46905331D01*
X43499211Y-46905330D01*
X43481559Y-46901819D01*
X43469899Y-46899500D01*
X43469897Y-46899500D01*
X41450102Y-46899500D01*
X41420784Y-46905331D01*
X41387545Y-46927540D01*
X41387542Y-46927543D01*
X41365331Y-46960786D01*
X41365330Y-46960788D01*
X41359500Y-46990102D01*
X33531811Y-46990102D01*
X33502174Y-46977826D01*
X33480500Y-46925500D01*
X33480500Y-43425376D01*
X39700000Y-43425376D01*
X39700000Y-45074623D01*
X39708063Y-45115159D01*
X40355871Y-44467350D01*
X40389910Y-44526306D01*
X40473694Y-44610090D01*
X40532648Y-44644127D01*
X39884839Y-45291935D01*
X39925378Y-45300000D01*
X41574622Y-45300000D01*
X41615158Y-45291935D01*
X40967351Y-44644127D01*
X41026306Y-44610090D01*
X41110090Y-44526306D01*
X41144127Y-44467350D01*
X41791935Y-45115158D01*
X41800000Y-45074622D01*
X41800000Y-43425377D01*
X41800000Y-43425376D01*
X44200000Y-43425376D01*
X44200000Y-45074623D01*
X44208063Y-45115159D01*
X44855871Y-44467350D01*
X44889910Y-44526306D01*
X44973694Y-44610090D01*
X45032648Y-44644127D01*
X44384839Y-45291935D01*
X44425378Y-45300000D01*
X46074622Y-45300000D01*
X46115158Y-45291935D01*
X45467351Y-44644127D01*
X45526306Y-44610090D01*
X45610090Y-44526306D01*
X45644127Y-44467350D01*
X46291935Y-45115158D01*
X46300000Y-45074622D01*
X46300000Y-43425377D01*
X46291935Y-43384839D01*
X45644126Y-44032647D01*
X45610090Y-43973694D01*
X45526306Y-43889910D01*
X45467350Y-43855871D01*
X46115159Y-43208063D01*
X46074623Y-43200000D01*
X44425377Y-43200000D01*
X44384839Y-43208063D01*
X45032648Y-43855872D01*
X44973694Y-43889910D01*
X44889910Y-43973694D01*
X44855872Y-44032648D01*
X44208063Y-43384839D01*
X44200000Y-43425376D01*
X41800000Y-43425376D01*
X41791935Y-43384839D01*
X41144126Y-44032647D01*
X41110090Y-43973694D01*
X41026306Y-43889910D01*
X40967350Y-43855871D01*
X41615159Y-43208063D01*
X41574623Y-43200000D01*
X39925377Y-43200000D01*
X39884839Y-43208063D01*
X40532648Y-43855872D01*
X40473694Y-43889910D01*
X40389910Y-43973694D01*
X40355872Y-44032648D01*
X39708063Y-43384839D01*
X39700000Y-43425376D01*
X33480500Y-43425376D01*
X33480500Y-38940102D01*
X39849500Y-38940102D01*
X39849500Y-40559897D01*
X39855331Y-40589215D01*
X39877540Y-40622454D01*
X39877542Y-40622456D01*
X39877543Y-40622457D01*
X39910787Y-40644669D01*
X39940101Y-40650500D01*
X41559898Y-40650499D01*
X41589213Y-40644669D01*
X41589214Y-40644668D01*
X41589215Y-40644668D01*
X41622454Y-40622459D01*
X41622453Y-40622459D01*
X41622457Y-40622457D01*
X41644669Y-40589213D01*
X41650500Y-40559899D01*
X41650499Y-38940102D01*
X44349500Y-38940102D01*
X44349500Y-40559897D01*
X44355331Y-40589215D01*
X44377540Y-40622454D01*
X44377542Y-40622456D01*
X44377543Y-40622457D01*
X44410787Y-40644669D01*
X44440101Y-40650500D01*
X46059898Y-40650499D01*
X46089213Y-40644669D01*
X46089214Y-40644668D01*
X46089215Y-40644668D01*
X46122454Y-40622459D01*
X46122453Y-40622459D01*
X46122457Y-40622457D01*
X46144669Y-40589213D01*
X46150500Y-40559899D01*
X46150499Y-38940102D01*
X46144669Y-38910787D01*
X46144668Y-38910786D01*
X46144668Y-38910784D01*
X46122459Y-38877545D01*
X46122456Y-38877542D01*
X46089213Y-38855331D01*
X46089211Y-38855330D01*
X46071559Y-38851819D01*
X46059899Y-38849500D01*
X46059897Y-38849500D01*
X44440102Y-38849500D01*
X44410784Y-38855331D01*
X44377545Y-38877540D01*
X44377542Y-38877543D01*
X44355331Y-38910786D01*
X44355330Y-38910788D01*
X44349500Y-38940102D01*
X41650499Y-38940102D01*
X41644669Y-38910787D01*
X41644668Y-38910786D01*
X41644668Y-38910784D01*
X41622459Y-38877545D01*
X41622456Y-38877542D01*
X41589213Y-38855331D01*
X41589211Y-38855330D01*
X41571559Y-38851819D01*
X41559899Y-38849500D01*
X41559897Y-38849500D01*
X39940102Y-38849500D01*
X39910784Y-38855331D01*
X39877545Y-38877540D01*
X39877542Y-38877543D01*
X39855331Y-38910786D01*
X39855330Y-38910788D01*
X39849500Y-38940102D01*
X33480500Y-38940102D01*
X33480500Y-33425376D01*
X39700000Y-33425376D01*
X39700000Y-35074623D01*
X39708063Y-35115159D01*
X40355871Y-34467350D01*
X40389910Y-34526306D01*
X40473694Y-34610090D01*
X40532648Y-34644127D01*
X39884839Y-35291935D01*
X39925378Y-35300000D01*
X41574622Y-35300000D01*
X41615158Y-35291935D01*
X40967351Y-34644127D01*
X41026306Y-34610090D01*
X41110090Y-34526306D01*
X41144127Y-34467350D01*
X41791935Y-35115158D01*
X41800000Y-35074622D01*
X41800000Y-33425377D01*
X41800000Y-33425376D01*
X44200000Y-33425376D01*
X44200000Y-35074623D01*
X44208063Y-35115159D01*
X44855871Y-34467350D01*
X44889910Y-34526306D01*
X44973694Y-34610090D01*
X45032648Y-34644127D01*
X44384839Y-35291935D01*
X44425378Y-35300000D01*
X46074622Y-35300000D01*
X46115158Y-35291935D01*
X45467351Y-34644127D01*
X45526306Y-34610090D01*
X45610090Y-34526306D01*
X45644127Y-34467350D01*
X46291935Y-35115158D01*
X46300000Y-35074622D01*
X46300000Y-33425377D01*
X46291935Y-33384839D01*
X45644126Y-34032647D01*
X45610090Y-33973694D01*
X45526306Y-33889910D01*
X45467350Y-33855871D01*
X46115159Y-33208063D01*
X46074623Y-33200000D01*
X44425377Y-33200000D01*
X44384839Y-33208063D01*
X45032648Y-33855872D01*
X44973694Y-33889910D01*
X44889910Y-33973694D01*
X44855872Y-34032648D01*
X44208063Y-33384839D01*
X44200000Y-33425376D01*
X41800000Y-33425376D01*
X41791935Y-33384839D01*
X41144126Y-34032647D01*
X41110090Y-33973694D01*
X41026306Y-33889910D01*
X40967350Y-33855871D01*
X41615159Y-33208063D01*
X41574623Y-33200000D01*
X39925377Y-33200000D01*
X39884839Y-33208063D01*
X40532648Y-33855872D01*
X40473694Y-33889910D01*
X40389910Y-33973694D01*
X40355872Y-34032648D01*
X39708063Y-33384839D01*
X39700000Y-33425376D01*
X33480500Y-33425376D01*
X33480500Y-29518243D01*
X33502173Y-29465918D01*
X34027989Y-28940102D01*
X39849500Y-28940102D01*
X39849500Y-30559897D01*
X39855331Y-30589215D01*
X39877540Y-30622454D01*
X39877542Y-30622456D01*
X39877543Y-30622457D01*
X39910787Y-30644669D01*
X39940101Y-30650500D01*
X41559898Y-30650499D01*
X41589213Y-30644669D01*
X41589214Y-30644668D01*
X41589215Y-30644668D01*
X41622454Y-30622459D01*
X41622453Y-30622459D01*
X41622457Y-30622457D01*
X41644669Y-30589213D01*
X41650500Y-30559899D01*
X41650499Y-28940102D01*
X44349500Y-28940102D01*
X44349500Y-30559897D01*
X44355331Y-30589215D01*
X44377540Y-30622454D01*
X44377542Y-30622456D01*
X44377543Y-30622457D01*
X44410787Y-30644669D01*
X44440101Y-30650500D01*
X46059898Y-30650499D01*
X46089213Y-30644669D01*
X46089214Y-30644668D01*
X46089215Y-30644668D01*
X46122454Y-30622459D01*
X46122453Y-30622459D01*
X46122457Y-30622457D01*
X46144669Y-30589213D01*
X46150500Y-30559899D01*
X46150500Y-30024500D01*
X46172174Y-29972174D01*
X46224500Y-29950500D01*
X46291581Y-29950500D01*
X46291582Y-29950500D01*
X46365274Y-29919976D01*
X49483076Y-26802174D01*
X49535402Y-26780500D01*
X61650501Y-26780500D01*
X61702827Y-26802174D01*
X61724501Y-26854500D01*
X61724501Y-26898032D01*
X61738891Y-26988894D01*
X61738892Y-26988897D01*
X61794687Y-27098401D01*
X61794689Y-27098403D01*
X61881597Y-27185311D01*
X61991107Y-27241109D01*
X62081967Y-27255500D01*
X62765997Y-27255499D01*
X62818323Y-27277173D01*
X62828782Y-27302423D01*
X62839551Y-27328423D01*
X62839997Y-27329499D01*
X62818323Y-27381824D01*
X62728424Y-27471725D01*
X62676099Y-27493400D01*
X62594682Y-27493400D01*
X62514917Y-27493400D01*
X62493333Y-27502340D01*
X62493331Y-27502340D01*
X62441230Y-27523921D01*
X62441224Y-27523925D01*
X62384823Y-27580325D01*
X62384824Y-27580326D01*
X62384823Y-27580327D01*
X61456018Y-28509131D01*
X61456017Y-28509132D01*
X61456016Y-28509131D01*
X61410027Y-28555121D01*
X61410022Y-28555128D01*
X61379500Y-28628816D01*
X61379500Y-33319883D01*
X61410022Y-33393571D01*
X61410025Y-33393575D01*
X61724051Y-33707601D01*
X61745725Y-33759927D01*
X61739653Y-33785231D01*
X61740690Y-33785568D01*
X61738891Y-33791103D01*
X61724500Y-33881965D01*
X61724500Y-34518032D01*
X61738891Y-34608894D01*
X61738892Y-34608897D01*
X61794687Y-34718401D01*
X61794689Y-34718403D01*
X61881597Y-34805311D01*
X61991107Y-34861109D01*
X62081967Y-34875500D01*
X62741898Y-34875499D01*
X62794224Y-34897173D01*
X62815898Y-34949499D01*
X62794224Y-35001825D01*
X62603924Y-35192126D01*
X62551598Y-35213800D01*
X61970218Y-35213800D01*
X61896528Y-35244322D01*
X61091822Y-36049028D01*
X61061300Y-36122716D01*
X61061300Y-48241683D01*
X61091822Y-48315371D01*
X61091825Y-48315375D01*
X61724051Y-48947601D01*
X61745725Y-48999927D01*
X61739653Y-49025231D01*
X61740690Y-49025568D01*
X61738891Y-49031103D01*
X61724500Y-49121965D01*
X61724500Y-49758032D01*
X61738891Y-49848894D01*
X61738892Y-49848897D01*
X61794687Y-49958401D01*
X61794689Y-49958403D01*
X61881597Y-50045311D01*
X61991107Y-50101109D01*
X62081967Y-50115500D01*
X62918032Y-50115499D01*
X63008893Y-50101109D01*
X63118403Y-50045311D01*
X63205311Y-49958403D01*
X63261109Y-49848893D01*
X63275500Y-49758033D01*
X63275499Y-49121968D01*
X63261109Y-49031107D01*
X63261107Y-49031103D01*
X63261107Y-49031102D01*
X63205312Y-48921598D01*
X63118403Y-48834689D01*
X63008893Y-48778891D01*
X63008891Y-48778890D01*
X63008890Y-48778890D01*
X62918035Y-48764500D01*
X62918033Y-48764500D01*
X62138702Y-48764500D01*
X62086376Y-48742826D01*
X61483974Y-48140424D01*
X61462300Y-48088098D01*
X61462300Y-43784502D01*
X61483974Y-43732176D01*
X61536300Y-43710502D01*
X61588626Y-43732176D01*
X61724051Y-43867601D01*
X61745725Y-43919927D01*
X61739653Y-43945231D01*
X61740690Y-43945568D01*
X61738891Y-43951103D01*
X61724500Y-44041965D01*
X61724500Y-44678032D01*
X61738891Y-44768894D01*
X61738892Y-44768897D01*
X61794687Y-44878401D01*
X61794689Y-44878403D01*
X61881597Y-44965311D01*
X61991107Y-45021109D01*
X62081967Y-45035500D01*
X62918032Y-45035499D01*
X63008893Y-45021109D01*
X63015904Y-45017537D01*
X63118401Y-44965312D01*
X63118400Y-44965312D01*
X63118403Y-44965311D01*
X63205311Y-44878403D01*
X63261109Y-44768893D01*
X63275500Y-44678033D01*
X63275499Y-44041968D01*
X63261109Y-43951107D01*
X63261107Y-43951103D01*
X63261107Y-43951102D01*
X63205312Y-43841598D01*
X63118403Y-43754689D01*
X63118399Y-43754687D01*
X63008893Y-43698891D01*
X63008891Y-43698890D01*
X63008890Y-43698890D01*
X62918035Y-43684500D01*
X62918033Y-43684500D01*
X62138702Y-43684500D01*
X62086376Y-43662826D01*
X61785674Y-43362124D01*
X61764000Y-43309798D01*
X61764000Y-42485105D01*
X61785674Y-42432779D01*
X61838000Y-42411105D01*
X61876006Y-42423454D01*
X61876408Y-42422667D01*
X61881383Y-42425202D01*
X61881497Y-42425239D01*
X61881593Y-42425309D01*
X61881597Y-42425311D01*
X61991107Y-42481109D01*
X62081967Y-42495500D01*
X62918032Y-42495499D01*
X63008893Y-42481109D01*
X63118403Y-42425311D01*
X63205311Y-42338403D01*
X63261109Y-42228893D01*
X63275500Y-42138033D01*
X63275499Y-41501968D01*
X63261109Y-41411107D01*
X63261107Y-41411103D01*
X63259309Y-41405566D01*
X63261653Y-41404804D01*
X63257895Y-41357060D01*
X63275946Y-41327602D01*
X64882875Y-39720674D01*
X64935200Y-39699001D01*
X64987526Y-39720675D01*
X65009200Y-39773001D01*
X65009200Y-44076598D01*
X64987526Y-44128924D01*
X62913623Y-46202826D01*
X62861297Y-46224500D01*
X62081967Y-46224500D01*
X61991105Y-46238891D01*
X61991102Y-46238892D01*
X61881598Y-46294687D01*
X61794689Y-46381596D01*
X61738890Y-46491109D01*
X61724500Y-46581965D01*
X61724500Y-47218032D01*
X61738891Y-47308894D01*
X61738892Y-47308897D01*
X61794687Y-47418401D01*
X61794689Y-47418403D01*
X61881597Y-47505311D01*
X61991107Y-47561109D01*
X62081967Y-47575500D01*
X62918032Y-47575499D01*
X63008893Y-47561109D01*
X63011286Y-47559890D01*
X63118401Y-47505312D01*
X63118400Y-47505312D01*
X63118403Y-47505311D01*
X63205311Y-47418403D01*
X63261109Y-47308893D01*
X63275500Y-47218033D01*
X63275499Y-46581968D01*
X63261109Y-46491107D01*
X63261107Y-46491103D01*
X63259309Y-46485566D01*
X63261653Y-46484804D01*
X63257895Y-46437060D01*
X63275946Y-46407602D01*
X65312865Y-44370682D01*
X65312868Y-44370681D01*
X65323273Y-44360276D01*
X65323274Y-44360276D01*
X65379676Y-44303874D01*
X65410200Y-44230182D01*
X65410200Y-35263802D01*
X65431874Y-35211476D01*
X65456981Y-35186369D01*
X65581806Y-35061543D01*
X65634131Y-35039870D01*
X65686457Y-35061544D01*
X65705609Y-35094716D01*
X65711087Y-35115158D01*
X65716293Y-35134587D01*
X65769020Y-35225913D01*
X65843587Y-35300480D01*
X65852000Y-35305337D01*
X65886478Y-35350270D01*
X65889000Y-35369423D01*
X65889000Y-48276797D01*
X65867326Y-48329123D01*
X62913622Y-51282826D01*
X62861296Y-51304500D01*
X62081967Y-51304500D01*
X61991105Y-51318891D01*
X61991102Y-51318892D01*
X61881598Y-51374687D01*
X61794689Y-51461596D01*
X61738890Y-51571109D01*
X61724500Y-51661965D01*
X61724500Y-52298032D01*
X61738891Y-52388894D01*
X61738892Y-52388897D01*
X61794687Y-52498401D01*
X61794689Y-52498403D01*
X61881597Y-52585311D01*
X61991107Y-52641109D01*
X62081967Y-52655500D01*
X62918032Y-52655499D01*
X63008893Y-52641109D01*
X63118403Y-52585311D01*
X63205311Y-52498403D01*
X63261109Y-52388893D01*
X63275500Y-52298033D01*
X63275499Y-51661968D01*
X63261109Y-51571107D01*
X63261107Y-51571103D01*
X63259309Y-51565566D01*
X63261653Y-51564804D01*
X63257895Y-51517060D01*
X63275946Y-51487602D01*
X66259476Y-48504074D01*
X66259476Y-48504072D01*
X66262873Y-48500676D01*
X66315199Y-48479002D01*
X66367525Y-48500676D01*
X66389199Y-48553002D01*
X66389199Y-50316598D01*
X66367525Y-50368924D01*
X62913622Y-53822826D01*
X62861296Y-53844500D01*
X62081967Y-53844500D01*
X61991105Y-53858891D01*
X61991102Y-53858892D01*
X61881598Y-53914687D01*
X61794689Y-54001596D01*
X61738890Y-54111109D01*
X61724500Y-54201965D01*
X61724500Y-54838032D01*
X61738891Y-54928894D01*
X61738892Y-54928897D01*
X61794687Y-55038401D01*
X61794689Y-55038403D01*
X61881597Y-55125311D01*
X61991107Y-55181109D01*
X62081967Y-55195500D01*
X62918032Y-55195499D01*
X63008893Y-55181109D01*
X63118403Y-55125311D01*
X63205311Y-55038403D01*
X63261109Y-54928893D01*
X63275500Y-54838033D01*
X63275499Y-54201968D01*
X63261109Y-54111107D01*
X63261107Y-54111103D01*
X63259309Y-54105566D01*
X63261653Y-54104804D01*
X63257895Y-54057060D01*
X63275946Y-54027602D01*
X66692864Y-50610682D01*
X66692867Y-50610681D01*
X66703272Y-50600276D01*
X66703273Y-50600276D01*
X66759675Y-50543874D01*
X66790199Y-50470182D01*
X66790199Y-44111902D01*
X66811873Y-44059576D01*
X70311552Y-40559897D01*
X73832411Y-37039037D01*
X73884736Y-37017364D01*
X73903885Y-37019884D01*
X73913273Y-37022400D01*
X73913274Y-37022400D01*
X74018729Y-37022400D01*
X74018729Y-37022399D01*
X74120587Y-36995107D01*
X74194500Y-36952432D01*
X74250652Y-36945040D01*
X74295586Y-36979519D01*
X74305500Y-37016519D01*
X74305500Y-37872332D01*
X74283826Y-37924658D01*
X74231500Y-37946332D01*
X74194500Y-37936418D01*
X74143191Y-37906795D01*
X74143182Y-37906791D01*
X74041329Y-37879500D01*
X74041327Y-37879500D01*
X73935873Y-37879500D01*
X73935871Y-37879500D01*
X73834017Y-37906791D01*
X73834008Y-37906795D01*
X73742686Y-37959520D01*
X73668120Y-38034086D01*
X73615395Y-38125408D01*
X73615391Y-38125417D01*
X73588100Y-38227270D01*
X73588100Y-38332727D01*
X73590614Y-38342110D01*
X73583220Y-38398262D01*
X73571461Y-38413587D01*
X72324526Y-39660524D01*
X72268122Y-39716928D01*
X72237600Y-39790616D01*
X72237600Y-39790618D01*
X72237600Y-57898218D01*
X72237600Y-57977982D01*
X72239098Y-57981598D01*
X72250970Y-58010261D01*
X72250969Y-58066898D01*
X72248538Y-58072171D01*
X72238891Y-58091105D01*
X72238891Y-58091106D01*
X72224500Y-58181965D01*
X72224500Y-58818032D01*
X72238891Y-58908894D01*
X72238892Y-58908897D01*
X72294687Y-59018401D01*
X72294689Y-59018403D01*
X72381597Y-59105311D01*
X72491107Y-59161109D01*
X72581967Y-59175500D01*
X73346817Y-59175499D01*
X73399143Y-59197173D01*
X73401130Y-59199239D01*
X103228330Y-91431856D01*
X103247961Y-91484982D01*
X103235546Y-91523228D01*
X103201985Y-91573455D01*
X103134107Y-91737329D01*
X103134104Y-91737339D01*
X103099500Y-91911310D01*
X103099500Y-92088689D01*
X103134104Y-92262660D01*
X103134107Y-92262670D01*
X103201985Y-92426544D01*
X103201986Y-92426546D01*
X103201987Y-92426547D01*
X103300536Y-92574035D01*
X103425965Y-92699464D01*
X103573453Y-92798013D01*
X103737334Y-92865894D01*
X103911309Y-92900500D01*
X103911311Y-92900500D01*
X104088689Y-92900500D01*
X104088691Y-92900500D01*
X104262666Y-92865894D01*
X104426547Y-92798013D01*
X104574035Y-92699464D01*
X104699464Y-92574035D01*
X104798013Y-92426547D01*
X104865894Y-92262666D01*
X104900500Y-92088691D01*
X104900500Y-91911309D01*
X104865894Y-91737334D01*
X104798013Y-91573453D01*
X104699464Y-91425965D01*
X104574035Y-91300536D01*
X104541973Y-91279113D01*
X104426544Y-91201985D01*
X104262670Y-91134107D01*
X104262660Y-91134104D01*
X104146156Y-91110930D01*
X104088691Y-91099500D01*
X103911309Y-91099500D01*
X103861989Y-91109310D01*
X103737339Y-91134104D01*
X103737329Y-91134107D01*
X103573371Y-91202020D01*
X103516734Y-91202020D01*
X103490740Y-91183913D01*
X97992193Y-85241935D01*
X73747577Y-59042108D01*
X73727947Y-58988983D01*
X73735954Y-58958260D01*
X73761109Y-58908893D01*
X73775500Y-58818033D01*
X73775499Y-58181968D01*
X73761109Y-58091107D01*
X73761108Y-58091105D01*
X73761107Y-58091102D01*
X73705312Y-57981598D01*
X73618403Y-57894689D01*
X73608604Y-57889696D01*
X73508893Y-57838891D01*
X73508891Y-57838890D01*
X73508890Y-57838890D01*
X73418035Y-57824500D01*
X73418033Y-57824500D01*
X72712600Y-57824500D01*
X72660274Y-57802826D01*
X72638600Y-57750500D01*
X72638600Y-55489602D01*
X72660274Y-55437276D01*
X72712600Y-55415602D01*
X72764926Y-55437276D01*
X74612361Y-57284711D01*
X74634035Y-57337037D01*
X74631515Y-57356185D01*
X74629000Y-57365573D01*
X74629000Y-57471029D01*
X74656291Y-57572882D01*
X74656292Y-57572885D01*
X74656293Y-57572887D01*
X74709020Y-57664213D01*
X74783587Y-57738780D01*
X74874913Y-57791507D01*
X74874923Y-57791509D01*
X74878557Y-57793015D01*
X74918610Y-57833059D01*
X74918618Y-57889696D01*
X74902573Y-57913712D01*
X74834689Y-57981596D01*
X74778890Y-58091109D01*
X74764500Y-58181965D01*
X74764500Y-58818032D01*
X74778891Y-58908894D01*
X74778892Y-58908897D01*
X74834687Y-59018401D01*
X74834689Y-59018403D01*
X74921597Y-59105311D01*
X75031107Y-59161109D01*
X75121967Y-59175500D01*
X75886817Y-59175499D01*
X75939143Y-59197173D01*
X75941130Y-59199239D01*
X105768330Y-91431856D01*
X105787961Y-91484982D01*
X105775546Y-91523228D01*
X105741985Y-91573455D01*
X105674107Y-91737329D01*
X105674104Y-91737339D01*
X105639500Y-91911310D01*
X105639500Y-92088689D01*
X105674104Y-92262660D01*
X105674107Y-92262670D01*
X105741985Y-92426544D01*
X105741986Y-92426546D01*
X105741987Y-92426547D01*
X105840536Y-92574035D01*
X105965965Y-92699464D01*
X106113453Y-92798013D01*
X106277334Y-92865894D01*
X106451309Y-92900500D01*
X106451311Y-92900500D01*
X106628689Y-92900500D01*
X106628691Y-92900500D01*
X106802666Y-92865894D01*
X106966547Y-92798013D01*
X107114035Y-92699464D01*
X107239464Y-92574035D01*
X107338013Y-92426547D01*
X107405894Y-92262666D01*
X107440500Y-92088691D01*
X107440500Y-91911309D01*
X107405894Y-91737334D01*
X107338013Y-91573453D01*
X107239464Y-91425965D01*
X107114035Y-91300536D01*
X107081973Y-91279113D01*
X106966544Y-91201985D01*
X106802670Y-91134107D01*
X106802660Y-91134104D01*
X106686156Y-91110930D01*
X106628691Y-91099500D01*
X106451309Y-91099500D01*
X106401989Y-91109310D01*
X106277339Y-91134104D01*
X106277329Y-91134107D01*
X106113371Y-91202020D01*
X106056734Y-91202020D01*
X106030740Y-91183913D01*
X100532193Y-85241935D01*
X76287577Y-59042108D01*
X76267947Y-58988983D01*
X76275954Y-58958260D01*
X76301109Y-58908893D01*
X76315500Y-58818033D01*
X76315499Y-58181968D01*
X76301109Y-58091107D01*
X76301108Y-58091105D01*
X76301107Y-58091102D01*
X76245312Y-57981598D01*
X76158403Y-57894689D01*
X76148604Y-57889696D01*
X76048893Y-57838891D01*
X76048891Y-57838890D01*
X76048890Y-57838890D01*
X75958035Y-57824500D01*
X75958033Y-57824500D01*
X75814500Y-57824500D01*
X75762174Y-57802826D01*
X75740500Y-57750500D01*
X75740500Y-42292201D01*
X75762173Y-42239876D01*
X77769790Y-40232258D01*
X77822115Y-40210585D01*
X77874441Y-40232259D01*
X77896115Y-40284585D01*
X77890483Y-40312902D01*
X77879500Y-40339418D01*
X77879500Y-57750500D01*
X77857826Y-57802826D01*
X77805501Y-57824500D01*
X77661967Y-57824500D01*
X77571105Y-57838891D01*
X77571102Y-57838892D01*
X77461598Y-57894687D01*
X77374689Y-57981596D01*
X77318890Y-58091109D01*
X77304500Y-58181965D01*
X77304500Y-58818032D01*
X77318891Y-58908894D01*
X77318892Y-58908897D01*
X77374687Y-59018401D01*
X77374689Y-59018403D01*
X77461597Y-59105311D01*
X77571107Y-59161109D01*
X77661967Y-59175500D01*
X78426817Y-59175499D01*
X78479143Y-59197173D01*
X78481130Y-59199239D01*
X108308330Y-91431856D01*
X108327961Y-91484982D01*
X108315546Y-91523228D01*
X108281985Y-91573455D01*
X108214107Y-91737329D01*
X108214104Y-91737339D01*
X108179500Y-91911310D01*
X108179500Y-92088689D01*
X108214104Y-92262660D01*
X108214107Y-92262670D01*
X108281985Y-92426544D01*
X108281986Y-92426546D01*
X108281987Y-92426547D01*
X108380536Y-92574035D01*
X108505965Y-92699464D01*
X108653453Y-92798013D01*
X108817334Y-92865894D01*
X108991309Y-92900500D01*
X108991311Y-92900500D01*
X109168689Y-92900500D01*
X109168691Y-92900500D01*
X109342666Y-92865894D01*
X109506547Y-92798013D01*
X109654035Y-92699464D01*
X109779464Y-92574035D01*
X109878013Y-92426547D01*
X109945894Y-92262666D01*
X109980500Y-92088691D01*
X109980500Y-91911309D01*
X109945894Y-91737334D01*
X109878013Y-91573453D01*
X109779464Y-91425965D01*
X109654035Y-91300536D01*
X109621973Y-91279113D01*
X109506544Y-91201985D01*
X109342670Y-91134107D01*
X109342660Y-91134104D01*
X109226156Y-91110930D01*
X109168691Y-91099500D01*
X108991309Y-91099500D01*
X108941989Y-91109310D01*
X108817339Y-91134104D01*
X108817329Y-91134107D01*
X108653371Y-91202020D01*
X108596734Y-91202020D01*
X108570740Y-91183913D01*
X103072193Y-85241935D01*
X78827577Y-59042108D01*
X78807947Y-58988983D01*
X78815954Y-58958260D01*
X78841109Y-58908893D01*
X78855500Y-58818033D01*
X78855499Y-58181968D01*
X78855499Y-58181965D01*
X79844500Y-58181965D01*
X79844500Y-58818032D01*
X79858891Y-58908894D01*
X79858892Y-58908897D01*
X79914687Y-59018401D01*
X79914689Y-59018403D01*
X80001597Y-59105311D01*
X80111107Y-59161109D01*
X80201967Y-59175500D01*
X80966817Y-59175499D01*
X81019143Y-59197173D01*
X81021130Y-59199239D01*
X110848330Y-91431856D01*
X110867961Y-91484982D01*
X110855546Y-91523228D01*
X110821985Y-91573455D01*
X110754107Y-91737329D01*
X110754104Y-91737339D01*
X110719500Y-91911310D01*
X110719500Y-92088689D01*
X110754104Y-92262660D01*
X110754107Y-92262670D01*
X110821985Y-92426544D01*
X110821986Y-92426546D01*
X110821987Y-92426547D01*
X110920536Y-92574035D01*
X111045965Y-92699464D01*
X111193453Y-92798013D01*
X111357334Y-92865894D01*
X111531309Y-92900500D01*
X111531311Y-92900500D01*
X111708689Y-92900500D01*
X111708691Y-92900500D01*
X111882666Y-92865894D01*
X112046547Y-92798013D01*
X112194035Y-92699464D01*
X112319464Y-92574035D01*
X112418013Y-92426547D01*
X112485894Y-92262666D01*
X112520500Y-92088691D01*
X112520500Y-91911309D01*
X112485894Y-91737334D01*
X112418013Y-91573453D01*
X112319464Y-91425965D01*
X112194035Y-91300536D01*
X112161973Y-91279113D01*
X112046544Y-91201985D01*
X111882670Y-91134107D01*
X111882660Y-91134104D01*
X111766156Y-91110930D01*
X111708691Y-91099500D01*
X111531309Y-91099500D01*
X111481989Y-91109310D01*
X111357339Y-91134104D01*
X111357329Y-91134107D01*
X111193371Y-91202020D01*
X111136734Y-91202020D01*
X111110740Y-91183913D01*
X105612193Y-85241935D01*
X81367577Y-59042108D01*
X81347947Y-58988983D01*
X81355954Y-58958260D01*
X81381109Y-58908893D01*
X81395500Y-58818033D01*
X81395499Y-58181968D01*
X81381109Y-58091107D01*
X81381108Y-58091105D01*
X81381107Y-58091102D01*
X81325312Y-57981598D01*
X81238403Y-57894689D01*
X81228604Y-57889696D01*
X81128893Y-57838891D01*
X81128891Y-57838890D01*
X81128890Y-57838890D01*
X81038035Y-57824500D01*
X81038033Y-57824500D01*
X80894500Y-57824500D01*
X80842174Y-57802826D01*
X80820500Y-57750500D01*
X80820500Y-40475201D01*
X80842174Y-40422875D01*
X81264070Y-40000979D01*
X81691411Y-39573637D01*
X81743736Y-39551964D01*
X81762885Y-39554484D01*
X81772273Y-39557000D01*
X81772274Y-39557000D01*
X81877729Y-39557000D01*
X81877729Y-39556999D01*
X81979587Y-39529707D01*
X82070913Y-39476980D01*
X82145480Y-39402413D01*
X82198207Y-39311087D01*
X82225499Y-39209229D01*
X82225500Y-39209229D01*
X82225500Y-39103771D01*
X82225499Y-39103770D01*
X82222712Y-39093370D01*
X82198207Y-39001913D01*
X82145480Y-38910587D01*
X82070913Y-38836020D01*
X81987047Y-38787600D01*
X81979591Y-38783295D01*
X81979582Y-38783291D01*
X81877729Y-38756000D01*
X81877727Y-38756000D01*
X81772273Y-38756000D01*
X81772271Y-38756000D01*
X81670417Y-38783291D01*
X81670408Y-38783295D01*
X81579086Y-38836020D01*
X81504520Y-38910586D01*
X81451795Y-39001908D01*
X81451791Y-39001917D01*
X81424500Y-39103770D01*
X81424500Y-39209227D01*
X81427014Y-39218610D01*
X81419620Y-39274762D01*
X81407861Y-39290087D01*
X80496018Y-40201931D01*
X80496017Y-40201932D01*
X80496016Y-40201931D01*
X80450027Y-40247921D01*
X80450022Y-40247928D01*
X80419500Y-40321616D01*
X80419500Y-57750500D01*
X80397826Y-57802826D01*
X80345501Y-57824500D01*
X80201967Y-57824500D01*
X80111105Y-57838891D01*
X80111102Y-57838892D01*
X80001598Y-57894687D01*
X79914689Y-57981596D01*
X79858890Y-58091109D01*
X79844500Y-58181965D01*
X78855499Y-58181965D01*
X78841109Y-58091107D01*
X78841108Y-58091105D01*
X78841107Y-58091102D01*
X78785312Y-57981598D01*
X78698403Y-57894689D01*
X78688604Y-57889696D01*
X78588893Y-57838891D01*
X78588891Y-57838890D01*
X78588890Y-57838890D01*
X78498035Y-57824500D01*
X78498033Y-57824500D01*
X78354500Y-57824500D01*
X78302174Y-57802826D01*
X78280500Y-57750500D01*
X78280500Y-40493001D01*
X78302173Y-40440676D01*
X78384012Y-40358837D01*
X78436336Y-40337164D01*
X78455485Y-40339684D01*
X78464873Y-40342200D01*
X78464874Y-40342200D01*
X78570329Y-40342200D01*
X78570329Y-40342199D01*
X78672187Y-40314907D01*
X78763513Y-40262180D01*
X78838080Y-40187613D01*
X78890807Y-40096287D01*
X78918099Y-39994429D01*
X78918100Y-39994429D01*
X78918100Y-39888971D01*
X78918099Y-39888970D01*
X78917118Y-39885310D01*
X78890807Y-39787113D01*
X78838080Y-39695787D01*
X78763513Y-39621220D01*
X78716973Y-39594350D01*
X78672191Y-39568495D01*
X78672182Y-39568491D01*
X78626049Y-39556130D01*
X78581116Y-39521652D01*
X78573724Y-39465499D01*
X78608202Y-39420566D01*
X78650123Y-39412227D01*
X78650123Y-39411300D01*
X78654788Y-39411300D01*
X78654863Y-39411285D01*
X78654969Y-39411298D01*
X78654973Y-39411300D01*
X78654977Y-39411300D01*
X78760429Y-39411300D01*
X78760429Y-39411299D01*
X78862287Y-39384007D01*
X78953613Y-39331280D01*
X79028180Y-39256713D01*
X79080907Y-39165387D01*
X79108199Y-39063529D01*
X79108200Y-39063529D01*
X79108200Y-38958071D01*
X79108199Y-38958070D01*
X79097160Y-38916873D01*
X79080907Y-38856213D01*
X79028180Y-38764887D01*
X78953613Y-38690320D01*
X78936604Y-38680500D01*
X78862291Y-38637595D01*
X78862287Y-38637593D01*
X78820207Y-38626318D01*
X78775275Y-38591840D01*
X78767882Y-38535688D01*
X78787033Y-38502516D01*
X81275003Y-36014546D01*
X81327328Y-35992873D01*
X81374924Y-36012587D01*
X81375738Y-36011527D01*
X81379584Y-36014478D01*
X81379586Y-36014479D01*
X81379587Y-36014480D01*
X81470913Y-36067207D01*
X81572770Y-36094499D01*
X81572771Y-36094500D01*
X81572773Y-36094500D01*
X81678226Y-36094500D01*
X81678227Y-36094500D01*
X81687608Y-36091986D01*
X81743759Y-36099376D01*
X81759088Y-36111138D01*
X86156224Y-40508274D01*
X86212626Y-40564676D01*
X86286318Y-40595200D01*
X87408177Y-40595200D01*
X87460503Y-40616874D01*
X87472262Y-40632198D01*
X87477120Y-40640613D01*
X87551687Y-40715180D01*
X87643013Y-40767907D01*
X87744870Y-40795199D01*
X87744871Y-40795200D01*
X87744873Y-40795200D01*
X87850329Y-40795200D01*
X87850329Y-40795199D01*
X87952187Y-40767907D01*
X88043513Y-40715180D01*
X88118080Y-40640613D01*
X88170807Y-40549287D01*
X88181448Y-40509573D01*
X88215923Y-40464642D01*
X88272076Y-40457248D01*
X88305251Y-40476401D01*
X90557826Y-42728976D01*
X90579500Y-42781302D01*
X90579500Y-44295444D01*
X90557826Y-44347770D01*
X90505500Y-44369444D01*
X90468500Y-44359530D01*
X90398291Y-44318995D01*
X90398282Y-44318991D01*
X90296429Y-44291700D01*
X90296427Y-44291700D01*
X90190973Y-44291700D01*
X90190971Y-44291700D01*
X90089117Y-44318991D01*
X90089108Y-44318995D01*
X89997786Y-44371720D01*
X89923220Y-44446286D01*
X89870495Y-44537608D01*
X89870491Y-44537617D01*
X89843200Y-44639470D01*
X89843200Y-44744929D01*
X89870491Y-44846782D01*
X89870492Y-44846785D01*
X89870493Y-44846787D01*
X89923220Y-44938113D01*
X89997787Y-45012680D01*
X90006200Y-45017537D01*
X90040678Y-45062470D01*
X90043200Y-45081623D01*
X90043200Y-56382597D01*
X90021526Y-56434923D01*
X88653622Y-57802826D01*
X88601296Y-57824500D01*
X87821967Y-57824500D01*
X87731105Y-57838891D01*
X87731102Y-57838892D01*
X87621598Y-57894687D01*
X87534689Y-57981596D01*
X87478890Y-58091109D01*
X87464500Y-58181965D01*
X87464500Y-58818032D01*
X87478891Y-58908893D01*
X87519557Y-58988705D01*
X87524000Y-59045167D01*
X87487217Y-59088235D01*
X87453622Y-59096300D01*
X86486378Y-59096300D01*
X86434052Y-59074626D01*
X86412378Y-59022300D01*
X86420443Y-58988705D01*
X86435959Y-58958252D01*
X86461109Y-58908893D01*
X86475500Y-58818033D01*
X86475499Y-58181968D01*
X86461109Y-58091107D01*
X86461108Y-58091105D01*
X86461107Y-58091102D01*
X86405312Y-57981598D01*
X86318403Y-57894689D01*
X86308604Y-57889696D01*
X86208893Y-57838891D01*
X86208891Y-57838890D01*
X86208890Y-57838890D01*
X86118035Y-57824500D01*
X86118033Y-57824500D01*
X85974500Y-57824500D01*
X85922174Y-57802826D01*
X85900500Y-57750500D01*
X85900500Y-53302601D01*
X85922173Y-53250276D01*
X88079411Y-51093037D01*
X88131736Y-51071364D01*
X88150885Y-51073884D01*
X88160273Y-51076400D01*
X88160274Y-51076400D01*
X88265729Y-51076400D01*
X88265729Y-51076399D01*
X88367587Y-51049107D01*
X88458913Y-50996380D01*
X88533480Y-50921813D01*
X88586207Y-50830487D01*
X88613499Y-50728629D01*
X88613500Y-50728629D01*
X88613500Y-50623171D01*
X88613499Y-50623170D01*
X88586208Y-50521317D01*
X88586207Y-50521313D01*
X88533480Y-50429987D01*
X88458913Y-50355420D01*
X88444764Y-50347251D01*
X88367591Y-50302695D01*
X88367582Y-50302691D01*
X88265729Y-50275400D01*
X88265727Y-50275400D01*
X88160273Y-50275400D01*
X88160271Y-50275400D01*
X88058417Y-50302691D01*
X88058408Y-50302695D01*
X87967086Y-50355420D01*
X87892520Y-50429986D01*
X87839795Y-50521308D01*
X87839791Y-50521317D01*
X87812500Y-50623170D01*
X87812500Y-50728627D01*
X87815014Y-50738010D01*
X87807620Y-50794162D01*
X87795861Y-50809487D01*
X85586426Y-53018924D01*
X85530022Y-53075328D01*
X85499500Y-53149016D01*
X85499500Y-57750500D01*
X85477826Y-57802826D01*
X85425501Y-57824500D01*
X85281967Y-57824500D01*
X85191105Y-57838891D01*
X85191102Y-57838892D01*
X85081598Y-57894687D01*
X84994689Y-57981596D01*
X84938890Y-58091109D01*
X84924500Y-58181965D01*
X84924500Y-58818032D01*
X84938891Y-58908893D01*
X84979557Y-58988705D01*
X84984000Y-59045167D01*
X84947217Y-59088235D01*
X84913622Y-59096300D01*
X84070501Y-59096300D01*
X84018175Y-59074626D01*
X83935948Y-58992398D01*
X83914274Y-58940072D01*
X83920350Y-58914768D01*
X83919310Y-58914430D01*
X83921109Y-58908893D01*
X83921110Y-58908889D01*
X83935500Y-58818033D01*
X83935499Y-58181968D01*
X83921109Y-58091107D01*
X83921108Y-58091105D01*
X83921107Y-58091102D01*
X83865312Y-57981598D01*
X83778403Y-57894689D01*
X83768604Y-57889696D01*
X83668893Y-57838891D01*
X83668891Y-57838890D01*
X83668890Y-57838890D01*
X83578035Y-57824500D01*
X83578033Y-57824500D01*
X83434500Y-57824500D01*
X83382174Y-57802826D01*
X83360500Y-57750500D01*
X83360500Y-39537901D01*
X83382174Y-39485575D01*
X83424699Y-39443050D01*
X83481011Y-39386737D01*
X83533336Y-39365064D01*
X83552485Y-39367584D01*
X83561873Y-39370100D01*
X83561874Y-39370100D01*
X83667329Y-39370100D01*
X83667329Y-39370099D01*
X83769187Y-39342807D01*
X83860513Y-39290080D01*
X83935080Y-39215513D01*
X83987807Y-39124187D01*
X84015099Y-39022329D01*
X84015100Y-39022329D01*
X84015100Y-38916871D01*
X84015099Y-38916870D01*
X84013469Y-38910788D01*
X83987807Y-38815013D01*
X83935080Y-38723687D01*
X83860513Y-38649120D01*
X83840548Y-38637593D01*
X83769191Y-38596395D01*
X83769182Y-38596391D01*
X83667329Y-38569100D01*
X83667327Y-38569100D01*
X83561873Y-38569100D01*
X83561871Y-38569100D01*
X83460017Y-38596391D01*
X83460008Y-38596395D01*
X83368686Y-38649120D01*
X83294120Y-38723686D01*
X83241395Y-38815008D01*
X83241391Y-38815017D01*
X83214100Y-38916870D01*
X83214100Y-39022327D01*
X83216614Y-39031710D01*
X83209220Y-39087862D01*
X83197461Y-39103187D01*
X83036018Y-39264631D01*
X83036017Y-39264632D01*
X83036016Y-39264631D01*
X82990027Y-39310621D01*
X82990022Y-39310628D01*
X82959500Y-39384316D01*
X82959500Y-57750500D01*
X82937826Y-57802826D01*
X82885501Y-57824500D01*
X82741967Y-57824500D01*
X82651105Y-57838891D01*
X82651102Y-57838892D01*
X82541598Y-57894687D01*
X82454689Y-57981596D01*
X82398890Y-58091109D01*
X82384500Y-58181965D01*
X82384500Y-58818032D01*
X82398891Y-58908894D01*
X82398892Y-58908897D01*
X82454687Y-59018401D01*
X82454689Y-59018403D01*
X82541597Y-59105311D01*
X82651107Y-59161109D01*
X82741967Y-59175500D01*
X83521297Y-59175499D01*
X83573623Y-59197173D01*
X83782603Y-59406152D01*
X83782606Y-59406156D01*
X83786824Y-59410374D01*
X83843226Y-59466776D01*
X83916918Y-59497300D01*
X83916919Y-59497300D01*
X96480781Y-59497300D01*
X96480782Y-59497300D01*
X96554474Y-59466776D01*
X97383876Y-58637374D01*
X97414400Y-58563682D01*
X97414400Y-58483918D01*
X97414400Y-56132923D01*
X97436074Y-56080597D01*
X97451400Y-56068837D01*
X97459813Y-56063980D01*
X97534380Y-55989413D01*
X97587107Y-55898087D01*
X97614399Y-55796229D01*
X97614400Y-55796229D01*
X97614400Y-55690771D01*
X97614399Y-55690770D01*
X97587108Y-55588917D01*
X97587107Y-55588913D01*
X97534380Y-55497587D01*
X97459813Y-55423020D01*
X97446965Y-55415602D01*
X97368491Y-55370295D01*
X97368482Y-55370291D01*
X97266629Y-55343000D01*
X97266627Y-55343000D01*
X97161173Y-55343000D01*
X97161171Y-55343000D01*
X97059317Y-55370291D01*
X97059308Y-55370295D01*
X96967986Y-55423020D01*
X96893420Y-55497586D01*
X96840695Y-55588908D01*
X96840691Y-55588917D01*
X96813400Y-55690770D01*
X96813400Y-55796229D01*
X96840691Y-55898082D01*
X96840692Y-55898085D01*
X96840693Y-55898087D01*
X96893420Y-55989413D01*
X96967987Y-56063980D01*
X96976400Y-56068837D01*
X97010878Y-56113770D01*
X97013400Y-56132923D01*
X97013400Y-58410097D01*
X96991726Y-58462423D01*
X96761825Y-58692323D01*
X96709499Y-58713997D01*
X96657173Y-58692323D01*
X96635499Y-58639998D01*
X96635499Y-58181968D01*
X96621109Y-58091107D01*
X96621108Y-58091105D01*
X96621107Y-58091102D01*
X96565312Y-57981598D01*
X96478403Y-57894689D01*
X96468604Y-57889696D01*
X96368893Y-57838891D01*
X96368891Y-57838890D01*
X96368890Y-57838890D01*
X96278035Y-57824500D01*
X96278033Y-57824500D01*
X96134500Y-57824500D01*
X96082174Y-57802826D01*
X96060500Y-57750500D01*
X96060500Y-45273318D01*
X96060499Y-45273316D01*
X96029977Y-45199628D01*
X96029975Y-45199625D01*
X95969359Y-45139009D01*
X95969352Y-45139003D01*
X90538799Y-39708449D01*
X90491320Y-39660970D01*
X92051700Y-39660970D01*
X92051700Y-39766429D01*
X92078991Y-39868282D01*
X92078995Y-39868291D01*
X92112552Y-39926413D01*
X92131720Y-39959613D01*
X92206287Y-40034180D01*
X92297613Y-40086907D01*
X92399470Y-40114199D01*
X92399471Y-40114200D01*
X92399473Y-40114200D01*
X92504926Y-40114200D01*
X92504927Y-40114200D01*
X92514308Y-40111686D01*
X92570459Y-40119076D01*
X92585788Y-40130838D01*
X98177826Y-45722875D01*
X98199500Y-45775201D01*
X98199500Y-57750500D01*
X98177826Y-57802826D01*
X98125501Y-57824500D01*
X97981967Y-57824500D01*
X97891105Y-57838891D01*
X97891102Y-57838892D01*
X97781598Y-57894687D01*
X97694689Y-57981596D01*
X97638890Y-58091109D01*
X97624500Y-58181965D01*
X97624500Y-58818032D01*
X97638891Y-58908894D01*
X97638892Y-58908897D01*
X97694687Y-59018401D01*
X97694689Y-59018403D01*
X97781597Y-59105311D01*
X97891107Y-59161109D01*
X97981967Y-59175500D01*
X98471343Y-59175499D01*
X98523669Y-59197173D01*
X98538303Y-59217998D01*
X113594768Y-91222539D01*
X113597431Y-91279113D01*
X113580134Y-91306365D01*
X113460539Y-91425961D01*
X113460533Y-91425968D01*
X113361985Y-91573455D01*
X113294107Y-91737329D01*
X113294104Y-91737339D01*
X113259500Y-91911310D01*
X113259500Y-92088689D01*
X113294104Y-92262660D01*
X113294107Y-92262670D01*
X113361985Y-92426544D01*
X113361986Y-92426546D01*
X113361987Y-92426547D01*
X113460536Y-92574035D01*
X113585965Y-92699464D01*
X113733453Y-92798013D01*
X113897334Y-92865894D01*
X114071309Y-92900500D01*
X114071311Y-92900500D01*
X114248689Y-92900500D01*
X114248691Y-92900500D01*
X114422666Y-92865894D01*
X114586547Y-92798013D01*
X114734035Y-92699464D01*
X114859464Y-92574035D01*
X114958013Y-92426547D01*
X115025894Y-92262666D01*
X115060500Y-92088691D01*
X115060500Y-91911309D01*
X115025894Y-91737334D01*
X114958013Y-91573453D01*
X114859464Y-91425965D01*
X114734035Y-91300536D01*
X114701973Y-91279113D01*
X114586544Y-91201985D01*
X114422670Y-91134107D01*
X114422660Y-91134104D01*
X114306156Y-91110930D01*
X114248691Y-91099500D01*
X114071309Y-91099500D01*
X114004190Y-91112850D01*
X113948641Y-91101800D01*
X113922795Y-91071774D01*
X98940707Y-59225332D01*
X98938045Y-59168759D01*
X98974074Y-59127897D01*
X99018403Y-59105311D01*
X99105311Y-59018403D01*
X99161109Y-58908893D01*
X99175500Y-58818033D01*
X99175499Y-58181968D01*
X99161109Y-58091107D01*
X99161108Y-58091105D01*
X99161107Y-58091102D01*
X99105312Y-57981598D01*
X99018403Y-57894689D01*
X99008604Y-57889696D01*
X98908893Y-57838891D01*
X98908891Y-57838890D01*
X98908890Y-57838890D01*
X98818035Y-57824500D01*
X98818033Y-57824500D01*
X98674500Y-57824500D01*
X98622174Y-57802826D01*
X98600500Y-57750500D01*
X98600500Y-45621618D01*
X98600499Y-45621616D01*
X98569977Y-45547928D01*
X98569975Y-45547925D01*
X98509359Y-45487309D01*
X98509352Y-45487303D01*
X92869338Y-39847288D01*
X92847664Y-39794962D01*
X92850185Y-39775812D01*
X92852700Y-39766427D01*
X92852700Y-39660973D01*
X92852700Y-39660971D01*
X92852699Y-39660970D01*
X92847637Y-39642076D01*
X92843804Y-39627770D01*
X95911800Y-39627770D01*
X95911800Y-39733229D01*
X95939091Y-39835082D01*
X95939095Y-39835091D01*
X95972401Y-39892779D01*
X95991820Y-39926413D01*
X96066387Y-40000980D01*
X96157713Y-40053707D01*
X96259570Y-40080999D01*
X96259571Y-40081000D01*
X96259573Y-40081000D01*
X96365026Y-40081000D01*
X96365027Y-40081000D01*
X96374408Y-40078486D01*
X96430559Y-40085876D01*
X96445888Y-40097638D01*
X100717826Y-44369576D01*
X100739500Y-44421902D01*
X100739500Y-57750500D01*
X100717826Y-57802826D01*
X100665501Y-57824500D01*
X100521967Y-57824500D01*
X100431105Y-57838891D01*
X100431102Y-57838892D01*
X100321598Y-57894687D01*
X100234689Y-57981596D01*
X100178890Y-58091109D01*
X100164500Y-58181965D01*
X100164500Y-58818032D01*
X100178891Y-58908894D01*
X100178892Y-58908897D01*
X100234687Y-59018401D01*
X100234689Y-59018403D01*
X100321597Y-59105311D01*
X100431107Y-59161109D01*
X100521967Y-59175500D01*
X101011343Y-59175499D01*
X101063669Y-59197173D01*
X101078303Y-59217998D01*
X116134768Y-91222539D01*
X116137431Y-91279113D01*
X116120134Y-91306365D01*
X116000539Y-91425961D01*
X116000533Y-91425968D01*
X115901985Y-91573455D01*
X115834107Y-91737329D01*
X115834104Y-91737339D01*
X115799500Y-91911310D01*
X115799500Y-92088689D01*
X115834104Y-92262660D01*
X115834107Y-92262670D01*
X115901985Y-92426544D01*
X115901986Y-92426546D01*
X115901987Y-92426547D01*
X116000536Y-92574035D01*
X116125965Y-92699464D01*
X116273453Y-92798013D01*
X116437334Y-92865894D01*
X116611309Y-92900500D01*
X116611311Y-92900500D01*
X116788689Y-92900500D01*
X116788691Y-92900500D01*
X116962666Y-92865894D01*
X117126547Y-92798013D01*
X117274035Y-92699464D01*
X117399464Y-92574035D01*
X117498013Y-92426547D01*
X117565894Y-92262666D01*
X117600500Y-92088691D01*
X117600500Y-91911309D01*
X117565894Y-91737334D01*
X117498013Y-91573453D01*
X117399464Y-91425965D01*
X117274035Y-91300536D01*
X117241973Y-91279113D01*
X117126544Y-91201985D01*
X116962670Y-91134107D01*
X116962660Y-91134104D01*
X116846156Y-91110930D01*
X116788691Y-91099500D01*
X116611309Y-91099500D01*
X116544190Y-91112850D01*
X116488641Y-91101800D01*
X116462795Y-91071774D01*
X101480707Y-59225332D01*
X101478045Y-59168759D01*
X101514074Y-59127897D01*
X101558403Y-59105311D01*
X101645311Y-59018403D01*
X101701109Y-58908893D01*
X101715500Y-58818033D01*
X101715499Y-58181968D01*
X101701109Y-58091107D01*
X101701108Y-58091105D01*
X101701107Y-58091102D01*
X101645312Y-57981598D01*
X101558403Y-57894689D01*
X101548604Y-57889696D01*
X101448893Y-57838891D01*
X101448891Y-57838890D01*
X101448890Y-57838890D01*
X101358035Y-57824500D01*
X101358033Y-57824500D01*
X101214500Y-57824500D01*
X101162174Y-57802826D01*
X101140500Y-57750500D01*
X101140500Y-44268318D01*
X101140499Y-44268316D01*
X101109977Y-44194628D01*
X101109975Y-44194625D01*
X96729438Y-39814088D01*
X96707764Y-39761762D01*
X96710285Y-39742612D01*
X96712800Y-39733227D01*
X96712800Y-39627773D01*
X96712800Y-39627771D01*
X96712799Y-39627770D01*
X96704831Y-39598034D01*
X96685507Y-39525913D01*
X96632780Y-39434587D01*
X96558213Y-39360020D01*
X96504398Y-39328950D01*
X96466891Y-39307295D01*
X96466882Y-39307291D01*
X96365029Y-39280000D01*
X96365027Y-39280000D01*
X96259573Y-39280000D01*
X96259571Y-39280000D01*
X96157717Y-39307291D01*
X96157708Y-39307295D01*
X96066386Y-39360020D01*
X95991820Y-39434586D01*
X95939095Y-39525908D01*
X95939091Y-39525917D01*
X95911800Y-39627770D01*
X92843804Y-39627770D01*
X92827248Y-39565983D01*
X92825407Y-39559113D01*
X92772680Y-39467787D01*
X92698113Y-39393220D01*
X92653712Y-39367585D01*
X92606791Y-39340495D01*
X92606782Y-39340491D01*
X92504929Y-39313200D01*
X92504927Y-39313200D01*
X92399473Y-39313200D01*
X92399471Y-39313200D01*
X92297617Y-39340491D01*
X92297608Y-39340495D01*
X92206286Y-39393220D01*
X92131720Y-39467786D01*
X92078995Y-39559108D01*
X92078991Y-39559117D01*
X92051700Y-39660970D01*
X90491320Y-39660970D01*
X90110038Y-39279688D01*
X90088364Y-39227362D01*
X90090885Y-39208212D01*
X90093400Y-39198827D01*
X90093400Y-39093373D01*
X90093400Y-39093371D01*
X90093399Y-39093370D01*
X90091363Y-39085773D01*
X90066107Y-38991513D01*
X90013380Y-38900187D01*
X89938813Y-38825620D01*
X89920441Y-38815013D01*
X89847491Y-38772895D01*
X89847482Y-38772891D01*
X89745629Y-38745600D01*
X89745627Y-38745600D01*
X89640173Y-38745600D01*
X89640171Y-38745600D01*
X89538317Y-38772891D01*
X89538308Y-38772895D01*
X89446986Y-38825620D01*
X89372420Y-38900186D01*
X89319695Y-38991508D01*
X89319691Y-38991517D01*
X89292400Y-39093370D01*
X89292400Y-39198829D01*
X89319691Y-39300682D01*
X89319695Y-39300691D01*
X89367796Y-39384004D01*
X89372420Y-39392013D01*
X89446987Y-39466580D01*
X89538313Y-39519307D01*
X89640170Y-39546599D01*
X89640171Y-39546600D01*
X89640173Y-39546600D01*
X89745626Y-39546600D01*
X89745627Y-39546600D01*
X89755008Y-39544086D01*
X89811159Y-39551476D01*
X89826488Y-39563238D01*
X95637826Y-45374575D01*
X95659500Y-45426901D01*
X95659500Y-57750500D01*
X95637826Y-57802826D01*
X95585501Y-57824500D01*
X95441967Y-57824500D01*
X95351105Y-57838891D01*
X95351102Y-57838892D01*
X95241598Y-57894687D01*
X95154689Y-57981596D01*
X95098890Y-58091109D01*
X95084500Y-58181965D01*
X95084500Y-58818032D01*
X95098891Y-58908893D01*
X95139557Y-58988705D01*
X95144000Y-59045167D01*
X95107217Y-59088235D01*
X95073622Y-59096300D01*
X94106378Y-59096300D01*
X94054052Y-59074626D01*
X94032378Y-59022300D01*
X94040443Y-58988705D01*
X94055959Y-58958252D01*
X94081109Y-58908893D01*
X94095500Y-58818033D01*
X94095499Y-58181968D01*
X94081109Y-58091107D01*
X94081108Y-58091105D01*
X94081107Y-58091102D01*
X94025312Y-57981598D01*
X93938403Y-57894689D01*
X93928604Y-57889696D01*
X93828893Y-57838891D01*
X93828891Y-57838890D01*
X93828890Y-57838890D01*
X93738035Y-57824500D01*
X93738033Y-57824500D01*
X93594500Y-57824500D01*
X93542174Y-57802826D01*
X93520500Y-57750500D01*
X93520500Y-44243618D01*
X93520499Y-44243616D01*
X93489977Y-44169928D01*
X93489975Y-44169925D01*
X88592138Y-39272088D01*
X88570464Y-39219762D01*
X88572985Y-39200612D01*
X88575500Y-39191227D01*
X88575500Y-39085773D01*
X88575500Y-39085771D01*
X88575499Y-39085770D01*
X88574609Y-39082450D01*
X88548207Y-38983913D01*
X88495480Y-38892587D01*
X88420913Y-38818020D01*
X88368224Y-38787600D01*
X88329591Y-38765295D01*
X88329582Y-38765291D01*
X88227729Y-38738000D01*
X88227727Y-38738000D01*
X88122273Y-38738000D01*
X88122271Y-38738000D01*
X88020417Y-38765291D01*
X88020408Y-38765295D01*
X87929086Y-38818020D01*
X87854520Y-38892586D01*
X87801795Y-38983908D01*
X87801791Y-38983917D01*
X87787429Y-39037517D01*
X87752950Y-39082450D01*
X87696798Y-39089842D01*
X87651865Y-39055363D01*
X87644474Y-39037522D01*
X87632307Y-38992113D01*
X87579580Y-38900787D01*
X87505013Y-38826220D01*
X87430665Y-38783295D01*
X87413691Y-38773495D01*
X87413682Y-38773491D01*
X87311829Y-38746200D01*
X87311827Y-38746200D01*
X87206373Y-38746200D01*
X87206371Y-38746200D01*
X87104517Y-38773491D01*
X87104508Y-38773495D01*
X87013186Y-38826220D01*
X86938620Y-38900786D01*
X86885895Y-38992108D01*
X86885891Y-38992117D01*
X86858600Y-39093970D01*
X86858600Y-39199429D01*
X86885891Y-39301282D01*
X86885895Y-39301291D01*
X86925622Y-39370100D01*
X86938620Y-39392613D01*
X87013187Y-39467180D01*
X87104513Y-39519907D01*
X87206370Y-39547199D01*
X87206371Y-39547200D01*
X87206373Y-39547200D01*
X87311826Y-39547200D01*
X87311827Y-39547200D01*
X87321208Y-39544686D01*
X87377359Y-39552076D01*
X87392688Y-39563838D01*
X87715898Y-39887048D01*
X87737572Y-39939374D01*
X87715898Y-39991700D01*
X87682725Y-40010852D01*
X87643017Y-40021491D01*
X87643008Y-40021495D01*
X87551686Y-40074220D01*
X87477120Y-40148786D01*
X87472263Y-40157200D01*
X87427330Y-40191678D01*
X87408177Y-40194200D01*
X86439902Y-40194200D01*
X86387576Y-40172526D01*
X82042638Y-35827588D01*
X82020964Y-35775262D01*
X82023485Y-35756112D01*
X82026000Y-35746727D01*
X82026000Y-35641273D01*
X82026000Y-35641271D01*
X82025999Y-35641270D01*
X81998708Y-35539417D01*
X81998707Y-35539413D01*
X81945980Y-35448087D01*
X81871413Y-35373520D01*
X81790317Y-35326699D01*
X81780091Y-35320795D01*
X81780082Y-35320791D01*
X81740453Y-35310173D01*
X81695520Y-35275695D01*
X81688128Y-35219542D01*
X81707278Y-35186371D01*
X93605276Y-23288374D01*
X93657602Y-23266700D01*
X101612855Y-23266700D01*
X101665181Y-23288374D01*
X101686855Y-23340700D01*
X101668124Y-23385919D01*
X101669973Y-23387338D01*
X101667021Y-23391184D01*
X101614295Y-23482508D01*
X101614291Y-23482517D01*
X101587000Y-23584370D01*
X101587000Y-23689829D01*
X101614291Y-23791682D01*
X101614295Y-23791691D01*
X101659784Y-23870480D01*
X101667020Y-23883013D01*
X101741587Y-23957580D01*
X101832913Y-24010307D01*
X101934770Y-24037599D01*
X101934771Y-24037600D01*
X101934773Y-24037600D01*
X102040229Y-24037600D01*
X102040229Y-24037599D01*
X102142087Y-24010307D01*
X102233413Y-23957580D01*
X102307980Y-23883013D01*
X102312837Y-23874599D01*
X102320770Y-23868512D01*
X102324597Y-23859274D01*
X102342445Y-23851881D01*
X102357770Y-23840122D01*
X102376923Y-23837600D01*
X102403398Y-23837600D01*
X102455724Y-23859274D01*
X107224051Y-28627601D01*
X107245725Y-28679927D01*
X107239653Y-28705231D01*
X107240690Y-28705568D01*
X107238891Y-28711103D01*
X107224500Y-28801965D01*
X107224500Y-29438032D01*
X107238891Y-29528894D01*
X107238892Y-29528897D01*
X107294687Y-29638401D01*
X107294689Y-29638403D01*
X107381597Y-29725311D01*
X107491107Y-29781109D01*
X107581967Y-29795500D01*
X108233398Y-29795499D01*
X108285724Y-29817173D01*
X108307398Y-29869499D01*
X108285724Y-29921825D01*
X108039724Y-30167826D01*
X107987398Y-30189500D01*
X107802818Y-30189500D01*
X107729128Y-30220022D01*
X106952222Y-30996928D01*
X106921700Y-31070616D01*
X106921700Y-33362083D01*
X106952222Y-33435771D01*
X106952225Y-33435775D01*
X107224051Y-33707601D01*
X107245725Y-33759927D01*
X107239653Y-33785231D01*
X107240690Y-33785568D01*
X107238891Y-33791103D01*
X107224500Y-33881965D01*
X107224500Y-34518032D01*
X107238891Y-34608894D01*
X107238892Y-34608897D01*
X107294687Y-34718401D01*
X107294689Y-34718403D01*
X107381597Y-34805311D01*
X107491107Y-34861109D01*
X107581967Y-34875500D01*
X108418032Y-34875499D01*
X108508893Y-34861109D01*
X108580004Y-34824875D01*
X108636467Y-34820432D01*
X108679534Y-34857214D01*
X108687600Y-34890810D01*
X108687600Y-36049189D01*
X108665926Y-36101515D01*
X108613600Y-36123189D01*
X108580006Y-36115124D01*
X108508891Y-36078890D01*
X108508892Y-36078890D01*
X108418035Y-36064500D01*
X108418033Y-36064500D01*
X107638702Y-36064500D01*
X107586376Y-36042826D01*
X106586774Y-35043224D01*
X106565100Y-34990898D01*
X106565100Y-29082457D01*
X106586774Y-29030131D01*
X106602100Y-29018371D01*
X106609013Y-29014380D01*
X106683580Y-28939813D01*
X106736307Y-28848487D01*
X106763599Y-28746629D01*
X106763600Y-28746629D01*
X106763600Y-28641171D01*
X106763599Y-28641170D01*
X106760289Y-28628818D01*
X106736307Y-28539313D01*
X106683580Y-28447987D01*
X106609013Y-28373420D01*
X106575373Y-28353998D01*
X106517691Y-28320695D01*
X106517682Y-28320691D01*
X106415829Y-28293400D01*
X106415827Y-28293400D01*
X106310373Y-28293400D01*
X106310371Y-28293400D01*
X106208517Y-28320691D01*
X106208508Y-28320695D01*
X106117186Y-28373420D01*
X106042620Y-28447986D01*
X105989895Y-28539308D01*
X105989891Y-28539317D01*
X105962600Y-28641170D01*
X105962600Y-28746629D01*
X105989891Y-28848482D01*
X105989895Y-28848491D01*
X106010477Y-28884140D01*
X106042620Y-28939813D01*
X106117187Y-29014380D01*
X106124100Y-29018371D01*
X106127100Y-29020103D01*
X106161578Y-29065036D01*
X106164100Y-29084189D01*
X106164100Y-30896098D01*
X106142426Y-30948424D01*
X106090100Y-30970098D01*
X106037774Y-30948424D01*
X104504175Y-29414825D01*
X104504171Y-29414822D01*
X104430482Y-29384300D01*
X104044623Y-29384300D01*
X103992297Y-29362626D01*
X103980537Y-29347300D01*
X103975679Y-29338886D01*
X103901113Y-29264320D01*
X103809791Y-29211595D01*
X103809782Y-29211591D01*
X103707929Y-29184300D01*
X103707927Y-29184300D01*
X103602473Y-29184300D01*
X103602471Y-29184300D01*
X103500617Y-29211591D01*
X103500608Y-29211595D01*
X103409286Y-29264320D01*
X103334720Y-29338886D01*
X103281995Y-29430208D01*
X103281991Y-29430217D01*
X103254700Y-29532070D01*
X103254700Y-29637529D01*
X103281991Y-29739382D01*
X103281995Y-29739391D01*
X103310531Y-29788816D01*
X103334720Y-29830713D01*
X103409287Y-29905280D01*
X103500613Y-29958007D01*
X103602470Y-29985299D01*
X103602471Y-29985300D01*
X103702100Y-29985300D01*
X103754426Y-30006974D01*
X103776100Y-30059300D01*
X103776100Y-30139229D01*
X103803391Y-30241082D01*
X103803392Y-30241085D01*
X103803393Y-30241087D01*
X103856120Y-30332413D01*
X103930687Y-30406980D01*
X104022013Y-30459707D01*
X104123870Y-30486999D01*
X104123871Y-30487000D01*
X104123873Y-30487000D01*
X104229326Y-30487000D01*
X104229327Y-30487000D01*
X104238708Y-30484486D01*
X104294859Y-30491876D01*
X104310188Y-30503638D01*
X105483926Y-31677376D01*
X105505600Y-31729702D01*
X105505600Y-39565983D01*
X105536122Y-39639671D01*
X105536125Y-39639675D01*
X107224051Y-41327601D01*
X107245725Y-41379927D01*
X107239653Y-41405231D01*
X107240690Y-41405568D01*
X107238891Y-41411103D01*
X107224500Y-41501965D01*
X107224500Y-42138032D01*
X107238891Y-42228894D01*
X107238892Y-42228897D01*
X107294687Y-42338401D01*
X107294689Y-42338403D01*
X107381597Y-42425311D01*
X107491107Y-42481109D01*
X107581967Y-42495500D01*
X108418032Y-42495499D01*
X108508893Y-42481109D01*
X108580004Y-42444875D01*
X108636467Y-42440432D01*
X108679534Y-42477214D01*
X108687600Y-42510810D01*
X108687600Y-43358197D01*
X108665926Y-43410523D01*
X108413623Y-43662826D01*
X108361297Y-43684500D01*
X107581967Y-43684500D01*
X107491105Y-43698891D01*
X107491102Y-43698892D01*
X107381598Y-43754687D01*
X107294689Y-43841596D01*
X107238890Y-43951109D01*
X107224500Y-44041965D01*
X107224500Y-44511298D01*
X107202826Y-44563624D01*
X107150500Y-44585298D01*
X107098174Y-44563624D01*
X105065274Y-42530724D01*
X105043600Y-42478398D01*
X105043600Y-35369423D01*
X105065274Y-35317097D01*
X105080600Y-35305337D01*
X105089013Y-35300480D01*
X105163580Y-35225913D01*
X105216307Y-35134587D01*
X105243599Y-35032729D01*
X105243600Y-35032729D01*
X105243600Y-34927271D01*
X105243599Y-34927270D01*
X105229727Y-34875500D01*
X105216307Y-34825413D01*
X105163580Y-34734087D01*
X105089013Y-34659520D01*
X104997691Y-34606795D01*
X104997682Y-34606791D01*
X104895829Y-34579500D01*
X104895827Y-34579500D01*
X104790373Y-34579500D01*
X104790371Y-34579500D01*
X104688517Y-34606791D01*
X104688505Y-34606796D01*
X104638399Y-34635725D01*
X104582247Y-34643117D01*
X104537314Y-34608638D01*
X104527400Y-34571639D01*
X104527400Y-32829422D01*
X104549074Y-32777096D01*
X104564400Y-32765336D01*
X104565022Y-32764977D01*
X104572813Y-32760479D01*
X104647380Y-32685912D01*
X104700107Y-32594586D01*
X104727399Y-32492728D01*
X104727400Y-32492728D01*
X104727400Y-32387270D01*
X104727399Y-32387269D01*
X104714996Y-32340981D01*
X104700107Y-32285412D01*
X104647380Y-32194086D01*
X104572813Y-32119519D01*
X104481491Y-32066794D01*
X104481482Y-32066790D01*
X104379629Y-32039499D01*
X104379627Y-32039499D01*
X104274173Y-32039499D01*
X104274171Y-32039499D01*
X104172317Y-32066790D01*
X104172308Y-32066794D01*
X104080986Y-32119519D01*
X104006420Y-32194085D01*
X103953695Y-32285407D01*
X103953691Y-32285416D01*
X103926400Y-32387269D01*
X103926400Y-32492728D01*
X103953691Y-32594581D01*
X103953695Y-32594590D01*
X103968265Y-32619826D01*
X104006420Y-32685912D01*
X104080987Y-32760479D01*
X104088778Y-32764977D01*
X104089400Y-32765336D01*
X104123878Y-32810269D01*
X104126400Y-32829422D01*
X104126400Y-43266783D01*
X104156922Y-43340471D01*
X104156925Y-43340475D01*
X107224051Y-46407601D01*
X107245725Y-46459927D01*
X107239653Y-46485231D01*
X107240690Y-46485568D01*
X107238891Y-46491103D01*
X107224500Y-46581965D01*
X107224500Y-47218032D01*
X107238891Y-47308894D01*
X107238892Y-47308897D01*
X107294687Y-47418401D01*
X107294689Y-47418403D01*
X107381597Y-47505311D01*
X107491107Y-47561109D01*
X107581967Y-47575500D01*
X108259798Y-47575499D01*
X108312124Y-47597173D01*
X108333798Y-47649499D01*
X108312124Y-47701825D01*
X107573924Y-48440026D01*
X107521598Y-48461700D01*
X107376518Y-48461700D01*
X107302828Y-48492222D01*
X106952222Y-48842828D01*
X106921700Y-48916516D01*
X106921700Y-51142083D01*
X106952222Y-51215771D01*
X106952225Y-51215775D01*
X107224051Y-51487601D01*
X107245725Y-51539927D01*
X107239653Y-51565231D01*
X107240690Y-51565568D01*
X107238891Y-51571103D01*
X107224500Y-51661965D01*
X107224500Y-52162598D01*
X107202826Y-52214924D01*
X107150500Y-52236598D01*
X107098174Y-52214924D01*
X106608474Y-51725224D01*
X106586800Y-51672898D01*
X106586800Y-46485918D01*
X106586799Y-46485916D01*
X106586338Y-46484804D01*
X106562621Y-46427545D01*
X106556277Y-46412228D01*
X106556275Y-46412225D01*
X96610474Y-36466424D01*
X96588800Y-36414098D01*
X96588800Y-34099423D01*
X96610474Y-34047097D01*
X96625800Y-34035337D01*
X96634213Y-34030480D01*
X96708780Y-33955913D01*
X96761507Y-33864587D01*
X96788799Y-33762729D01*
X96788800Y-33762729D01*
X96788800Y-33657271D01*
X96788799Y-33657270D01*
X96781107Y-33628564D01*
X96761507Y-33555413D01*
X96708780Y-33464087D01*
X96634213Y-33389520D01*
X96586689Y-33362082D01*
X96542891Y-33336795D01*
X96542882Y-33336791D01*
X96441029Y-33309500D01*
X96441027Y-33309500D01*
X96335573Y-33309500D01*
X96335571Y-33309500D01*
X96233717Y-33336791D01*
X96233708Y-33336795D01*
X96142386Y-33389520D01*
X96067820Y-33464086D01*
X96015095Y-33555408D01*
X96015091Y-33555417D01*
X95987800Y-33657270D01*
X95987800Y-33762729D01*
X96015091Y-33864582D01*
X96015095Y-33864591D01*
X96029713Y-33889910D01*
X96067820Y-33955913D01*
X96142387Y-34030480D01*
X96150800Y-34035337D01*
X96185278Y-34080270D01*
X96187800Y-34099423D01*
X96187800Y-36567683D01*
X96218322Y-36641371D01*
X96218325Y-36641375D01*
X106164126Y-46587176D01*
X106185800Y-46639502D01*
X106185800Y-47018798D01*
X106164126Y-47071124D01*
X106111800Y-47092798D01*
X106059474Y-47071124D01*
X96734938Y-37746588D01*
X96713264Y-37694262D01*
X96715785Y-37675112D01*
X96718300Y-37665727D01*
X96718300Y-37560273D01*
X96718300Y-37560271D01*
X96718299Y-37560270D01*
X96700850Y-37495150D01*
X96691007Y-37458413D01*
X96638280Y-37367087D01*
X96563713Y-37292520D01*
X96504617Y-37258401D01*
X96472391Y-37239795D01*
X96472382Y-37239791D01*
X96370529Y-37212500D01*
X96370527Y-37212500D01*
X96265073Y-37212500D01*
X96265071Y-37212500D01*
X96163217Y-37239791D01*
X96163208Y-37239795D01*
X96071886Y-37292520D01*
X95997320Y-37367086D01*
X95992463Y-37375500D01*
X95947530Y-37409978D01*
X95928377Y-37412500D01*
X91882202Y-37412500D01*
X91829876Y-37390826D01*
X90768338Y-36329288D01*
X90746664Y-36276962D01*
X90749185Y-36257812D01*
X90751700Y-36248427D01*
X90751700Y-36142973D01*
X90751700Y-36142971D01*
X90751699Y-36142970D01*
X90738711Y-36094499D01*
X90724407Y-36041113D01*
X90671680Y-35949787D01*
X90597113Y-35875220D01*
X90514612Y-35827588D01*
X90505791Y-35822495D01*
X90505782Y-35822491D01*
X90403929Y-35795200D01*
X90403927Y-35795200D01*
X90298473Y-35795200D01*
X90298471Y-35795200D01*
X90196617Y-35822491D01*
X90196608Y-35822495D01*
X90105286Y-35875220D01*
X90030720Y-35949786D01*
X89977995Y-36041108D01*
X89977991Y-36041117D01*
X89950700Y-36142970D01*
X89950700Y-36248429D01*
X89977991Y-36350282D01*
X89977992Y-36350285D01*
X89977993Y-36350287D01*
X90030720Y-36441613D01*
X90105287Y-36516180D01*
X90196613Y-36568907D01*
X90298470Y-36596199D01*
X90298471Y-36596200D01*
X90298473Y-36596200D01*
X90403926Y-36596200D01*
X90403927Y-36596200D01*
X90413308Y-36593686D01*
X90469459Y-36601076D01*
X90484788Y-36612838D01*
X91654926Y-37782976D01*
X91728618Y-37813500D01*
X91808382Y-37813500D01*
X95928377Y-37813500D01*
X95980703Y-37835174D01*
X95992462Y-37850498D01*
X95997320Y-37858913D01*
X96071887Y-37933480D01*
X96163213Y-37986207D01*
X96265070Y-38013499D01*
X96265071Y-38013500D01*
X96265073Y-38013500D01*
X96370526Y-38013500D01*
X96370527Y-38013500D01*
X96379908Y-38010986D01*
X96436059Y-38018376D01*
X96451388Y-38030138D01*
X105712426Y-47291176D01*
X105734100Y-47343502D01*
X105734100Y-52494483D01*
X105764622Y-52568171D01*
X105764625Y-52568175D01*
X107224051Y-54027601D01*
X107245725Y-54079927D01*
X107239653Y-54105231D01*
X107240690Y-54105568D01*
X107238891Y-54111103D01*
X107224500Y-54201965D01*
X107224500Y-54838032D01*
X107238891Y-54928894D01*
X107238892Y-54928897D01*
X107294687Y-55038401D01*
X107294689Y-55038403D01*
X107381597Y-55125311D01*
X107491107Y-55181109D01*
X107581967Y-55195500D01*
X108418032Y-55195499D01*
X108508893Y-55181109D01*
X108618403Y-55125311D01*
X108705311Y-55038403D01*
X108761109Y-54928893D01*
X108775500Y-54838033D01*
X108775499Y-54201968D01*
X108761109Y-54111107D01*
X108761107Y-54111103D01*
X108761107Y-54111102D01*
X108705312Y-54001598D01*
X108618403Y-53914689D01*
X108618399Y-53914687D01*
X108508893Y-53858891D01*
X108508891Y-53858890D01*
X108508890Y-53858890D01*
X108418035Y-53844500D01*
X108418033Y-53844500D01*
X107638702Y-53844500D01*
X107586376Y-53822826D01*
X106156774Y-52393224D01*
X106135100Y-52340898D01*
X106135100Y-51997602D01*
X106156774Y-51945276D01*
X106209100Y-51923602D01*
X106261426Y-51945276D01*
X107214424Y-52898274D01*
X107270826Y-52954676D01*
X107344518Y-52985200D01*
X107344519Y-52985200D01*
X108628281Y-52985200D01*
X108628282Y-52985200D01*
X108701974Y-52954676D01*
X109057876Y-52598774D01*
X109088400Y-52525082D01*
X109088400Y-52445318D01*
X109088400Y-50288018D01*
X109057876Y-50214326D01*
X109001474Y-50157924D01*
X108930958Y-50087408D01*
X108909284Y-50035082D01*
X108930958Y-49982756D01*
X108955311Y-49958403D01*
X109011109Y-49848893D01*
X109025500Y-49758033D01*
X109025499Y-49121968D01*
X109011109Y-49031107D01*
X109011107Y-49031103D01*
X109011107Y-49031102D01*
X108955312Y-48921598D01*
X108868403Y-48834689D01*
X108758893Y-48778891D01*
X108758891Y-48778890D01*
X108758890Y-48778890D01*
X108668035Y-48764500D01*
X107995200Y-48764500D01*
X107942874Y-48742826D01*
X107921200Y-48690500D01*
X107942873Y-48638175D01*
X108980965Y-47600082D01*
X108980968Y-47600081D01*
X108991373Y-47589676D01*
X108991374Y-47589676D01*
X109047776Y-47533274D01*
X109078300Y-47459582D01*
X109078300Y-46344718D01*
X109063038Y-46307872D01*
X109047777Y-46271028D01*
X109047775Y-46271025D01*
X108205975Y-45429225D01*
X108205971Y-45429222D01*
X108132282Y-45398700D01*
X107963902Y-45398700D01*
X107911576Y-45377026D01*
X107696375Y-45161825D01*
X107674701Y-45109499D01*
X107696375Y-45057173D01*
X107748699Y-45035499D01*
X108418032Y-45035499D01*
X108418033Y-45035499D01*
X108432423Y-45033219D01*
X108508893Y-45021109D01*
X108515904Y-45017537D01*
X108618401Y-44965312D01*
X108618400Y-44965312D01*
X108618403Y-44965311D01*
X108705311Y-44878403D01*
X108761109Y-44768893D01*
X108775500Y-44678033D01*
X108775499Y-44041968D01*
X108761109Y-43951107D01*
X108761107Y-43951103D01*
X108759309Y-43945566D01*
X108761653Y-43944804D01*
X108757895Y-43897060D01*
X108775946Y-43867602D01*
X109058076Y-43585474D01*
X109088600Y-43511782D01*
X109088600Y-43432018D01*
X109088600Y-33383817D01*
X109062118Y-33319883D01*
X109058077Y-33310127D01*
X109058075Y-33310124D01*
X108543138Y-32795187D01*
X108521464Y-32742861D01*
X108523987Y-32723704D01*
X108526500Y-32714327D01*
X108526500Y-32608871D01*
X108526499Y-32608870D01*
X108522670Y-32594581D01*
X108499207Y-32507013D01*
X108455513Y-32431334D01*
X108448121Y-32375183D01*
X108482600Y-32330249D01*
X108508028Y-32321245D01*
X108508893Y-32321109D01*
X108618403Y-32265311D01*
X108705311Y-32178403D01*
X108761109Y-32068893D01*
X108775500Y-31978033D01*
X108775499Y-31341968D01*
X108761109Y-31251107D01*
X108761108Y-31251105D01*
X108759309Y-31245566D01*
X108761653Y-31244804D01*
X108757895Y-31197060D01*
X108775946Y-31167602D01*
X109082476Y-30861074D01*
X109113000Y-30787382D01*
X109113000Y-30707618D01*
X109113000Y-30685023D01*
X109134674Y-30632697D01*
X109150000Y-30620937D01*
X109158413Y-30616080D01*
X109232980Y-30541513D01*
X109285707Y-30450187D01*
X109312999Y-30348329D01*
X109313000Y-30348329D01*
X109313000Y-30242871D01*
X109312999Y-30242870D01*
X109312522Y-30241091D01*
X109285707Y-30141013D01*
X109232980Y-30049687D01*
X109158413Y-29975120D01*
X109128774Y-29958008D01*
X109067091Y-29922395D01*
X109067089Y-29922394D01*
X109067088Y-29922393D01*
X109067087Y-29922393D01*
X109021457Y-29910166D01*
X108976526Y-29875689D01*
X108969133Y-29819536D01*
X108988287Y-29786363D01*
X109047773Y-29726877D01*
X109047776Y-29726874D01*
X109078300Y-29653182D01*
X109078300Y-29573418D01*
X109078300Y-28287318D01*
X109047776Y-28213626D01*
X108991374Y-28157224D01*
X108987159Y-28153009D01*
X108987152Y-28153003D01*
X108559338Y-27725188D01*
X108537664Y-27672862D01*
X108540185Y-27653712D01*
X108542700Y-27644327D01*
X108542700Y-27538873D01*
X108542700Y-27538871D01*
X108542699Y-27538870D01*
X108538693Y-27523921D01*
X108515407Y-27437013D01*
X108464829Y-27349410D01*
X108457437Y-27293258D01*
X108491916Y-27248325D01*
X108506055Y-27242031D01*
X108508888Y-27241109D01*
X108508893Y-27241109D01*
X108618403Y-27185311D01*
X108705311Y-27098403D01*
X108761109Y-26988893D01*
X108775500Y-26898033D01*
X108775499Y-26261968D01*
X108761109Y-26171107D01*
X108761108Y-26171105D01*
X108761107Y-26171102D01*
X108705312Y-26061598D01*
X108618403Y-25974689D01*
X108587258Y-25958820D01*
X108508893Y-25918891D01*
X108508892Y-25918890D01*
X108508891Y-25918890D01*
X108418035Y-25904500D01*
X108418033Y-25904500D01*
X108334200Y-25904500D01*
X108281874Y-25882826D01*
X108271785Y-25858470D01*
X109746100Y-25858470D01*
X109746100Y-25963929D01*
X109773391Y-26065782D01*
X109773395Y-26065791D01*
X109796364Y-26105574D01*
X109826120Y-26157113D01*
X109900687Y-26231680D01*
X109992013Y-26284407D01*
X110093870Y-26311699D01*
X110093871Y-26311700D01*
X110093873Y-26311700D01*
X110199326Y-26311700D01*
X110199327Y-26311700D01*
X110208708Y-26309186D01*
X110264859Y-26316576D01*
X110280188Y-26328338D01*
X116746626Y-32794775D01*
X116768300Y-32847101D01*
X116768300Y-69654477D01*
X116746626Y-69706803D01*
X116731301Y-69718562D01*
X116722890Y-69723418D01*
X116722888Y-69723419D01*
X116648320Y-69797986D01*
X116595595Y-69889308D01*
X116595591Y-69889317D01*
X116568300Y-69991170D01*
X116568300Y-70096629D01*
X116595591Y-70198482D01*
X116595592Y-70198485D01*
X116595593Y-70198487D01*
X116648320Y-70289813D01*
X116722887Y-70364380D01*
X116814213Y-70417107D01*
X116916070Y-70444399D01*
X116916071Y-70444400D01*
X116916073Y-70444400D01*
X117021529Y-70444400D01*
X117021529Y-70444399D01*
X117123387Y-70417107D01*
X117214713Y-70364380D01*
X117289280Y-70289813D01*
X117342007Y-70198487D01*
X117369299Y-70096629D01*
X117369300Y-70096629D01*
X117369300Y-69991171D01*
X117369299Y-69991170D01*
X117342008Y-69889317D01*
X117342007Y-69889313D01*
X117289280Y-69797987D01*
X117214713Y-69723420D01*
X117206299Y-69718562D01*
X117171821Y-69673628D01*
X117169300Y-69654477D01*
X117169300Y-68490102D01*
X135859500Y-68490102D01*
X135859500Y-71509897D01*
X135865331Y-71539215D01*
X135887540Y-71572454D01*
X135887542Y-71572456D01*
X135887543Y-71572457D01*
X135920787Y-71594669D01*
X135950101Y-71600500D01*
X138969898Y-71600499D01*
X138999213Y-71594669D01*
X138999214Y-71594668D01*
X138999215Y-71594668D01*
X139032454Y-71572459D01*
X139032453Y-71572459D01*
X139032457Y-71572457D01*
X139054669Y-71539213D01*
X139060500Y-71509899D01*
X139060499Y-68490102D01*
X140939500Y-68490102D01*
X140939500Y-71509897D01*
X140945331Y-71539215D01*
X140967540Y-71572454D01*
X140967542Y-71572456D01*
X140967543Y-71572457D01*
X141000787Y-71594669D01*
X141030101Y-71600500D01*
X144049898Y-71600499D01*
X144079213Y-71594669D01*
X144079214Y-71594668D01*
X144079215Y-71594668D01*
X144112454Y-71572459D01*
X144112453Y-71572459D01*
X144112457Y-71572457D01*
X144134669Y-71539213D01*
X144140500Y-71509899D01*
X144140499Y-68490102D01*
X144134669Y-68460787D01*
X144134668Y-68460786D01*
X144134668Y-68460784D01*
X144112459Y-68427545D01*
X144112456Y-68427542D01*
X144079213Y-68405331D01*
X144079211Y-68405330D01*
X144061559Y-68401819D01*
X144049899Y-68399500D01*
X144049897Y-68399500D01*
X141030102Y-68399500D01*
X141000784Y-68405331D01*
X140967545Y-68427540D01*
X140967542Y-68427543D01*
X140945331Y-68460786D01*
X140945330Y-68460788D01*
X140939500Y-68490102D01*
X139060499Y-68490102D01*
X139054669Y-68460787D01*
X139054668Y-68460786D01*
X139054668Y-68460784D01*
X139032459Y-68427545D01*
X139032456Y-68427542D01*
X138999213Y-68405331D01*
X138999211Y-68405330D01*
X138981559Y-68401819D01*
X138969899Y-68399500D01*
X138969897Y-68399500D01*
X135950102Y-68399500D01*
X135920784Y-68405331D01*
X135887545Y-68427540D01*
X135887542Y-68427543D01*
X135865331Y-68460786D01*
X135865330Y-68460788D01*
X135859500Y-68490102D01*
X117169300Y-68490102D01*
X117169300Y-50490102D01*
X135859500Y-50490102D01*
X135859500Y-53509897D01*
X135865331Y-53539215D01*
X135887540Y-53572454D01*
X135887542Y-53572456D01*
X135887543Y-53572457D01*
X135920787Y-53594669D01*
X135950101Y-53600500D01*
X138969898Y-53600499D01*
X138999213Y-53594669D01*
X138999214Y-53594668D01*
X138999215Y-53594668D01*
X139032454Y-53572459D01*
X139032453Y-53572459D01*
X139032457Y-53572457D01*
X139054669Y-53539213D01*
X139060500Y-53509899D01*
X139060499Y-50490102D01*
X140939500Y-50490102D01*
X140939500Y-53509897D01*
X140945331Y-53539215D01*
X140967540Y-53572454D01*
X140967542Y-53572456D01*
X140967543Y-53572457D01*
X141000787Y-53594669D01*
X141030101Y-53600500D01*
X144049898Y-53600499D01*
X144079213Y-53594669D01*
X144079214Y-53594668D01*
X144079215Y-53594668D01*
X144112454Y-53572459D01*
X144112453Y-53572459D01*
X144112457Y-53572457D01*
X144134669Y-53539213D01*
X144140500Y-53509899D01*
X144140499Y-50490102D01*
X144134669Y-50460787D01*
X144134668Y-50460786D01*
X144134668Y-50460784D01*
X144112459Y-50427545D01*
X144112456Y-50427542D01*
X144079213Y-50405331D01*
X144079211Y-50405330D01*
X144061559Y-50401819D01*
X144049899Y-50399500D01*
X144049897Y-50399500D01*
X141030102Y-50399500D01*
X141000784Y-50405331D01*
X140967545Y-50427540D01*
X140967542Y-50427543D01*
X140945331Y-50460786D01*
X140945330Y-50460788D01*
X140939500Y-50490102D01*
X139060499Y-50490102D01*
X139054669Y-50460787D01*
X139054668Y-50460786D01*
X139054668Y-50460784D01*
X139032459Y-50427545D01*
X139032456Y-50427542D01*
X138999213Y-50405331D01*
X138999211Y-50405330D01*
X138981559Y-50401819D01*
X138969899Y-50399500D01*
X138969897Y-50399500D01*
X135950102Y-50399500D01*
X135920784Y-50405331D01*
X135887545Y-50427540D01*
X135887542Y-50427543D01*
X135865331Y-50460786D01*
X135865330Y-50460788D01*
X135859500Y-50490102D01*
X117169300Y-50490102D01*
X117169300Y-35194999D01*
X149605170Y-35194999D01*
X149605171Y-35195000D01*
X150070758Y-35195000D01*
X150065444Y-35204204D01*
X150045000Y-35280504D01*
X150045000Y-35359496D01*
X150065444Y-35435796D01*
X150070758Y-35445000D01*
X149605170Y-35445000D01*
X149623820Y-35538760D01*
X149623822Y-35538767D01*
X149680357Y-35675254D01*
X149762436Y-35798096D01*
X149866903Y-35902563D01*
X149989745Y-35984642D01*
X150126232Y-36041177D01*
X150126239Y-36041179D01*
X150271132Y-36070000D01*
X150770000Y-36070000D01*
X150770000Y-35620000D01*
X151020000Y-35620000D01*
X151020000Y-36070000D01*
X151518868Y-36070000D01*
X151663760Y-36041179D01*
X151663767Y-36041177D01*
X151800254Y-35984642D01*
X151923096Y-35902563D01*
X151923098Y-35902562D01*
X152027562Y-35798098D01*
X152027563Y-35798096D01*
X152109642Y-35675254D01*
X152166177Y-35538767D01*
X152166179Y-35538760D01*
X152184829Y-35445000D01*
X151719242Y-35445000D01*
X151724556Y-35435796D01*
X151745000Y-35359496D01*
X151745000Y-35280504D01*
X151724556Y-35204204D01*
X151719242Y-35195000D01*
X152184829Y-35195000D01*
X152184829Y-35194999D01*
X154035170Y-35194999D01*
X154035171Y-35195000D01*
X154500758Y-35195000D01*
X154495444Y-35204204D01*
X154475000Y-35280504D01*
X154475000Y-35359496D01*
X154495444Y-35435796D01*
X154500758Y-35445000D01*
X154035170Y-35445000D01*
X154053820Y-35538760D01*
X154053822Y-35538767D01*
X154110357Y-35675254D01*
X154192436Y-35798096D01*
X154296903Y-35902563D01*
X154419745Y-35984642D01*
X154556232Y-36041177D01*
X154556239Y-36041179D01*
X154701132Y-36070000D01*
X154950000Y-36070000D01*
X154950000Y-35620000D01*
X155200000Y-35620000D01*
X155200000Y-36070000D01*
X155448868Y-36070000D01*
X155593760Y-36041179D01*
X155593767Y-36041177D01*
X155730254Y-35984642D01*
X155853096Y-35902563D01*
X155853098Y-35902562D01*
X155957562Y-35798098D01*
X155957563Y-35798096D01*
X156039642Y-35675254D01*
X156096177Y-35538767D01*
X156096179Y-35538760D01*
X156114829Y-35445000D01*
X155649242Y-35445000D01*
X155654556Y-35435796D01*
X155675000Y-35359496D01*
X155675000Y-35280504D01*
X155654556Y-35204204D01*
X155649242Y-35195000D01*
X156114829Y-35195000D01*
X156114829Y-35194999D01*
X156096179Y-35101239D01*
X156096177Y-35101232D01*
X156039642Y-34964745D01*
X155957563Y-34841903D01*
X155853096Y-34737436D01*
X155730254Y-34655357D01*
X155593767Y-34598822D01*
X155593760Y-34598820D01*
X155448868Y-34570000D01*
X155200000Y-34570000D01*
X155200000Y-35020000D01*
X154950000Y-35020000D01*
X154950000Y-34570000D01*
X154701132Y-34570000D01*
X154556239Y-34598820D01*
X154556232Y-34598822D01*
X154419745Y-34655357D01*
X154296903Y-34737436D01*
X154296902Y-34737438D01*
X154192438Y-34841902D01*
X154192436Y-34841903D01*
X154110357Y-34964745D01*
X154053822Y-35101232D01*
X154053820Y-35101239D01*
X154035170Y-35194999D01*
X152184829Y-35194999D01*
X152166179Y-35101239D01*
X152166177Y-35101232D01*
X152109642Y-34964745D01*
X152027563Y-34841903D01*
X151923096Y-34737436D01*
X151800254Y-34655357D01*
X151663767Y-34598822D01*
X151663761Y-34598820D01*
X151578695Y-34581900D01*
X151531603Y-34550434D01*
X151520554Y-34494885D01*
X151552020Y-34447793D01*
X151573973Y-34437845D01*
X151617135Y-34426281D01*
X151748365Y-34350515D01*
X151855515Y-34243365D01*
X151931281Y-34112135D01*
X151970499Y-33965768D01*
X151970500Y-33965768D01*
X151970500Y-33814232D01*
X151970499Y-33814231D01*
X151964302Y-33791105D01*
X151931281Y-33667865D01*
X151855515Y-33536635D01*
X151748365Y-33429485D01*
X151748362Y-33429483D01*
X151617139Y-33353721D01*
X151617130Y-33353717D01*
X151470768Y-33314500D01*
X151470766Y-33314500D01*
X151319234Y-33314500D01*
X151319232Y-33314500D01*
X151172869Y-33353717D01*
X151172860Y-33353721D01*
X151041637Y-33429483D01*
X150934483Y-33536637D01*
X150858721Y-33667860D01*
X150858717Y-33667869D01*
X150819500Y-33814231D01*
X150819500Y-33965768D01*
X150858717Y-34112130D01*
X150858721Y-34112139D01*
X150934483Y-34243362D01*
X150934485Y-34243365D01*
X151041635Y-34350515D01*
X151172865Y-34426281D01*
X151172874Y-34426283D01*
X151176126Y-34427631D01*
X151216177Y-34467678D01*
X151216180Y-34524315D01*
X151176133Y-34564366D01*
X151147811Y-34570000D01*
X151020000Y-34570000D01*
X151020000Y-35020000D01*
X150770000Y-35020000D01*
X150770000Y-34570000D01*
X150271132Y-34570000D01*
X150126239Y-34598820D01*
X150126232Y-34598822D01*
X149989745Y-34655357D01*
X149866903Y-34737436D01*
X149866902Y-34737438D01*
X149762438Y-34841902D01*
X149762436Y-34841903D01*
X149680357Y-34964745D01*
X149623822Y-35101232D01*
X149623820Y-35101239D01*
X149605170Y-35194999D01*
X117169300Y-35194999D01*
X117169300Y-32693518D01*
X117169299Y-32693516D01*
X117166149Y-32685912D01*
X117138776Y-32619826D01*
X117082374Y-32563424D01*
X111466220Y-26947270D01*
X136664900Y-26947270D01*
X136664900Y-27052729D01*
X136692191Y-27154582D01*
X136692192Y-27154585D01*
X136692193Y-27154587D01*
X136744920Y-27245913D01*
X136819487Y-27320480D01*
X136910813Y-27373207D01*
X137012670Y-27400499D01*
X137012671Y-27400500D01*
X137012673Y-27400500D01*
X137118126Y-27400500D01*
X137118127Y-27400500D01*
X137127508Y-27397986D01*
X137183659Y-27405376D01*
X137198988Y-27417138D01*
X139671926Y-29890076D01*
X139693600Y-29942402D01*
X139693600Y-31235577D01*
X139671926Y-31287903D01*
X139656601Y-31299662D01*
X139648190Y-31304518D01*
X139648188Y-31304519D01*
X139573620Y-31379086D01*
X139520895Y-31470408D01*
X139520891Y-31470417D01*
X139493600Y-31572270D01*
X139493600Y-31677729D01*
X139520891Y-31779582D01*
X139520892Y-31779585D01*
X139520893Y-31779587D01*
X139573620Y-31870913D01*
X139648187Y-31945480D01*
X139739513Y-31998207D01*
X139841370Y-32025499D01*
X139841371Y-32025500D01*
X139841373Y-32025500D01*
X139946829Y-32025500D01*
X139946829Y-32025499D01*
X140048687Y-31998207D01*
X140140013Y-31945480D01*
X140214580Y-31870913D01*
X140267307Y-31779587D01*
X140294599Y-31677729D01*
X140294600Y-31677729D01*
X140294600Y-31572271D01*
X140294599Y-31572270D01*
X140267308Y-31470417D01*
X140267307Y-31470413D01*
X140214580Y-31379087D01*
X140140013Y-31304520D01*
X140131599Y-31299662D01*
X140097121Y-31254728D01*
X140094600Y-31235577D01*
X140094600Y-29788818D01*
X140094599Y-29788816D01*
X140064077Y-29715128D01*
X140064075Y-29715125D01*
X137482538Y-27133588D01*
X137460864Y-27081262D01*
X137463385Y-27062112D01*
X137465900Y-27052727D01*
X137465900Y-26947273D01*
X137465900Y-26947271D01*
X137465899Y-26947270D01*
X137457140Y-26914582D01*
X137438607Y-26845413D01*
X137385880Y-26754087D01*
X137311313Y-26679520D01*
X137241089Y-26638976D01*
X137219991Y-26626795D01*
X137219982Y-26626791D01*
X137118129Y-26599500D01*
X137118127Y-26599500D01*
X137012673Y-26599500D01*
X137012671Y-26599500D01*
X136910817Y-26626791D01*
X136910808Y-26626795D01*
X136819486Y-26679520D01*
X136744920Y-26754086D01*
X136692195Y-26845408D01*
X136692191Y-26845417D01*
X136664900Y-26947270D01*
X111466220Y-26947270D01*
X111073949Y-26554999D01*
X149605170Y-26554999D01*
X149605171Y-26555000D01*
X150070758Y-26555000D01*
X150065444Y-26564204D01*
X150045000Y-26640504D01*
X150045000Y-26719496D01*
X150065444Y-26795796D01*
X150070758Y-26805000D01*
X149605170Y-26805000D01*
X149623820Y-26898760D01*
X149623822Y-26898767D01*
X149680357Y-27035254D01*
X149762436Y-27158096D01*
X149866903Y-27262563D01*
X149989745Y-27344642D01*
X150126232Y-27401177D01*
X150126239Y-27401179D01*
X150271132Y-27430000D01*
X150770000Y-27430000D01*
X150770000Y-26980000D01*
X151020000Y-26980000D01*
X151020000Y-27430000D01*
X151147811Y-27430000D01*
X151200137Y-27451674D01*
X151221811Y-27504000D01*
X151200137Y-27556326D01*
X151176126Y-27572369D01*
X151172867Y-27573718D01*
X151172865Y-27573719D01*
X151172862Y-27573720D01*
X151172861Y-27573721D01*
X151041637Y-27649483D01*
X150934483Y-27756637D01*
X150858721Y-27887860D01*
X150858717Y-27887869D01*
X150819500Y-28034231D01*
X150819500Y-28185768D01*
X150858717Y-28332130D01*
X150858721Y-28332139D01*
X150934483Y-28463362D01*
X150934485Y-28463365D01*
X151041635Y-28570515D01*
X151172865Y-28646281D01*
X151319231Y-28685499D01*
X151319232Y-28685500D01*
X151319234Y-28685500D01*
X151470768Y-28685500D01*
X151470768Y-28685499D01*
X151617135Y-28646281D01*
X151748365Y-28570515D01*
X151855515Y-28463365D01*
X151931281Y-28332135D01*
X151970499Y-28185768D01*
X151970500Y-28185768D01*
X151970500Y-28034232D01*
X151970499Y-28034231D01*
X151966880Y-28020726D01*
X151931281Y-27887865D01*
X151855515Y-27756635D01*
X151748365Y-27649485D01*
X151739435Y-27644329D01*
X151617139Y-27573721D01*
X151617130Y-27573717D01*
X151573979Y-27562155D01*
X151529046Y-27527677D01*
X151521654Y-27471524D01*
X151556132Y-27426591D01*
X151578696Y-27418099D01*
X151663760Y-27401179D01*
X151663767Y-27401177D01*
X151800254Y-27344642D01*
X151923096Y-27262563D01*
X151923098Y-27262562D01*
X152027562Y-27158098D01*
X152027563Y-27158096D01*
X152109642Y-27035254D01*
X152166177Y-26898767D01*
X152166179Y-26898760D01*
X152184829Y-26805000D01*
X151719242Y-26805000D01*
X151724556Y-26795796D01*
X151745000Y-26719496D01*
X151745000Y-26640504D01*
X151724556Y-26564204D01*
X151719242Y-26555000D01*
X152184829Y-26555000D01*
X152184829Y-26554999D01*
X154035170Y-26554999D01*
X154035171Y-26555000D01*
X154500758Y-26555000D01*
X154495444Y-26564204D01*
X154475000Y-26640504D01*
X154475000Y-26719496D01*
X154495444Y-26795796D01*
X154500758Y-26805000D01*
X154035170Y-26805000D01*
X154053820Y-26898760D01*
X154053822Y-26898767D01*
X154110357Y-27035254D01*
X154192436Y-27158096D01*
X154296903Y-27262563D01*
X154419745Y-27344642D01*
X154556232Y-27401177D01*
X154556239Y-27401179D01*
X154701132Y-27430000D01*
X154950000Y-27430000D01*
X154950000Y-26980000D01*
X155200000Y-26980000D01*
X155200000Y-27430000D01*
X155448868Y-27430000D01*
X155593760Y-27401179D01*
X155593767Y-27401177D01*
X155730254Y-27344642D01*
X155853096Y-27262563D01*
X155853098Y-27262562D01*
X155957562Y-27158098D01*
X155957563Y-27158096D01*
X156039642Y-27035254D01*
X156096177Y-26898767D01*
X156096179Y-26898760D01*
X156114829Y-26805000D01*
X155649242Y-26805000D01*
X155654556Y-26795796D01*
X155675000Y-26719496D01*
X155675000Y-26640504D01*
X155654556Y-26564204D01*
X155649242Y-26555000D01*
X156114829Y-26555000D01*
X156114829Y-26554999D01*
X156096179Y-26461239D01*
X156096177Y-26461232D01*
X156039642Y-26324745D01*
X155957563Y-26201903D01*
X155853096Y-26097436D01*
X155730254Y-26015357D01*
X155593767Y-25958822D01*
X155593760Y-25958820D01*
X155448868Y-25930000D01*
X155200000Y-25930000D01*
X155200000Y-26380000D01*
X154950000Y-26380000D01*
X154950000Y-25930000D01*
X154701132Y-25930000D01*
X154556239Y-25958820D01*
X154556232Y-25958822D01*
X154419745Y-26015357D01*
X154296903Y-26097436D01*
X154296902Y-26097438D01*
X154192438Y-26201902D01*
X154192436Y-26201903D01*
X154110357Y-26324745D01*
X154053822Y-26461232D01*
X154053820Y-26461239D01*
X154035170Y-26554999D01*
X152184829Y-26554999D01*
X152166179Y-26461239D01*
X152166177Y-26461232D01*
X152109642Y-26324745D01*
X152027563Y-26201903D01*
X151923096Y-26097436D01*
X151800254Y-26015357D01*
X151663767Y-25958822D01*
X151663760Y-25958820D01*
X151518868Y-25930000D01*
X151020000Y-25930000D01*
X151020000Y-26380000D01*
X150770000Y-26380000D01*
X150770000Y-25930000D01*
X150271132Y-25930000D01*
X150126239Y-25958820D01*
X150126232Y-25958822D01*
X149989745Y-26015357D01*
X149866903Y-26097436D01*
X149866902Y-26097438D01*
X149762438Y-26201902D01*
X149762436Y-26201903D01*
X149680357Y-26324745D01*
X149623822Y-26461232D01*
X149623820Y-26461239D01*
X149605170Y-26554999D01*
X111073949Y-26554999D01*
X110563738Y-26044788D01*
X110542064Y-25992462D01*
X110544585Y-25973312D01*
X110547100Y-25963927D01*
X110547100Y-25858473D01*
X110547100Y-25858471D01*
X110547099Y-25858470D01*
X110519808Y-25756617D01*
X110519807Y-25756613D01*
X110467080Y-25665287D01*
X110392513Y-25590720D01*
X110331285Y-25555370D01*
X110301191Y-25537995D01*
X110301182Y-25537991D01*
X110199329Y-25510700D01*
X110199327Y-25510700D01*
X110093873Y-25510700D01*
X110093871Y-25510700D01*
X109992017Y-25537991D01*
X109992008Y-25537995D01*
X109900686Y-25590720D01*
X109826120Y-25665286D01*
X109773395Y-25756608D01*
X109773391Y-25756617D01*
X109746100Y-25858470D01*
X108271785Y-25858470D01*
X108260200Y-25830500D01*
X108260200Y-25574523D01*
X108281874Y-25522197D01*
X108297200Y-25510437D01*
X108305613Y-25505580D01*
X108380180Y-25431013D01*
X108432907Y-25339687D01*
X108460199Y-25237829D01*
X108460200Y-25237829D01*
X108460200Y-25132371D01*
X108460199Y-25132370D01*
X108432908Y-25030517D01*
X108432907Y-25030513D01*
X108380180Y-24939187D01*
X108305613Y-24864620D01*
X108305612Y-24864619D01*
X108286500Y-24853585D01*
X108252021Y-24808652D01*
X108259413Y-24752500D01*
X108304346Y-24718021D01*
X108323498Y-24715499D01*
X108418032Y-24715499D01*
X108418033Y-24715499D01*
X108432423Y-24713219D01*
X108508893Y-24701109D01*
X108618403Y-24645311D01*
X108705311Y-24558403D01*
X108761109Y-24448893D01*
X108775500Y-24358033D01*
X108775499Y-23721968D01*
X108761109Y-23631107D01*
X108761108Y-23631105D01*
X108761107Y-23631102D01*
X108705312Y-23521598D01*
X108618403Y-23434689D01*
X108579955Y-23415099D01*
X108508893Y-23378891D01*
X108508891Y-23378890D01*
X108508890Y-23378890D01*
X108418034Y-23364500D01*
X107581967Y-23364500D01*
X107491105Y-23378891D01*
X107491102Y-23378892D01*
X107381598Y-23434687D01*
X107294689Y-23521596D01*
X107238890Y-23631109D01*
X107224500Y-23721965D01*
X107224500Y-23765500D01*
X107202826Y-23817826D01*
X107150500Y-23839500D01*
X105258302Y-23839500D01*
X105205976Y-23817826D01*
X104536338Y-23148188D01*
X104514664Y-23095862D01*
X104517185Y-23076712D01*
X104519700Y-23067327D01*
X104519700Y-22961873D01*
X104519700Y-22961871D01*
X104519699Y-22961870D01*
X104502109Y-22896224D01*
X104492407Y-22860013D01*
X104439680Y-22768687D01*
X104365113Y-22694120D01*
X104306033Y-22660010D01*
X104273791Y-22641395D01*
X104273782Y-22641391D01*
X104171929Y-22614100D01*
X104171927Y-22614100D01*
X104066473Y-22614100D01*
X104066471Y-22614100D01*
X103964617Y-22641391D01*
X103964608Y-22641395D01*
X103873286Y-22694120D01*
X103798720Y-22768686D01*
X103745995Y-22860008D01*
X103745991Y-22860017D01*
X103718700Y-22961870D01*
X103718700Y-23067329D01*
X103745991Y-23169182D01*
X103745995Y-23169191D01*
X103777163Y-23223175D01*
X103784556Y-23279327D01*
X103750077Y-23324261D01*
X103693925Y-23331654D01*
X103660751Y-23312501D01*
X103244475Y-22896225D01*
X103244471Y-22896222D01*
X103170782Y-22865700D01*
X93583782Y-22865700D01*
X93504018Y-22865700D01*
X93430328Y-22896222D01*
X80953822Y-35372728D01*
X80923300Y-35446416D01*
X80923300Y-35768497D01*
X80901626Y-35820823D01*
X74832826Y-41889623D01*
X74780500Y-41911297D01*
X74728174Y-41889623D01*
X74706500Y-41837297D01*
X74706500Y-29946118D01*
X74706499Y-29946116D01*
X74675977Y-29872428D01*
X74675975Y-29872425D01*
X73610820Y-28807270D01*
X82399500Y-28807270D01*
X82399500Y-28912729D01*
X82426791Y-29014582D01*
X82426795Y-29014591D01*
X82465978Y-29082457D01*
X82479520Y-29105913D01*
X82554087Y-29180480D01*
X82645413Y-29233207D01*
X82747270Y-29260499D01*
X82747271Y-29260500D01*
X82747273Y-29260500D01*
X82852729Y-29260500D01*
X82852729Y-29260499D01*
X82954587Y-29233207D01*
X83045913Y-29180480D01*
X83120480Y-29105913D01*
X83173207Y-29014587D01*
X83200499Y-28912729D01*
X83200500Y-28912729D01*
X83200500Y-28807271D01*
X83200499Y-28807270D01*
X83799500Y-28807270D01*
X83799500Y-28912729D01*
X83826791Y-29014582D01*
X83826795Y-29014591D01*
X83865978Y-29082457D01*
X83879520Y-29105913D01*
X83954087Y-29180480D01*
X84045413Y-29233207D01*
X84147270Y-29260499D01*
X84147271Y-29260500D01*
X84147273Y-29260500D01*
X84252729Y-29260500D01*
X84252729Y-29260499D01*
X84354587Y-29233207D01*
X84445913Y-29180480D01*
X84520480Y-29105913D01*
X84573207Y-29014587D01*
X84600499Y-28912729D01*
X84600500Y-28912729D01*
X84600500Y-28807271D01*
X84600499Y-28807270D01*
X84599078Y-28801968D01*
X84573207Y-28705413D01*
X84520480Y-28614087D01*
X84445913Y-28539520D01*
X84434973Y-28533204D01*
X84354591Y-28486795D01*
X84354582Y-28486791D01*
X84252729Y-28459500D01*
X84252727Y-28459500D01*
X84147273Y-28459500D01*
X84147271Y-28459500D01*
X84045417Y-28486791D01*
X84045408Y-28486795D01*
X83954086Y-28539520D01*
X83879520Y-28614086D01*
X83826795Y-28705408D01*
X83826791Y-28705417D01*
X83799500Y-28807270D01*
X83200499Y-28807270D01*
X83199078Y-28801968D01*
X83173207Y-28705413D01*
X83120480Y-28614087D01*
X83045913Y-28539520D01*
X83034973Y-28533204D01*
X82954591Y-28486795D01*
X82954582Y-28486791D01*
X82852729Y-28459500D01*
X82852727Y-28459500D01*
X82747273Y-28459500D01*
X82747271Y-28459500D01*
X82645417Y-28486791D01*
X82645408Y-28486795D01*
X82554086Y-28539520D01*
X82479520Y-28614086D01*
X82426795Y-28705408D01*
X82426791Y-28705417D01*
X82399500Y-28807270D01*
X73610820Y-28807270D01*
X72910820Y-28107270D01*
X81699500Y-28107270D01*
X81699500Y-28212729D01*
X81726791Y-28314582D01*
X81726795Y-28314591D01*
X81749547Y-28353998D01*
X81779520Y-28405913D01*
X81854087Y-28480480D01*
X81945413Y-28533207D01*
X82047270Y-28560499D01*
X82047271Y-28560500D01*
X82047273Y-28560500D01*
X82152729Y-28560500D01*
X82152729Y-28560499D01*
X82254587Y-28533207D01*
X82345913Y-28480480D01*
X82420480Y-28405913D01*
X82473207Y-28314587D01*
X82500499Y-28212729D01*
X82500500Y-28212729D01*
X82500500Y-28107271D01*
X82500499Y-28107270D01*
X83099500Y-28107270D01*
X83099500Y-28212729D01*
X83126791Y-28314582D01*
X83126795Y-28314591D01*
X83149547Y-28353998D01*
X83179520Y-28405913D01*
X83254087Y-28480480D01*
X83345413Y-28533207D01*
X83447270Y-28560499D01*
X83447271Y-28560500D01*
X83447273Y-28560500D01*
X83552729Y-28560500D01*
X83552729Y-28560499D01*
X83654587Y-28533207D01*
X83745913Y-28480480D01*
X83820480Y-28405913D01*
X83873207Y-28314587D01*
X83900499Y-28212729D01*
X83900500Y-28212729D01*
X83900500Y-28107271D01*
X83900499Y-28107270D01*
X84499500Y-28107270D01*
X84499500Y-28212729D01*
X84526791Y-28314582D01*
X84526795Y-28314591D01*
X84549547Y-28353998D01*
X84579520Y-28405913D01*
X84654087Y-28480480D01*
X84745413Y-28533207D01*
X84847270Y-28560499D01*
X84847271Y-28560500D01*
X84847273Y-28560500D01*
X84952729Y-28560500D01*
X84952729Y-28560499D01*
X85054587Y-28533207D01*
X85145913Y-28480480D01*
X85220480Y-28405913D01*
X85273207Y-28314587D01*
X85300499Y-28212729D01*
X85300500Y-28212729D01*
X85300500Y-28107271D01*
X85300499Y-28107270D01*
X85273208Y-28005417D01*
X85273207Y-28005413D01*
X85220480Y-27914087D01*
X85145913Y-27839520D01*
X85134973Y-27833204D01*
X85054591Y-27786795D01*
X85054582Y-27786791D01*
X84952729Y-27759500D01*
X84952727Y-27759500D01*
X84847273Y-27759500D01*
X84847271Y-27759500D01*
X84745417Y-27786791D01*
X84745408Y-27786795D01*
X84654086Y-27839520D01*
X84579520Y-27914086D01*
X84526795Y-28005408D01*
X84526791Y-28005417D01*
X84499500Y-28107270D01*
X83900499Y-28107270D01*
X83873208Y-28005417D01*
X83873207Y-28005413D01*
X83820480Y-27914087D01*
X83745913Y-27839520D01*
X83734973Y-27833204D01*
X83654591Y-27786795D01*
X83654582Y-27786791D01*
X83552729Y-27759500D01*
X83552727Y-27759500D01*
X83447273Y-27759500D01*
X83447271Y-27759500D01*
X83345417Y-27786791D01*
X83345408Y-27786795D01*
X83254086Y-27839520D01*
X83179520Y-27914086D01*
X83126795Y-28005408D01*
X83126791Y-28005417D01*
X83099500Y-28107270D01*
X82500499Y-28107270D01*
X82473208Y-28005417D01*
X82473207Y-28005413D01*
X82420480Y-27914087D01*
X82345913Y-27839520D01*
X82334973Y-27833204D01*
X82254591Y-27786795D01*
X82254582Y-27786791D01*
X82152729Y-27759500D01*
X82152727Y-27759500D01*
X82047273Y-27759500D01*
X82047271Y-27759500D01*
X81945417Y-27786791D01*
X81945408Y-27786795D01*
X81854086Y-27839520D01*
X81779520Y-27914086D01*
X81726795Y-28005408D01*
X81726791Y-28005417D01*
X81699500Y-28107270D01*
X72910820Y-28107270D01*
X72210820Y-27407270D01*
X82399500Y-27407270D01*
X82399500Y-27512729D01*
X82426791Y-27614582D01*
X82426795Y-27614591D01*
X82446940Y-27649483D01*
X82479520Y-27705913D01*
X82554087Y-27780480D01*
X82645413Y-27833207D01*
X82747270Y-27860499D01*
X82747271Y-27860500D01*
X82747273Y-27860500D01*
X82852729Y-27860500D01*
X82852729Y-27860499D01*
X82954587Y-27833207D01*
X83045913Y-27780480D01*
X83120480Y-27705913D01*
X83173207Y-27614587D01*
X83200499Y-27512729D01*
X83200500Y-27512729D01*
X83200500Y-27407271D01*
X83200499Y-27407270D01*
X83799500Y-27407270D01*
X83799500Y-27512729D01*
X83826791Y-27614582D01*
X83826795Y-27614591D01*
X83846940Y-27649483D01*
X83879520Y-27705913D01*
X83954087Y-27780480D01*
X84045413Y-27833207D01*
X84147270Y-27860499D01*
X84147271Y-27860500D01*
X84147273Y-27860500D01*
X84252729Y-27860500D01*
X84252729Y-27860499D01*
X84354587Y-27833207D01*
X84445913Y-27780480D01*
X84520480Y-27705913D01*
X84573207Y-27614587D01*
X84600499Y-27512729D01*
X84600500Y-27512729D01*
X84600500Y-27407271D01*
X84600499Y-27407270D01*
X84598866Y-27401177D01*
X84573207Y-27305413D01*
X84520480Y-27214087D01*
X84445913Y-27139520D01*
X84354591Y-27086795D01*
X84354582Y-27086791D01*
X84252729Y-27059500D01*
X84252727Y-27059500D01*
X84147273Y-27059500D01*
X84147271Y-27059500D01*
X84045417Y-27086791D01*
X84045408Y-27086795D01*
X83954086Y-27139520D01*
X83879520Y-27214086D01*
X83826795Y-27305408D01*
X83826791Y-27305417D01*
X83799500Y-27407270D01*
X83200499Y-27407270D01*
X83198866Y-27401177D01*
X83173207Y-27305413D01*
X83120480Y-27214087D01*
X83045913Y-27139520D01*
X82954591Y-27086795D01*
X82954582Y-27086791D01*
X82852729Y-27059500D01*
X82852727Y-27059500D01*
X82747273Y-27059500D01*
X82747271Y-27059500D01*
X82645417Y-27086791D01*
X82645408Y-27086795D01*
X82554086Y-27139520D01*
X82479520Y-27214086D01*
X82426795Y-27305408D01*
X82426791Y-27305417D01*
X82399500Y-27407270D01*
X72210820Y-27407270D01*
X71510820Y-26707270D01*
X81699500Y-26707270D01*
X81699500Y-26812729D01*
X81726791Y-26914582D01*
X81726795Y-26914591D01*
X81769694Y-26988894D01*
X81779520Y-27005913D01*
X81854087Y-27080480D01*
X81945413Y-27133207D01*
X82047270Y-27160499D01*
X82047271Y-27160500D01*
X82047273Y-27160500D01*
X82152729Y-27160500D01*
X82152729Y-27160499D01*
X82254587Y-27133207D01*
X82345913Y-27080480D01*
X82420480Y-27005913D01*
X82473207Y-26914587D01*
X82500499Y-26812729D01*
X82500500Y-26812729D01*
X82500500Y-26707271D01*
X82500499Y-26707270D01*
X83099500Y-26707270D01*
X83099500Y-26812729D01*
X83126791Y-26914582D01*
X83126795Y-26914591D01*
X83169694Y-26988894D01*
X83179520Y-27005913D01*
X83254087Y-27080480D01*
X83345413Y-27133207D01*
X83447270Y-27160499D01*
X83447271Y-27160500D01*
X83447273Y-27160500D01*
X83552729Y-27160500D01*
X83552729Y-27160499D01*
X83654587Y-27133207D01*
X83745913Y-27080480D01*
X83820480Y-27005913D01*
X83873207Y-26914587D01*
X83900499Y-26812729D01*
X83900500Y-26812729D01*
X83900500Y-26707271D01*
X83900499Y-26707270D01*
X84499500Y-26707270D01*
X84499500Y-26812729D01*
X84526791Y-26914582D01*
X84526795Y-26914591D01*
X84569694Y-26988894D01*
X84579520Y-27005913D01*
X84654087Y-27080480D01*
X84745413Y-27133207D01*
X84847270Y-27160499D01*
X84847271Y-27160500D01*
X84847273Y-27160500D01*
X84952729Y-27160500D01*
X84952729Y-27160499D01*
X85054587Y-27133207D01*
X85145913Y-27080480D01*
X85220480Y-27005913D01*
X85273207Y-26914587D01*
X85300499Y-26812729D01*
X85300500Y-26812729D01*
X85300500Y-26707271D01*
X85300499Y-26707270D01*
X85282609Y-26640504D01*
X85273207Y-26605413D01*
X85220480Y-26514087D01*
X85145913Y-26439520D01*
X85134973Y-26433204D01*
X85054591Y-26386795D01*
X85054582Y-26386791D01*
X84952729Y-26359500D01*
X84952727Y-26359500D01*
X84847273Y-26359500D01*
X84847271Y-26359500D01*
X84745417Y-26386791D01*
X84745408Y-26386795D01*
X84654086Y-26439520D01*
X84579520Y-26514086D01*
X84526795Y-26605408D01*
X84526791Y-26605417D01*
X84499500Y-26707270D01*
X83900499Y-26707270D01*
X83882609Y-26640504D01*
X83873207Y-26605413D01*
X83820480Y-26514087D01*
X83745913Y-26439520D01*
X83734973Y-26433204D01*
X83654591Y-26386795D01*
X83654582Y-26386791D01*
X83552729Y-26359500D01*
X83552727Y-26359500D01*
X83447273Y-26359500D01*
X83447271Y-26359500D01*
X83345417Y-26386791D01*
X83345408Y-26386795D01*
X83254086Y-26439520D01*
X83179520Y-26514086D01*
X83126795Y-26605408D01*
X83126791Y-26605417D01*
X83099500Y-26707270D01*
X82500499Y-26707270D01*
X82482609Y-26640504D01*
X82473207Y-26605413D01*
X82420480Y-26514087D01*
X82345913Y-26439520D01*
X82334973Y-26433204D01*
X82254591Y-26386795D01*
X82254582Y-26386791D01*
X82152729Y-26359500D01*
X82152727Y-26359500D01*
X82047273Y-26359500D01*
X82047271Y-26359500D01*
X81945417Y-26386791D01*
X81945408Y-26386795D01*
X81854086Y-26439520D01*
X81779520Y-26514086D01*
X81726795Y-26605408D01*
X81726791Y-26605417D01*
X81699500Y-26707270D01*
X71510820Y-26707270D01*
X70810820Y-26007270D01*
X82399500Y-26007270D01*
X82399500Y-26112729D01*
X82426791Y-26214582D01*
X82426795Y-26214591D01*
X82467104Y-26284408D01*
X82479520Y-26305913D01*
X82554087Y-26380480D01*
X82645413Y-26433207D01*
X82747270Y-26460499D01*
X82747271Y-26460500D01*
X82747273Y-26460500D01*
X82852729Y-26460500D01*
X82852729Y-26460499D01*
X82954587Y-26433207D01*
X83045913Y-26380480D01*
X83120480Y-26305913D01*
X83173207Y-26214587D01*
X83200499Y-26112729D01*
X83200500Y-26112729D01*
X83200500Y-26007271D01*
X83200499Y-26007270D01*
X83799500Y-26007270D01*
X83799500Y-26112729D01*
X83826791Y-26214582D01*
X83826795Y-26214591D01*
X83867104Y-26284408D01*
X83879520Y-26305913D01*
X83954087Y-26380480D01*
X84045413Y-26433207D01*
X84147270Y-26460499D01*
X84147271Y-26460500D01*
X84147273Y-26460500D01*
X84252729Y-26460500D01*
X84252729Y-26460499D01*
X84354587Y-26433207D01*
X84445913Y-26380480D01*
X84520480Y-26305913D01*
X84573207Y-26214587D01*
X84600499Y-26112729D01*
X84600500Y-26112729D01*
X84600500Y-26007271D01*
X84600499Y-26007270D01*
X84588885Y-25963927D01*
X84573207Y-25905413D01*
X84520480Y-25814087D01*
X84445913Y-25739520D01*
X84403074Y-25714787D01*
X84354591Y-25686795D01*
X84354582Y-25686791D01*
X84252729Y-25659500D01*
X84252727Y-25659500D01*
X84147273Y-25659500D01*
X84147271Y-25659500D01*
X84045417Y-25686791D01*
X84045408Y-25686795D01*
X83954086Y-25739520D01*
X83879520Y-25814086D01*
X83826795Y-25905408D01*
X83826791Y-25905417D01*
X83799500Y-26007270D01*
X83200499Y-26007270D01*
X83188885Y-25963927D01*
X83173207Y-25905413D01*
X83120480Y-25814087D01*
X83045913Y-25739520D01*
X83003074Y-25714787D01*
X82954591Y-25686795D01*
X82954582Y-25686791D01*
X82852729Y-25659500D01*
X82852727Y-25659500D01*
X82747273Y-25659500D01*
X82747271Y-25659500D01*
X82645417Y-25686791D01*
X82645408Y-25686795D01*
X82554086Y-25739520D01*
X82479520Y-25814086D01*
X82426795Y-25905408D01*
X82426791Y-25905417D01*
X82399500Y-26007270D01*
X70810820Y-26007270D01*
X67083702Y-22280152D01*
X107396623Y-22280152D01*
X107484041Y-22314626D01*
X107570420Y-22325000D01*
X108429580Y-22325000D01*
X108515958Y-22314626D01*
X108603375Y-22280152D01*
X108603376Y-22280152D01*
X108000000Y-21676776D01*
X107396623Y-22280152D01*
X67083702Y-22280152D01*
X66633130Y-21829580D01*
X107074999Y-21829580D01*
X107085373Y-21915956D01*
X107139576Y-22053408D01*
X107195745Y-22127477D01*
X107823223Y-21499999D01*
X108176776Y-21499999D01*
X108176776Y-21500000D01*
X108804253Y-22127477D01*
X108804254Y-22127477D01*
X108860421Y-22053412D01*
X108914626Y-21915956D01*
X108925000Y-21829580D01*
X108925000Y-21170419D01*
X108914626Y-21084043D01*
X108860422Y-20946589D01*
X108804254Y-20872521D01*
X108804253Y-20872521D01*
X108176776Y-21499999D01*
X107823223Y-21499999D01*
X107195744Y-20872521D01*
X107139577Y-20946589D01*
X107085373Y-21084043D01*
X107075000Y-21170419D01*
X107075000Y-21829580D01*
X107074999Y-21829580D01*
X66633130Y-21829580D01*
X65947138Y-21143588D01*
X65925464Y-21091262D01*
X65927985Y-21072112D01*
X65930500Y-21062727D01*
X65930500Y-20957273D01*
X65930500Y-20957271D01*
X65930499Y-20957270D01*
X65903208Y-20855417D01*
X65903207Y-20855413D01*
X65850480Y-20764087D01*
X65806239Y-20719846D01*
X107396623Y-20719846D01*
X107999999Y-21323223D01*
X108603375Y-20719846D01*
X108515956Y-20685373D01*
X108429580Y-20675000D01*
X107570420Y-20675000D01*
X107484044Y-20685373D01*
X107396623Y-20719846D01*
X65806239Y-20719846D01*
X65775913Y-20689520D01*
X65750764Y-20675000D01*
X65684591Y-20636795D01*
X65684582Y-20636791D01*
X65582729Y-20609500D01*
X65582727Y-20609500D01*
X65477273Y-20609500D01*
X65477271Y-20609500D01*
X65375417Y-20636791D01*
X65375408Y-20636795D01*
X65284086Y-20689520D01*
X65209520Y-20764086D01*
X65156795Y-20855408D01*
X65156791Y-20855417D01*
X65129500Y-20957270D01*
X65129500Y-21062727D01*
X65132014Y-21072110D01*
X65124620Y-21128262D01*
X65112861Y-21143587D01*
X62913622Y-23342826D01*
X62861296Y-23364500D01*
X62081967Y-23364500D01*
X61991105Y-23378891D01*
X61991102Y-23378892D01*
X61881598Y-23434687D01*
X61794689Y-23521596D01*
X61738890Y-23631109D01*
X61724500Y-23721965D01*
X61724500Y-24358032D01*
X61738891Y-24448894D01*
X61738892Y-24448897D01*
X61794687Y-24558401D01*
X61794689Y-24558403D01*
X61881597Y-24645311D01*
X61991107Y-24701109D01*
X62081967Y-24715500D01*
X62918032Y-24715499D01*
X63008893Y-24701109D01*
X63118403Y-24645311D01*
X63205311Y-24558403D01*
X63261109Y-24448893D01*
X63275500Y-24358033D01*
X63275499Y-23721968D01*
X63261109Y-23631107D01*
X63261108Y-23631105D01*
X63259309Y-23625566D01*
X63261653Y-23624804D01*
X63257895Y-23577060D01*
X63275946Y-23547602D01*
X65396411Y-21427137D01*
X65448736Y-21405464D01*
X65467885Y-21407984D01*
X65477273Y-21410500D01*
X65477274Y-21410500D01*
X65582726Y-21410500D01*
X65582727Y-21410500D01*
X65592108Y-21407986D01*
X65648259Y-21415376D01*
X65663588Y-21427138D01*
X74283826Y-30047376D01*
X74305500Y-30099702D01*
X74305500Y-36227280D01*
X74283826Y-36279606D01*
X74231500Y-36301280D01*
X74194500Y-36291366D01*
X74120591Y-36248695D01*
X74120582Y-36248691D01*
X74018729Y-36221400D01*
X74018727Y-36221400D01*
X73913273Y-36221400D01*
X73913271Y-36221400D01*
X73811417Y-36248691D01*
X73811408Y-36248695D01*
X73720086Y-36301420D01*
X73645520Y-36375986D01*
X73592795Y-36467308D01*
X73592791Y-36467317D01*
X73565500Y-36569170D01*
X73565500Y-36674627D01*
X73568014Y-36684010D01*
X73560620Y-36740162D01*
X73548861Y-36755487D01*
X66465716Y-43838632D01*
X66465715Y-43838631D01*
X66416326Y-43888022D01*
X66364001Y-43909697D01*
X66311675Y-43888023D01*
X66290000Y-43835698D01*
X66290000Y-35369423D01*
X66311674Y-35317097D01*
X66327000Y-35305337D01*
X66335413Y-35300480D01*
X66409980Y-35225913D01*
X66462707Y-35134587D01*
X66489999Y-35032729D01*
X66490000Y-35032729D01*
X66490000Y-34927271D01*
X66489999Y-34927270D01*
X66476127Y-34875500D01*
X66462707Y-34825413D01*
X66409980Y-34734087D01*
X66335413Y-34659520D01*
X66244091Y-34606795D01*
X66244089Y-34606794D01*
X66244087Y-34606793D01*
X66240454Y-34605819D01*
X66204216Y-34596109D01*
X66159284Y-34561630D01*
X66151892Y-34505477D01*
X66171042Y-34472307D01*
X66942311Y-33701037D01*
X66994636Y-33679364D01*
X67031634Y-33689277D01*
X67120713Y-33740707D01*
X67222570Y-33767999D01*
X67222571Y-33768000D01*
X67222573Y-33768000D01*
X67328029Y-33768000D01*
X67328029Y-33767999D01*
X67429887Y-33740707D01*
X67521213Y-33687980D01*
X67595780Y-33613413D01*
X67648507Y-33522087D01*
X67675799Y-33420229D01*
X67675800Y-33420229D01*
X67675800Y-33314771D01*
X67675799Y-33314770D01*
X67674554Y-33310125D01*
X67648507Y-33212913D01*
X67595780Y-33121587D01*
X67521213Y-33047020D01*
X67500061Y-33034808D01*
X67429891Y-32994295D01*
X67429889Y-32994294D01*
X67429887Y-32994293D01*
X67426897Y-32993491D01*
X67390095Y-32983630D01*
X67345162Y-32949151D01*
X67337771Y-32892998D01*
X67356921Y-32859828D01*
X67802076Y-32414674D01*
X67832600Y-32340982D01*
X67832600Y-32261218D01*
X67832600Y-30289423D01*
X67854274Y-30237097D01*
X67869600Y-30225337D01*
X67878013Y-30220480D01*
X67952580Y-30145913D01*
X68005307Y-30054587D01*
X68032599Y-29952729D01*
X68032600Y-29952729D01*
X68032600Y-29847271D01*
X68032599Y-29847270D01*
X68018727Y-29795500D01*
X68005307Y-29745413D01*
X67952580Y-29654087D01*
X67878013Y-29579520D01*
X67826017Y-29549500D01*
X67786691Y-29526795D01*
X67786682Y-29526791D01*
X67684829Y-29499500D01*
X67684827Y-29499500D01*
X67579373Y-29499500D01*
X67579371Y-29499500D01*
X67477517Y-29526791D01*
X67477508Y-29526795D01*
X67386186Y-29579520D01*
X67311620Y-29654086D01*
X67258895Y-29745408D01*
X67258891Y-29745417D01*
X67231600Y-29847270D01*
X67231600Y-29918100D01*
X67209926Y-29970426D01*
X67157600Y-29992100D01*
X67076071Y-29992100D01*
X66974217Y-30019391D01*
X66974208Y-30019395D01*
X66882886Y-30072120D01*
X66808320Y-30146686D01*
X66755595Y-30238008D01*
X66755591Y-30238017D01*
X66728300Y-30339870D01*
X66728300Y-30445329D01*
X66755591Y-30547182D01*
X66755595Y-30547191D01*
X66799050Y-30622457D01*
X66808320Y-30638513D01*
X66882887Y-30713080D01*
X66891300Y-30717937D01*
X66925778Y-30762870D01*
X66928300Y-30782023D01*
X66928300Y-32264098D01*
X66906626Y-32316424D01*
X65464426Y-33758624D01*
X65412100Y-33780298D01*
X65359774Y-33758624D01*
X65338100Y-33706298D01*
X65338100Y-27749423D01*
X65359774Y-27697097D01*
X65375100Y-27685337D01*
X65383513Y-27680480D01*
X65458080Y-27605913D01*
X65510807Y-27514587D01*
X65538099Y-27412729D01*
X65538100Y-27412729D01*
X65538100Y-27307271D01*
X65538099Y-27307270D01*
X65537602Y-27305417D01*
X65510807Y-27205413D01*
X65458080Y-27114087D01*
X65383513Y-27039520D01*
X65325304Y-27005913D01*
X65292191Y-26986795D01*
X65292182Y-26986791D01*
X65203497Y-26963028D01*
X65158564Y-26928550D01*
X65151172Y-26872397D01*
X65170322Y-26839226D01*
X66772411Y-25237137D01*
X66824736Y-25215464D01*
X66843885Y-25217984D01*
X66853273Y-25220500D01*
X66853274Y-25220500D01*
X66958729Y-25220500D01*
X66958729Y-25220499D01*
X67060587Y-25193207D01*
X67151913Y-25140480D01*
X67226480Y-25065913D01*
X67279207Y-24974587D01*
X67306499Y-24872729D01*
X67306500Y-24872729D01*
X67306500Y-24767271D01*
X67306499Y-24767270D01*
X67302541Y-24752500D01*
X67279207Y-24665413D01*
X67226480Y-24574087D01*
X67151913Y-24499520D01*
X67066142Y-24450000D01*
X67060591Y-24446795D01*
X67060582Y-24446791D01*
X66958729Y-24419500D01*
X66958727Y-24419500D01*
X66853273Y-24419500D01*
X66853271Y-24419500D01*
X66751417Y-24446791D01*
X66751408Y-24446795D01*
X66660086Y-24499520D01*
X66585520Y-24574086D01*
X66532795Y-24665408D01*
X66532791Y-24665417D01*
X66505500Y-24767270D01*
X66505500Y-24872727D01*
X66508014Y-24882110D01*
X66500620Y-24938262D01*
X66488861Y-24953587D01*
X65897526Y-25544923D01*
X65845200Y-25566597D01*
X65792874Y-25544923D01*
X65771200Y-25492597D01*
X65771200Y-23939423D01*
X65792874Y-23887097D01*
X65808200Y-23875337D01*
X65816613Y-23870480D01*
X65891180Y-23795913D01*
X65943907Y-23704587D01*
X65971199Y-23602729D01*
X65971200Y-23602729D01*
X65971200Y-23497271D01*
X65971199Y-23497270D01*
X65960599Y-23457711D01*
X65943907Y-23395413D01*
X65891180Y-23304087D01*
X65816613Y-23229520D01*
X65765481Y-23199999D01*
X65725291Y-23176795D01*
X65725282Y-23176791D01*
X65673033Y-23162791D01*
X65657709Y-23151032D01*
X65639860Y-23143639D01*
X65636032Y-23134399D01*
X65628100Y-23128312D01*
X65625578Y-23109161D01*
X65618186Y-23091313D01*
X65622013Y-23082073D01*
X65620708Y-23072160D01*
X65639858Y-23038990D01*
X65663811Y-23015037D01*
X65716135Y-22993364D01*
X65735284Y-22995884D01*
X65744672Y-22998400D01*
X65744673Y-22998400D01*
X65850128Y-22998400D01*
X65850128Y-22998399D01*
X65951986Y-22971107D01*
X66043312Y-22918380D01*
X66117879Y-22843813D01*
X66170606Y-22752487D01*
X66197898Y-22650629D01*
X66197899Y-22650629D01*
X66197899Y-22545171D01*
X66197898Y-22545170D01*
X66170607Y-22443317D01*
X66170606Y-22443313D01*
X66117879Y-22351987D01*
X66043312Y-22277420D01*
X66011004Y-22258767D01*
X65951990Y-22224695D01*
X65951981Y-22224691D01*
X65850128Y-22197400D01*
X65850126Y-22197400D01*
X65744672Y-22197400D01*
X65744670Y-22197400D01*
X65642816Y-22224691D01*
X65642807Y-22224695D01*
X65551485Y-22277420D01*
X65476919Y-22351986D01*
X65424194Y-22443308D01*
X65424190Y-22443317D01*
X65396899Y-22545170D01*
X65396899Y-22650627D01*
X65399413Y-22660010D01*
X65392019Y-22716162D01*
X65380260Y-22731487D01*
X62386426Y-25725324D01*
X62330025Y-25781725D01*
X62330023Y-25781726D01*
X62298091Y-25858819D01*
X62258042Y-25898867D01*
X62229724Y-25904500D01*
X62081967Y-25904500D01*
X61991105Y-25918891D01*
X61991102Y-25918892D01*
X61881598Y-25974687D01*
X61794689Y-26061596D01*
X61738890Y-26171109D01*
X61724500Y-26261965D01*
X61724500Y-26305500D01*
X61702826Y-26357826D01*
X61650500Y-26379500D01*
X49381818Y-26379500D01*
X49308128Y-26410022D01*
X46276825Y-29441325D01*
X46224499Y-29462999D01*
X46172173Y-29441325D01*
X46150499Y-29388999D01*
X46150499Y-28940102D01*
X46145055Y-28912729D01*
X46144669Y-28910787D01*
X46144668Y-28910786D01*
X46144668Y-28910784D01*
X46122459Y-28877545D01*
X46122456Y-28877542D01*
X46089213Y-28855331D01*
X46089211Y-28855330D01*
X46071559Y-28851819D01*
X46059899Y-28849500D01*
X46059897Y-28849500D01*
X44440102Y-28849500D01*
X44410784Y-28855331D01*
X44377545Y-28877540D01*
X44377542Y-28877543D01*
X44355331Y-28910786D01*
X44355330Y-28910788D01*
X44349500Y-28940102D01*
X41650499Y-28940102D01*
X41644669Y-28910787D01*
X41644668Y-28910786D01*
X41644668Y-28910784D01*
X41622459Y-28877545D01*
X41622456Y-28877542D01*
X41589213Y-28855331D01*
X41589211Y-28855330D01*
X41571559Y-28851819D01*
X41559899Y-28849500D01*
X41559897Y-28849500D01*
X39940102Y-28849500D01*
X39910784Y-28855331D01*
X39877545Y-28877540D01*
X39877542Y-28877543D01*
X39855331Y-28910786D01*
X39855330Y-28910788D01*
X39849500Y-28940102D01*
X34027989Y-28940102D01*
X40687939Y-22280152D01*
X61896623Y-22280152D01*
X61984041Y-22314626D01*
X62070420Y-22325000D01*
X62929580Y-22325000D01*
X63015958Y-22314626D01*
X63103375Y-22280152D01*
X63103376Y-22280152D01*
X62500000Y-21676776D01*
X61896623Y-22280152D01*
X40687939Y-22280152D01*
X41138511Y-21829580D01*
X61574999Y-21829580D01*
X61585373Y-21915956D01*
X61639576Y-22053408D01*
X61695745Y-22127477D01*
X62323223Y-21499999D01*
X62676776Y-21499999D01*
X62676776Y-21500000D01*
X63304253Y-22127477D01*
X63304254Y-22127477D01*
X63360421Y-22053412D01*
X63414626Y-21915956D01*
X63425000Y-21829580D01*
X63425000Y-21170419D01*
X63414626Y-21084043D01*
X63360422Y-20946589D01*
X63304254Y-20872521D01*
X63304253Y-20872521D01*
X62676776Y-21499999D01*
X62323223Y-21499999D01*
X61695744Y-20872521D01*
X61639577Y-20946589D01*
X61585373Y-21084043D01*
X61575000Y-21170419D01*
X61575000Y-21829580D01*
X61574999Y-21829580D01*
X41138511Y-21829580D01*
X42248245Y-20719846D01*
X61896623Y-20719846D01*
X62499999Y-21323223D01*
X63103375Y-20719846D01*
X63015956Y-20685373D01*
X62929580Y-20675000D01*
X62070420Y-20675000D01*
X61984044Y-20685373D01*
X61896623Y-20719846D01*
X42248245Y-20719846D01*
X43245910Y-19722181D01*
X43245913Y-19722180D01*
X43320480Y-19647613D01*
X43373207Y-19556287D01*
X43377782Y-19539213D01*
X43400501Y-19454427D01*
X43400501Y-19374499D01*
X43422175Y-19322173D01*
X43474501Y-19300499D01*
X44209898Y-19300499D01*
X44239213Y-19294669D01*
X44239214Y-19294668D01*
X44239215Y-19294668D01*
X44272454Y-19272459D01*
X44272453Y-19272459D01*
X44272457Y-19272457D01*
X44294669Y-19239213D01*
X44300500Y-19209899D01*
X44300499Y-16790102D01*
X44294669Y-16760787D01*
X44294668Y-16760786D01*
X44294668Y-16760784D01*
X44272459Y-16727545D01*
X44272456Y-16727542D01*
X44239213Y-16705331D01*
X44239211Y-16705330D01*
X44221559Y-16701819D01*
X44209899Y-16699500D01*
X44209897Y-16699500D01*
X41790102Y-16699500D01*
X41760784Y-16705331D01*
X41727545Y-16727540D01*
X41727542Y-16727543D01*
X41705331Y-16760786D01*
X41705330Y-16760788D01*
X41699500Y-16790102D01*
X41699500Y-19209897D01*
X41705331Y-19239215D01*
X41727540Y-19272454D01*
X41727542Y-19272456D01*
X41727543Y-19272457D01*
X41760787Y-19294669D01*
X41790101Y-19300500D01*
X42356155Y-19300499D01*
X42408481Y-19322173D01*
X42430155Y-19374499D01*
X42408481Y-19426825D01*
X32759517Y-29075790D01*
X32706792Y-29167112D01*
X32706793Y-29167113D01*
X32679500Y-29268973D01*
X32679500Y-46925500D01*
X32657826Y-46977826D01*
X32605500Y-46999500D01*
X32170102Y-46999500D01*
X32140784Y-47005331D01*
X32107545Y-47027540D01*
X32107542Y-47027543D01*
X32085331Y-47060786D01*
X32085330Y-47060788D01*
X32079500Y-47090102D01*
X32079500Y-48909897D01*
X32085331Y-48939215D01*
X32107540Y-48972454D01*
X32107542Y-48972456D01*
X32107543Y-48972457D01*
X32140787Y-48994669D01*
X32170101Y-49000500D01*
X32605500Y-49000499D01*
X32657826Y-49022173D01*
X32679500Y-49074499D01*
X32679500Y-62521755D01*
X32657826Y-62574081D01*
X24679517Y-70552390D01*
X24626792Y-70643712D01*
X24626793Y-70643713D01*
X24599500Y-70745573D01*
X24599500Y-70825500D01*
X24577826Y-70877826D01*
X24525500Y-70899500D01*
X23990102Y-70899500D01*
X23960784Y-70905331D01*
X23927545Y-70927540D01*
X23927542Y-70927543D01*
X23905331Y-70960786D01*
X23905330Y-70960788D01*
X23899500Y-70990102D01*
X500500Y-70990102D01*
X500500Y-46490102D01*
X5859500Y-46490102D01*
X5859500Y-49509897D01*
X5865331Y-49539215D01*
X5887540Y-49572454D01*
X5887542Y-49572456D01*
X5887543Y-49572457D01*
X5920787Y-49594669D01*
X5950101Y-49600500D01*
X8969898Y-49600499D01*
X8999213Y-49594669D01*
X8999214Y-49594668D01*
X8999215Y-49594668D01*
X9032454Y-49572459D01*
X9032453Y-49572459D01*
X9032457Y-49572457D01*
X9054669Y-49539213D01*
X9060500Y-49509899D01*
X9060499Y-46490102D01*
X10939500Y-46490102D01*
X10939500Y-49509897D01*
X10945331Y-49539215D01*
X10967540Y-49572454D01*
X10967542Y-49572456D01*
X10967543Y-49572457D01*
X11000787Y-49594669D01*
X11030101Y-49600500D01*
X14049898Y-49600499D01*
X14079213Y-49594669D01*
X14079214Y-49594668D01*
X14079215Y-49594668D01*
X14112454Y-49572459D01*
X14112453Y-49572459D01*
X14112457Y-49572457D01*
X14134669Y-49539213D01*
X14140500Y-49509899D01*
X14140499Y-47090102D01*
X21919500Y-47090102D01*
X21919500Y-48909897D01*
X21925331Y-48939215D01*
X21947540Y-48972454D01*
X21947542Y-48972456D01*
X21947543Y-48972457D01*
X21980787Y-48994669D01*
X22010101Y-49000500D01*
X23829898Y-49000499D01*
X23859213Y-48994669D01*
X23859214Y-48994668D01*
X23859215Y-48994668D01*
X23892454Y-48972459D01*
X23892453Y-48972459D01*
X23892457Y-48972457D01*
X23914669Y-48939213D01*
X23920500Y-48909899D01*
X23920499Y-47090102D01*
X23914669Y-47060787D01*
X23914668Y-47060786D01*
X23914668Y-47060784D01*
X23892459Y-47027545D01*
X23892456Y-47027542D01*
X23859213Y-47005331D01*
X23859211Y-47005330D01*
X23841559Y-47001819D01*
X23829899Y-46999500D01*
X23829897Y-46999500D01*
X22010102Y-46999500D01*
X21980784Y-47005331D01*
X21947545Y-47027540D01*
X21947542Y-47027543D01*
X21925331Y-47060786D01*
X21925330Y-47060788D01*
X21919500Y-47090102D01*
X14140499Y-47090102D01*
X14140499Y-46490102D01*
X14134669Y-46460787D01*
X14134668Y-46460786D01*
X14134668Y-46460784D01*
X14112459Y-46427545D01*
X14112456Y-46427542D01*
X14079213Y-46405331D01*
X14079211Y-46405330D01*
X14061559Y-46401819D01*
X14049899Y-46399500D01*
X14049897Y-46399500D01*
X11030102Y-46399500D01*
X11000784Y-46405331D01*
X10967545Y-46427540D01*
X10967542Y-46427543D01*
X10945331Y-46460786D01*
X10945330Y-46460788D01*
X10940659Y-46484271D01*
X10940333Y-46485916D01*
X10939500Y-46490102D01*
X9060499Y-46490102D01*
X9054669Y-46460787D01*
X9054668Y-46460786D01*
X9054668Y-46460784D01*
X9032459Y-46427545D01*
X9032456Y-46427542D01*
X8999213Y-46405331D01*
X8999211Y-46405330D01*
X8981559Y-46401819D01*
X8969899Y-46399500D01*
X8969897Y-46399500D01*
X5950102Y-46399500D01*
X5920784Y-46405331D01*
X5887545Y-46427540D01*
X5887542Y-46427543D01*
X5865331Y-46460786D01*
X5865330Y-46460788D01*
X5860659Y-46484271D01*
X5860333Y-46485916D01*
X5859500Y-46490102D01*
X500500Y-46490102D01*
X500500Y-23113388D01*
X6359500Y-23113388D01*
X6359500Y-23286611D01*
X6386597Y-23457698D01*
X6386600Y-23457711D01*
X6440125Y-23622442D01*
X6440127Y-23622446D01*
X6518767Y-23776787D01*
X6605888Y-23896699D01*
X6620586Y-23916928D01*
X6743072Y-24039414D01*
X6743075Y-24039416D01*
X6743076Y-24039417D01*
X6883212Y-24141232D01*
X7037553Y-24219872D01*
X7037557Y-24219874D01*
X7202288Y-24273399D01*
X7202294Y-24273400D01*
X7202299Y-24273402D01*
X7316359Y-24291467D01*
X7373388Y-24300500D01*
X7373389Y-24300500D01*
X7546612Y-24300500D01*
X7589383Y-24293725D01*
X7717701Y-24273402D01*
X7717708Y-24273399D01*
X7717711Y-24273399D01*
X7882442Y-24219874D01*
X7882442Y-24219873D01*
X7882445Y-24219873D01*
X8036788Y-24141232D01*
X8176928Y-24039414D01*
X8299414Y-23916928D01*
X8401232Y-23776788D01*
X8479873Y-23622445D01*
X8491839Y-23585618D01*
X8533399Y-23457711D01*
X8533399Y-23457708D01*
X8533402Y-23457701D01*
X8560500Y-23286611D01*
X8560500Y-23113389D01*
X8559830Y-23109161D01*
X8558636Y-23101622D01*
X11290000Y-23101622D01*
X11290000Y-23298377D01*
X11320778Y-23492706D01*
X11320781Y-23492719D01*
X11381577Y-23679828D01*
X11381579Y-23679833D01*
X11470903Y-23855142D01*
X11570709Y-23992512D01*
X12145871Y-23417349D01*
X12179910Y-23476306D01*
X12263694Y-23560090D01*
X12322648Y-23594127D01*
X11747486Y-24169289D01*
X11884857Y-24269096D01*
X12060166Y-24358420D01*
X12060171Y-24358422D01*
X12247280Y-24419218D01*
X12247293Y-24419221D01*
X12441622Y-24450000D01*
X12638378Y-24450000D01*
X12832706Y-24419221D01*
X12832719Y-24419218D01*
X13019828Y-24358422D01*
X13019833Y-24358420D01*
X13195139Y-24269097D01*
X13332512Y-24169289D01*
X12757351Y-23594127D01*
X12816306Y-23560090D01*
X12900090Y-23476306D01*
X12934127Y-23417350D01*
X13509289Y-23992512D01*
X13609097Y-23855139D01*
X13698420Y-23679833D01*
X13698422Y-23679828D01*
X13759218Y-23492719D01*
X13759221Y-23492706D01*
X13790000Y-23298377D01*
X13790000Y-23101622D01*
X13759221Y-22907293D01*
X13759218Y-22907280D01*
X13698422Y-22720171D01*
X13698420Y-22720166D01*
X13609096Y-22544857D01*
X13509289Y-22407486D01*
X12934127Y-22982647D01*
X12900090Y-22923694D01*
X12816306Y-22839910D01*
X12757349Y-22805871D01*
X13332512Y-22230709D01*
X13195142Y-22130903D01*
X13019833Y-22041579D01*
X13019828Y-22041577D01*
X12832719Y-21980781D01*
X12832706Y-21980778D01*
X12638378Y-21950000D01*
X12441622Y-21950000D01*
X12247293Y-21980778D01*
X12247280Y-21980781D01*
X12060171Y-22041577D01*
X12060166Y-22041579D01*
X11884857Y-22130903D01*
X11747486Y-22230709D01*
X12322648Y-22805872D01*
X12263694Y-22839910D01*
X12179910Y-22923694D01*
X12145872Y-22982648D01*
X11570709Y-22407486D01*
X11470903Y-22544857D01*
X11381579Y-22720166D01*
X11381577Y-22720171D01*
X11320781Y-22907280D01*
X11320778Y-22907293D01*
X11290000Y-23101622D01*
X8558636Y-23101622D01*
X8544155Y-23010191D01*
X8533402Y-22942299D01*
X8533400Y-22942294D01*
X8533399Y-22942288D01*
X8479874Y-22777557D01*
X8479872Y-22777553D01*
X8401232Y-22623212D01*
X8299417Y-22483076D01*
X8299416Y-22483075D01*
X8299414Y-22483072D01*
X8176928Y-22360586D01*
X8176925Y-22360583D01*
X8176923Y-22360582D01*
X8119387Y-22318780D01*
X8036787Y-22258767D01*
X7882446Y-22180127D01*
X7882442Y-22180125D01*
X7717711Y-22126600D01*
X7717698Y-22126597D01*
X7546612Y-22099500D01*
X7546611Y-22099500D01*
X7373389Y-22099500D01*
X7373388Y-22099500D01*
X7202301Y-22126597D01*
X7202288Y-22126600D01*
X7037557Y-22180125D01*
X7037553Y-22180127D01*
X6883212Y-22258767D01*
X6743076Y-22360582D01*
X6620582Y-22483076D01*
X6518767Y-22623212D01*
X6440127Y-22777553D01*
X6440125Y-22777557D01*
X6386600Y-22942288D01*
X6386597Y-22942301D01*
X6359500Y-23113388D01*
X500500Y-23113388D01*
X500500Y-16490102D01*
X5859500Y-16490102D01*
X5859500Y-19509897D01*
X5865331Y-19539214D01*
X5887540Y-19572454D01*
X5887542Y-19572456D01*
X5887543Y-19572457D01*
X5920787Y-19594669D01*
X5950101Y-19600500D01*
X8969898Y-19600499D01*
X8999213Y-19594669D01*
X8999214Y-19594668D01*
X8999215Y-19594668D01*
X9032454Y-19572459D01*
X9032453Y-19572459D01*
X9032457Y-19572457D01*
X9054669Y-19539213D01*
X9060500Y-19509899D01*
X9060499Y-16490102D01*
X9057570Y-16475376D01*
X10790000Y-16475376D01*
X10790000Y-19524623D01*
X10798063Y-19565159D01*
X12000568Y-18362653D01*
X12035112Y-18414351D01*
X12125649Y-18504888D01*
X12177345Y-18539430D01*
X10974839Y-19741935D01*
X11015378Y-19750000D01*
X14064622Y-19750000D01*
X14105158Y-19741935D01*
X12902654Y-18539430D01*
X12954351Y-18504888D01*
X13044888Y-18414351D01*
X13079430Y-18362653D01*
X14281935Y-19565158D01*
X14290000Y-19524622D01*
X14290000Y-16790102D01*
X19699500Y-16790102D01*
X19699500Y-19209897D01*
X19705331Y-19239215D01*
X19727540Y-19272454D01*
X19727542Y-19272456D01*
X19727543Y-19272457D01*
X19760787Y-19294669D01*
X19790101Y-19300500D01*
X22209898Y-19300499D01*
X22239213Y-19294669D01*
X22239214Y-19294668D01*
X22239215Y-19294668D01*
X22272454Y-19272459D01*
X22272453Y-19272459D01*
X22272457Y-19272457D01*
X22294669Y-19239213D01*
X22300500Y-19209899D01*
X22300499Y-16790102D01*
X22294669Y-16760787D01*
X22294668Y-16760786D01*
X22294668Y-16760784D01*
X22272459Y-16727545D01*
X22272456Y-16727542D01*
X22239213Y-16705331D01*
X22239211Y-16705330D01*
X22221559Y-16701819D01*
X22209899Y-16699500D01*
X22209897Y-16699500D01*
X19790102Y-16699500D01*
X19760784Y-16705331D01*
X19727545Y-16727540D01*
X19727542Y-16727543D01*
X19705331Y-16760786D01*
X19705330Y-16760788D01*
X19699500Y-16790102D01*
X14290000Y-16790102D01*
X14290000Y-16475377D01*
X14281935Y-16434839D01*
X13079429Y-17637345D01*
X13044888Y-17585649D01*
X12954351Y-17495112D01*
X12902653Y-17460568D01*
X14105159Y-16258063D01*
X14064623Y-16250000D01*
X11015377Y-16250000D01*
X10974839Y-16258063D01*
X12177345Y-17460569D01*
X12125649Y-17495112D01*
X12035112Y-17585649D01*
X12000569Y-17637345D01*
X10798063Y-16434839D01*
X10790000Y-16475376D01*
X9057570Y-16475376D01*
X9054669Y-16460787D01*
X9054668Y-16460786D01*
X9054668Y-16460784D01*
X9032459Y-16427545D01*
X9032456Y-16427542D01*
X8999213Y-16405331D01*
X8999211Y-16405330D01*
X8981559Y-16401819D01*
X8969899Y-16399500D01*
X8969897Y-16399500D01*
X5950102Y-16399500D01*
X5920784Y-16405331D01*
X5887545Y-16427540D01*
X5887542Y-16427543D01*
X5865331Y-16460786D01*
X5865330Y-16460788D01*
X5859500Y-16490102D01*
X500500Y-16490102D01*
X500500Y-6611525D01*
X5565250Y-6611525D01*
X5565250Y-6611526D01*
X5644742Y-6664641D01*
X5781232Y-6721177D01*
X5781239Y-6721179D01*
X5926132Y-6750000D01*
X6073868Y-6750000D01*
X6218760Y-6721179D01*
X6218767Y-6721177D01*
X6355253Y-6664643D01*
X6434748Y-6611525D01*
X6000000Y-6176776D01*
X5565250Y-6611525D01*
X500500Y-6611525D01*
X500500Y-5926131D01*
X5250000Y-5926131D01*
X5250000Y-6073868D01*
X5278820Y-6218760D01*
X5278822Y-6218767D01*
X5335357Y-6355254D01*
X5388472Y-6434747D01*
X5823222Y-5999999D01*
X6176776Y-5999999D01*
X6611525Y-6434748D01*
X6664643Y-6355253D01*
X6721177Y-6218767D01*
X6721179Y-6218760D01*
X6750000Y-6073868D01*
X6750000Y-5926131D01*
X6721179Y-5781239D01*
X6721177Y-5781232D01*
X6664641Y-5644742D01*
X6611525Y-5565250D01*
X6176776Y-5999999D01*
X5823222Y-5999999D01*
X5388472Y-5565250D01*
X5335359Y-5644741D01*
X5278822Y-5781232D01*
X5278820Y-5781239D01*
X5250000Y-5926131D01*
X500500Y-5926131D01*
X500500Y-5388472D01*
X5565250Y-5388472D01*
X5999999Y-5823222D01*
X6434748Y-5388472D01*
X6355254Y-5335357D01*
X6218767Y-5278822D01*
X6218760Y-5278820D01*
X6073868Y-5250000D01*
X5926132Y-5250000D01*
X5781239Y-5278820D01*
X5781232Y-5278822D01*
X5644741Y-5335359D01*
X5565250Y-5388472D01*
X500500Y-5388472D01*
X500500Y-574500D01*
X522174Y-522174D01*
X574500Y-500500D01*
X60926000Y-500500D01*
X60978326Y-522174D01*
G37*
%TD.AperFunction*%
%TD*%
M02*
