%TF.GenerationSoftware,KiCad,Pcbnew,9.0.8+dfsg-1*%
%TF.CreationDate,2026-07-07T05:18:09+02:00*%
%TF.ProjectId,CoffeeRoast-Control-RevA,436f6666-6565-4526-9f61-73742d436f6e,A.1-draft*%
%TF.SameCoordinates,Original*%
%TF.FileFunction,Legend,Bot*%
%TF.FilePolarity,Positive*%
%FSLAX46Y46*%
G04 Gerber Fmt 4.6, Leading zero omitted, Abs format (unit mm)*
G04 Created by KiCad (PCBNEW 9.0.8+dfsg-1) date 2026-07-07 05:18:09*
%MOMM*%
%LPD*%
G01*
G04 APERTURE LIST*
G04 Aperture macros list*
%AMRoundRect*
0 Rectangle with rounded corners*
0 $1 Rounding radius*
0 $2 $3 $4 $5 $6 $7 $8 $9 X,Y pos of 4 corners*
0 Add a 4 corners polygon primitive as box body*
4,1,4,$2,$3,$4,$5,$6,$7,$8,$9,$2,$3,0*
0 Add four circle primitives for the rounded corners*
1,1,$1+$1,$2,$3*
1,1,$1+$1,$4,$5*
1,1,$1+$1,$6,$7*
1,1,$1+$1,$8,$9*
0 Add four rect primitives between the rounded corners*
20,1,$1+$1,$2,$3,$4,$5,0*
20,1,$1+$1,$4,$5,$6,$7,0*
20,1,$1+$1,$6,$7,$8,$9,0*
20,1,$1+$1,$8,$9,$2,$3,0*%
G04 Aperture macros list end*
%ADD10C,0.100000*%
%ADD11C,0.110000*%
%ADD12C,0.140000*%
%ADD13C,0.650000*%
%ADD14O,2.100000X1.000000*%
%ADD15O,1.600000X1.000000*%
%ADD16R,3.000000X3.000000*%
%ADD17R,1.600000X1.600000*%
%ADD18R,2.400000X2.400000*%
%ADD19R,2.000000X2.000000*%
%ADD20R,1.800000X1.800000*%
%ADD21C,1.600000*%
%ADD22C,2.000000*%
%ADD23RoundRect,0.287500X-0.387500X-0.287500X0.387500X-0.287500X0.387500X0.287500X-0.387500X0.287500X0*%
G04 APERTURE END LIST*
D10*
X19233333Y-71564895D02*
X18776190Y-71564895D01*
X19004762Y-72364895D02*
X19004762Y-71564895D01*
X18509523Y-72364895D02*
X18509523Y-71564895D01*
X18509523Y-71564895D02*
X18204761Y-71564895D01*
X18204761Y-71564895D02*
X18128571Y-71602990D01*
X18128571Y-71602990D02*
X18090476Y-71641085D01*
X18090476Y-71641085D02*
X18052380Y-71717276D01*
X18052380Y-71717276D02*
X18052380Y-71831561D01*
X18052380Y-71831561D02*
X18090476Y-71907752D01*
X18090476Y-71907752D02*
X18128571Y-71945847D01*
X18128571Y-71945847D02*
X18204761Y-71983942D01*
X18204761Y-71983942D02*
X18509523Y-71983942D01*
X17747619Y-71641085D02*
X17709523Y-71602990D01*
X17709523Y-71602990D02*
X17633333Y-71564895D01*
X17633333Y-71564895D02*
X17442857Y-71564895D01*
X17442857Y-71564895D02*
X17366666Y-71602990D01*
X17366666Y-71602990D02*
X17328571Y-71641085D01*
X17328571Y-71641085D02*
X17290476Y-71717276D01*
X17290476Y-71717276D02*
X17290476Y-71793466D01*
X17290476Y-71793466D02*
X17328571Y-71907752D01*
X17328571Y-71907752D02*
X17785714Y-72364895D01*
X17785714Y-72364895D02*
X17290476Y-72364895D01*
X16604761Y-71831561D02*
X16604761Y-72364895D01*
X16795237Y-71526800D02*
X16985714Y-72098228D01*
X16985714Y-72098228D02*
X16490475Y-72098228D01*
X16299999Y-71564895D02*
X16033332Y-72364895D01*
X16033332Y-72364895D02*
X15766666Y-71564895D01*
X56347618Y-83564895D02*
X55890475Y-83564895D01*
X56119047Y-84364895D02*
X56119047Y-83564895D01*
X55623808Y-84364895D02*
X55623808Y-83564895D01*
X55623808Y-83564895D02*
X55319046Y-83564895D01*
X55319046Y-83564895D02*
X55242856Y-83602990D01*
X55242856Y-83602990D02*
X55204761Y-83641085D01*
X55204761Y-83641085D02*
X55166665Y-83717276D01*
X55166665Y-83717276D02*
X55166665Y-83831561D01*
X55166665Y-83831561D02*
X55204761Y-83907752D01*
X55204761Y-83907752D02*
X55242856Y-83945847D01*
X55242856Y-83945847D02*
X55319046Y-83983942D01*
X55319046Y-83983942D02*
X55623808Y-83983942D01*
X54404761Y-83602990D02*
X54480951Y-83564895D01*
X54480951Y-83564895D02*
X54595237Y-83564895D01*
X54595237Y-83564895D02*
X54709523Y-83602990D01*
X54709523Y-83602990D02*
X54785713Y-83679180D01*
X54785713Y-83679180D02*
X54823808Y-83755371D01*
X54823808Y-83755371D02*
X54861904Y-83907752D01*
X54861904Y-83907752D02*
X54861904Y-84022038D01*
X54861904Y-84022038D02*
X54823808Y-84174419D01*
X54823808Y-84174419D02*
X54785713Y-84250609D01*
X54785713Y-84250609D02*
X54709523Y-84326800D01*
X54709523Y-84326800D02*
X54595237Y-84364895D01*
X54595237Y-84364895D02*
X54519046Y-84364895D01*
X54519046Y-84364895D02*
X54404761Y-84326800D01*
X54404761Y-84326800D02*
X54366665Y-84288704D01*
X54366665Y-84288704D02*
X54366665Y-84022038D01*
X54366665Y-84022038D02*
X54519046Y-84022038D01*
X54023808Y-84364895D02*
X54023808Y-83564895D01*
X54023808Y-83564895D02*
X53566665Y-84364895D01*
X53566665Y-84364895D02*
X53566665Y-83564895D01*
X53185713Y-84364895D02*
X53185713Y-83564895D01*
X53185713Y-83564895D02*
X52995237Y-83564895D01*
X52995237Y-83564895D02*
X52880951Y-83602990D01*
X52880951Y-83602990D02*
X52804761Y-83679180D01*
X52804761Y-83679180D02*
X52766666Y-83755371D01*
X52766666Y-83755371D02*
X52728570Y-83907752D01*
X52728570Y-83907752D02*
X52728570Y-84022038D01*
X52728570Y-84022038D02*
X52766666Y-84174419D01*
X52766666Y-84174419D02*
X52804761Y-84250609D01*
X52804761Y-84250609D02*
X52880951Y-84326800D01*
X52880951Y-84326800D02*
X52995237Y-84364895D01*
X52995237Y-84364895D02*
X53185713Y-84364895D01*
X57552380Y-69564895D02*
X57095237Y-69564895D01*
X57323809Y-70364895D02*
X57323809Y-69564895D01*
X56828570Y-70364895D02*
X56828570Y-69564895D01*
X56828570Y-69564895D02*
X56523808Y-69564895D01*
X56523808Y-69564895D02*
X56447618Y-69602990D01*
X56447618Y-69602990D02*
X56409523Y-69641085D01*
X56409523Y-69641085D02*
X56371427Y-69717276D01*
X56371427Y-69717276D02*
X56371427Y-69831561D01*
X56371427Y-69831561D02*
X56409523Y-69907752D01*
X56409523Y-69907752D02*
X56447618Y-69945847D01*
X56447618Y-69945847D02*
X56523808Y-69983942D01*
X56523808Y-69983942D02*
X56828570Y-69983942D01*
X55647618Y-69564895D02*
X56028570Y-69564895D01*
X56028570Y-69564895D02*
X56066666Y-69945847D01*
X56066666Y-69945847D02*
X56028570Y-69907752D01*
X56028570Y-69907752D02*
X55952380Y-69869657D01*
X55952380Y-69869657D02*
X55761904Y-69869657D01*
X55761904Y-69869657D02*
X55685713Y-69907752D01*
X55685713Y-69907752D02*
X55647618Y-69945847D01*
X55647618Y-69945847D02*
X55609523Y-70022038D01*
X55609523Y-70022038D02*
X55609523Y-70212514D01*
X55609523Y-70212514D02*
X55647618Y-70288704D01*
X55647618Y-70288704D02*
X55685713Y-70326800D01*
X55685713Y-70326800D02*
X55761904Y-70364895D01*
X55761904Y-70364895D02*
X55952380Y-70364895D01*
X55952380Y-70364895D02*
X56028570Y-70326800D01*
X56028570Y-70326800D02*
X56066666Y-70288704D01*
X55380951Y-69564895D02*
X55114284Y-70364895D01*
X55114284Y-70364895D02*
X54847618Y-69564895D01*
X57309523Y-20752990D02*
X57385713Y-20714895D01*
X57385713Y-20714895D02*
X57499999Y-20714895D01*
X57499999Y-20714895D02*
X57614285Y-20752990D01*
X57614285Y-20752990D02*
X57690475Y-20829180D01*
X57690475Y-20829180D02*
X57728570Y-20905371D01*
X57728570Y-20905371D02*
X57766666Y-21057752D01*
X57766666Y-21057752D02*
X57766666Y-21172038D01*
X57766666Y-21172038D02*
X57728570Y-21324419D01*
X57728570Y-21324419D02*
X57690475Y-21400609D01*
X57690475Y-21400609D02*
X57614285Y-21476800D01*
X57614285Y-21476800D02*
X57499999Y-21514895D01*
X57499999Y-21514895D02*
X57423808Y-21514895D01*
X57423808Y-21514895D02*
X57309523Y-21476800D01*
X57309523Y-21476800D02*
X57271427Y-21438704D01*
X57271427Y-21438704D02*
X57271427Y-21172038D01*
X57271427Y-21172038D02*
X57423808Y-21172038D01*
X56928570Y-21514895D02*
X56928570Y-20714895D01*
X56928570Y-20714895D02*
X56471427Y-21514895D01*
X56471427Y-21514895D02*
X56471427Y-20714895D01*
X56090475Y-21514895D02*
X56090475Y-20714895D01*
X56090475Y-20714895D02*
X55899999Y-20714895D01*
X55899999Y-20714895D02*
X55785713Y-20752990D01*
X55785713Y-20752990D02*
X55709523Y-20829180D01*
X55709523Y-20829180D02*
X55671428Y-20905371D01*
X55671428Y-20905371D02*
X55633332Y-21057752D01*
X55633332Y-21057752D02*
X55633332Y-21172038D01*
X55633332Y-21172038D02*
X55671428Y-21324419D01*
X55671428Y-21324419D02*
X55709523Y-21400609D01*
X55709523Y-21400609D02*
X55785713Y-21476800D01*
X55785713Y-21476800D02*
X55899999Y-21514895D01*
X55899999Y-21514895D02*
X56090475Y-21514895D01*
X57690476Y-23254895D02*
X57195238Y-23254895D01*
X57195238Y-23254895D02*
X57461904Y-23559657D01*
X57461904Y-23559657D02*
X57347619Y-23559657D01*
X57347619Y-23559657D02*
X57271428Y-23597752D01*
X57271428Y-23597752D02*
X57233333Y-23635847D01*
X57233333Y-23635847D02*
X57195238Y-23712038D01*
X57195238Y-23712038D02*
X57195238Y-23902514D01*
X57195238Y-23902514D02*
X57233333Y-23978704D01*
X57233333Y-23978704D02*
X57271428Y-24016800D01*
X57271428Y-24016800D02*
X57347619Y-24054895D01*
X57347619Y-24054895D02*
X57576190Y-24054895D01*
X57576190Y-24054895D02*
X57652381Y-24016800D01*
X57652381Y-24016800D02*
X57690476Y-23978704D01*
X56966666Y-23254895D02*
X56699999Y-24054895D01*
X56699999Y-24054895D02*
X56433333Y-23254895D01*
X56242857Y-23254895D02*
X55747619Y-23254895D01*
X55747619Y-23254895D02*
X56014285Y-23559657D01*
X56014285Y-23559657D02*
X55900000Y-23559657D01*
X55900000Y-23559657D02*
X55823809Y-23597752D01*
X55823809Y-23597752D02*
X55785714Y-23635847D01*
X55785714Y-23635847D02*
X55747619Y-23712038D01*
X55747619Y-23712038D02*
X55747619Y-23902514D01*
X55747619Y-23902514D02*
X55785714Y-23978704D01*
X55785714Y-23978704D02*
X55823809Y-24016800D01*
X55823809Y-24016800D02*
X55900000Y-24054895D01*
X55900000Y-24054895D02*
X56128571Y-24054895D01*
X56128571Y-24054895D02*
X56204762Y-24016800D01*
X56204762Y-24016800D02*
X56242857Y-23978704D01*
X57290475Y-26175847D02*
X57023809Y-26175847D01*
X56909523Y-26594895D02*
X57290475Y-26594895D01*
X57290475Y-26594895D02*
X57290475Y-25794895D01*
X57290475Y-25794895D02*
X56909523Y-25794895D01*
X56566665Y-26594895D02*
X56566665Y-25794895D01*
X56566665Y-25794895D02*
X56109522Y-26594895D01*
X56109522Y-26594895D02*
X56109522Y-25794895D01*
X57880952Y-28372990D02*
X57957142Y-28334895D01*
X57957142Y-28334895D02*
X58071428Y-28334895D01*
X58071428Y-28334895D02*
X58185714Y-28372990D01*
X58185714Y-28372990D02*
X58261904Y-28449180D01*
X58261904Y-28449180D02*
X58299999Y-28525371D01*
X58299999Y-28525371D02*
X58338095Y-28677752D01*
X58338095Y-28677752D02*
X58338095Y-28792038D01*
X58338095Y-28792038D02*
X58299999Y-28944419D01*
X58299999Y-28944419D02*
X58261904Y-29020609D01*
X58261904Y-29020609D02*
X58185714Y-29096800D01*
X58185714Y-29096800D02*
X58071428Y-29134895D01*
X58071428Y-29134895D02*
X57995237Y-29134895D01*
X57995237Y-29134895D02*
X57880952Y-29096800D01*
X57880952Y-29096800D02*
X57842856Y-29058704D01*
X57842856Y-29058704D02*
X57842856Y-28792038D01*
X57842856Y-28792038D02*
X57995237Y-28792038D01*
X57499999Y-29134895D02*
X57499999Y-28334895D01*
X57499999Y-28334895D02*
X57195237Y-28334895D01*
X57195237Y-28334895D02*
X57119047Y-28372990D01*
X57119047Y-28372990D02*
X57080952Y-28411085D01*
X57080952Y-28411085D02*
X57042856Y-28487276D01*
X57042856Y-28487276D02*
X57042856Y-28601561D01*
X57042856Y-28601561D02*
X57080952Y-28677752D01*
X57080952Y-28677752D02*
X57119047Y-28715847D01*
X57119047Y-28715847D02*
X57195237Y-28753942D01*
X57195237Y-28753942D02*
X57499999Y-28753942D01*
X56699999Y-29134895D02*
X56699999Y-28334895D01*
X56166666Y-28334895D02*
X56014285Y-28334895D01*
X56014285Y-28334895D02*
X55938095Y-28372990D01*
X55938095Y-28372990D02*
X55861904Y-28449180D01*
X55861904Y-28449180D02*
X55823809Y-28601561D01*
X55823809Y-28601561D02*
X55823809Y-28868228D01*
X55823809Y-28868228D02*
X55861904Y-29020609D01*
X55861904Y-29020609D02*
X55938095Y-29096800D01*
X55938095Y-29096800D02*
X56014285Y-29134895D01*
X56014285Y-29134895D02*
X56166666Y-29134895D01*
X56166666Y-29134895D02*
X56242857Y-29096800D01*
X56242857Y-29096800D02*
X56319047Y-29020609D01*
X56319047Y-29020609D02*
X56357143Y-28868228D01*
X56357143Y-28868228D02*
X56357143Y-28601561D01*
X56357143Y-28601561D02*
X56319047Y-28449180D01*
X56319047Y-28449180D02*
X56242857Y-28372990D01*
X56242857Y-28372990D02*
X56166666Y-28334895D01*
X55138095Y-28601561D02*
X55138095Y-29134895D01*
X55328571Y-28296800D02*
X55519048Y-28868228D01*
X55519048Y-28868228D02*
X55023809Y-28868228D01*
X57880952Y-30912990D02*
X57957142Y-30874895D01*
X57957142Y-30874895D02*
X58071428Y-30874895D01*
X58071428Y-30874895D02*
X58185714Y-30912990D01*
X58185714Y-30912990D02*
X58261904Y-30989180D01*
X58261904Y-30989180D02*
X58299999Y-31065371D01*
X58299999Y-31065371D02*
X58338095Y-31217752D01*
X58338095Y-31217752D02*
X58338095Y-31332038D01*
X58338095Y-31332038D02*
X58299999Y-31484419D01*
X58299999Y-31484419D02*
X58261904Y-31560609D01*
X58261904Y-31560609D02*
X58185714Y-31636800D01*
X58185714Y-31636800D02*
X58071428Y-31674895D01*
X58071428Y-31674895D02*
X57995237Y-31674895D01*
X57995237Y-31674895D02*
X57880952Y-31636800D01*
X57880952Y-31636800D02*
X57842856Y-31598704D01*
X57842856Y-31598704D02*
X57842856Y-31332038D01*
X57842856Y-31332038D02*
X57995237Y-31332038D01*
X57499999Y-31674895D02*
X57499999Y-30874895D01*
X57499999Y-30874895D02*
X57195237Y-30874895D01*
X57195237Y-30874895D02*
X57119047Y-30912990D01*
X57119047Y-30912990D02*
X57080952Y-30951085D01*
X57080952Y-30951085D02*
X57042856Y-31027276D01*
X57042856Y-31027276D02*
X57042856Y-31141561D01*
X57042856Y-31141561D02*
X57080952Y-31217752D01*
X57080952Y-31217752D02*
X57119047Y-31255847D01*
X57119047Y-31255847D02*
X57195237Y-31293942D01*
X57195237Y-31293942D02*
X57499999Y-31293942D01*
X56699999Y-31674895D02*
X56699999Y-30874895D01*
X56166666Y-30874895D02*
X56014285Y-30874895D01*
X56014285Y-30874895D02*
X55938095Y-30912990D01*
X55938095Y-30912990D02*
X55861904Y-30989180D01*
X55861904Y-30989180D02*
X55823809Y-31141561D01*
X55823809Y-31141561D02*
X55823809Y-31408228D01*
X55823809Y-31408228D02*
X55861904Y-31560609D01*
X55861904Y-31560609D02*
X55938095Y-31636800D01*
X55938095Y-31636800D02*
X56014285Y-31674895D01*
X56014285Y-31674895D02*
X56166666Y-31674895D01*
X56166666Y-31674895D02*
X56242857Y-31636800D01*
X56242857Y-31636800D02*
X56319047Y-31560609D01*
X56319047Y-31560609D02*
X56357143Y-31408228D01*
X56357143Y-31408228D02*
X56357143Y-31141561D01*
X56357143Y-31141561D02*
X56319047Y-30989180D01*
X56319047Y-30989180D02*
X56242857Y-30912990D01*
X56242857Y-30912990D02*
X56166666Y-30874895D01*
X55100000Y-30874895D02*
X55480952Y-30874895D01*
X55480952Y-30874895D02*
X55519048Y-31255847D01*
X55519048Y-31255847D02*
X55480952Y-31217752D01*
X55480952Y-31217752D02*
X55404762Y-31179657D01*
X55404762Y-31179657D02*
X55214286Y-31179657D01*
X55214286Y-31179657D02*
X55138095Y-31217752D01*
X55138095Y-31217752D02*
X55100000Y-31255847D01*
X55100000Y-31255847D02*
X55061905Y-31332038D01*
X55061905Y-31332038D02*
X55061905Y-31522514D01*
X55061905Y-31522514D02*
X55100000Y-31598704D01*
X55100000Y-31598704D02*
X55138095Y-31636800D01*
X55138095Y-31636800D02*
X55214286Y-31674895D01*
X55214286Y-31674895D02*
X55404762Y-31674895D01*
X55404762Y-31674895D02*
X55480952Y-31636800D01*
X55480952Y-31636800D02*
X55519048Y-31598704D01*
X57880952Y-33452990D02*
X57957142Y-33414895D01*
X57957142Y-33414895D02*
X58071428Y-33414895D01*
X58071428Y-33414895D02*
X58185714Y-33452990D01*
X58185714Y-33452990D02*
X58261904Y-33529180D01*
X58261904Y-33529180D02*
X58299999Y-33605371D01*
X58299999Y-33605371D02*
X58338095Y-33757752D01*
X58338095Y-33757752D02*
X58338095Y-33872038D01*
X58338095Y-33872038D02*
X58299999Y-34024419D01*
X58299999Y-34024419D02*
X58261904Y-34100609D01*
X58261904Y-34100609D02*
X58185714Y-34176800D01*
X58185714Y-34176800D02*
X58071428Y-34214895D01*
X58071428Y-34214895D02*
X57995237Y-34214895D01*
X57995237Y-34214895D02*
X57880952Y-34176800D01*
X57880952Y-34176800D02*
X57842856Y-34138704D01*
X57842856Y-34138704D02*
X57842856Y-33872038D01*
X57842856Y-33872038D02*
X57995237Y-33872038D01*
X57499999Y-34214895D02*
X57499999Y-33414895D01*
X57499999Y-33414895D02*
X57195237Y-33414895D01*
X57195237Y-33414895D02*
X57119047Y-33452990D01*
X57119047Y-33452990D02*
X57080952Y-33491085D01*
X57080952Y-33491085D02*
X57042856Y-33567276D01*
X57042856Y-33567276D02*
X57042856Y-33681561D01*
X57042856Y-33681561D02*
X57080952Y-33757752D01*
X57080952Y-33757752D02*
X57119047Y-33795847D01*
X57119047Y-33795847D02*
X57195237Y-33833942D01*
X57195237Y-33833942D02*
X57499999Y-33833942D01*
X56699999Y-34214895D02*
X56699999Y-33414895D01*
X56166666Y-33414895D02*
X56014285Y-33414895D01*
X56014285Y-33414895D02*
X55938095Y-33452990D01*
X55938095Y-33452990D02*
X55861904Y-33529180D01*
X55861904Y-33529180D02*
X55823809Y-33681561D01*
X55823809Y-33681561D02*
X55823809Y-33948228D01*
X55823809Y-33948228D02*
X55861904Y-34100609D01*
X55861904Y-34100609D02*
X55938095Y-34176800D01*
X55938095Y-34176800D02*
X56014285Y-34214895D01*
X56014285Y-34214895D02*
X56166666Y-34214895D01*
X56166666Y-34214895D02*
X56242857Y-34176800D01*
X56242857Y-34176800D02*
X56319047Y-34100609D01*
X56319047Y-34100609D02*
X56357143Y-33948228D01*
X56357143Y-33948228D02*
X56357143Y-33681561D01*
X56357143Y-33681561D02*
X56319047Y-33529180D01*
X56319047Y-33529180D02*
X56242857Y-33452990D01*
X56242857Y-33452990D02*
X56166666Y-33414895D01*
X55138095Y-33414895D02*
X55290476Y-33414895D01*
X55290476Y-33414895D02*
X55366667Y-33452990D01*
X55366667Y-33452990D02*
X55404762Y-33491085D01*
X55404762Y-33491085D02*
X55480952Y-33605371D01*
X55480952Y-33605371D02*
X55519048Y-33757752D01*
X55519048Y-33757752D02*
X55519048Y-34062514D01*
X55519048Y-34062514D02*
X55480952Y-34138704D01*
X55480952Y-34138704D02*
X55442857Y-34176800D01*
X55442857Y-34176800D02*
X55366667Y-34214895D01*
X55366667Y-34214895D02*
X55214286Y-34214895D01*
X55214286Y-34214895D02*
X55138095Y-34176800D01*
X55138095Y-34176800D02*
X55100000Y-34138704D01*
X55100000Y-34138704D02*
X55061905Y-34062514D01*
X55061905Y-34062514D02*
X55061905Y-33872038D01*
X55061905Y-33872038D02*
X55100000Y-33795847D01*
X55100000Y-33795847D02*
X55138095Y-33757752D01*
X55138095Y-33757752D02*
X55214286Y-33719657D01*
X55214286Y-33719657D02*
X55366667Y-33719657D01*
X55366667Y-33719657D02*
X55442857Y-33757752D01*
X55442857Y-33757752D02*
X55480952Y-33795847D01*
X55480952Y-33795847D02*
X55519048Y-33872038D01*
X57880952Y-35992990D02*
X57957142Y-35954895D01*
X57957142Y-35954895D02*
X58071428Y-35954895D01*
X58071428Y-35954895D02*
X58185714Y-35992990D01*
X58185714Y-35992990D02*
X58261904Y-36069180D01*
X58261904Y-36069180D02*
X58299999Y-36145371D01*
X58299999Y-36145371D02*
X58338095Y-36297752D01*
X58338095Y-36297752D02*
X58338095Y-36412038D01*
X58338095Y-36412038D02*
X58299999Y-36564419D01*
X58299999Y-36564419D02*
X58261904Y-36640609D01*
X58261904Y-36640609D02*
X58185714Y-36716800D01*
X58185714Y-36716800D02*
X58071428Y-36754895D01*
X58071428Y-36754895D02*
X57995237Y-36754895D01*
X57995237Y-36754895D02*
X57880952Y-36716800D01*
X57880952Y-36716800D02*
X57842856Y-36678704D01*
X57842856Y-36678704D02*
X57842856Y-36412038D01*
X57842856Y-36412038D02*
X57995237Y-36412038D01*
X57499999Y-36754895D02*
X57499999Y-35954895D01*
X57499999Y-35954895D02*
X57195237Y-35954895D01*
X57195237Y-35954895D02*
X57119047Y-35992990D01*
X57119047Y-35992990D02*
X57080952Y-36031085D01*
X57080952Y-36031085D02*
X57042856Y-36107276D01*
X57042856Y-36107276D02*
X57042856Y-36221561D01*
X57042856Y-36221561D02*
X57080952Y-36297752D01*
X57080952Y-36297752D02*
X57119047Y-36335847D01*
X57119047Y-36335847D02*
X57195237Y-36373942D01*
X57195237Y-36373942D02*
X57499999Y-36373942D01*
X56699999Y-36754895D02*
X56699999Y-35954895D01*
X56166666Y-35954895D02*
X56014285Y-35954895D01*
X56014285Y-35954895D02*
X55938095Y-35992990D01*
X55938095Y-35992990D02*
X55861904Y-36069180D01*
X55861904Y-36069180D02*
X55823809Y-36221561D01*
X55823809Y-36221561D02*
X55823809Y-36488228D01*
X55823809Y-36488228D02*
X55861904Y-36640609D01*
X55861904Y-36640609D02*
X55938095Y-36716800D01*
X55938095Y-36716800D02*
X56014285Y-36754895D01*
X56014285Y-36754895D02*
X56166666Y-36754895D01*
X56166666Y-36754895D02*
X56242857Y-36716800D01*
X56242857Y-36716800D02*
X56319047Y-36640609D01*
X56319047Y-36640609D02*
X56357143Y-36488228D01*
X56357143Y-36488228D02*
X56357143Y-36221561D01*
X56357143Y-36221561D02*
X56319047Y-36069180D01*
X56319047Y-36069180D02*
X56242857Y-35992990D01*
X56242857Y-35992990D02*
X56166666Y-35954895D01*
X55557143Y-35954895D02*
X55023809Y-35954895D01*
X55023809Y-35954895D02*
X55366667Y-36754895D01*
X58261904Y-38532990D02*
X58338094Y-38494895D01*
X58338094Y-38494895D02*
X58452380Y-38494895D01*
X58452380Y-38494895D02*
X58566666Y-38532990D01*
X58566666Y-38532990D02*
X58642856Y-38609180D01*
X58642856Y-38609180D02*
X58680951Y-38685371D01*
X58680951Y-38685371D02*
X58719047Y-38837752D01*
X58719047Y-38837752D02*
X58719047Y-38952038D01*
X58719047Y-38952038D02*
X58680951Y-39104419D01*
X58680951Y-39104419D02*
X58642856Y-39180609D01*
X58642856Y-39180609D02*
X58566666Y-39256800D01*
X58566666Y-39256800D02*
X58452380Y-39294895D01*
X58452380Y-39294895D02*
X58376189Y-39294895D01*
X58376189Y-39294895D02*
X58261904Y-39256800D01*
X58261904Y-39256800D02*
X58223808Y-39218704D01*
X58223808Y-39218704D02*
X58223808Y-38952038D01*
X58223808Y-38952038D02*
X58376189Y-38952038D01*
X57880951Y-39294895D02*
X57880951Y-38494895D01*
X57880951Y-38494895D02*
X57576189Y-38494895D01*
X57576189Y-38494895D02*
X57499999Y-38532990D01*
X57499999Y-38532990D02*
X57461904Y-38571085D01*
X57461904Y-38571085D02*
X57423808Y-38647276D01*
X57423808Y-38647276D02*
X57423808Y-38761561D01*
X57423808Y-38761561D02*
X57461904Y-38837752D01*
X57461904Y-38837752D02*
X57499999Y-38875847D01*
X57499999Y-38875847D02*
X57576189Y-38913942D01*
X57576189Y-38913942D02*
X57880951Y-38913942D01*
X57080951Y-39294895D02*
X57080951Y-38494895D01*
X56547618Y-38494895D02*
X56395237Y-38494895D01*
X56395237Y-38494895D02*
X56319047Y-38532990D01*
X56319047Y-38532990D02*
X56242856Y-38609180D01*
X56242856Y-38609180D02*
X56204761Y-38761561D01*
X56204761Y-38761561D02*
X56204761Y-39028228D01*
X56204761Y-39028228D02*
X56242856Y-39180609D01*
X56242856Y-39180609D02*
X56319047Y-39256800D01*
X56319047Y-39256800D02*
X56395237Y-39294895D01*
X56395237Y-39294895D02*
X56547618Y-39294895D01*
X56547618Y-39294895D02*
X56623809Y-39256800D01*
X56623809Y-39256800D02*
X56699999Y-39180609D01*
X56699999Y-39180609D02*
X56738095Y-39028228D01*
X56738095Y-39028228D02*
X56738095Y-38761561D01*
X56738095Y-38761561D02*
X56699999Y-38609180D01*
X56699999Y-38609180D02*
X56623809Y-38532990D01*
X56623809Y-38532990D02*
X56547618Y-38494895D01*
X55442857Y-39294895D02*
X55900000Y-39294895D01*
X55671428Y-39294895D02*
X55671428Y-38494895D01*
X55671428Y-38494895D02*
X55747619Y-38609180D01*
X55747619Y-38609180D02*
X55823809Y-38685371D01*
X55823809Y-38685371D02*
X55900000Y-38723466D01*
X54719047Y-38494895D02*
X55099999Y-38494895D01*
X55099999Y-38494895D02*
X55138095Y-38875847D01*
X55138095Y-38875847D02*
X55099999Y-38837752D01*
X55099999Y-38837752D02*
X55023809Y-38799657D01*
X55023809Y-38799657D02*
X54833333Y-38799657D01*
X54833333Y-38799657D02*
X54757142Y-38837752D01*
X54757142Y-38837752D02*
X54719047Y-38875847D01*
X54719047Y-38875847D02*
X54680952Y-38952038D01*
X54680952Y-38952038D02*
X54680952Y-39142514D01*
X54680952Y-39142514D02*
X54719047Y-39218704D01*
X54719047Y-39218704D02*
X54757142Y-39256800D01*
X54757142Y-39256800D02*
X54833333Y-39294895D01*
X54833333Y-39294895D02*
X55023809Y-39294895D01*
X55023809Y-39294895D02*
X55099999Y-39256800D01*
X55099999Y-39256800D02*
X55138095Y-39218704D01*
X58261904Y-41072990D02*
X58338094Y-41034895D01*
X58338094Y-41034895D02*
X58452380Y-41034895D01*
X58452380Y-41034895D02*
X58566666Y-41072990D01*
X58566666Y-41072990D02*
X58642856Y-41149180D01*
X58642856Y-41149180D02*
X58680951Y-41225371D01*
X58680951Y-41225371D02*
X58719047Y-41377752D01*
X58719047Y-41377752D02*
X58719047Y-41492038D01*
X58719047Y-41492038D02*
X58680951Y-41644419D01*
X58680951Y-41644419D02*
X58642856Y-41720609D01*
X58642856Y-41720609D02*
X58566666Y-41796800D01*
X58566666Y-41796800D02*
X58452380Y-41834895D01*
X58452380Y-41834895D02*
X58376189Y-41834895D01*
X58376189Y-41834895D02*
X58261904Y-41796800D01*
X58261904Y-41796800D02*
X58223808Y-41758704D01*
X58223808Y-41758704D02*
X58223808Y-41492038D01*
X58223808Y-41492038D02*
X58376189Y-41492038D01*
X57880951Y-41834895D02*
X57880951Y-41034895D01*
X57880951Y-41034895D02*
X57576189Y-41034895D01*
X57576189Y-41034895D02*
X57499999Y-41072990D01*
X57499999Y-41072990D02*
X57461904Y-41111085D01*
X57461904Y-41111085D02*
X57423808Y-41187276D01*
X57423808Y-41187276D02*
X57423808Y-41301561D01*
X57423808Y-41301561D02*
X57461904Y-41377752D01*
X57461904Y-41377752D02*
X57499999Y-41415847D01*
X57499999Y-41415847D02*
X57576189Y-41453942D01*
X57576189Y-41453942D02*
X57880951Y-41453942D01*
X57080951Y-41834895D02*
X57080951Y-41034895D01*
X56547618Y-41034895D02*
X56395237Y-41034895D01*
X56395237Y-41034895D02*
X56319047Y-41072990D01*
X56319047Y-41072990D02*
X56242856Y-41149180D01*
X56242856Y-41149180D02*
X56204761Y-41301561D01*
X56204761Y-41301561D02*
X56204761Y-41568228D01*
X56204761Y-41568228D02*
X56242856Y-41720609D01*
X56242856Y-41720609D02*
X56319047Y-41796800D01*
X56319047Y-41796800D02*
X56395237Y-41834895D01*
X56395237Y-41834895D02*
X56547618Y-41834895D01*
X56547618Y-41834895D02*
X56623809Y-41796800D01*
X56623809Y-41796800D02*
X56699999Y-41720609D01*
X56699999Y-41720609D02*
X56738095Y-41568228D01*
X56738095Y-41568228D02*
X56738095Y-41301561D01*
X56738095Y-41301561D02*
X56699999Y-41149180D01*
X56699999Y-41149180D02*
X56623809Y-41072990D01*
X56623809Y-41072990D02*
X56547618Y-41034895D01*
X55442857Y-41834895D02*
X55900000Y-41834895D01*
X55671428Y-41834895D02*
X55671428Y-41034895D01*
X55671428Y-41034895D02*
X55747619Y-41149180D01*
X55747619Y-41149180D02*
X55823809Y-41225371D01*
X55823809Y-41225371D02*
X55900000Y-41263466D01*
X54757142Y-41034895D02*
X54909523Y-41034895D01*
X54909523Y-41034895D02*
X54985714Y-41072990D01*
X54985714Y-41072990D02*
X55023809Y-41111085D01*
X55023809Y-41111085D02*
X55099999Y-41225371D01*
X55099999Y-41225371D02*
X55138095Y-41377752D01*
X55138095Y-41377752D02*
X55138095Y-41682514D01*
X55138095Y-41682514D02*
X55099999Y-41758704D01*
X55099999Y-41758704D02*
X55061904Y-41796800D01*
X55061904Y-41796800D02*
X54985714Y-41834895D01*
X54985714Y-41834895D02*
X54833333Y-41834895D01*
X54833333Y-41834895D02*
X54757142Y-41796800D01*
X54757142Y-41796800D02*
X54719047Y-41758704D01*
X54719047Y-41758704D02*
X54680952Y-41682514D01*
X54680952Y-41682514D02*
X54680952Y-41492038D01*
X54680952Y-41492038D02*
X54719047Y-41415847D01*
X54719047Y-41415847D02*
X54757142Y-41377752D01*
X54757142Y-41377752D02*
X54833333Y-41339657D01*
X54833333Y-41339657D02*
X54985714Y-41339657D01*
X54985714Y-41339657D02*
X55061904Y-41377752D01*
X55061904Y-41377752D02*
X55099999Y-41415847D01*
X55099999Y-41415847D02*
X55138095Y-41492038D01*
X58261904Y-43612990D02*
X58338094Y-43574895D01*
X58338094Y-43574895D02*
X58452380Y-43574895D01*
X58452380Y-43574895D02*
X58566666Y-43612990D01*
X58566666Y-43612990D02*
X58642856Y-43689180D01*
X58642856Y-43689180D02*
X58680951Y-43765371D01*
X58680951Y-43765371D02*
X58719047Y-43917752D01*
X58719047Y-43917752D02*
X58719047Y-44032038D01*
X58719047Y-44032038D02*
X58680951Y-44184419D01*
X58680951Y-44184419D02*
X58642856Y-44260609D01*
X58642856Y-44260609D02*
X58566666Y-44336800D01*
X58566666Y-44336800D02*
X58452380Y-44374895D01*
X58452380Y-44374895D02*
X58376189Y-44374895D01*
X58376189Y-44374895D02*
X58261904Y-44336800D01*
X58261904Y-44336800D02*
X58223808Y-44298704D01*
X58223808Y-44298704D02*
X58223808Y-44032038D01*
X58223808Y-44032038D02*
X58376189Y-44032038D01*
X57880951Y-44374895D02*
X57880951Y-43574895D01*
X57880951Y-43574895D02*
X57576189Y-43574895D01*
X57576189Y-43574895D02*
X57499999Y-43612990D01*
X57499999Y-43612990D02*
X57461904Y-43651085D01*
X57461904Y-43651085D02*
X57423808Y-43727276D01*
X57423808Y-43727276D02*
X57423808Y-43841561D01*
X57423808Y-43841561D02*
X57461904Y-43917752D01*
X57461904Y-43917752D02*
X57499999Y-43955847D01*
X57499999Y-43955847D02*
X57576189Y-43993942D01*
X57576189Y-43993942D02*
X57880951Y-43993942D01*
X57080951Y-44374895D02*
X57080951Y-43574895D01*
X56547618Y-43574895D02*
X56395237Y-43574895D01*
X56395237Y-43574895D02*
X56319047Y-43612990D01*
X56319047Y-43612990D02*
X56242856Y-43689180D01*
X56242856Y-43689180D02*
X56204761Y-43841561D01*
X56204761Y-43841561D02*
X56204761Y-44108228D01*
X56204761Y-44108228D02*
X56242856Y-44260609D01*
X56242856Y-44260609D02*
X56319047Y-44336800D01*
X56319047Y-44336800D02*
X56395237Y-44374895D01*
X56395237Y-44374895D02*
X56547618Y-44374895D01*
X56547618Y-44374895D02*
X56623809Y-44336800D01*
X56623809Y-44336800D02*
X56699999Y-44260609D01*
X56699999Y-44260609D02*
X56738095Y-44108228D01*
X56738095Y-44108228D02*
X56738095Y-43841561D01*
X56738095Y-43841561D02*
X56699999Y-43689180D01*
X56699999Y-43689180D02*
X56623809Y-43612990D01*
X56623809Y-43612990D02*
X56547618Y-43574895D01*
X55442857Y-44374895D02*
X55900000Y-44374895D01*
X55671428Y-44374895D02*
X55671428Y-43574895D01*
X55671428Y-43574895D02*
X55747619Y-43689180D01*
X55747619Y-43689180D02*
X55823809Y-43765371D01*
X55823809Y-43765371D02*
X55900000Y-43803466D01*
X55176190Y-43574895D02*
X54642856Y-43574895D01*
X54642856Y-43574895D02*
X54985714Y-44374895D01*
X58261904Y-46152990D02*
X58338094Y-46114895D01*
X58338094Y-46114895D02*
X58452380Y-46114895D01*
X58452380Y-46114895D02*
X58566666Y-46152990D01*
X58566666Y-46152990D02*
X58642856Y-46229180D01*
X58642856Y-46229180D02*
X58680951Y-46305371D01*
X58680951Y-46305371D02*
X58719047Y-46457752D01*
X58719047Y-46457752D02*
X58719047Y-46572038D01*
X58719047Y-46572038D02*
X58680951Y-46724419D01*
X58680951Y-46724419D02*
X58642856Y-46800609D01*
X58642856Y-46800609D02*
X58566666Y-46876800D01*
X58566666Y-46876800D02*
X58452380Y-46914895D01*
X58452380Y-46914895D02*
X58376189Y-46914895D01*
X58376189Y-46914895D02*
X58261904Y-46876800D01*
X58261904Y-46876800D02*
X58223808Y-46838704D01*
X58223808Y-46838704D02*
X58223808Y-46572038D01*
X58223808Y-46572038D02*
X58376189Y-46572038D01*
X57880951Y-46914895D02*
X57880951Y-46114895D01*
X57880951Y-46114895D02*
X57576189Y-46114895D01*
X57576189Y-46114895D02*
X57499999Y-46152990D01*
X57499999Y-46152990D02*
X57461904Y-46191085D01*
X57461904Y-46191085D02*
X57423808Y-46267276D01*
X57423808Y-46267276D02*
X57423808Y-46381561D01*
X57423808Y-46381561D02*
X57461904Y-46457752D01*
X57461904Y-46457752D02*
X57499999Y-46495847D01*
X57499999Y-46495847D02*
X57576189Y-46533942D01*
X57576189Y-46533942D02*
X57880951Y-46533942D01*
X57080951Y-46914895D02*
X57080951Y-46114895D01*
X56547618Y-46114895D02*
X56395237Y-46114895D01*
X56395237Y-46114895D02*
X56319047Y-46152990D01*
X56319047Y-46152990D02*
X56242856Y-46229180D01*
X56242856Y-46229180D02*
X56204761Y-46381561D01*
X56204761Y-46381561D02*
X56204761Y-46648228D01*
X56204761Y-46648228D02*
X56242856Y-46800609D01*
X56242856Y-46800609D02*
X56319047Y-46876800D01*
X56319047Y-46876800D02*
X56395237Y-46914895D01*
X56395237Y-46914895D02*
X56547618Y-46914895D01*
X56547618Y-46914895D02*
X56623809Y-46876800D01*
X56623809Y-46876800D02*
X56699999Y-46800609D01*
X56699999Y-46800609D02*
X56738095Y-46648228D01*
X56738095Y-46648228D02*
X56738095Y-46381561D01*
X56738095Y-46381561D02*
X56699999Y-46229180D01*
X56699999Y-46229180D02*
X56623809Y-46152990D01*
X56623809Y-46152990D02*
X56547618Y-46114895D01*
X55442857Y-46914895D02*
X55900000Y-46914895D01*
X55671428Y-46914895D02*
X55671428Y-46114895D01*
X55671428Y-46114895D02*
X55747619Y-46229180D01*
X55747619Y-46229180D02*
X55823809Y-46305371D01*
X55823809Y-46305371D02*
X55900000Y-46343466D01*
X54985714Y-46457752D02*
X55061904Y-46419657D01*
X55061904Y-46419657D02*
X55099999Y-46381561D01*
X55099999Y-46381561D02*
X55138095Y-46305371D01*
X55138095Y-46305371D02*
X55138095Y-46267276D01*
X55138095Y-46267276D02*
X55099999Y-46191085D01*
X55099999Y-46191085D02*
X55061904Y-46152990D01*
X55061904Y-46152990D02*
X54985714Y-46114895D01*
X54985714Y-46114895D02*
X54833333Y-46114895D01*
X54833333Y-46114895D02*
X54757142Y-46152990D01*
X54757142Y-46152990D02*
X54719047Y-46191085D01*
X54719047Y-46191085D02*
X54680952Y-46267276D01*
X54680952Y-46267276D02*
X54680952Y-46305371D01*
X54680952Y-46305371D02*
X54719047Y-46381561D01*
X54719047Y-46381561D02*
X54757142Y-46419657D01*
X54757142Y-46419657D02*
X54833333Y-46457752D01*
X54833333Y-46457752D02*
X54985714Y-46457752D01*
X54985714Y-46457752D02*
X55061904Y-46495847D01*
X55061904Y-46495847D02*
X55099999Y-46533942D01*
X55099999Y-46533942D02*
X55138095Y-46610133D01*
X55138095Y-46610133D02*
X55138095Y-46762514D01*
X55138095Y-46762514D02*
X55099999Y-46838704D01*
X55099999Y-46838704D02*
X55061904Y-46876800D01*
X55061904Y-46876800D02*
X54985714Y-46914895D01*
X54985714Y-46914895D02*
X54833333Y-46914895D01*
X54833333Y-46914895D02*
X54757142Y-46876800D01*
X54757142Y-46876800D02*
X54719047Y-46838704D01*
X54719047Y-46838704D02*
X54680952Y-46762514D01*
X54680952Y-46762514D02*
X54680952Y-46610133D01*
X54680952Y-46610133D02*
X54719047Y-46533942D01*
X54719047Y-46533942D02*
X54757142Y-46495847D01*
X54757142Y-46495847D02*
X54833333Y-46457752D01*
X57880952Y-48692990D02*
X57957142Y-48654895D01*
X57957142Y-48654895D02*
X58071428Y-48654895D01*
X58071428Y-48654895D02*
X58185714Y-48692990D01*
X58185714Y-48692990D02*
X58261904Y-48769180D01*
X58261904Y-48769180D02*
X58299999Y-48845371D01*
X58299999Y-48845371D02*
X58338095Y-48997752D01*
X58338095Y-48997752D02*
X58338095Y-49112038D01*
X58338095Y-49112038D02*
X58299999Y-49264419D01*
X58299999Y-49264419D02*
X58261904Y-49340609D01*
X58261904Y-49340609D02*
X58185714Y-49416800D01*
X58185714Y-49416800D02*
X58071428Y-49454895D01*
X58071428Y-49454895D02*
X57995237Y-49454895D01*
X57995237Y-49454895D02*
X57880952Y-49416800D01*
X57880952Y-49416800D02*
X57842856Y-49378704D01*
X57842856Y-49378704D02*
X57842856Y-49112038D01*
X57842856Y-49112038D02*
X57995237Y-49112038D01*
X57499999Y-49454895D02*
X57499999Y-48654895D01*
X57499999Y-48654895D02*
X57195237Y-48654895D01*
X57195237Y-48654895D02*
X57119047Y-48692990D01*
X57119047Y-48692990D02*
X57080952Y-48731085D01*
X57080952Y-48731085D02*
X57042856Y-48807276D01*
X57042856Y-48807276D02*
X57042856Y-48921561D01*
X57042856Y-48921561D02*
X57080952Y-48997752D01*
X57080952Y-48997752D02*
X57119047Y-49035847D01*
X57119047Y-49035847D02*
X57195237Y-49073942D01*
X57195237Y-49073942D02*
X57499999Y-49073942D01*
X56699999Y-49454895D02*
X56699999Y-48654895D01*
X56166666Y-48654895D02*
X56014285Y-48654895D01*
X56014285Y-48654895D02*
X55938095Y-48692990D01*
X55938095Y-48692990D02*
X55861904Y-48769180D01*
X55861904Y-48769180D02*
X55823809Y-48921561D01*
X55823809Y-48921561D02*
X55823809Y-49188228D01*
X55823809Y-49188228D02*
X55861904Y-49340609D01*
X55861904Y-49340609D02*
X55938095Y-49416800D01*
X55938095Y-49416800D02*
X56014285Y-49454895D01*
X56014285Y-49454895D02*
X56166666Y-49454895D01*
X56166666Y-49454895D02*
X56242857Y-49416800D01*
X56242857Y-49416800D02*
X56319047Y-49340609D01*
X56319047Y-49340609D02*
X56357143Y-49188228D01*
X56357143Y-49188228D02*
X56357143Y-48921561D01*
X56357143Y-48921561D02*
X56319047Y-48769180D01*
X56319047Y-48769180D02*
X56242857Y-48692990D01*
X56242857Y-48692990D02*
X56166666Y-48654895D01*
X55366667Y-48997752D02*
X55442857Y-48959657D01*
X55442857Y-48959657D02*
X55480952Y-48921561D01*
X55480952Y-48921561D02*
X55519048Y-48845371D01*
X55519048Y-48845371D02*
X55519048Y-48807276D01*
X55519048Y-48807276D02*
X55480952Y-48731085D01*
X55480952Y-48731085D02*
X55442857Y-48692990D01*
X55442857Y-48692990D02*
X55366667Y-48654895D01*
X55366667Y-48654895D02*
X55214286Y-48654895D01*
X55214286Y-48654895D02*
X55138095Y-48692990D01*
X55138095Y-48692990D02*
X55100000Y-48731085D01*
X55100000Y-48731085D02*
X55061905Y-48807276D01*
X55061905Y-48807276D02*
X55061905Y-48845371D01*
X55061905Y-48845371D02*
X55100000Y-48921561D01*
X55100000Y-48921561D02*
X55138095Y-48959657D01*
X55138095Y-48959657D02*
X55214286Y-48997752D01*
X55214286Y-48997752D02*
X55366667Y-48997752D01*
X55366667Y-48997752D02*
X55442857Y-49035847D01*
X55442857Y-49035847D02*
X55480952Y-49073942D01*
X55480952Y-49073942D02*
X55519048Y-49150133D01*
X55519048Y-49150133D02*
X55519048Y-49302514D01*
X55519048Y-49302514D02*
X55480952Y-49378704D01*
X55480952Y-49378704D02*
X55442857Y-49416800D01*
X55442857Y-49416800D02*
X55366667Y-49454895D01*
X55366667Y-49454895D02*
X55214286Y-49454895D01*
X55214286Y-49454895D02*
X55138095Y-49416800D01*
X55138095Y-49416800D02*
X55100000Y-49378704D01*
X55100000Y-49378704D02*
X55061905Y-49302514D01*
X55061905Y-49302514D02*
X55061905Y-49150133D01*
X55061905Y-49150133D02*
X55100000Y-49073942D01*
X55100000Y-49073942D02*
X55138095Y-49035847D01*
X55138095Y-49035847D02*
X55214286Y-48997752D01*
X59461904Y-51232990D02*
X59538094Y-51194895D01*
X59538094Y-51194895D02*
X59652380Y-51194895D01*
X59652380Y-51194895D02*
X59766666Y-51232990D01*
X59766666Y-51232990D02*
X59842856Y-51309180D01*
X59842856Y-51309180D02*
X59880951Y-51385371D01*
X59880951Y-51385371D02*
X59919047Y-51537752D01*
X59919047Y-51537752D02*
X59919047Y-51652038D01*
X59919047Y-51652038D02*
X59880951Y-51804419D01*
X59880951Y-51804419D02*
X59842856Y-51880609D01*
X59842856Y-51880609D02*
X59766666Y-51956800D01*
X59766666Y-51956800D02*
X59652380Y-51994895D01*
X59652380Y-51994895D02*
X59576189Y-51994895D01*
X59576189Y-51994895D02*
X59461904Y-51956800D01*
X59461904Y-51956800D02*
X59423808Y-51918704D01*
X59423808Y-51918704D02*
X59423808Y-51652038D01*
X59423808Y-51652038D02*
X59576189Y-51652038D01*
X59080951Y-51994895D02*
X59080951Y-51194895D01*
X59080951Y-51194895D02*
X58776189Y-51194895D01*
X58776189Y-51194895D02*
X58699999Y-51232990D01*
X58699999Y-51232990D02*
X58661904Y-51271085D01*
X58661904Y-51271085D02*
X58623808Y-51347276D01*
X58623808Y-51347276D02*
X58623808Y-51461561D01*
X58623808Y-51461561D02*
X58661904Y-51537752D01*
X58661904Y-51537752D02*
X58699999Y-51575847D01*
X58699999Y-51575847D02*
X58776189Y-51613942D01*
X58776189Y-51613942D02*
X59080951Y-51613942D01*
X58280951Y-51994895D02*
X58280951Y-51194895D01*
X57747618Y-51194895D02*
X57595237Y-51194895D01*
X57595237Y-51194895D02*
X57519047Y-51232990D01*
X57519047Y-51232990D02*
X57442856Y-51309180D01*
X57442856Y-51309180D02*
X57404761Y-51461561D01*
X57404761Y-51461561D02*
X57404761Y-51728228D01*
X57404761Y-51728228D02*
X57442856Y-51880609D01*
X57442856Y-51880609D02*
X57519047Y-51956800D01*
X57519047Y-51956800D02*
X57595237Y-51994895D01*
X57595237Y-51994895D02*
X57747618Y-51994895D01*
X57747618Y-51994895D02*
X57823809Y-51956800D01*
X57823809Y-51956800D02*
X57899999Y-51880609D01*
X57899999Y-51880609D02*
X57938095Y-51728228D01*
X57938095Y-51728228D02*
X57938095Y-51461561D01*
X57938095Y-51461561D02*
X57899999Y-51309180D01*
X57899999Y-51309180D02*
X57823809Y-51232990D01*
X57823809Y-51232990D02*
X57747618Y-51194895D01*
X56642857Y-51994895D02*
X57100000Y-51994895D01*
X56871428Y-51994895D02*
X56871428Y-51194895D01*
X56871428Y-51194895D02*
X56947619Y-51309180D01*
X56947619Y-51309180D02*
X57023809Y-51385371D01*
X57023809Y-51385371D02*
X57100000Y-51423466D01*
X56261904Y-51994895D02*
X56109523Y-51994895D01*
X56109523Y-51994895D02*
X56033333Y-51956800D01*
X56033333Y-51956800D02*
X55995237Y-51918704D01*
X55995237Y-51918704D02*
X55919047Y-51804419D01*
X55919047Y-51804419D02*
X55880952Y-51652038D01*
X55880952Y-51652038D02*
X55880952Y-51347276D01*
X55880952Y-51347276D02*
X55919047Y-51271085D01*
X55919047Y-51271085D02*
X55957142Y-51232990D01*
X55957142Y-51232990D02*
X56033333Y-51194895D01*
X56033333Y-51194895D02*
X56185714Y-51194895D01*
X56185714Y-51194895D02*
X56261904Y-51232990D01*
X56261904Y-51232990D02*
X56299999Y-51271085D01*
X56299999Y-51271085D02*
X56338095Y-51347276D01*
X56338095Y-51347276D02*
X56338095Y-51537752D01*
X56338095Y-51537752D02*
X56299999Y-51613942D01*
X56299999Y-51613942D02*
X56261904Y-51652038D01*
X56261904Y-51652038D02*
X56185714Y-51690133D01*
X56185714Y-51690133D02*
X56033333Y-51690133D01*
X56033333Y-51690133D02*
X55957142Y-51652038D01*
X55957142Y-51652038D02*
X55919047Y-51613942D01*
X55919047Y-51613942D02*
X55880952Y-51537752D01*
X54928570Y-51994895D02*
X54928570Y-51194895D01*
X54928570Y-51194895D02*
X54738094Y-51194895D01*
X54738094Y-51194895D02*
X54623808Y-51232990D01*
X54623808Y-51232990D02*
X54547618Y-51309180D01*
X54547618Y-51309180D02*
X54509523Y-51385371D01*
X54509523Y-51385371D02*
X54471427Y-51537752D01*
X54471427Y-51537752D02*
X54471427Y-51652038D01*
X54471427Y-51652038D02*
X54509523Y-51804419D01*
X54509523Y-51804419D02*
X54547618Y-51880609D01*
X54547618Y-51880609D02*
X54623808Y-51956800D01*
X54623808Y-51956800D02*
X54738094Y-51994895D01*
X54738094Y-51994895D02*
X54928570Y-51994895D01*
X54128570Y-51690133D02*
X53519047Y-51690133D01*
X59461904Y-53772990D02*
X59538094Y-53734895D01*
X59538094Y-53734895D02*
X59652380Y-53734895D01*
X59652380Y-53734895D02*
X59766666Y-53772990D01*
X59766666Y-53772990D02*
X59842856Y-53849180D01*
X59842856Y-53849180D02*
X59880951Y-53925371D01*
X59880951Y-53925371D02*
X59919047Y-54077752D01*
X59919047Y-54077752D02*
X59919047Y-54192038D01*
X59919047Y-54192038D02*
X59880951Y-54344419D01*
X59880951Y-54344419D02*
X59842856Y-54420609D01*
X59842856Y-54420609D02*
X59766666Y-54496800D01*
X59766666Y-54496800D02*
X59652380Y-54534895D01*
X59652380Y-54534895D02*
X59576189Y-54534895D01*
X59576189Y-54534895D02*
X59461904Y-54496800D01*
X59461904Y-54496800D02*
X59423808Y-54458704D01*
X59423808Y-54458704D02*
X59423808Y-54192038D01*
X59423808Y-54192038D02*
X59576189Y-54192038D01*
X59080951Y-54534895D02*
X59080951Y-53734895D01*
X59080951Y-53734895D02*
X58776189Y-53734895D01*
X58776189Y-53734895D02*
X58699999Y-53772990D01*
X58699999Y-53772990D02*
X58661904Y-53811085D01*
X58661904Y-53811085D02*
X58623808Y-53887276D01*
X58623808Y-53887276D02*
X58623808Y-54001561D01*
X58623808Y-54001561D02*
X58661904Y-54077752D01*
X58661904Y-54077752D02*
X58699999Y-54115847D01*
X58699999Y-54115847D02*
X58776189Y-54153942D01*
X58776189Y-54153942D02*
X59080951Y-54153942D01*
X58280951Y-54534895D02*
X58280951Y-53734895D01*
X57747618Y-53734895D02*
X57595237Y-53734895D01*
X57595237Y-53734895D02*
X57519047Y-53772990D01*
X57519047Y-53772990D02*
X57442856Y-53849180D01*
X57442856Y-53849180D02*
X57404761Y-54001561D01*
X57404761Y-54001561D02*
X57404761Y-54268228D01*
X57404761Y-54268228D02*
X57442856Y-54420609D01*
X57442856Y-54420609D02*
X57519047Y-54496800D01*
X57519047Y-54496800D02*
X57595237Y-54534895D01*
X57595237Y-54534895D02*
X57747618Y-54534895D01*
X57747618Y-54534895D02*
X57823809Y-54496800D01*
X57823809Y-54496800D02*
X57899999Y-54420609D01*
X57899999Y-54420609D02*
X57938095Y-54268228D01*
X57938095Y-54268228D02*
X57938095Y-54001561D01*
X57938095Y-54001561D02*
X57899999Y-53849180D01*
X57899999Y-53849180D02*
X57823809Y-53772990D01*
X57823809Y-53772990D02*
X57747618Y-53734895D01*
X57100000Y-53811085D02*
X57061904Y-53772990D01*
X57061904Y-53772990D02*
X56985714Y-53734895D01*
X56985714Y-53734895D02*
X56795238Y-53734895D01*
X56795238Y-53734895D02*
X56719047Y-53772990D01*
X56719047Y-53772990D02*
X56680952Y-53811085D01*
X56680952Y-53811085D02*
X56642857Y-53887276D01*
X56642857Y-53887276D02*
X56642857Y-53963466D01*
X56642857Y-53963466D02*
X56680952Y-54077752D01*
X56680952Y-54077752D02*
X57138095Y-54534895D01*
X57138095Y-54534895D02*
X56642857Y-54534895D01*
X56147618Y-53734895D02*
X56071428Y-53734895D01*
X56071428Y-53734895D02*
X55995237Y-53772990D01*
X55995237Y-53772990D02*
X55957142Y-53811085D01*
X55957142Y-53811085D02*
X55919047Y-53887276D01*
X55919047Y-53887276D02*
X55880952Y-54039657D01*
X55880952Y-54039657D02*
X55880952Y-54230133D01*
X55880952Y-54230133D02*
X55919047Y-54382514D01*
X55919047Y-54382514D02*
X55957142Y-54458704D01*
X55957142Y-54458704D02*
X55995237Y-54496800D01*
X55995237Y-54496800D02*
X56071428Y-54534895D01*
X56071428Y-54534895D02*
X56147618Y-54534895D01*
X56147618Y-54534895D02*
X56223809Y-54496800D01*
X56223809Y-54496800D02*
X56261904Y-54458704D01*
X56261904Y-54458704D02*
X56299999Y-54382514D01*
X56299999Y-54382514D02*
X56338095Y-54230133D01*
X56338095Y-54230133D02*
X56338095Y-54039657D01*
X56338095Y-54039657D02*
X56299999Y-53887276D01*
X56299999Y-53887276D02*
X56261904Y-53811085D01*
X56261904Y-53811085D02*
X56223809Y-53772990D01*
X56223809Y-53772990D02*
X56147618Y-53734895D01*
X54928570Y-54534895D02*
X54928570Y-53734895D01*
X54928570Y-53734895D02*
X54738094Y-53734895D01*
X54738094Y-53734895D02*
X54623808Y-53772990D01*
X54623808Y-53772990D02*
X54547618Y-53849180D01*
X54547618Y-53849180D02*
X54509523Y-53925371D01*
X54509523Y-53925371D02*
X54471427Y-54077752D01*
X54471427Y-54077752D02*
X54471427Y-54192038D01*
X54471427Y-54192038D02*
X54509523Y-54344419D01*
X54509523Y-54344419D02*
X54547618Y-54420609D01*
X54547618Y-54420609D02*
X54623808Y-54496800D01*
X54623808Y-54496800D02*
X54738094Y-54534895D01*
X54738094Y-54534895D02*
X54928570Y-54534895D01*
X54128570Y-54230133D02*
X53519047Y-54230133D01*
X53823808Y-54534895D02*
X53823808Y-53925371D01*
X77733333Y-77364895D02*
X77276190Y-77364895D01*
X77504762Y-78164895D02*
X77504762Y-77364895D01*
X77009523Y-78164895D02*
X77009523Y-77364895D01*
X77009523Y-77364895D02*
X76704761Y-77364895D01*
X76704761Y-77364895D02*
X76628571Y-77402990D01*
X76628571Y-77402990D02*
X76590476Y-77441085D01*
X76590476Y-77441085D02*
X76552380Y-77517276D01*
X76552380Y-77517276D02*
X76552380Y-77631561D01*
X76552380Y-77631561D02*
X76590476Y-77707752D01*
X76590476Y-77707752D02*
X76628571Y-77745847D01*
X76628571Y-77745847D02*
X76704761Y-77783942D01*
X76704761Y-77783942D02*
X77009523Y-77783942D01*
X76285714Y-77364895D02*
X75790476Y-77364895D01*
X75790476Y-77364895D02*
X76057142Y-77669657D01*
X76057142Y-77669657D02*
X75942857Y-77669657D01*
X75942857Y-77669657D02*
X75866666Y-77707752D01*
X75866666Y-77707752D02*
X75828571Y-77745847D01*
X75828571Y-77745847D02*
X75790476Y-77822038D01*
X75790476Y-77822038D02*
X75790476Y-78012514D01*
X75790476Y-78012514D02*
X75828571Y-78088704D01*
X75828571Y-78088704D02*
X75866666Y-78126800D01*
X75866666Y-78126800D02*
X75942857Y-78164895D01*
X75942857Y-78164895D02*
X76171428Y-78164895D01*
X76171428Y-78164895D02*
X76247619Y-78126800D01*
X76247619Y-78126800D02*
X76285714Y-78088704D01*
X75561904Y-77364895D02*
X75295237Y-78164895D01*
X75295237Y-78164895D02*
X75028571Y-77364895D01*
X74838095Y-77364895D02*
X74342857Y-77364895D01*
X74342857Y-77364895D02*
X74609523Y-77669657D01*
X74609523Y-77669657D02*
X74495238Y-77669657D01*
X74495238Y-77669657D02*
X74419047Y-77707752D01*
X74419047Y-77707752D02*
X74380952Y-77745847D01*
X74380952Y-77745847D02*
X74342857Y-77822038D01*
X74342857Y-77822038D02*
X74342857Y-78012514D01*
X74342857Y-78012514D02*
X74380952Y-78088704D01*
X74380952Y-78088704D02*
X74419047Y-78126800D01*
X74419047Y-78126800D02*
X74495238Y-78164895D01*
X74495238Y-78164895D02*
X74723809Y-78164895D01*
X74723809Y-78164895D02*
X74800000Y-78126800D01*
X74800000Y-78126800D02*
X74838095Y-78088704D01*
X113209523Y-20752990D02*
X113285713Y-20714895D01*
X113285713Y-20714895D02*
X113399999Y-20714895D01*
X113399999Y-20714895D02*
X113514285Y-20752990D01*
X113514285Y-20752990D02*
X113590475Y-20829180D01*
X113590475Y-20829180D02*
X113628570Y-20905371D01*
X113628570Y-20905371D02*
X113666666Y-21057752D01*
X113666666Y-21057752D02*
X113666666Y-21172038D01*
X113666666Y-21172038D02*
X113628570Y-21324419D01*
X113628570Y-21324419D02*
X113590475Y-21400609D01*
X113590475Y-21400609D02*
X113514285Y-21476800D01*
X113514285Y-21476800D02*
X113399999Y-21514895D01*
X113399999Y-21514895D02*
X113323808Y-21514895D01*
X113323808Y-21514895D02*
X113209523Y-21476800D01*
X113209523Y-21476800D02*
X113171427Y-21438704D01*
X113171427Y-21438704D02*
X113171427Y-21172038D01*
X113171427Y-21172038D02*
X113323808Y-21172038D01*
X112828570Y-21514895D02*
X112828570Y-20714895D01*
X112828570Y-20714895D02*
X112371427Y-21514895D01*
X112371427Y-21514895D02*
X112371427Y-20714895D01*
X111990475Y-21514895D02*
X111990475Y-20714895D01*
X111990475Y-20714895D02*
X111799999Y-20714895D01*
X111799999Y-20714895D02*
X111685713Y-20752990D01*
X111685713Y-20752990D02*
X111609523Y-20829180D01*
X111609523Y-20829180D02*
X111571428Y-20905371D01*
X111571428Y-20905371D02*
X111533332Y-21057752D01*
X111533332Y-21057752D02*
X111533332Y-21172038D01*
X111533332Y-21172038D02*
X111571428Y-21324419D01*
X111571428Y-21324419D02*
X111609523Y-21400609D01*
X111609523Y-21400609D02*
X111685713Y-21476800D01*
X111685713Y-21476800D02*
X111799999Y-21514895D01*
X111799999Y-21514895D02*
X111990475Y-21514895D01*
X115247619Y-23292990D02*
X115323809Y-23254895D01*
X115323809Y-23254895D02*
X115438095Y-23254895D01*
X115438095Y-23254895D02*
X115552381Y-23292990D01*
X115552381Y-23292990D02*
X115628571Y-23369180D01*
X115628571Y-23369180D02*
X115666666Y-23445371D01*
X115666666Y-23445371D02*
X115704762Y-23597752D01*
X115704762Y-23597752D02*
X115704762Y-23712038D01*
X115704762Y-23712038D02*
X115666666Y-23864419D01*
X115666666Y-23864419D02*
X115628571Y-23940609D01*
X115628571Y-23940609D02*
X115552381Y-24016800D01*
X115552381Y-24016800D02*
X115438095Y-24054895D01*
X115438095Y-24054895D02*
X115361904Y-24054895D01*
X115361904Y-24054895D02*
X115247619Y-24016800D01*
X115247619Y-24016800D02*
X115209523Y-23978704D01*
X115209523Y-23978704D02*
X115209523Y-23712038D01*
X115209523Y-23712038D02*
X115361904Y-23712038D01*
X114866666Y-24054895D02*
X114866666Y-23254895D01*
X114866666Y-23254895D02*
X114561904Y-23254895D01*
X114561904Y-23254895D02*
X114485714Y-23292990D01*
X114485714Y-23292990D02*
X114447619Y-23331085D01*
X114447619Y-23331085D02*
X114409523Y-23407276D01*
X114409523Y-23407276D02*
X114409523Y-23521561D01*
X114409523Y-23521561D02*
X114447619Y-23597752D01*
X114447619Y-23597752D02*
X114485714Y-23635847D01*
X114485714Y-23635847D02*
X114561904Y-23673942D01*
X114561904Y-23673942D02*
X114866666Y-23673942D01*
X114066666Y-24054895D02*
X114066666Y-23254895D01*
X113533333Y-23254895D02*
X113380952Y-23254895D01*
X113380952Y-23254895D02*
X113304762Y-23292990D01*
X113304762Y-23292990D02*
X113228571Y-23369180D01*
X113228571Y-23369180D02*
X113190476Y-23521561D01*
X113190476Y-23521561D02*
X113190476Y-23788228D01*
X113190476Y-23788228D02*
X113228571Y-23940609D01*
X113228571Y-23940609D02*
X113304762Y-24016800D01*
X113304762Y-24016800D02*
X113380952Y-24054895D01*
X113380952Y-24054895D02*
X113533333Y-24054895D01*
X113533333Y-24054895D02*
X113609524Y-24016800D01*
X113609524Y-24016800D02*
X113685714Y-23940609D01*
X113685714Y-23940609D02*
X113723810Y-23788228D01*
X113723810Y-23788228D02*
X113723810Y-23521561D01*
X113723810Y-23521561D02*
X113685714Y-23369180D01*
X113685714Y-23369180D02*
X113609524Y-23292990D01*
X113609524Y-23292990D02*
X113533333Y-23254895D01*
X112428572Y-24054895D02*
X112885715Y-24054895D01*
X112657143Y-24054895D02*
X112657143Y-23254895D01*
X112657143Y-23254895D02*
X112733334Y-23369180D01*
X112733334Y-23369180D02*
X112809524Y-23445371D01*
X112809524Y-23445371D02*
X112885715Y-23483466D01*
X111514286Y-24016800D02*
X111400000Y-24054895D01*
X111400000Y-24054895D02*
X111209524Y-24054895D01*
X111209524Y-24054895D02*
X111133333Y-24016800D01*
X111133333Y-24016800D02*
X111095238Y-23978704D01*
X111095238Y-23978704D02*
X111057143Y-23902514D01*
X111057143Y-23902514D02*
X111057143Y-23826323D01*
X111057143Y-23826323D02*
X111095238Y-23750133D01*
X111095238Y-23750133D02*
X111133333Y-23712038D01*
X111133333Y-23712038D02*
X111209524Y-23673942D01*
X111209524Y-23673942D02*
X111361905Y-23635847D01*
X111361905Y-23635847D02*
X111438095Y-23597752D01*
X111438095Y-23597752D02*
X111476190Y-23559657D01*
X111476190Y-23559657D02*
X111514286Y-23483466D01*
X111514286Y-23483466D02*
X111514286Y-23407276D01*
X111514286Y-23407276D02*
X111476190Y-23331085D01*
X111476190Y-23331085D02*
X111438095Y-23292990D01*
X111438095Y-23292990D02*
X111361905Y-23254895D01*
X111361905Y-23254895D02*
X111171428Y-23254895D01*
X111171428Y-23254895D02*
X111057143Y-23292990D01*
X110752381Y-24016800D02*
X110638095Y-24054895D01*
X110638095Y-24054895D02*
X110447619Y-24054895D01*
X110447619Y-24054895D02*
X110371428Y-24016800D01*
X110371428Y-24016800D02*
X110333333Y-23978704D01*
X110333333Y-23978704D02*
X110295238Y-23902514D01*
X110295238Y-23902514D02*
X110295238Y-23826323D01*
X110295238Y-23826323D02*
X110333333Y-23750133D01*
X110333333Y-23750133D02*
X110371428Y-23712038D01*
X110371428Y-23712038D02*
X110447619Y-23673942D01*
X110447619Y-23673942D02*
X110600000Y-23635847D01*
X110600000Y-23635847D02*
X110676190Y-23597752D01*
X110676190Y-23597752D02*
X110714285Y-23559657D01*
X110714285Y-23559657D02*
X110752381Y-23483466D01*
X110752381Y-23483466D02*
X110752381Y-23407276D01*
X110752381Y-23407276D02*
X110714285Y-23331085D01*
X110714285Y-23331085D02*
X110676190Y-23292990D01*
X110676190Y-23292990D02*
X110600000Y-23254895D01*
X110600000Y-23254895D02*
X110409523Y-23254895D01*
X110409523Y-23254895D02*
X110295238Y-23292990D01*
X109495237Y-24054895D02*
X109761904Y-23673942D01*
X109952380Y-24054895D02*
X109952380Y-23254895D01*
X109952380Y-23254895D02*
X109647618Y-23254895D01*
X109647618Y-23254895D02*
X109571428Y-23292990D01*
X109571428Y-23292990D02*
X109533333Y-23331085D01*
X109533333Y-23331085D02*
X109495237Y-23407276D01*
X109495237Y-23407276D02*
X109495237Y-23521561D01*
X109495237Y-23521561D02*
X109533333Y-23597752D01*
X109533333Y-23597752D02*
X109571428Y-23635847D01*
X109571428Y-23635847D02*
X109647618Y-23673942D01*
X109647618Y-23673942D02*
X109952380Y-23673942D01*
X115190475Y-25832990D02*
X115266665Y-25794895D01*
X115266665Y-25794895D02*
X115380951Y-25794895D01*
X115380951Y-25794895D02*
X115495237Y-25832990D01*
X115495237Y-25832990D02*
X115571427Y-25909180D01*
X115571427Y-25909180D02*
X115609522Y-25985371D01*
X115609522Y-25985371D02*
X115647618Y-26137752D01*
X115647618Y-26137752D02*
X115647618Y-26252038D01*
X115647618Y-26252038D02*
X115609522Y-26404419D01*
X115609522Y-26404419D02*
X115571427Y-26480609D01*
X115571427Y-26480609D02*
X115495237Y-26556800D01*
X115495237Y-26556800D02*
X115380951Y-26594895D01*
X115380951Y-26594895D02*
X115304760Y-26594895D01*
X115304760Y-26594895D02*
X115190475Y-26556800D01*
X115190475Y-26556800D02*
X115152379Y-26518704D01*
X115152379Y-26518704D02*
X115152379Y-26252038D01*
X115152379Y-26252038D02*
X115304760Y-26252038D01*
X114809522Y-26594895D02*
X114809522Y-25794895D01*
X114809522Y-25794895D02*
X114504760Y-25794895D01*
X114504760Y-25794895D02*
X114428570Y-25832990D01*
X114428570Y-25832990D02*
X114390475Y-25871085D01*
X114390475Y-25871085D02*
X114352379Y-25947276D01*
X114352379Y-25947276D02*
X114352379Y-26061561D01*
X114352379Y-26061561D02*
X114390475Y-26137752D01*
X114390475Y-26137752D02*
X114428570Y-26175847D01*
X114428570Y-26175847D02*
X114504760Y-26213942D01*
X114504760Y-26213942D02*
X114809522Y-26213942D01*
X114009522Y-26594895D02*
X114009522Y-25794895D01*
X113476189Y-25794895D02*
X113323808Y-25794895D01*
X113323808Y-25794895D02*
X113247618Y-25832990D01*
X113247618Y-25832990D02*
X113171427Y-25909180D01*
X113171427Y-25909180D02*
X113133332Y-26061561D01*
X113133332Y-26061561D02*
X113133332Y-26328228D01*
X113133332Y-26328228D02*
X113171427Y-26480609D01*
X113171427Y-26480609D02*
X113247618Y-26556800D01*
X113247618Y-26556800D02*
X113323808Y-26594895D01*
X113323808Y-26594895D02*
X113476189Y-26594895D01*
X113476189Y-26594895D02*
X113552380Y-26556800D01*
X113552380Y-26556800D02*
X113628570Y-26480609D01*
X113628570Y-26480609D02*
X113666666Y-26328228D01*
X113666666Y-26328228D02*
X113666666Y-26061561D01*
X113666666Y-26061561D02*
X113628570Y-25909180D01*
X113628570Y-25909180D02*
X113552380Y-25832990D01*
X113552380Y-25832990D02*
X113476189Y-25794895D01*
X112828571Y-25871085D02*
X112790475Y-25832990D01*
X112790475Y-25832990D02*
X112714285Y-25794895D01*
X112714285Y-25794895D02*
X112523809Y-25794895D01*
X112523809Y-25794895D02*
X112447618Y-25832990D01*
X112447618Y-25832990D02*
X112409523Y-25871085D01*
X112409523Y-25871085D02*
X112371428Y-25947276D01*
X112371428Y-25947276D02*
X112371428Y-26023466D01*
X112371428Y-26023466D02*
X112409523Y-26137752D01*
X112409523Y-26137752D02*
X112866666Y-26594895D01*
X112866666Y-26594895D02*
X112371428Y-26594895D01*
X111152380Y-26175847D02*
X111419046Y-26175847D01*
X111419046Y-26594895D02*
X111419046Y-25794895D01*
X111419046Y-25794895D02*
X111038094Y-25794895D01*
X110771428Y-26366323D02*
X110390475Y-26366323D01*
X110847618Y-26594895D02*
X110580951Y-25794895D01*
X110580951Y-25794895D02*
X110314285Y-26594895D01*
X110047618Y-26594895D02*
X110047618Y-25794895D01*
X110047618Y-25794895D02*
X109590475Y-26594895D01*
X109590475Y-26594895D02*
X109590475Y-25794895D01*
X116066666Y-28334895D02*
X115609523Y-28334895D01*
X115838095Y-29134895D02*
X115838095Y-28334895D01*
X115419047Y-28334895D02*
X114885713Y-29134895D01*
X114885713Y-28334895D02*
X115419047Y-29134895D01*
X114428570Y-28334895D02*
X114352380Y-28334895D01*
X114352380Y-28334895D02*
X114276189Y-28372990D01*
X114276189Y-28372990D02*
X114238094Y-28411085D01*
X114238094Y-28411085D02*
X114199999Y-28487276D01*
X114199999Y-28487276D02*
X114161904Y-28639657D01*
X114161904Y-28639657D02*
X114161904Y-28830133D01*
X114161904Y-28830133D02*
X114199999Y-28982514D01*
X114199999Y-28982514D02*
X114238094Y-29058704D01*
X114238094Y-29058704D02*
X114276189Y-29096800D01*
X114276189Y-29096800D02*
X114352380Y-29134895D01*
X114352380Y-29134895D02*
X114428570Y-29134895D01*
X114428570Y-29134895D02*
X114504761Y-29096800D01*
X114504761Y-29096800D02*
X114542856Y-29058704D01*
X114542856Y-29058704D02*
X114580951Y-28982514D01*
X114580951Y-28982514D02*
X114619047Y-28830133D01*
X114619047Y-28830133D02*
X114619047Y-28639657D01*
X114619047Y-28639657D02*
X114580951Y-28487276D01*
X114580951Y-28487276D02*
X114542856Y-28411085D01*
X114542856Y-28411085D02*
X114504761Y-28372990D01*
X114504761Y-28372990D02*
X114428570Y-28334895D01*
X112790475Y-28372990D02*
X112866665Y-28334895D01*
X112866665Y-28334895D02*
X112980951Y-28334895D01*
X112980951Y-28334895D02*
X113095237Y-28372990D01*
X113095237Y-28372990D02*
X113171427Y-28449180D01*
X113171427Y-28449180D02*
X113209522Y-28525371D01*
X113209522Y-28525371D02*
X113247618Y-28677752D01*
X113247618Y-28677752D02*
X113247618Y-28792038D01*
X113247618Y-28792038D02*
X113209522Y-28944419D01*
X113209522Y-28944419D02*
X113171427Y-29020609D01*
X113171427Y-29020609D02*
X113095237Y-29096800D01*
X113095237Y-29096800D02*
X112980951Y-29134895D01*
X112980951Y-29134895D02*
X112904760Y-29134895D01*
X112904760Y-29134895D02*
X112790475Y-29096800D01*
X112790475Y-29096800D02*
X112752379Y-29058704D01*
X112752379Y-29058704D02*
X112752379Y-28792038D01*
X112752379Y-28792038D02*
X112904760Y-28792038D01*
X112409522Y-29134895D02*
X112409522Y-28334895D01*
X112409522Y-28334895D02*
X112104760Y-28334895D01*
X112104760Y-28334895D02*
X112028570Y-28372990D01*
X112028570Y-28372990D02*
X111990475Y-28411085D01*
X111990475Y-28411085D02*
X111952379Y-28487276D01*
X111952379Y-28487276D02*
X111952379Y-28601561D01*
X111952379Y-28601561D02*
X111990475Y-28677752D01*
X111990475Y-28677752D02*
X112028570Y-28715847D01*
X112028570Y-28715847D02*
X112104760Y-28753942D01*
X112104760Y-28753942D02*
X112409522Y-28753942D01*
X111609522Y-29134895D02*
X111609522Y-28334895D01*
X111076189Y-28334895D02*
X110923808Y-28334895D01*
X110923808Y-28334895D02*
X110847618Y-28372990D01*
X110847618Y-28372990D02*
X110771427Y-28449180D01*
X110771427Y-28449180D02*
X110733332Y-28601561D01*
X110733332Y-28601561D02*
X110733332Y-28868228D01*
X110733332Y-28868228D02*
X110771427Y-29020609D01*
X110771427Y-29020609D02*
X110847618Y-29096800D01*
X110847618Y-29096800D02*
X110923808Y-29134895D01*
X110923808Y-29134895D02*
X111076189Y-29134895D01*
X111076189Y-29134895D02*
X111152380Y-29096800D01*
X111152380Y-29096800D02*
X111228570Y-29020609D01*
X111228570Y-29020609D02*
X111266666Y-28868228D01*
X111266666Y-28868228D02*
X111266666Y-28601561D01*
X111266666Y-28601561D02*
X111228570Y-28449180D01*
X111228570Y-28449180D02*
X111152380Y-28372990D01*
X111152380Y-28372990D02*
X111076189Y-28334895D01*
X110047618Y-28601561D02*
X110047618Y-29134895D01*
X110238094Y-28296800D02*
X110428571Y-28868228D01*
X110428571Y-28868228D02*
X109933332Y-28868228D01*
X109704761Y-28334895D02*
X109209523Y-28334895D01*
X109209523Y-28334895D02*
X109476189Y-28639657D01*
X109476189Y-28639657D02*
X109361904Y-28639657D01*
X109361904Y-28639657D02*
X109285713Y-28677752D01*
X109285713Y-28677752D02*
X109247618Y-28715847D01*
X109247618Y-28715847D02*
X109209523Y-28792038D01*
X109209523Y-28792038D02*
X109209523Y-28982514D01*
X109209523Y-28982514D02*
X109247618Y-29058704D01*
X109247618Y-29058704D02*
X109285713Y-29096800D01*
X109285713Y-29096800D02*
X109361904Y-29134895D01*
X109361904Y-29134895D02*
X109590475Y-29134895D01*
X109590475Y-29134895D02*
X109666666Y-29096800D01*
X109666666Y-29096800D02*
X109704761Y-29058704D01*
X115590475Y-31674895D02*
X115857142Y-31293942D01*
X116047618Y-31674895D02*
X116047618Y-30874895D01*
X116047618Y-30874895D02*
X115742856Y-30874895D01*
X115742856Y-30874895D02*
X115666666Y-30912990D01*
X115666666Y-30912990D02*
X115628571Y-30951085D01*
X115628571Y-30951085D02*
X115590475Y-31027276D01*
X115590475Y-31027276D02*
X115590475Y-31141561D01*
X115590475Y-31141561D02*
X115628571Y-31217752D01*
X115628571Y-31217752D02*
X115666666Y-31255847D01*
X115666666Y-31255847D02*
X115742856Y-31293942D01*
X115742856Y-31293942D02*
X116047618Y-31293942D01*
X115323809Y-30874895D02*
X114790475Y-31674895D01*
X114790475Y-30874895D02*
X115323809Y-31674895D01*
X114333332Y-30874895D02*
X114257142Y-30874895D01*
X114257142Y-30874895D02*
X114180951Y-30912990D01*
X114180951Y-30912990D02*
X114142856Y-30951085D01*
X114142856Y-30951085D02*
X114104761Y-31027276D01*
X114104761Y-31027276D02*
X114066666Y-31179657D01*
X114066666Y-31179657D02*
X114066666Y-31370133D01*
X114066666Y-31370133D02*
X114104761Y-31522514D01*
X114104761Y-31522514D02*
X114142856Y-31598704D01*
X114142856Y-31598704D02*
X114180951Y-31636800D01*
X114180951Y-31636800D02*
X114257142Y-31674895D01*
X114257142Y-31674895D02*
X114333332Y-31674895D01*
X114333332Y-31674895D02*
X114409523Y-31636800D01*
X114409523Y-31636800D02*
X114447618Y-31598704D01*
X114447618Y-31598704D02*
X114485713Y-31522514D01*
X114485713Y-31522514D02*
X114523809Y-31370133D01*
X114523809Y-31370133D02*
X114523809Y-31179657D01*
X114523809Y-31179657D02*
X114485713Y-31027276D01*
X114485713Y-31027276D02*
X114447618Y-30951085D01*
X114447618Y-30951085D02*
X114409523Y-30912990D01*
X114409523Y-30912990D02*
X114333332Y-30874895D01*
X112695237Y-30912990D02*
X112771427Y-30874895D01*
X112771427Y-30874895D02*
X112885713Y-30874895D01*
X112885713Y-30874895D02*
X112999999Y-30912990D01*
X112999999Y-30912990D02*
X113076189Y-30989180D01*
X113076189Y-30989180D02*
X113114284Y-31065371D01*
X113114284Y-31065371D02*
X113152380Y-31217752D01*
X113152380Y-31217752D02*
X113152380Y-31332038D01*
X113152380Y-31332038D02*
X113114284Y-31484419D01*
X113114284Y-31484419D02*
X113076189Y-31560609D01*
X113076189Y-31560609D02*
X112999999Y-31636800D01*
X112999999Y-31636800D02*
X112885713Y-31674895D01*
X112885713Y-31674895D02*
X112809522Y-31674895D01*
X112809522Y-31674895D02*
X112695237Y-31636800D01*
X112695237Y-31636800D02*
X112657141Y-31598704D01*
X112657141Y-31598704D02*
X112657141Y-31332038D01*
X112657141Y-31332038D02*
X112809522Y-31332038D01*
X112314284Y-31674895D02*
X112314284Y-30874895D01*
X112314284Y-30874895D02*
X112009522Y-30874895D01*
X112009522Y-30874895D02*
X111933332Y-30912990D01*
X111933332Y-30912990D02*
X111895237Y-30951085D01*
X111895237Y-30951085D02*
X111857141Y-31027276D01*
X111857141Y-31027276D02*
X111857141Y-31141561D01*
X111857141Y-31141561D02*
X111895237Y-31217752D01*
X111895237Y-31217752D02*
X111933332Y-31255847D01*
X111933332Y-31255847D02*
X112009522Y-31293942D01*
X112009522Y-31293942D02*
X112314284Y-31293942D01*
X111514284Y-31674895D02*
X111514284Y-30874895D01*
X110980951Y-30874895D02*
X110828570Y-30874895D01*
X110828570Y-30874895D02*
X110752380Y-30912990D01*
X110752380Y-30912990D02*
X110676189Y-30989180D01*
X110676189Y-30989180D02*
X110638094Y-31141561D01*
X110638094Y-31141561D02*
X110638094Y-31408228D01*
X110638094Y-31408228D02*
X110676189Y-31560609D01*
X110676189Y-31560609D02*
X110752380Y-31636800D01*
X110752380Y-31636800D02*
X110828570Y-31674895D01*
X110828570Y-31674895D02*
X110980951Y-31674895D01*
X110980951Y-31674895D02*
X111057142Y-31636800D01*
X111057142Y-31636800D02*
X111133332Y-31560609D01*
X111133332Y-31560609D02*
X111171428Y-31408228D01*
X111171428Y-31408228D02*
X111171428Y-31141561D01*
X111171428Y-31141561D02*
X111133332Y-30989180D01*
X111133332Y-30989180D02*
X111057142Y-30912990D01*
X111057142Y-30912990D02*
X110980951Y-30874895D01*
X109952380Y-31141561D02*
X109952380Y-31674895D01*
X110142856Y-30836800D02*
X110333333Y-31408228D01*
X110333333Y-31408228D02*
X109838094Y-31408228D01*
X109190475Y-31141561D02*
X109190475Y-31674895D01*
X109380951Y-30836800D02*
X109571428Y-31408228D01*
X109571428Y-31408228D02*
X109076189Y-31408228D01*
X114161904Y-33452990D02*
X114238094Y-33414895D01*
X114238094Y-33414895D02*
X114352380Y-33414895D01*
X114352380Y-33414895D02*
X114466666Y-33452990D01*
X114466666Y-33452990D02*
X114542856Y-33529180D01*
X114542856Y-33529180D02*
X114580951Y-33605371D01*
X114580951Y-33605371D02*
X114619047Y-33757752D01*
X114619047Y-33757752D02*
X114619047Y-33872038D01*
X114619047Y-33872038D02*
X114580951Y-34024419D01*
X114580951Y-34024419D02*
X114542856Y-34100609D01*
X114542856Y-34100609D02*
X114466666Y-34176800D01*
X114466666Y-34176800D02*
X114352380Y-34214895D01*
X114352380Y-34214895D02*
X114276189Y-34214895D01*
X114276189Y-34214895D02*
X114161904Y-34176800D01*
X114161904Y-34176800D02*
X114123808Y-34138704D01*
X114123808Y-34138704D02*
X114123808Y-33872038D01*
X114123808Y-33872038D02*
X114276189Y-33872038D01*
X113780951Y-34214895D02*
X113780951Y-33414895D01*
X113780951Y-33414895D02*
X113476189Y-33414895D01*
X113476189Y-33414895D02*
X113399999Y-33452990D01*
X113399999Y-33452990D02*
X113361904Y-33491085D01*
X113361904Y-33491085D02*
X113323808Y-33567276D01*
X113323808Y-33567276D02*
X113323808Y-33681561D01*
X113323808Y-33681561D02*
X113361904Y-33757752D01*
X113361904Y-33757752D02*
X113399999Y-33795847D01*
X113399999Y-33795847D02*
X113476189Y-33833942D01*
X113476189Y-33833942D02*
X113780951Y-33833942D01*
X112980951Y-34214895D02*
X112980951Y-33414895D01*
X112447618Y-33414895D02*
X112295237Y-33414895D01*
X112295237Y-33414895D02*
X112219047Y-33452990D01*
X112219047Y-33452990D02*
X112142856Y-33529180D01*
X112142856Y-33529180D02*
X112104761Y-33681561D01*
X112104761Y-33681561D02*
X112104761Y-33948228D01*
X112104761Y-33948228D02*
X112142856Y-34100609D01*
X112142856Y-34100609D02*
X112219047Y-34176800D01*
X112219047Y-34176800D02*
X112295237Y-34214895D01*
X112295237Y-34214895D02*
X112447618Y-34214895D01*
X112447618Y-34214895D02*
X112523809Y-34176800D01*
X112523809Y-34176800D02*
X112599999Y-34100609D01*
X112599999Y-34100609D02*
X112638095Y-33948228D01*
X112638095Y-33948228D02*
X112638095Y-33681561D01*
X112638095Y-33681561D02*
X112599999Y-33529180D01*
X112599999Y-33529180D02*
X112523809Y-33452990D01*
X112523809Y-33452990D02*
X112447618Y-33414895D01*
X111419047Y-33681561D02*
X111419047Y-34214895D01*
X111609523Y-33376800D02*
X111800000Y-33948228D01*
X111800000Y-33948228D02*
X111304761Y-33948228D01*
X111038095Y-33491085D02*
X110999999Y-33452990D01*
X110999999Y-33452990D02*
X110923809Y-33414895D01*
X110923809Y-33414895D02*
X110733333Y-33414895D01*
X110733333Y-33414895D02*
X110657142Y-33452990D01*
X110657142Y-33452990D02*
X110619047Y-33491085D01*
X110619047Y-33491085D02*
X110580952Y-33567276D01*
X110580952Y-33567276D02*
X110580952Y-33643466D01*
X110580952Y-33643466D02*
X110619047Y-33757752D01*
X110619047Y-33757752D02*
X111076190Y-34214895D01*
X111076190Y-34214895D02*
X110580952Y-34214895D01*
X114161904Y-35992990D02*
X114238094Y-35954895D01*
X114238094Y-35954895D02*
X114352380Y-35954895D01*
X114352380Y-35954895D02*
X114466666Y-35992990D01*
X114466666Y-35992990D02*
X114542856Y-36069180D01*
X114542856Y-36069180D02*
X114580951Y-36145371D01*
X114580951Y-36145371D02*
X114619047Y-36297752D01*
X114619047Y-36297752D02*
X114619047Y-36412038D01*
X114619047Y-36412038D02*
X114580951Y-36564419D01*
X114580951Y-36564419D02*
X114542856Y-36640609D01*
X114542856Y-36640609D02*
X114466666Y-36716800D01*
X114466666Y-36716800D02*
X114352380Y-36754895D01*
X114352380Y-36754895D02*
X114276189Y-36754895D01*
X114276189Y-36754895D02*
X114161904Y-36716800D01*
X114161904Y-36716800D02*
X114123808Y-36678704D01*
X114123808Y-36678704D02*
X114123808Y-36412038D01*
X114123808Y-36412038D02*
X114276189Y-36412038D01*
X113780951Y-36754895D02*
X113780951Y-35954895D01*
X113780951Y-35954895D02*
X113476189Y-35954895D01*
X113476189Y-35954895D02*
X113399999Y-35992990D01*
X113399999Y-35992990D02*
X113361904Y-36031085D01*
X113361904Y-36031085D02*
X113323808Y-36107276D01*
X113323808Y-36107276D02*
X113323808Y-36221561D01*
X113323808Y-36221561D02*
X113361904Y-36297752D01*
X113361904Y-36297752D02*
X113399999Y-36335847D01*
X113399999Y-36335847D02*
X113476189Y-36373942D01*
X113476189Y-36373942D02*
X113780951Y-36373942D01*
X112980951Y-36754895D02*
X112980951Y-35954895D01*
X112447618Y-35954895D02*
X112295237Y-35954895D01*
X112295237Y-35954895D02*
X112219047Y-35992990D01*
X112219047Y-35992990D02*
X112142856Y-36069180D01*
X112142856Y-36069180D02*
X112104761Y-36221561D01*
X112104761Y-36221561D02*
X112104761Y-36488228D01*
X112104761Y-36488228D02*
X112142856Y-36640609D01*
X112142856Y-36640609D02*
X112219047Y-36716800D01*
X112219047Y-36716800D02*
X112295237Y-36754895D01*
X112295237Y-36754895D02*
X112447618Y-36754895D01*
X112447618Y-36754895D02*
X112523809Y-36716800D01*
X112523809Y-36716800D02*
X112599999Y-36640609D01*
X112599999Y-36640609D02*
X112638095Y-36488228D01*
X112638095Y-36488228D02*
X112638095Y-36221561D01*
X112638095Y-36221561D02*
X112599999Y-36069180D01*
X112599999Y-36069180D02*
X112523809Y-35992990D01*
X112523809Y-35992990D02*
X112447618Y-35954895D01*
X111419047Y-36221561D02*
X111419047Y-36754895D01*
X111609523Y-35916800D02*
X111800000Y-36488228D01*
X111800000Y-36488228D02*
X111304761Y-36488228D01*
X110580952Y-36754895D02*
X111038095Y-36754895D01*
X110809523Y-36754895D02*
X110809523Y-35954895D01*
X110809523Y-35954895D02*
X110885714Y-36069180D01*
X110885714Y-36069180D02*
X110961904Y-36145371D01*
X110961904Y-36145371D02*
X111038095Y-36183466D01*
X114161904Y-38532990D02*
X114238094Y-38494895D01*
X114238094Y-38494895D02*
X114352380Y-38494895D01*
X114352380Y-38494895D02*
X114466666Y-38532990D01*
X114466666Y-38532990D02*
X114542856Y-38609180D01*
X114542856Y-38609180D02*
X114580951Y-38685371D01*
X114580951Y-38685371D02*
X114619047Y-38837752D01*
X114619047Y-38837752D02*
X114619047Y-38952038D01*
X114619047Y-38952038D02*
X114580951Y-39104419D01*
X114580951Y-39104419D02*
X114542856Y-39180609D01*
X114542856Y-39180609D02*
X114466666Y-39256800D01*
X114466666Y-39256800D02*
X114352380Y-39294895D01*
X114352380Y-39294895D02*
X114276189Y-39294895D01*
X114276189Y-39294895D02*
X114161904Y-39256800D01*
X114161904Y-39256800D02*
X114123808Y-39218704D01*
X114123808Y-39218704D02*
X114123808Y-38952038D01*
X114123808Y-38952038D02*
X114276189Y-38952038D01*
X113780951Y-39294895D02*
X113780951Y-38494895D01*
X113780951Y-38494895D02*
X113476189Y-38494895D01*
X113476189Y-38494895D02*
X113399999Y-38532990D01*
X113399999Y-38532990D02*
X113361904Y-38571085D01*
X113361904Y-38571085D02*
X113323808Y-38647276D01*
X113323808Y-38647276D02*
X113323808Y-38761561D01*
X113323808Y-38761561D02*
X113361904Y-38837752D01*
X113361904Y-38837752D02*
X113399999Y-38875847D01*
X113399999Y-38875847D02*
X113476189Y-38913942D01*
X113476189Y-38913942D02*
X113780951Y-38913942D01*
X112980951Y-39294895D02*
X112980951Y-38494895D01*
X112447618Y-38494895D02*
X112295237Y-38494895D01*
X112295237Y-38494895D02*
X112219047Y-38532990D01*
X112219047Y-38532990D02*
X112142856Y-38609180D01*
X112142856Y-38609180D02*
X112104761Y-38761561D01*
X112104761Y-38761561D02*
X112104761Y-39028228D01*
X112104761Y-39028228D02*
X112142856Y-39180609D01*
X112142856Y-39180609D02*
X112219047Y-39256800D01*
X112219047Y-39256800D02*
X112295237Y-39294895D01*
X112295237Y-39294895D02*
X112447618Y-39294895D01*
X112447618Y-39294895D02*
X112523809Y-39256800D01*
X112523809Y-39256800D02*
X112599999Y-39180609D01*
X112599999Y-39180609D02*
X112638095Y-39028228D01*
X112638095Y-39028228D02*
X112638095Y-38761561D01*
X112638095Y-38761561D02*
X112599999Y-38609180D01*
X112599999Y-38609180D02*
X112523809Y-38532990D01*
X112523809Y-38532990D02*
X112447618Y-38494895D01*
X111419047Y-38761561D02*
X111419047Y-39294895D01*
X111609523Y-38456800D02*
X111800000Y-39028228D01*
X111800000Y-39028228D02*
X111304761Y-39028228D01*
X110847618Y-38494895D02*
X110771428Y-38494895D01*
X110771428Y-38494895D02*
X110695237Y-38532990D01*
X110695237Y-38532990D02*
X110657142Y-38571085D01*
X110657142Y-38571085D02*
X110619047Y-38647276D01*
X110619047Y-38647276D02*
X110580952Y-38799657D01*
X110580952Y-38799657D02*
X110580952Y-38990133D01*
X110580952Y-38990133D02*
X110619047Y-39142514D01*
X110619047Y-39142514D02*
X110657142Y-39218704D01*
X110657142Y-39218704D02*
X110695237Y-39256800D01*
X110695237Y-39256800D02*
X110771428Y-39294895D01*
X110771428Y-39294895D02*
X110847618Y-39294895D01*
X110847618Y-39294895D02*
X110923809Y-39256800D01*
X110923809Y-39256800D02*
X110961904Y-39218704D01*
X110961904Y-39218704D02*
X110999999Y-39142514D01*
X110999999Y-39142514D02*
X111038095Y-38990133D01*
X111038095Y-38990133D02*
X111038095Y-38799657D01*
X111038095Y-38799657D02*
X110999999Y-38647276D01*
X110999999Y-38647276D02*
X110961904Y-38571085D01*
X110961904Y-38571085D02*
X110923809Y-38532990D01*
X110923809Y-38532990D02*
X110847618Y-38494895D01*
X114161904Y-41072990D02*
X114238094Y-41034895D01*
X114238094Y-41034895D02*
X114352380Y-41034895D01*
X114352380Y-41034895D02*
X114466666Y-41072990D01*
X114466666Y-41072990D02*
X114542856Y-41149180D01*
X114542856Y-41149180D02*
X114580951Y-41225371D01*
X114580951Y-41225371D02*
X114619047Y-41377752D01*
X114619047Y-41377752D02*
X114619047Y-41492038D01*
X114619047Y-41492038D02*
X114580951Y-41644419D01*
X114580951Y-41644419D02*
X114542856Y-41720609D01*
X114542856Y-41720609D02*
X114466666Y-41796800D01*
X114466666Y-41796800D02*
X114352380Y-41834895D01*
X114352380Y-41834895D02*
X114276189Y-41834895D01*
X114276189Y-41834895D02*
X114161904Y-41796800D01*
X114161904Y-41796800D02*
X114123808Y-41758704D01*
X114123808Y-41758704D02*
X114123808Y-41492038D01*
X114123808Y-41492038D02*
X114276189Y-41492038D01*
X113780951Y-41834895D02*
X113780951Y-41034895D01*
X113780951Y-41034895D02*
X113476189Y-41034895D01*
X113476189Y-41034895D02*
X113399999Y-41072990D01*
X113399999Y-41072990D02*
X113361904Y-41111085D01*
X113361904Y-41111085D02*
X113323808Y-41187276D01*
X113323808Y-41187276D02*
X113323808Y-41301561D01*
X113323808Y-41301561D02*
X113361904Y-41377752D01*
X113361904Y-41377752D02*
X113399999Y-41415847D01*
X113399999Y-41415847D02*
X113476189Y-41453942D01*
X113476189Y-41453942D02*
X113780951Y-41453942D01*
X112980951Y-41834895D02*
X112980951Y-41034895D01*
X112447618Y-41034895D02*
X112295237Y-41034895D01*
X112295237Y-41034895D02*
X112219047Y-41072990D01*
X112219047Y-41072990D02*
X112142856Y-41149180D01*
X112142856Y-41149180D02*
X112104761Y-41301561D01*
X112104761Y-41301561D02*
X112104761Y-41568228D01*
X112104761Y-41568228D02*
X112142856Y-41720609D01*
X112142856Y-41720609D02*
X112219047Y-41796800D01*
X112219047Y-41796800D02*
X112295237Y-41834895D01*
X112295237Y-41834895D02*
X112447618Y-41834895D01*
X112447618Y-41834895D02*
X112523809Y-41796800D01*
X112523809Y-41796800D02*
X112599999Y-41720609D01*
X112599999Y-41720609D02*
X112638095Y-41568228D01*
X112638095Y-41568228D02*
X112638095Y-41301561D01*
X112638095Y-41301561D02*
X112599999Y-41149180D01*
X112599999Y-41149180D02*
X112523809Y-41072990D01*
X112523809Y-41072990D02*
X112447618Y-41034895D01*
X111838095Y-41034895D02*
X111342857Y-41034895D01*
X111342857Y-41034895D02*
X111609523Y-41339657D01*
X111609523Y-41339657D02*
X111495238Y-41339657D01*
X111495238Y-41339657D02*
X111419047Y-41377752D01*
X111419047Y-41377752D02*
X111380952Y-41415847D01*
X111380952Y-41415847D02*
X111342857Y-41492038D01*
X111342857Y-41492038D02*
X111342857Y-41682514D01*
X111342857Y-41682514D02*
X111380952Y-41758704D01*
X111380952Y-41758704D02*
X111419047Y-41796800D01*
X111419047Y-41796800D02*
X111495238Y-41834895D01*
X111495238Y-41834895D02*
X111723809Y-41834895D01*
X111723809Y-41834895D02*
X111800000Y-41796800D01*
X111800000Y-41796800D02*
X111838095Y-41758704D01*
X110961904Y-41834895D02*
X110809523Y-41834895D01*
X110809523Y-41834895D02*
X110733333Y-41796800D01*
X110733333Y-41796800D02*
X110695237Y-41758704D01*
X110695237Y-41758704D02*
X110619047Y-41644419D01*
X110619047Y-41644419D02*
X110580952Y-41492038D01*
X110580952Y-41492038D02*
X110580952Y-41187276D01*
X110580952Y-41187276D02*
X110619047Y-41111085D01*
X110619047Y-41111085D02*
X110657142Y-41072990D01*
X110657142Y-41072990D02*
X110733333Y-41034895D01*
X110733333Y-41034895D02*
X110885714Y-41034895D01*
X110885714Y-41034895D02*
X110961904Y-41072990D01*
X110961904Y-41072990D02*
X110999999Y-41111085D01*
X110999999Y-41111085D02*
X111038095Y-41187276D01*
X111038095Y-41187276D02*
X111038095Y-41377752D01*
X111038095Y-41377752D02*
X110999999Y-41453942D01*
X110999999Y-41453942D02*
X110961904Y-41492038D01*
X110961904Y-41492038D02*
X110885714Y-41530133D01*
X110885714Y-41530133D02*
X110733333Y-41530133D01*
X110733333Y-41530133D02*
X110657142Y-41492038D01*
X110657142Y-41492038D02*
X110619047Y-41453942D01*
X110619047Y-41453942D02*
X110580952Y-41377752D01*
X114161904Y-43612990D02*
X114238094Y-43574895D01*
X114238094Y-43574895D02*
X114352380Y-43574895D01*
X114352380Y-43574895D02*
X114466666Y-43612990D01*
X114466666Y-43612990D02*
X114542856Y-43689180D01*
X114542856Y-43689180D02*
X114580951Y-43765371D01*
X114580951Y-43765371D02*
X114619047Y-43917752D01*
X114619047Y-43917752D02*
X114619047Y-44032038D01*
X114619047Y-44032038D02*
X114580951Y-44184419D01*
X114580951Y-44184419D02*
X114542856Y-44260609D01*
X114542856Y-44260609D02*
X114466666Y-44336800D01*
X114466666Y-44336800D02*
X114352380Y-44374895D01*
X114352380Y-44374895D02*
X114276189Y-44374895D01*
X114276189Y-44374895D02*
X114161904Y-44336800D01*
X114161904Y-44336800D02*
X114123808Y-44298704D01*
X114123808Y-44298704D02*
X114123808Y-44032038D01*
X114123808Y-44032038D02*
X114276189Y-44032038D01*
X113780951Y-44374895D02*
X113780951Y-43574895D01*
X113780951Y-43574895D02*
X113476189Y-43574895D01*
X113476189Y-43574895D02*
X113399999Y-43612990D01*
X113399999Y-43612990D02*
X113361904Y-43651085D01*
X113361904Y-43651085D02*
X113323808Y-43727276D01*
X113323808Y-43727276D02*
X113323808Y-43841561D01*
X113323808Y-43841561D02*
X113361904Y-43917752D01*
X113361904Y-43917752D02*
X113399999Y-43955847D01*
X113399999Y-43955847D02*
X113476189Y-43993942D01*
X113476189Y-43993942D02*
X113780951Y-43993942D01*
X112980951Y-44374895D02*
X112980951Y-43574895D01*
X112447618Y-43574895D02*
X112295237Y-43574895D01*
X112295237Y-43574895D02*
X112219047Y-43612990D01*
X112219047Y-43612990D02*
X112142856Y-43689180D01*
X112142856Y-43689180D02*
X112104761Y-43841561D01*
X112104761Y-43841561D02*
X112104761Y-44108228D01*
X112104761Y-44108228D02*
X112142856Y-44260609D01*
X112142856Y-44260609D02*
X112219047Y-44336800D01*
X112219047Y-44336800D02*
X112295237Y-44374895D01*
X112295237Y-44374895D02*
X112447618Y-44374895D01*
X112447618Y-44374895D02*
X112523809Y-44336800D01*
X112523809Y-44336800D02*
X112599999Y-44260609D01*
X112599999Y-44260609D02*
X112638095Y-44108228D01*
X112638095Y-44108228D02*
X112638095Y-43841561D01*
X112638095Y-43841561D02*
X112599999Y-43689180D01*
X112599999Y-43689180D02*
X112523809Y-43612990D01*
X112523809Y-43612990D02*
X112447618Y-43574895D01*
X111838095Y-43574895D02*
X111342857Y-43574895D01*
X111342857Y-43574895D02*
X111609523Y-43879657D01*
X111609523Y-43879657D02*
X111495238Y-43879657D01*
X111495238Y-43879657D02*
X111419047Y-43917752D01*
X111419047Y-43917752D02*
X111380952Y-43955847D01*
X111380952Y-43955847D02*
X111342857Y-44032038D01*
X111342857Y-44032038D02*
X111342857Y-44222514D01*
X111342857Y-44222514D02*
X111380952Y-44298704D01*
X111380952Y-44298704D02*
X111419047Y-44336800D01*
X111419047Y-44336800D02*
X111495238Y-44374895D01*
X111495238Y-44374895D02*
X111723809Y-44374895D01*
X111723809Y-44374895D02*
X111800000Y-44336800D01*
X111800000Y-44336800D02*
X111838095Y-44298704D01*
X110885714Y-43917752D02*
X110961904Y-43879657D01*
X110961904Y-43879657D02*
X110999999Y-43841561D01*
X110999999Y-43841561D02*
X111038095Y-43765371D01*
X111038095Y-43765371D02*
X111038095Y-43727276D01*
X111038095Y-43727276D02*
X110999999Y-43651085D01*
X110999999Y-43651085D02*
X110961904Y-43612990D01*
X110961904Y-43612990D02*
X110885714Y-43574895D01*
X110885714Y-43574895D02*
X110733333Y-43574895D01*
X110733333Y-43574895D02*
X110657142Y-43612990D01*
X110657142Y-43612990D02*
X110619047Y-43651085D01*
X110619047Y-43651085D02*
X110580952Y-43727276D01*
X110580952Y-43727276D02*
X110580952Y-43765371D01*
X110580952Y-43765371D02*
X110619047Y-43841561D01*
X110619047Y-43841561D02*
X110657142Y-43879657D01*
X110657142Y-43879657D02*
X110733333Y-43917752D01*
X110733333Y-43917752D02*
X110885714Y-43917752D01*
X110885714Y-43917752D02*
X110961904Y-43955847D01*
X110961904Y-43955847D02*
X110999999Y-43993942D01*
X110999999Y-43993942D02*
X111038095Y-44070133D01*
X111038095Y-44070133D02*
X111038095Y-44222514D01*
X111038095Y-44222514D02*
X110999999Y-44298704D01*
X110999999Y-44298704D02*
X110961904Y-44336800D01*
X110961904Y-44336800D02*
X110885714Y-44374895D01*
X110885714Y-44374895D02*
X110733333Y-44374895D01*
X110733333Y-44374895D02*
X110657142Y-44336800D01*
X110657142Y-44336800D02*
X110619047Y-44298704D01*
X110619047Y-44298704D02*
X110580952Y-44222514D01*
X110580952Y-44222514D02*
X110580952Y-44070133D01*
X110580952Y-44070133D02*
X110619047Y-43993942D01*
X110619047Y-43993942D02*
X110657142Y-43955847D01*
X110657142Y-43955847D02*
X110733333Y-43917752D01*
X114161904Y-46152990D02*
X114238094Y-46114895D01*
X114238094Y-46114895D02*
X114352380Y-46114895D01*
X114352380Y-46114895D02*
X114466666Y-46152990D01*
X114466666Y-46152990D02*
X114542856Y-46229180D01*
X114542856Y-46229180D02*
X114580951Y-46305371D01*
X114580951Y-46305371D02*
X114619047Y-46457752D01*
X114619047Y-46457752D02*
X114619047Y-46572038D01*
X114619047Y-46572038D02*
X114580951Y-46724419D01*
X114580951Y-46724419D02*
X114542856Y-46800609D01*
X114542856Y-46800609D02*
X114466666Y-46876800D01*
X114466666Y-46876800D02*
X114352380Y-46914895D01*
X114352380Y-46914895D02*
X114276189Y-46914895D01*
X114276189Y-46914895D02*
X114161904Y-46876800D01*
X114161904Y-46876800D02*
X114123808Y-46838704D01*
X114123808Y-46838704D02*
X114123808Y-46572038D01*
X114123808Y-46572038D02*
X114276189Y-46572038D01*
X113780951Y-46914895D02*
X113780951Y-46114895D01*
X113780951Y-46114895D02*
X113476189Y-46114895D01*
X113476189Y-46114895D02*
X113399999Y-46152990D01*
X113399999Y-46152990D02*
X113361904Y-46191085D01*
X113361904Y-46191085D02*
X113323808Y-46267276D01*
X113323808Y-46267276D02*
X113323808Y-46381561D01*
X113323808Y-46381561D02*
X113361904Y-46457752D01*
X113361904Y-46457752D02*
X113399999Y-46495847D01*
X113399999Y-46495847D02*
X113476189Y-46533942D01*
X113476189Y-46533942D02*
X113780951Y-46533942D01*
X112980951Y-46914895D02*
X112980951Y-46114895D01*
X112447618Y-46114895D02*
X112295237Y-46114895D01*
X112295237Y-46114895D02*
X112219047Y-46152990D01*
X112219047Y-46152990D02*
X112142856Y-46229180D01*
X112142856Y-46229180D02*
X112104761Y-46381561D01*
X112104761Y-46381561D02*
X112104761Y-46648228D01*
X112104761Y-46648228D02*
X112142856Y-46800609D01*
X112142856Y-46800609D02*
X112219047Y-46876800D01*
X112219047Y-46876800D02*
X112295237Y-46914895D01*
X112295237Y-46914895D02*
X112447618Y-46914895D01*
X112447618Y-46914895D02*
X112523809Y-46876800D01*
X112523809Y-46876800D02*
X112599999Y-46800609D01*
X112599999Y-46800609D02*
X112638095Y-46648228D01*
X112638095Y-46648228D02*
X112638095Y-46381561D01*
X112638095Y-46381561D02*
X112599999Y-46229180D01*
X112599999Y-46229180D02*
X112523809Y-46152990D01*
X112523809Y-46152990D02*
X112447618Y-46114895D01*
X111838095Y-46114895D02*
X111342857Y-46114895D01*
X111342857Y-46114895D02*
X111609523Y-46419657D01*
X111609523Y-46419657D02*
X111495238Y-46419657D01*
X111495238Y-46419657D02*
X111419047Y-46457752D01*
X111419047Y-46457752D02*
X111380952Y-46495847D01*
X111380952Y-46495847D02*
X111342857Y-46572038D01*
X111342857Y-46572038D02*
X111342857Y-46762514D01*
X111342857Y-46762514D02*
X111380952Y-46838704D01*
X111380952Y-46838704D02*
X111419047Y-46876800D01*
X111419047Y-46876800D02*
X111495238Y-46914895D01*
X111495238Y-46914895D02*
X111723809Y-46914895D01*
X111723809Y-46914895D02*
X111800000Y-46876800D01*
X111800000Y-46876800D02*
X111838095Y-46838704D01*
X111076190Y-46114895D02*
X110542856Y-46114895D01*
X110542856Y-46114895D02*
X110885714Y-46914895D01*
X114161904Y-48692990D02*
X114238094Y-48654895D01*
X114238094Y-48654895D02*
X114352380Y-48654895D01*
X114352380Y-48654895D02*
X114466666Y-48692990D01*
X114466666Y-48692990D02*
X114542856Y-48769180D01*
X114542856Y-48769180D02*
X114580951Y-48845371D01*
X114580951Y-48845371D02*
X114619047Y-48997752D01*
X114619047Y-48997752D02*
X114619047Y-49112038D01*
X114619047Y-49112038D02*
X114580951Y-49264419D01*
X114580951Y-49264419D02*
X114542856Y-49340609D01*
X114542856Y-49340609D02*
X114466666Y-49416800D01*
X114466666Y-49416800D02*
X114352380Y-49454895D01*
X114352380Y-49454895D02*
X114276189Y-49454895D01*
X114276189Y-49454895D02*
X114161904Y-49416800D01*
X114161904Y-49416800D02*
X114123808Y-49378704D01*
X114123808Y-49378704D02*
X114123808Y-49112038D01*
X114123808Y-49112038D02*
X114276189Y-49112038D01*
X113780951Y-49454895D02*
X113780951Y-48654895D01*
X113780951Y-48654895D02*
X113476189Y-48654895D01*
X113476189Y-48654895D02*
X113399999Y-48692990D01*
X113399999Y-48692990D02*
X113361904Y-48731085D01*
X113361904Y-48731085D02*
X113323808Y-48807276D01*
X113323808Y-48807276D02*
X113323808Y-48921561D01*
X113323808Y-48921561D02*
X113361904Y-48997752D01*
X113361904Y-48997752D02*
X113399999Y-49035847D01*
X113399999Y-49035847D02*
X113476189Y-49073942D01*
X113476189Y-49073942D02*
X113780951Y-49073942D01*
X112980951Y-49454895D02*
X112980951Y-48654895D01*
X112447618Y-48654895D02*
X112295237Y-48654895D01*
X112295237Y-48654895D02*
X112219047Y-48692990D01*
X112219047Y-48692990D02*
X112142856Y-48769180D01*
X112142856Y-48769180D02*
X112104761Y-48921561D01*
X112104761Y-48921561D02*
X112104761Y-49188228D01*
X112104761Y-49188228D02*
X112142856Y-49340609D01*
X112142856Y-49340609D02*
X112219047Y-49416800D01*
X112219047Y-49416800D02*
X112295237Y-49454895D01*
X112295237Y-49454895D02*
X112447618Y-49454895D01*
X112447618Y-49454895D02*
X112523809Y-49416800D01*
X112523809Y-49416800D02*
X112599999Y-49340609D01*
X112599999Y-49340609D02*
X112638095Y-49188228D01*
X112638095Y-49188228D02*
X112638095Y-48921561D01*
X112638095Y-48921561D02*
X112599999Y-48769180D01*
X112599999Y-48769180D02*
X112523809Y-48692990D01*
X112523809Y-48692990D02*
X112447618Y-48654895D01*
X111838095Y-48654895D02*
X111342857Y-48654895D01*
X111342857Y-48654895D02*
X111609523Y-48959657D01*
X111609523Y-48959657D02*
X111495238Y-48959657D01*
X111495238Y-48959657D02*
X111419047Y-48997752D01*
X111419047Y-48997752D02*
X111380952Y-49035847D01*
X111380952Y-49035847D02*
X111342857Y-49112038D01*
X111342857Y-49112038D02*
X111342857Y-49302514D01*
X111342857Y-49302514D02*
X111380952Y-49378704D01*
X111380952Y-49378704D02*
X111419047Y-49416800D01*
X111419047Y-49416800D02*
X111495238Y-49454895D01*
X111495238Y-49454895D02*
X111723809Y-49454895D01*
X111723809Y-49454895D02*
X111800000Y-49416800D01*
X111800000Y-49416800D02*
X111838095Y-49378704D01*
X110657142Y-48654895D02*
X110809523Y-48654895D01*
X110809523Y-48654895D02*
X110885714Y-48692990D01*
X110885714Y-48692990D02*
X110923809Y-48731085D01*
X110923809Y-48731085D02*
X110999999Y-48845371D01*
X110999999Y-48845371D02*
X111038095Y-48997752D01*
X111038095Y-48997752D02*
X111038095Y-49302514D01*
X111038095Y-49302514D02*
X110999999Y-49378704D01*
X110999999Y-49378704D02*
X110961904Y-49416800D01*
X110961904Y-49416800D02*
X110885714Y-49454895D01*
X110885714Y-49454895D02*
X110733333Y-49454895D01*
X110733333Y-49454895D02*
X110657142Y-49416800D01*
X110657142Y-49416800D02*
X110619047Y-49378704D01*
X110619047Y-49378704D02*
X110580952Y-49302514D01*
X110580952Y-49302514D02*
X110580952Y-49112038D01*
X110580952Y-49112038D02*
X110619047Y-49035847D01*
X110619047Y-49035847D02*
X110657142Y-48997752D01*
X110657142Y-48997752D02*
X110733333Y-48959657D01*
X110733333Y-48959657D02*
X110885714Y-48959657D01*
X110885714Y-48959657D02*
X110961904Y-48997752D01*
X110961904Y-48997752D02*
X110999999Y-49035847D01*
X110999999Y-49035847D02*
X111038095Y-49112038D01*
X114161904Y-51232990D02*
X114238094Y-51194895D01*
X114238094Y-51194895D02*
X114352380Y-51194895D01*
X114352380Y-51194895D02*
X114466666Y-51232990D01*
X114466666Y-51232990D02*
X114542856Y-51309180D01*
X114542856Y-51309180D02*
X114580951Y-51385371D01*
X114580951Y-51385371D02*
X114619047Y-51537752D01*
X114619047Y-51537752D02*
X114619047Y-51652038D01*
X114619047Y-51652038D02*
X114580951Y-51804419D01*
X114580951Y-51804419D02*
X114542856Y-51880609D01*
X114542856Y-51880609D02*
X114466666Y-51956800D01*
X114466666Y-51956800D02*
X114352380Y-51994895D01*
X114352380Y-51994895D02*
X114276189Y-51994895D01*
X114276189Y-51994895D02*
X114161904Y-51956800D01*
X114161904Y-51956800D02*
X114123808Y-51918704D01*
X114123808Y-51918704D02*
X114123808Y-51652038D01*
X114123808Y-51652038D02*
X114276189Y-51652038D01*
X113780951Y-51994895D02*
X113780951Y-51194895D01*
X113780951Y-51194895D02*
X113476189Y-51194895D01*
X113476189Y-51194895D02*
X113399999Y-51232990D01*
X113399999Y-51232990D02*
X113361904Y-51271085D01*
X113361904Y-51271085D02*
X113323808Y-51347276D01*
X113323808Y-51347276D02*
X113323808Y-51461561D01*
X113323808Y-51461561D02*
X113361904Y-51537752D01*
X113361904Y-51537752D02*
X113399999Y-51575847D01*
X113399999Y-51575847D02*
X113476189Y-51613942D01*
X113476189Y-51613942D02*
X113780951Y-51613942D01*
X112980951Y-51994895D02*
X112980951Y-51194895D01*
X112447618Y-51194895D02*
X112295237Y-51194895D01*
X112295237Y-51194895D02*
X112219047Y-51232990D01*
X112219047Y-51232990D02*
X112142856Y-51309180D01*
X112142856Y-51309180D02*
X112104761Y-51461561D01*
X112104761Y-51461561D02*
X112104761Y-51728228D01*
X112104761Y-51728228D02*
X112142856Y-51880609D01*
X112142856Y-51880609D02*
X112219047Y-51956800D01*
X112219047Y-51956800D02*
X112295237Y-51994895D01*
X112295237Y-51994895D02*
X112447618Y-51994895D01*
X112447618Y-51994895D02*
X112523809Y-51956800D01*
X112523809Y-51956800D02*
X112599999Y-51880609D01*
X112599999Y-51880609D02*
X112638095Y-51728228D01*
X112638095Y-51728228D02*
X112638095Y-51461561D01*
X112638095Y-51461561D02*
X112599999Y-51309180D01*
X112599999Y-51309180D02*
X112523809Y-51232990D01*
X112523809Y-51232990D02*
X112447618Y-51194895D01*
X111838095Y-51194895D02*
X111342857Y-51194895D01*
X111342857Y-51194895D02*
X111609523Y-51499657D01*
X111609523Y-51499657D02*
X111495238Y-51499657D01*
X111495238Y-51499657D02*
X111419047Y-51537752D01*
X111419047Y-51537752D02*
X111380952Y-51575847D01*
X111380952Y-51575847D02*
X111342857Y-51652038D01*
X111342857Y-51652038D02*
X111342857Y-51842514D01*
X111342857Y-51842514D02*
X111380952Y-51918704D01*
X111380952Y-51918704D02*
X111419047Y-51956800D01*
X111419047Y-51956800D02*
X111495238Y-51994895D01*
X111495238Y-51994895D02*
X111723809Y-51994895D01*
X111723809Y-51994895D02*
X111800000Y-51956800D01*
X111800000Y-51956800D02*
X111838095Y-51918704D01*
X110619047Y-51194895D02*
X110999999Y-51194895D01*
X110999999Y-51194895D02*
X111038095Y-51575847D01*
X111038095Y-51575847D02*
X110999999Y-51537752D01*
X110999999Y-51537752D02*
X110923809Y-51499657D01*
X110923809Y-51499657D02*
X110733333Y-51499657D01*
X110733333Y-51499657D02*
X110657142Y-51537752D01*
X110657142Y-51537752D02*
X110619047Y-51575847D01*
X110619047Y-51575847D02*
X110580952Y-51652038D01*
X110580952Y-51652038D02*
X110580952Y-51842514D01*
X110580952Y-51842514D02*
X110619047Y-51918704D01*
X110619047Y-51918704D02*
X110657142Y-51956800D01*
X110657142Y-51956800D02*
X110733333Y-51994895D01*
X110733333Y-51994895D02*
X110923809Y-51994895D01*
X110923809Y-51994895D02*
X110999999Y-51956800D01*
X110999999Y-51956800D02*
X111038095Y-51918704D01*
X115628571Y-53772990D02*
X115704761Y-53734895D01*
X115704761Y-53734895D02*
X115819047Y-53734895D01*
X115819047Y-53734895D02*
X115933333Y-53772990D01*
X115933333Y-53772990D02*
X116009523Y-53849180D01*
X116009523Y-53849180D02*
X116047618Y-53925371D01*
X116047618Y-53925371D02*
X116085714Y-54077752D01*
X116085714Y-54077752D02*
X116085714Y-54192038D01*
X116085714Y-54192038D02*
X116047618Y-54344419D01*
X116047618Y-54344419D02*
X116009523Y-54420609D01*
X116009523Y-54420609D02*
X115933333Y-54496800D01*
X115933333Y-54496800D02*
X115819047Y-54534895D01*
X115819047Y-54534895D02*
X115742856Y-54534895D01*
X115742856Y-54534895D02*
X115628571Y-54496800D01*
X115628571Y-54496800D02*
X115590475Y-54458704D01*
X115590475Y-54458704D02*
X115590475Y-54192038D01*
X115590475Y-54192038D02*
X115742856Y-54192038D01*
X115247618Y-54534895D02*
X115247618Y-53734895D01*
X115247618Y-53734895D02*
X114942856Y-53734895D01*
X114942856Y-53734895D02*
X114866666Y-53772990D01*
X114866666Y-53772990D02*
X114828571Y-53811085D01*
X114828571Y-53811085D02*
X114790475Y-53887276D01*
X114790475Y-53887276D02*
X114790475Y-54001561D01*
X114790475Y-54001561D02*
X114828571Y-54077752D01*
X114828571Y-54077752D02*
X114866666Y-54115847D01*
X114866666Y-54115847D02*
X114942856Y-54153942D01*
X114942856Y-54153942D02*
X115247618Y-54153942D01*
X114447618Y-54534895D02*
X114447618Y-53734895D01*
X113914285Y-53734895D02*
X113761904Y-53734895D01*
X113761904Y-53734895D02*
X113685714Y-53772990D01*
X113685714Y-53772990D02*
X113609523Y-53849180D01*
X113609523Y-53849180D02*
X113571428Y-54001561D01*
X113571428Y-54001561D02*
X113571428Y-54268228D01*
X113571428Y-54268228D02*
X113609523Y-54420609D01*
X113609523Y-54420609D02*
X113685714Y-54496800D01*
X113685714Y-54496800D02*
X113761904Y-54534895D01*
X113761904Y-54534895D02*
X113914285Y-54534895D01*
X113914285Y-54534895D02*
X113990476Y-54496800D01*
X113990476Y-54496800D02*
X114066666Y-54420609D01*
X114066666Y-54420609D02*
X114104762Y-54268228D01*
X114104762Y-54268228D02*
X114104762Y-54001561D01*
X114104762Y-54001561D02*
X114066666Y-53849180D01*
X114066666Y-53849180D02*
X113990476Y-53772990D01*
X113990476Y-53772990D02*
X113914285Y-53734895D01*
X113076190Y-53734895D02*
X113000000Y-53734895D01*
X113000000Y-53734895D02*
X112923809Y-53772990D01*
X112923809Y-53772990D02*
X112885714Y-53811085D01*
X112885714Y-53811085D02*
X112847619Y-53887276D01*
X112847619Y-53887276D02*
X112809524Y-54039657D01*
X112809524Y-54039657D02*
X112809524Y-54230133D01*
X112809524Y-54230133D02*
X112847619Y-54382514D01*
X112847619Y-54382514D02*
X112885714Y-54458704D01*
X112885714Y-54458704D02*
X112923809Y-54496800D01*
X112923809Y-54496800D02*
X113000000Y-54534895D01*
X113000000Y-54534895D02*
X113076190Y-54534895D01*
X113076190Y-54534895D02*
X113152381Y-54496800D01*
X113152381Y-54496800D02*
X113190476Y-54458704D01*
X113190476Y-54458704D02*
X113228571Y-54382514D01*
X113228571Y-54382514D02*
X113266667Y-54230133D01*
X113266667Y-54230133D02*
X113266667Y-54039657D01*
X113266667Y-54039657D02*
X113228571Y-53887276D01*
X113228571Y-53887276D02*
X113190476Y-53811085D01*
X113190476Y-53811085D02*
X113152381Y-53772990D01*
X113152381Y-53772990D02*
X113076190Y-53734895D01*
X111590476Y-54115847D02*
X111476190Y-54153942D01*
X111476190Y-54153942D02*
X111438095Y-54192038D01*
X111438095Y-54192038D02*
X111399999Y-54268228D01*
X111399999Y-54268228D02*
X111399999Y-54382514D01*
X111399999Y-54382514D02*
X111438095Y-54458704D01*
X111438095Y-54458704D02*
X111476190Y-54496800D01*
X111476190Y-54496800D02*
X111552380Y-54534895D01*
X111552380Y-54534895D02*
X111857142Y-54534895D01*
X111857142Y-54534895D02*
X111857142Y-53734895D01*
X111857142Y-53734895D02*
X111590476Y-53734895D01*
X111590476Y-53734895D02*
X111514285Y-53772990D01*
X111514285Y-53772990D02*
X111476190Y-53811085D01*
X111476190Y-53811085D02*
X111438095Y-53887276D01*
X111438095Y-53887276D02*
X111438095Y-53963466D01*
X111438095Y-53963466D02*
X111476190Y-54039657D01*
X111476190Y-54039657D02*
X111514285Y-54077752D01*
X111514285Y-54077752D02*
X111590476Y-54115847D01*
X111590476Y-54115847D02*
X111857142Y-54115847D01*
X110904761Y-53734895D02*
X110752380Y-53734895D01*
X110752380Y-53734895D02*
X110676190Y-53772990D01*
X110676190Y-53772990D02*
X110599999Y-53849180D01*
X110599999Y-53849180D02*
X110561904Y-54001561D01*
X110561904Y-54001561D02*
X110561904Y-54268228D01*
X110561904Y-54268228D02*
X110599999Y-54420609D01*
X110599999Y-54420609D02*
X110676190Y-54496800D01*
X110676190Y-54496800D02*
X110752380Y-54534895D01*
X110752380Y-54534895D02*
X110904761Y-54534895D01*
X110904761Y-54534895D02*
X110980952Y-54496800D01*
X110980952Y-54496800D02*
X111057142Y-54420609D01*
X111057142Y-54420609D02*
X111095238Y-54268228D01*
X111095238Y-54268228D02*
X111095238Y-54001561D01*
X111095238Y-54001561D02*
X111057142Y-53849180D01*
X111057142Y-53849180D02*
X110980952Y-53772990D01*
X110980952Y-53772990D02*
X110904761Y-53734895D01*
X110066666Y-53734895D02*
X109914285Y-53734895D01*
X109914285Y-53734895D02*
X109838095Y-53772990D01*
X109838095Y-53772990D02*
X109761904Y-53849180D01*
X109761904Y-53849180D02*
X109723809Y-54001561D01*
X109723809Y-54001561D02*
X109723809Y-54268228D01*
X109723809Y-54268228D02*
X109761904Y-54420609D01*
X109761904Y-54420609D02*
X109838095Y-54496800D01*
X109838095Y-54496800D02*
X109914285Y-54534895D01*
X109914285Y-54534895D02*
X110066666Y-54534895D01*
X110066666Y-54534895D02*
X110142857Y-54496800D01*
X110142857Y-54496800D02*
X110219047Y-54420609D01*
X110219047Y-54420609D02*
X110257143Y-54268228D01*
X110257143Y-54268228D02*
X110257143Y-54001561D01*
X110257143Y-54001561D02*
X110219047Y-53849180D01*
X110219047Y-53849180D02*
X110142857Y-53772990D01*
X110142857Y-53772990D02*
X110066666Y-53734895D01*
X109495238Y-53734895D02*
X109038095Y-53734895D01*
X109266667Y-54534895D02*
X109266667Y-53734895D01*
X138438094Y-80460133D02*
X137828571Y-80460133D01*
X138133332Y-80764895D02*
X138133332Y-80155371D01*
X137066666Y-79964895D02*
X137447618Y-79964895D01*
X137447618Y-79964895D02*
X137485714Y-80345847D01*
X137485714Y-80345847D02*
X137447618Y-80307752D01*
X137447618Y-80307752D02*
X137371428Y-80269657D01*
X137371428Y-80269657D02*
X137180952Y-80269657D01*
X137180952Y-80269657D02*
X137104761Y-80307752D01*
X137104761Y-80307752D02*
X137066666Y-80345847D01*
X137066666Y-80345847D02*
X137028571Y-80422038D01*
X137028571Y-80422038D02*
X137028571Y-80612514D01*
X137028571Y-80612514D02*
X137066666Y-80688704D01*
X137066666Y-80688704D02*
X137104761Y-80726800D01*
X137104761Y-80726800D02*
X137180952Y-80764895D01*
X137180952Y-80764895D02*
X137371428Y-80764895D01*
X137371428Y-80764895D02*
X137447618Y-80726800D01*
X137447618Y-80726800D02*
X137485714Y-80688704D01*
X136799999Y-79964895D02*
X136533332Y-80764895D01*
X136533332Y-80764895D02*
X136266666Y-79964895D01*
X135504761Y-79964895D02*
X135047618Y-79964895D01*
X135276190Y-80764895D02*
X135276190Y-79964895D01*
X134780951Y-80764895D02*
X134780951Y-79964895D01*
X134780951Y-79964895D02*
X134476189Y-79964895D01*
X134476189Y-79964895D02*
X134399999Y-80002990D01*
X134399999Y-80002990D02*
X134361904Y-80041085D01*
X134361904Y-80041085D02*
X134323808Y-80117276D01*
X134323808Y-80117276D02*
X134323808Y-80231561D01*
X134323808Y-80231561D02*
X134361904Y-80307752D01*
X134361904Y-80307752D02*
X134399999Y-80345847D01*
X134399999Y-80345847D02*
X134476189Y-80383942D01*
X134476189Y-80383942D02*
X134780951Y-80383942D01*
X146114286Y-80726800D02*
X146000000Y-80764895D01*
X146000000Y-80764895D02*
X145809524Y-80764895D01*
X145809524Y-80764895D02*
X145733333Y-80726800D01*
X145733333Y-80726800D02*
X145695238Y-80688704D01*
X145695238Y-80688704D02*
X145657143Y-80612514D01*
X145657143Y-80612514D02*
X145657143Y-80536323D01*
X145657143Y-80536323D02*
X145695238Y-80460133D01*
X145695238Y-80460133D02*
X145733333Y-80422038D01*
X145733333Y-80422038D02*
X145809524Y-80383942D01*
X145809524Y-80383942D02*
X145961905Y-80345847D01*
X145961905Y-80345847D02*
X146038095Y-80307752D01*
X146038095Y-80307752D02*
X146076190Y-80269657D01*
X146076190Y-80269657D02*
X146114286Y-80193466D01*
X146114286Y-80193466D02*
X146114286Y-80117276D01*
X146114286Y-80117276D02*
X146076190Y-80041085D01*
X146076190Y-80041085D02*
X146038095Y-80002990D01*
X146038095Y-80002990D02*
X145961905Y-79964895D01*
X145961905Y-79964895D02*
X145771428Y-79964895D01*
X145771428Y-79964895D02*
X145657143Y-80002990D01*
X145352381Y-80726800D02*
X145238095Y-80764895D01*
X145238095Y-80764895D02*
X145047619Y-80764895D01*
X145047619Y-80764895D02*
X144971428Y-80726800D01*
X144971428Y-80726800D02*
X144933333Y-80688704D01*
X144933333Y-80688704D02*
X144895238Y-80612514D01*
X144895238Y-80612514D02*
X144895238Y-80536323D01*
X144895238Y-80536323D02*
X144933333Y-80460133D01*
X144933333Y-80460133D02*
X144971428Y-80422038D01*
X144971428Y-80422038D02*
X145047619Y-80383942D01*
X145047619Y-80383942D02*
X145200000Y-80345847D01*
X145200000Y-80345847D02*
X145276190Y-80307752D01*
X145276190Y-80307752D02*
X145314285Y-80269657D01*
X145314285Y-80269657D02*
X145352381Y-80193466D01*
X145352381Y-80193466D02*
X145352381Y-80117276D01*
X145352381Y-80117276D02*
X145314285Y-80041085D01*
X145314285Y-80041085D02*
X145276190Y-80002990D01*
X145276190Y-80002990D02*
X145200000Y-79964895D01*
X145200000Y-79964895D02*
X145009523Y-79964895D01*
X145009523Y-79964895D02*
X144895238Y-80002990D01*
X144095237Y-80764895D02*
X144361904Y-80383942D01*
X144552380Y-80764895D02*
X144552380Y-79964895D01*
X144552380Y-79964895D02*
X144247618Y-79964895D01*
X144247618Y-79964895D02*
X144171428Y-80002990D01*
X144171428Y-80002990D02*
X144133333Y-80041085D01*
X144133333Y-80041085D02*
X144095237Y-80117276D01*
X144095237Y-80117276D02*
X144095237Y-80231561D01*
X144095237Y-80231561D02*
X144133333Y-80307752D01*
X144133333Y-80307752D02*
X144171428Y-80345847D01*
X144171428Y-80345847D02*
X144247618Y-80383942D01*
X144247618Y-80383942D02*
X144552380Y-80383942D01*
X143752380Y-80460133D02*
X143142857Y-80460133D01*
X142266666Y-79964895D02*
X141809523Y-79964895D01*
X142038095Y-80764895D02*
X142038095Y-79964895D01*
X141542856Y-80764895D02*
X141542856Y-79964895D01*
X141542856Y-79964895D02*
X141238094Y-79964895D01*
X141238094Y-79964895D02*
X141161904Y-80002990D01*
X141161904Y-80002990D02*
X141123809Y-80041085D01*
X141123809Y-80041085D02*
X141085713Y-80117276D01*
X141085713Y-80117276D02*
X141085713Y-80231561D01*
X141085713Y-80231561D02*
X141123809Y-80307752D01*
X141123809Y-80307752D02*
X141161904Y-80345847D01*
X141161904Y-80345847D02*
X141238094Y-80383942D01*
X141238094Y-80383942D02*
X141542856Y-80383942D01*
X51664895Y-30552381D02*
X51283942Y-30285714D01*
X51664895Y-30095238D02*
X50864895Y-30095238D01*
X50864895Y-30095238D02*
X50864895Y-30400000D01*
X50864895Y-30400000D02*
X50902990Y-30476190D01*
X50902990Y-30476190D02*
X50941085Y-30514285D01*
X50941085Y-30514285D02*
X51017276Y-30552381D01*
X51017276Y-30552381D02*
X51131561Y-30552381D01*
X51131561Y-30552381D02*
X51207752Y-30514285D01*
X51207752Y-30514285D02*
X51245847Y-30476190D01*
X51245847Y-30476190D02*
X51283942Y-30400000D01*
X51283942Y-30400000D02*
X51283942Y-30095238D01*
X51626800Y-30857142D02*
X51664895Y-30971428D01*
X51664895Y-30971428D02*
X51664895Y-31161904D01*
X51664895Y-31161904D02*
X51626800Y-31238095D01*
X51626800Y-31238095D02*
X51588704Y-31276190D01*
X51588704Y-31276190D02*
X51512514Y-31314285D01*
X51512514Y-31314285D02*
X51436323Y-31314285D01*
X51436323Y-31314285D02*
X51360133Y-31276190D01*
X51360133Y-31276190D02*
X51322038Y-31238095D01*
X51322038Y-31238095D02*
X51283942Y-31161904D01*
X51283942Y-31161904D02*
X51245847Y-31009523D01*
X51245847Y-31009523D02*
X51207752Y-30933333D01*
X51207752Y-30933333D02*
X51169657Y-30895238D01*
X51169657Y-30895238D02*
X51093466Y-30857142D01*
X51093466Y-30857142D02*
X51017276Y-30857142D01*
X51017276Y-30857142D02*
X50941085Y-30895238D01*
X50941085Y-30895238D02*
X50902990Y-30933333D01*
X50902990Y-30933333D02*
X50864895Y-31009523D01*
X50864895Y-31009523D02*
X50864895Y-31200000D01*
X50864895Y-31200000D02*
X50902990Y-31314285D01*
X50864895Y-31542857D02*
X50864895Y-32000000D01*
X51664895Y-31771428D02*
X50864895Y-31771428D01*
X50864895Y-32761905D02*
X50864895Y-33219048D01*
X51664895Y-32990476D02*
X50864895Y-32990476D01*
X51664895Y-33485715D02*
X50864895Y-33485715D01*
X50864895Y-33485715D02*
X50864895Y-33790477D01*
X50864895Y-33790477D02*
X50902990Y-33866667D01*
X50902990Y-33866667D02*
X50941085Y-33904762D01*
X50941085Y-33904762D02*
X51017276Y-33942858D01*
X51017276Y-33942858D02*
X51131561Y-33942858D01*
X51131561Y-33942858D02*
X51207752Y-33904762D01*
X51207752Y-33904762D02*
X51245847Y-33866667D01*
X51245847Y-33866667D02*
X51283942Y-33790477D01*
X51283942Y-33790477D02*
X51283942Y-33485715D01*
X51245847Y-39904761D02*
X51283942Y-40019047D01*
X51283942Y-40019047D02*
X51322038Y-40057142D01*
X51322038Y-40057142D02*
X51398228Y-40095238D01*
X51398228Y-40095238D02*
X51512514Y-40095238D01*
X51512514Y-40095238D02*
X51588704Y-40057142D01*
X51588704Y-40057142D02*
X51626800Y-40019047D01*
X51626800Y-40019047D02*
X51664895Y-39942857D01*
X51664895Y-39942857D02*
X51664895Y-39638095D01*
X51664895Y-39638095D02*
X50864895Y-39638095D01*
X50864895Y-39638095D02*
X50864895Y-39904761D01*
X50864895Y-39904761D02*
X50902990Y-39980952D01*
X50902990Y-39980952D02*
X50941085Y-40019047D01*
X50941085Y-40019047D02*
X51017276Y-40057142D01*
X51017276Y-40057142D02*
X51093466Y-40057142D01*
X51093466Y-40057142D02*
X51169657Y-40019047D01*
X51169657Y-40019047D02*
X51207752Y-39980952D01*
X51207752Y-39980952D02*
X51245847Y-39904761D01*
X51245847Y-39904761D02*
X51245847Y-39638095D01*
X50864895Y-40590476D02*
X50864895Y-40742857D01*
X50864895Y-40742857D02*
X50902990Y-40819047D01*
X50902990Y-40819047D02*
X50979180Y-40895238D01*
X50979180Y-40895238D02*
X51131561Y-40933333D01*
X51131561Y-40933333D02*
X51398228Y-40933333D01*
X51398228Y-40933333D02*
X51550609Y-40895238D01*
X51550609Y-40895238D02*
X51626800Y-40819047D01*
X51626800Y-40819047D02*
X51664895Y-40742857D01*
X51664895Y-40742857D02*
X51664895Y-40590476D01*
X51664895Y-40590476D02*
X51626800Y-40514285D01*
X51626800Y-40514285D02*
X51550609Y-40438095D01*
X51550609Y-40438095D02*
X51398228Y-40399999D01*
X51398228Y-40399999D02*
X51131561Y-40399999D01*
X51131561Y-40399999D02*
X50979180Y-40438095D01*
X50979180Y-40438095D02*
X50902990Y-40514285D01*
X50902990Y-40514285D02*
X50864895Y-40590476D01*
X50864895Y-41428571D02*
X50864895Y-41580952D01*
X50864895Y-41580952D02*
X50902990Y-41657142D01*
X50902990Y-41657142D02*
X50979180Y-41733333D01*
X50979180Y-41733333D02*
X51131561Y-41771428D01*
X51131561Y-41771428D02*
X51398228Y-41771428D01*
X51398228Y-41771428D02*
X51550609Y-41733333D01*
X51550609Y-41733333D02*
X51626800Y-41657142D01*
X51626800Y-41657142D02*
X51664895Y-41580952D01*
X51664895Y-41580952D02*
X51664895Y-41428571D01*
X51664895Y-41428571D02*
X51626800Y-41352380D01*
X51626800Y-41352380D02*
X51550609Y-41276190D01*
X51550609Y-41276190D02*
X51398228Y-41238094D01*
X51398228Y-41238094D02*
X51131561Y-41238094D01*
X51131561Y-41238094D02*
X50979180Y-41276190D01*
X50979180Y-41276190D02*
X50902990Y-41352380D01*
X50902990Y-41352380D02*
X50864895Y-41428571D01*
X50864895Y-41999999D02*
X50864895Y-42457142D01*
X51664895Y-42228570D02*
X50864895Y-42228570D01*
X50864895Y-43219047D02*
X50864895Y-43676190D01*
X51664895Y-43447618D02*
X50864895Y-43447618D01*
X51664895Y-43942857D02*
X50864895Y-43942857D01*
X50864895Y-43942857D02*
X50864895Y-44247619D01*
X50864895Y-44247619D02*
X50902990Y-44323809D01*
X50902990Y-44323809D02*
X50941085Y-44361904D01*
X50941085Y-44361904D02*
X51017276Y-44400000D01*
X51017276Y-44400000D02*
X51131561Y-44400000D01*
X51131561Y-44400000D02*
X51207752Y-44361904D01*
X51207752Y-44361904D02*
X51245847Y-44323809D01*
X51245847Y-44323809D02*
X51283942Y-44247619D01*
X51283942Y-44247619D02*
X51283942Y-43942857D01*
X72602990Y-61619047D02*
X72564895Y-61542857D01*
X72564895Y-61542857D02*
X72564895Y-61428571D01*
X72564895Y-61428571D02*
X72602990Y-61314285D01*
X72602990Y-61314285D02*
X72679180Y-61238095D01*
X72679180Y-61238095D02*
X72755371Y-61200000D01*
X72755371Y-61200000D02*
X72907752Y-61161904D01*
X72907752Y-61161904D02*
X73022038Y-61161904D01*
X73022038Y-61161904D02*
X73174419Y-61200000D01*
X73174419Y-61200000D02*
X73250609Y-61238095D01*
X73250609Y-61238095D02*
X73326800Y-61314285D01*
X73326800Y-61314285D02*
X73364895Y-61428571D01*
X73364895Y-61428571D02*
X73364895Y-61504762D01*
X73364895Y-61504762D02*
X73326800Y-61619047D01*
X73326800Y-61619047D02*
X73288704Y-61657143D01*
X73288704Y-61657143D02*
X73022038Y-61657143D01*
X73022038Y-61657143D02*
X73022038Y-61504762D01*
X73364895Y-62000000D02*
X72564895Y-62000000D01*
X72564895Y-62000000D02*
X72564895Y-62304762D01*
X72564895Y-62304762D02*
X72602990Y-62380952D01*
X72602990Y-62380952D02*
X72641085Y-62419047D01*
X72641085Y-62419047D02*
X72717276Y-62457143D01*
X72717276Y-62457143D02*
X72831561Y-62457143D01*
X72831561Y-62457143D02*
X72907752Y-62419047D01*
X72907752Y-62419047D02*
X72945847Y-62380952D01*
X72945847Y-62380952D02*
X72983942Y-62304762D01*
X72983942Y-62304762D02*
X72983942Y-62000000D01*
X73364895Y-62800000D02*
X72564895Y-62800000D01*
X72564895Y-63333333D02*
X72564895Y-63485714D01*
X72564895Y-63485714D02*
X72602990Y-63561904D01*
X72602990Y-63561904D02*
X72679180Y-63638095D01*
X72679180Y-63638095D02*
X72831561Y-63676190D01*
X72831561Y-63676190D02*
X73098228Y-63676190D01*
X73098228Y-63676190D02*
X73250609Y-63638095D01*
X73250609Y-63638095D02*
X73326800Y-63561904D01*
X73326800Y-63561904D02*
X73364895Y-63485714D01*
X73364895Y-63485714D02*
X73364895Y-63333333D01*
X73364895Y-63333333D02*
X73326800Y-63257142D01*
X73326800Y-63257142D02*
X73250609Y-63180952D01*
X73250609Y-63180952D02*
X73098228Y-63142856D01*
X73098228Y-63142856D02*
X72831561Y-63142856D01*
X72831561Y-63142856D02*
X72679180Y-63180952D01*
X72679180Y-63180952D02*
X72602990Y-63257142D01*
X72602990Y-63257142D02*
X72564895Y-63333333D01*
X72564895Y-63942856D02*
X72564895Y-64438094D01*
X72564895Y-64438094D02*
X72869657Y-64171428D01*
X72869657Y-64171428D02*
X72869657Y-64285713D01*
X72869657Y-64285713D02*
X72907752Y-64361904D01*
X72907752Y-64361904D02*
X72945847Y-64399999D01*
X72945847Y-64399999D02*
X73022038Y-64438094D01*
X73022038Y-64438094D02*
X73212514Y-64438094D01*
X73212514Y-64438094D02*
X73288704Y-64399999D01*
X73288704Y-64399999D02*
X73326800Y-64361904D01*
X73326800Y-64361904D02*
X73364895Y-64285713D01*
X73364895Y-64285713D02*
X73364895Y-64057142D01*
X73364895Y-64057142D02*
X73326800Y-63980951D01*
X73326800Y-63980951D02*
X73288704Y-63942856D01*
X75142990Y-61238095D02*
X75104895Y-61161905D01*
X75104895Y-61161905D02*
X75104895Y-61047619D01*
X75104895Y-61047619D02*
X75142990Y-60933333D01*
X75142990Y-60933333D02*
X75219180Y-60857143D01*
X75219180Y-60857143D02*
X75295371Y-60819048D01*
X75295371Y-60819048D02*
X75447752Y-60780952D01*
X75447752Y-60780952D02*
X75562038Y-60780952D01*
X75562038Y-60780952D02*
X75714419Y-60819048D01*
X75714419Y-60819048D02*
X75790609Y-60857143D01*
X75790609Y-60857143D02*
X75866800Y-60933333D01*
X75866800Y-60933333D02*
X75904895Y-61047619D01*
X75904895Y-61047619D02*
X75904895Y-61123810D01*
X75904895Y-61123810D02*
X75866800Y-61238095D01*
X75866800Y-61238095D02*
X75828704Y-61276191D01*
X75828704Y-61276191D02*
X75562038Y-61276191D01*
X75562038Y-61276191D02*
X75562038Y-61123810D01*
X75904895Y-61619048D02*
X75104895Y-61619048D01*
X75104895Y-61619048D02*
X75104895Y-61923810D01*
X75104895Y-61923810D02*
X75142990Y-62000000D01*
X75142990Y-62000000D02*
X75181085Y-62038095D01*
X75181085Y-62038095D02*
X75257276Y-62076191D01*
X75257276Y-62076191D02*
X75371561Y-62076191D01*
X75371561Y-62076191D02*
X75447752Y-62038095D01*
X75447752Y-62038095D02*
X75485847Y-62000000D01*
X75485847Y-62000000D02*
X75523942Y-61923810D01*
X75523942Y-61923810D02*
X75523942Y-61619048D01*
X75904895Y-62419048D02*
X75104895Y-62419048D01*
X75104895Y-62952381D02*
X75104895Y-63104762D01*
X75104895Y-63104762D02*
X75142990Y-63180952D01*
X75142990Y-63180952D02*
X75219180Y-63257143D01*
X75219180Y-63257143D02*
X75371561Y-63295238D01*
X75371561Y-63295238D02*
X75638228Y-63295238D01*
X75638228Y-63295238D02*
X75790609Y-63257143D01*
X75790609Y-63257143D02*
X75866800Y-63180952D01*
X75866800Y-63180952D02*
X75904895Y-63104762D01*
X75904895Y-63104762D02*
X75904895Y-62952381D01*
X75904895Y-62952381D02*
X75866800Y-62876190D01*
X75866800Y-62876190D02*
X75790609Y-62800000D01*
X75790609Y-62800000D02*
X75638228Y-62761904D01*
X75638228Y-62761904D02*
X75371561Y-62761904D01*
X75371561Y-62761904D02*
X75219180Y-62800000D01*
X75219180Y-62800000D02*
X75142990Y-62876190D01*
X75142990Y-62876190D02*
X75104895Y-62952381D01*
X75371561Y-63980952D02*
X75904895Y-63980952D01*
X75066800Y-63790476D02*
X75638228Y-63599999D01*
X75638228Y-63599999D02*
X75638228Y-64095238D01*
X75104895Y-64742857D02*
X75104895Y-64590476D01*
X75104895Y-64590476D02*
X75142990Y-64514285D01*
X75142990Y-64514285D02*
X75181085Y-64476190D01*
X75181085Y-64476190D02*
X75295371Y-64400000D01*
X75295371Y-64400000D02*
X75447752Y-64361904D01*
X75447752Y-64361904D02*
X75752514Y-64361904D01*
X75752514Y-64361904D02*
X75828704Y-64400000D01*
X75828704Y-64400000D02*
X75866800Y-64438095D01*
X75866800Y-64438095D02*
X75904895Y-64514285D01*
X75904895Y-64514285D02*
X75904895Y-64666666D01*
X75904895Y-64666666D02*
X75866800Y-64742857D01*
X75866800Y-64742857D02*
X75828704Y-64780952D01*
X75828704Y-64780952D02*
X75752514Y-64819047D01*
X75752514Y-64819047D02*
X75562038Y-64819047D01*
X75562038Y-64819047D02*
X75485847Y-64780952D01*
X75485847Y-64780952D02*
X75447752Y-64742857D01*
X75447752Y-64742857D02*
X75409657Y-64666666D01*
X75409657Y-64666666D02*
X75409657Y-64514285D01*
X75409657Y-64514285D02*
X75447752Y-64438095D01*
X75447752Y-64438095D02*
X75485847Y-64400000D01*
X75485847Y-64400000D02*
X75562038Y-64361904D01*
X77682990Y-61619047D02*
X77644895Y-61542857D01*
X77644895Y-61542857D02*
X77644895Y-61428571D01*
X77644895Y-61428571D02*
X77682990Y-61314285D01*
X77682990Y-61314285D02*
X77759180Y-61238095D01*
X77759180Y-61238095D02*
X77835371Y-61200000D01*
X77835371Y-61200000D02*
X77987752Y-61161904D01*
X77987752Y-61161904D02*
X78102038Y-61161904D01*
X78102038Y-61161904D02*
X78254419Y-61200000D01*
X78254419Y-61200000D02*
X78330609Y-61238095D01*
X78330609Y-61238095D02*
X78406800Y-61314285D01*
X78406800Y-61314285D02*
X78444895Y-61428571D01*
X78444895Y-61428571D02*
X78444895Y-61504762D01*
X78444895Y-61504762D02*
X78406800Y-61619047D01*
X78406800Y-61619047D02*
X78368704Y-61657143D01*
X78368704Y-61657143D02*
X78102038Y-61657143D01*
X78102038Y-61657143D02*
X78102038Y-61504762D01*
X78444895Y-62000000D02*
X77644895Y-62000000D01*
X77644895Y-62000000D02*
X77644895Y-62304762D01*
X77644895Y-62304762D02*
X77682990Y-62380952D01*
X77682990Y-62380952D02*
X77721085Y-62419047D01*
X77721085Y-62419047D02*
X77797276Y-62457143D01*
X77797276Y-62457143D02*
X77911561Y-62457143D01*
X77911561Y-62457143D02*
X77987752Y-62419047D01*
X77987752Y-62419047D02*
X78025847Y-62380952D01*
X78025847Y-62380952D02*
X78063942Y-62304762D01*
X78063942Y-62304762D02*
X78063942Y-62000000D01*
X78444895Y-62800000D02*
X77644895Y-62800000D01*
X77644895Y-63333333D02*
X77644895Y-63485714D01*
X77644895Y-63485714D02*
X77682990Y-63561904D01*
X77682990Y-63561904D02*
X77759180Y-63638095D01*
X77759180Y-63638095D02*
X77911561Y-63676190D01*
X77911561Y-63676190D02*
X78178228Y-63676190D01*
X78178228Y-63676190D02*
X78330609Y-63638095D01*
X78330609Y-63638095D02*
X78406800Y-63561904D01*
X78406800Y-63561904D02*
X78444895Y-63485714D01*
X78444895Y-63485714D02*
X78444895Y-63333333D01*
X78444895Y-63333333D02*
X78406800Y-63257142D01*
X78406800Y-63257142D02*
X78330609Y-63180952D01*
X78330609Y-63180952D02*
X78178228Y-63142856D01*
X78178228Y-63142856D02*
X77911561Y-63142856D01*
X77911561Y-63142856D02*
X77759180Y-63180952D01*
X77759180Y-63180952D02*
X77682990Y-63257142D01*
X77682990Y-63257142D02*
X77644895Y-63333333D01*
X78444895Y-64057142D02*
X78444895Y-64209523D01*
X78444895Y-64209523D02*
X78406800Y-64285713D01*
X78406800Y-64285713D02*
X78368704Y-64323809D01*
X78368704Y-64323809D02*
X78254419Y-64399999D01*
X78254419Y-64399999D02*
X78102038Y-64438094D01*
X78102038Y-64438094D02*
X77797276Y-64438094D01*
X77797276Y-64438094D02*
X77721085Y-64399999D01*
X77721085Y-64399999D02*
X77682990Y-64361904D01*
X77682990Y-64361904D02*
X77644895Y-64285713D01*
X77644895Y-64285713D02*
X77644895Y-64133332D01*
X77644895Y-64133332D02*
X77682990Y-64057142D01*
X77682990Y-64057142D02*
X77721085Y-64019047D01*
X77721085Y-64019047D02*
X77797276Y-63980951D01*
X77797276Y-63980951D02*
X77987752Y-63980951D01*
X77987752Y-63980951D02*
X78063942Y-64019047D01*
X78063942Y-64019047D02*
X78102038Y-64057142D01*
X78102038Y-64057142D02*
X78140133Y-64133332D01*
X78140133Y-64133332D02*
X78140133Y-64285713D01*
X78140133Y-64285713D02*
X78102038Y-64361904D01*
X78102038Y-64361904D02*
X78063942Y-64399999D01*
X78063942Y-64399999D02*
X77987752Y-64438094D01*
X80222990Y-61238095D02*
X80184895Y-61161905D01*
X80184895Y-61161905D02*
X80184895Y-61047619D01*
X80184895Y-61047619D02*
X80222990Y-60933333D01*
X80222990Y-60933333D02*
X80299180Y-60857143D01*
X80299180Y-60857143D02*
X80375371Y-60819048D01*
X80375371Y-60819048D02*
X80527752Y-60780952D01*
X80527752Y-60780952D02*
X80642038Y-60780952D01*
X80642038Y-60780952D02*
X80794419Y-60819048D01*
X80794419Y-60819048D02*
X80870609Y-60857143D01*
X80870609Y-60857143D02*
X80946800Y-60933333D01*
X80946800Y-60933333D02*
X80984895Y-61047619D01*
X80984895Y-61047619D02*
X80984895Y-61123810D01*
X80984895Y-61123810D02*
X80946800Y-61238095D01*
X80946800Y-61238095D02*
X80908704Y-61276191D01*
X80908704Y-61276191D02*
X80642038Y-61276191D01*
X80642038Y-61276191D02*
X80642038Y-61123810D01*
X80984895Y-61619048D02*
X80184895Y-61619048D01*
X80184895Y-61619048D02*
X80184895Y-61923810D01*
X80184895Y-61923810D02*
X80222990Y-62000000D01*
X80222990Y-62000000D02*
X80261085Y-62038095D01*
X80261085Y-62038095D02*
X80337276Y-62076191D01*
X80337276Y-62076191D02*
X80451561Y-62076191D01*
X80451561Y-62076191D02*
X80527752Y-62038095D01*
X80527752Y-62038095D02*
X80565847Y-62000000D01*
X80565847Y-62000000D02*
X80603942Y-61923810D01*
X80603942Y-61923810D02*
X80603942Y-61619048D01*
X80984895Y-62419048D02*
X80184895Y-62419048D01*
X80184895Y-62952381D02*
X80184895Y-63104762D01*
X80184895Y-63104762D02*
X80222990Y-63180952D01*
X80222990Y-63180952D02*
X80299180Y-63257143D01*
X80299180Y-63257143D02*
X80451561Y-63295238D01*
X80451561Y-63295238D02*
X80718228Y-63295238D01*
X80718228Y-63295238D02*
X80870609Y-63257143D01*
X80870609Y-63257143D02*
X80946800Y-63180952D01*
X80946800Y-63180952D02*
X80984895Y-63104762D01*
X80984895Y-63104762D02*
X80984895Y-62952381D01*
X80984895Y-62952381D02*
X80946800Y-62876190D01*
X80946800Y-62876190D02*
X80870609Y-62800000D01*
X80870609Y-62800000D02*
X80718228Y-62761904D01*
X80718228Y-62761904D02*
X80451561Y-62761904D01*
X80451561Y-62761904D02*
X80299180Y-62800000D01*
X80299180Y-62800000D02*
X80222990Y-62876190D01*
X80222990Y-62876190D02*
X80184895Y-62952381D01*
X80984895Y-64057142D02*
X80984895Y-63599999D01*
X80984895Y-63828571D02*
X80184895Y-63828571D01*
X80184895Y-63828571D02*
X80299180Y-63752380D01*
X80299180Y-63752380D02*
X80375371Y-63676190D01*
X80375371Y-63676190D02*
X80413466Y-63599999D01*
X80184895Y-64552381D02*
X80184895Y-64628571D01*
X80184895Y-64628571D02*
X80222990Y-64704762D01*
X80222990Y-64704762D02*
X80261085Y-64742857D01*
X80261085Y-64742857D02*
X80337276Y-64780952D01*
X80337276Y-64780952D02*
X80489657Y-64819047D01*
X80489657Y-64819047D02*
X80680133Y-64819047D01*
X80680133Y-64819047D02*
X80832514Y-64780952D01*
X80832514Y-64780952D02*
X80908704Y-64742857D01*
X80908704Y-64742857D02*
X80946800Y-64704762D01*
X80946800Y-64704762D02*
X80984895Y-64628571D01*
X80984895Y-64628571D02*
X80984895Y-64552381D01*
X80984895Y-64552381D02*
X80946800Y-64476190D01*
X80946800Y-64476190D02*
X80908704Y-64438095D01*
X80908704Y-64438095D02*
X80832514Y-64400000D01*
X80832514Y-64400000D02*
X80680133Y-64361904D01*
X80680133Y-64361904D02*
X80489657Y-64361904D01*
X80489657Y-64361904D02*
X80337276Y-64400000D01*
X80337276Y-64400000D02*
X80261085Y-64438095D01*
X80261085Y-64438095D02*
X80222990Y-64476190D01*
X80222990Y-64476190D02*
X80184895Y-64552381D01*
X82762990Y-60114285D02*
X82724895Y-60038095D01*
X82724895Y-60038095D02*
X82724895Y-59923809D01*
X82724895Y-59923809D02*
X82762990Y-59809523D01*
X82762990Y-59809523D02*
X82839180Y-59733333D01*
X82839180Y-59733333D02*
X82915371Y-59695238D01*
X82915371Y-59695238D02*
X83067752Y-59657142D01*
X83067752Y-59657142D02*
X83182038Y-59657142D01*
X83182038Y-59657142D02*
X83334419Y-59695238D01*
X83334419Y-59695238D02*
X83410609Y-59733333D01*
X83410609Y-59733333D02*
X83486800Y-59809523D01*
X83486800Y-59809523D02*
X83524895Y-59923809D01*
X83524895Y-59923809D02*
X83524895Y-60000000D01*
X83524895Y-60000000D02*
X83486800Y-60114285D01*
X83486800Y-60114285D02*
X83448704Y-60152381D01*
X83448704Y-60152381D02*
X83182038Y-60152381D01*
X83182038Y-60152381D02*
X83182038Y-60000000D01*
X83524895Y-60495238D02*
X82724895Y-60495238D01*
X82724895Y-60495238D02*
X82724895Y-60800000D01*
X82724895Y-60800000D02*
X82762990Y-60876190D01*
X82762990Y-60876190D02*
X82801085Y-60914285D01*
X82801085Y-60914285D02*
X82877276Y-60952381D01*
X82877276Y-60952381D02*
X82991561Y-60952381D01*
X82991561Y-60952381D02*
X83067752Y-60914285D01*
X83067752Y-60914285D02*
X83105847Y-60876190D01*
X83105847Y-60876190D02*
X83143942Y-60800000D01*
X83143942Y-60800000D02*
X83143942Y-60495238D01*
X83524895Y-61295238D02*
X82724895Y-61295238D01*
X82724895Y-61828571D02*
X82724895Y-61980952D01*
X82724895Y-61980952D02*
X82762990Y-62057142D01*
X82762990Y-62057142D02*
X82839180Y-62133333D01*
X82839180Y-62133333D02*
X82991561Y-62171428D01*
X82991561Y-62171428D02*
X83258228Y-62171428D01*
X83258228Y-62171428D02*
X83410609Y-62133333D01*
X83410609Y-62133333D02*
X83486800Y-62057142D01*
X83486800Y-62057142D02*
X83524895Y-61980952D01*
X83524895Y-61980952D02*
X83524895Y-61828571D01*
X83524895Y-61828571D02*
X83486800Y-61752380D01*
X83486800Y-61752380D02*
X83410609Y-61676190D01*
X83410609Y-61676190D02*
X83258228Y-61638094D01*
X83258228Y-61638094D02*
X82991561Y-61638094D01*
X82991561Y-61638094D02*
X82839180Y-61676190D01*
X82839180Y-61676190D02*
X82762990Y-61752380D01*
X82762990Y-61752380D02*
X82724895Y-61828571D01*
X83524895Y-62933332D02*
X83524895Y-62476189D01*
X83524895Y-62704761D02*
X82724895Y-62704761D01*
X82724895Y-62704761D02*
X82839180Y-62628570D01*
X82839180Y-62628570D02*
X82915371Y-62552380D01*
X82915371Y-62552380D02*
X82953466Y-62476189D01*
X83524895Y-63695237D02*
X83524895Y-63238094D01*
X83524895Y-63466666D02*
X82724895Y-63466666D01*
X82724895Y-63466666D02*
X82839180Y-63390475D01*
X82839180Y-63390475D02*
X82915371Y-63314285D01*
X82915371Y-63314285D02*
X82953466Y-63238094D01*
X83524895Y-64647619D02*
X82724895Y-64647619D01*
X82724895Y-64647619D02*
X82724895Y-64838095D01*
X82724895Y-64838095D02*
X82762990Y-64952381D01*
X82762990Y-64952381D02*
X82839180Y-65028571D01*
X82839180Y-65028571D02*
X82915371Y-65066666D01*
X82915371Y-65066666D02*
X83067752Y-65104762D01*
X83067752Y-65104762D02*
X83182038Y-65104762D01*
X83182038Y-65104762D02*
X83334419Y-65066666D01*
X83334419Y-65066666D02*
X83410609Y-65028571D01*
X83410609Y-65028571D02*
X83486800Y-64952381D01*
X83486800Y-64952381D02*
X83524895Y-64838095D01*
X83524895Y-64838095D02*
X83524895Y-64647619D01*
X82724895Y-65600000D02*
X82724895Y-65752381D01*
X82724895Y-65752381D02*
X82762990Y-65828571D01*
X82762990Y-65828571D02*
X82839180Y-65904762D01*
X82839180Y-65904762D02*
X82991561Y-65942857D01*
X82991561Y-65942857D02*
X83258228Y-65942857D01*
X83258228Y-65942857D02*
X83410609Y-65904762D01*
X83410609Y-65904762D02*
X83486800Y-65828571D01*
X83486800Y-65828571D02*
X83524895Y-65752381D01*
X83524895Y-65752381D02*
X83524895Y-65600000D01*
X83524895Y-65600000D02*
X83486800Y-65523809D01*
X83486800Y-65523809D02*
X83410609Y-65447619D01*
X83410609Y-65447619D02*
X83258228Y-65409523D01*
X83258228Y-65409523D02*
X82991561Y-65409523D01*
X82991561Y-65409523D02*
X82839180Y-65447619D01*
X82839180Y-65447619D02*
X82762990Y-65523809D01*
X82762990Y-65523809D02*
X82724895Y-65600000D01*
X85302990Y-60152380D02*
X85264895Y-60076190D01*
X85264895Y-60076190D02*
X85264895Y-59961904D01*
X85264895Y-59961904D02*
X85302990Y-59847618D01*
X85302990Y-59847618D02*
X85379180Y-59771428D01*
X85379180Y-59771428D02*
X85455371Y-59733333D01*
X85455371Y-59733333D02*
X85607752Y-59695237D01*
X85607752Y-59695237D02*
X85722038Y-59695237D01*
X85722038Y-59695237D02*
X85874419Y-59733333D01*
X85874419Y-59733333D02*
X85950609Y-59771428D01*
X85950609Y-59771428D02*
X86026800Y-59847618D01*
X86026800Y-59847618D02*
X86064895Y-59961904D01*
X86064895Y-59961904D02*
X86064895Y-60038095D01*
X86064895Y-60038095D02*
X86026800Y-60152380D01*
X86026800Y-60152380D02*
X85988704Y-60190476D01*
X85988704Y-60190476D02*
X85722038Y-60190476D01*
X85722038Y-60190476D02*
X85722038Y-60038095D01*
X86064895Y-60533333D02*
X85264895Y-60533333D01*
X85264895Y-60533333D02*
X85264895Y-60838095D01*
X85264895Y-60838095D02*
X85302990Y-60914285D01*
X85302990Y-60914285D02*
X85341085Y-60952380D01*
X85341085Y-60952380D02*
X85417276Y-60990476D01*
X85417276Y-60990476D02*
X85531561Y-60990476D01*
X85531561Y-60990476D02*
X85607752Y-60952380D01*
X85607752Y-60952380D02*
X85645847Y-60914285D01*
X85645847Y-60914285D02*
X85683942Y-60838095D01*
X85683942Y-60838095D02*
X85683942Y-60533333D01*
X86064895Y-61333333D02*
X85264895Y-61333333D01*
X85264895Y-61866666D02*
X85264895Y-62019047D01*
X85264895Y-62019047D02*
X85302990Y-62095237D01*
X85302990Y-62095237D02*
X85379180Y-62171428D01*
X85379180Y-62171428D02*
X85531561Y-62209523D01*
X85531561Y-62209523D02*
X85798228Y-62209523D01*
X85798228Y-62209523D02*
X85950609Y-62171428D01*
X85950609Y-62171428D02*
X86026800Y-62095237D01*
X86026800Y-62095237D02*
X86064895Y-62019047D01*
X86064895Y-62019047D02*
X86064895Y-61866666D01*
X86064895Y-61866666D02*
X86026800Y-61790475D01*
X86026800Y-61790475D02*
X85950609Y-61714285D01*
X85950609Y-61714285D02*
X85798228Y-61676189D01*
X85798228Y-61676189D02*
X85531561Y-61676189D01*
X85531561Y-61676189D02*
X85379180Y-61714285D01*
X85379180Y-61714285D02*
X85302990Y-61790475D01*
X85302990Y-61790475D02*
X85264895Y-61866666D01*
X86064895Y-62971427D02*
X86064895Y-62514284D01*
X86064895Y-62742856D02*
X85264895Y-62742856D01*
X85264895Y-62742856D02*
X85379180Y-62666665D01*
X85379180Y-62666665D02*
X85455371Y-62590475D01*
X85455371Y-62590475D02*
X85493466Y-62514284D01*
X85341085Y-63276189D02*
X85302990Y-63314285D01*
X85302990Y-63314285D02*
X85264895Y-63390475D01*
X85264895Y-63390475D02*
X85264895Y-63580951D01*
X85264895Y-63580951D02*
X85302990Y-63657142D01*
X85302990Y-63657142D02*
X85341085Y-63695237D01*
X85341085Y-63695237D02*
X85417276Y-63733332D01*
X85417276Y-63733332D02*
X85493466Y-63733332D01*
X85493466Y-63733332D02*
X85607752Y-63695237D01*
X85607752Y-63695237D02*
X86064895Y-63238094D01*
X86064895Y-63238094D02*
X86064895Y-63733332D01*
X85988704Y-65142857D02*
X86026800Y-65104761D01*
X86026800Y-65104761D02*
X86064895Y-64990476D01*
X86064895Y-64990476D02*
X86064895Y-64914285D01*
X86064895Y-64914285D02*
X86026800Y-64799999D01*
X86026800Y-64799999D02*
X85950609Y-64723809D01*
X85950609Y-64723809D02*
X85874419Y-64685714D01*
X85874419Y-64685714D02*
X85722038Y-64647618D01*
X85722038Y-64647618D02*
X85607752Y-64647618D01*
X85607752Y-64647618D02*
X85455371Y-64685714D01*
X85455371Y-64685714D02*
X85379180Y-64723809D01*
X85379180Y-64723809D02*
X85302990Y-64799999D01*
X85302990Y-64799999D02*
X85264895Y-64914285D01*
X85264895Y-64914285D02*
X85264895Y-64990476D01*
X85264895Y-64990476D02*
X85302990Y-65104761D01*
X85302990Y-65104761D02*
X85341085Y-65142857D01*
X86026800Y-65447618D02*
X86064895Y-65561904D01*
X86064895Y-65561904D02*
X86064895Y-65752380D01*
X86064895Y-65752380D02*
X86026800Y-65828571D01*
X86026800Y-65828571D02*
X85988704Y-65866666D01*
X85988704Y-65866666D02*
X85912514Y-65904761D01*
X85912514Y-65904761D02*
X85836323Y-65904761D01*
X85836323Y-65904761D02*
X85760133Y-65866666D01*
X85760133Y-65866666D02*
X85722038Y-65828571D01*
X85722038Y-65828571D02*
X85683942Y-65752380D01*
X85683942Y-65752380D02*
X85645847Y-65599999D01*
X85645847Y-65599999D02*
X85607752Y-65523809D01*
X85607752Y-65523809D02*
X85569657Y-65485714D01*
X85569657Y-65485714D02*
X85493466Y-65447618D01*
X85493466Y-65447618D02*
X85417276Y-65447618D01*
X85417276Y-65447618D02*
X85341085Y-65485714D01*
X85341085Y-65485714D02*
X85302990Y-65523809D01*
X85302990Y-65523809D02*
X85264895Y-65599999D01*
X85264895Y-65599999D02*
X85264895Y-65790476D01*
X85264895Y-65790476D02*
X85302990Y-65904761D01*
X87842990Y-59809523D02*
X87804895Y-59733333D01*
X87804895Y-59733333D02*
X87804895Y-59619047D01*
X87804895Y-59619047D02*
X87842990Y-59504761D01*
X87842990Y-59504761D02*
X87919180Y-59428571D01*
X87919180Y-59428571D02*
X87995371Y-59390476D01*
X87995371Y-59390476D02*
X88147752Y-59352380D01*
X88147752Y-59352380D02*
X88262038Y-59352380D01*
X88262038Y-59352380D02*
X88414419Y-59390476D01*
X88414419Y-59390476D02*
X88490609Y-59428571D01*
X88490609Y-59428571D02*
X88566800Y-59504761D01*
X88566800Y-59504761D02*
X88604895Y-59619047D01*
X88604895Y-59619047D02*
X88604895Y-59695238D01*
X88604895Y-59695238D02*
X88566800Y-59809523D01*
X88566800Y-59809523D02*
X88528704Y-59847619D01*
X88528704Y-59847619D02*
X88262038Y-59847619D01*
X88262038Y-59847619D02*
X88262038Y-59695238D01*
X88604895Y-60190476D02*
X87804895Y-60190476D01*
X87804895Y-60190476D02*
X87804895Y-60495238D01*
X87804895Y-60495238D02*
X87842990Y-60571428D01*
X87842990Y-60571428D02*
X87881085Y-60609523D01*
X87881085Y-60609523D02*
X87957276Y-60647619D01*
X87957276Y-60647619D02*
X88071561Y-60647619D01*
X88071561Y-60647619D02*
X88147752Y-60609523D01*
X88147752Y-60609523D02*
X88185847Y-60571428D01*
X88185847Y-60571428D02*
X88223942Y-60495238D01*
X88223942Y-60495238D02*
X88223942Y-60190476D01*
X88604895Y-60990476D02*
X87804895Y-60990476D01*
X87804895Y-61523809D02*
X87804895Y-61676190D01*
X87804895Y-61676190D02*
X87842990Y-61752380D01*
X87842990Y-61752380D02*
X87919180Y-61828571D01*
X87919180Y-61828571D02*
X88071561Y-61866666D01*
X88071561Y-61866666D02*
X88338228Y-61866666D01*
X88338228Y-61866666D02*
X88490609Y-61828571D01*
X88490609Y-61828571D02*
X88566800Y-61752380D01*
X88566800Y-61752380D02*
X88604895Y-61676190D01*
X88604895Y-61676190D02*
X88604895Y-61523809D01*
X88604895Y-61523809D02*
X88566800Y-61447618D01*
X88566800Y-61447618D02*
X88490609Y-61371428D01*
X88490609Y-61371428D02*
X88338228Y-61333332D01*
X88338228Y-61333332D02*
X88071561Y-61333332D01*
X88071561Y-61333332D02*
X87919180Y-61371428D01*
X87919180Y-61371428D02*
X87842990Y-61447618D01*
X87842990Y-61447618D02*
X87804895Y-61523809D01*
X88604895Y-62628570D02*
X88604895Y-62171427D01*
X88604895Y-62399999D02*
X87804895Y-62399999D01*
X87804895Y-62399999D02*
X87919180Y-62323808D01*
X87919180Y-62323808D02*
X87995371Y-62247618D01*
X87995371Y-62247618D02*
X88033466Y-62171427D01*
X87804895Y-62895237D02*
X87804895Y-63390475D01*
X87804895Y-63390475D02*
X88109657Y-63123809D01*
X88109657Y-63123809D02*
X88109657Y-63238094D01*
X88109657Y-63238094D02*
X88147752Y-63314285D01*
X88147752Y-63314285D02*
X88185847Y-63352380D01*
X88185847Y-63352380D02*
X88262038Y-63390475D01*
X88262038Y-63390475D02*
X88452514Y-63390475D01*
X88452514Y-63390475D02*
X88528704Y-63352380D01*
X88528704Y-63352380D02*
X88566800Y-63314285D01*
X88566800Y-63314285D02*
X88604895Y-63238094D01*
X88604895Y-63238094D02*
X88604895Y-63009523D01*
X88604895Y-63009523D02*
X88566800Y-62933332D01*
X88566800Y-62933332D02*
X88528704Y-62895237D01*
X88528704Y-64800000D02*
X88566800Y-64761904D01*
X88566800Y-64761904D02*
X88604895Y-64647619D01*
X88604895Y-64647619D02*
X88604895Y-64571428D01*
X88604895Y-64571428D02*
X88566800Y-64457142D01*
X88566800Y-64457142D02*
X88490609Y-64380952D01*
X88490609Y-64380952D02*
X88414419Y-64342857D01*
X88414419Y-64342857D02*
X88262038Y-64304761D01*
X88262038Y-64304761D02*
X88147752Y-64304761D01*
X88147752Y-64304761D02*
X87995371Y-64342857D01*
X87995371Y-64342857D02*
X87919180Y-64380952D01*
X87919180Y-64380952D02*
X87842990Y-64457142D01*
X87842990Y-64457142D02*
X87804895Y-64571428D01*
X87804895Y-64571428D02*
X87804895Y-64647619D01*
X87804895Y-64647619D02*
X87842990Y-64761904D01*
X87842990Y-64761904D02*
X87881085Y-64800000D01*
X88604895Y-65523809D02*
X88604895Y-65142857D01*
X88604895Y-65142857D02*
X87804895Y-65142857D01*
X88604895Y-65790476D02*
X87804895Y-65790476D01*
X88604895Y-66247619D02*
X88147752Y-65904761D01*
X87804895Y-66247619D02*
X88262038Y-65790476D01*
X90382990Y-61238095D02*
X90344895Y-61161905D01*
X90344895Y-61161905D02*
X90344895Y-61047619D01*
X90344895Y-61047619D02*
X90382990Y-60933333D01*
X90382990Y-60933333D02*
X90459180Y-60857143D01*
X90459180Y-60857143D02*
X90535371Y-60819048D01*
X90535371Y-60819048D02*
X90687752Y-60780952D01*
X90687752Y-60780952D02*
X90802038Y-60780952D01*
X90802038Y-60780952D02*
X90954419Y-60819048D01*
X90954419Y-60819048D02*
X91030609Y-60857143D01*
X91030609Y-60857143D02*
X91106800Y-60933333D01*
X91106800Y-60933333D02*
X91144895Y-61047619D01*
X91144895Y-61047619D02*
X91144895Y-61123810D01*
X91144895Y-61123810D02*
X91106800Y-61238095D01*
X91106800Y-61238095D02*
X91068704Y-61276191D01*
X91068704Y-61276191D02*
X90802038Y-61276191D01*
X90802038Y-61276191D02*
X90802038Y-61123810D01*
X91144895Y-61619048D02*
X90344895Y-61619048D01*
X90344895Y-61619048D02*
X90344895Y-61923810D01*
X90344895Y-61923810D02*
X90382990Y-62000000D01*
X90382990Y-62000000D02*
X90421085Y-62038095D01*
X90421085Y-62038095D02*
X90497276Y-62076191D01*
X90497276Y-62076191D02*
X90611561Y-62076191D01*
X90611561Y-62076191D02*
X90687752Y-62038095D01*
X90687752Y-62038095D02*
X90725847Y-62000000D01*
X90725847Y-62000000D02*
X90763942Y-61923810D01*
X90763942Y-61923810D02*
X90763942Y-61619048D01*
X91144895Y-62419048D02*
X90344895Y-62419048D01*
X90344895Y-62952381D02*
X90344895Y-63104762D01*
X90344895Y-63104762D02*
X90382990Y-63180952D01*
X90382990Y-63180952D02*
X90459180Y-63257143D01*
X90459180Y-63257143D02*
X90611561Y-63295238D01*
X90611561Y-63295238D02*
X90878228Y-63295238D01*
X90878228Y-63295238D02*
X91030609Y-63257143D01*
X91030609Y-63257143D02*
X91106800Y-63180952D01*
X91106800Y-63180952D02*
X91144895Y-63104762D01*
X91144895Y-63104762D02*
X91144895Y-62952381D01*
X91144895Y-62952381D02*
X91106800Y-62876190D01*
X91106800Y-62876190D02*
X91030609Y-62800000D01*
X91030609Y-62800000D02*
X90878228Y-62761904D01*
X90878228Y-62761904D02*
X90611561Y-62761904D01*
X90611561Y-62761904D02*
X90459180Y-62800000D01*
X90459180Y-62800000D02*
X90382990Y-62876190D01*
X90382990Y-62876190D02*
X90344895Y-62952381D01*
X91144895Y-64057142D02*
X91144895Y-63599999D01*
X91144895Y-63828571D02*
X90344895Y-63828571D01*
X90344895Y-63828571D02*
X90459180Y-63752380D01*
X90459180Y-63752380D02*
X90535371Y-63676190D01*
X90535371Y-63676190D02*
X90573466Y-63599999D01*
X90611561Y-64742857D02*
X91144895Y-64742857D01*
X90306800Y-64552381D02*
X90878228Y-64361904D01*
X90878228Y-64361904D02*
X90878228Y-64857143D01*
X92922990Y-61238095D02*
X92884895Y-61161905D01*
X92884895Y-61161905D02*
X92884895Y-61047619D01*
X92884895Y-61047619D02*
X92922990Y-60933333D01*
X92922990Y-60933333D02*
X92999180Y-60857143D01*
X92999180Y-60857143D02*
X93075371Y-60819048D01*
X93075371Y-60819048D02*
X93227752Y-60780952D01*
X93227752Y-60780952D02*
X93342038Y-60780952D01*
X93342038Y-60780952D02*
X93494419Y-60819048D01*
X93494419Y-60819048D02*
X93570609Y-60857143D01*
X93570609Y-60857143D02*
X93646800Y-60933333D01*
X93646800Y-60933333D02*
X93684895Y-61047619D01*
X93684895Y-61047619D02*
X93684895Y-61123810D01*
X93684895Y-61123810D02*
X93646800Y-61238095D01*
X93646800Y-61238095D02*
X93608704Y-61276191D01*
X93608704Y-61276191D02*
X93342038Y-61276191D01*
X93342038Y-61276191D02*
X93342038Y-61123810D01*
X93684895Y-61619048D02*
X92884895Y-61619048D01*
X92884895Y-61619048D02*
X92884895Y-61923810D01*
X92884895Y-61923810D02*
X92922990Y-62000000D01*
X92922990Y-62000000D02*
X92961085Y-62038095D01*
X92961085Y-62038095D02*
X93037276Y-62076191D01*
X93037276Y-62076191D02*
X93151561Y-62076191D01*
X93151561Y-62076191D02*
X93227752Y-62038095D01*
X93227752Y-62038095D02*
X93265847Y-62000000D01*
X93265847Y-62000000D02*
X93303942Y-61923810D01*
X93303942Y-61923810D02*
X93303942Y-61619048D01*
X93684895Y-62419048D02*
X92884895Y-62419048D01*
X92884895Y-62952381D02*
X92884895Y-63104762D01*
X92884895Y-63104762D02*
X92922990Y-63180952D01*
X92922990Y-63180952D02*
X92999180Y-63257143D01*
X92999180Y-63257143D02*
X93151561Y-63295238D01*
X93151561Y-63295238D02*
X93418228Y-63295238D01*
X93418228Y-63295238D02*
X93570609Y-63257143D01*
X93570609Y-63257143D02*
X93646800Y-63180952D01*
X93646800Y-63180952D02*
X93684895Y-63104762D01*
X93684895Y-63104762D02*
X93684895Y-62952381D01*
X93684895Y-62952381D02*
X93646800Y-62876190D01*
X93646800Y-62876190D02*
X93570609Y-62800000D01*
X93570609Y-62800000D02*
X93418228Y-62761904D01*
X93418228Y-62761904D02*
X93151561Y-62761904D01*
X93151561Y-62761904D02*
X92999180Y-62800000D01*
X92999180Y-62800000D02*
X92922990Y-62876190D01*
X92922990Y-62876190D02*
X92884895Y-62952381D01*
X92961085Y-63599999D02*
X92922990Y-63638095D01*
X92922990Y-63638095D02*
X92884895Y-63714285D01*
X92884895Y-63714285D02*
X92884895Y-63904761D01*
X92884895Y-63904761D02*
X92922990Y-63980952D01*
X92922990Y-63980952D02*
X92961085Y-64019047D01*
X92961085Y-64019047D02*
X93037276Y-64057142D01*
X93037276Y-64057142D02*
X93113466Y-64057142D01*
X93113466Y-64057142D02*
X93227752Y-64019047D01*
X93227752Y-64019047D02*
X93684895Y-63561904D01*
X93684895Y-63561904D02*
X93684895Y-64057142D01*
X93684895Y-64819047D02*
X93684895Y-64361904D01*
X93684895Y-64590476D02*
X92884895Y-64590476D01*
X92884895Y-64590476D02*
X92999180Y-64514285D01*
X92999180Y-64514285D02*
X93075371Y-64438095D01*
X93075371Y-64438095D02*
X93113466Y-64361904D01*
X95462990Y-61238095D02*
X95424895Y-61161905D01*
X95424895Y-61161905D02*
X95424895Y-61047619D01*
X95424895Y-61047619D02*
X95462990Y-60933333D01*
X95462990Y-60933333D02*
X95539180Y-60857143D01*
X95539180Y-60857143D02*
X95615371Y-60819048D01*
X95615371Y-60819048D02*
X95767752Y-60780952D01*
X95767752Y-60780952D02*
X95882038Y-60780952D01*
X95882038Y-60780952D02*
X96034419Y-60819048D01*
X96034419Y-60819048D02*
X96110609Y-60857143D01*
X96110609Y-60857143D02*
X96186800Y-60933333D01*
X96186800Y-60933333D02*
X96224895Y-61047619D01*
X96224895Y-61047619D02*
X96224895Y-61123810D01*
X96224895Y-61123810D02*
X96186800Y-61238095D01*
X96186800Y-61238095D02*
X96148704Y-61276191D01*
X96148704Y-61276191D02*
X95882038Y-61276191D01*
X95882038Y-61276191D02*
X95882038Y-61123810D01*
X96224895Y-61619048D02*
X95424895Y-61619048D01*
X95424895Y-61619048D02*
X95424895Y-61923810D01*
X95424895Y-61923810D02*
X95462990Y-62000000D01*
X95462990Y-62000000D02*
X95501085Y-62038095D01*
X95501085Y-62038095D02*
X95577276Y-62076191D01*
X95577276Y-62076191D02*
X95691561Y-62076191D01*
X95691561Y-62076191D02*
X95767752Y-62038095D01*
X95767752Y-62038095D02*
X95805847Y-62000000D01*
X95805847Y-62000000D02*
X95843942Y-61923810D01*
X95843942Y-61923810D02*
X95843942Y-61619048D01*
X96224895Y-62419048D02*
X95424895Y-62419048D01*
X95424895Y-62952381D02*
X95424895Y-63104762D01*
X95424895Y-63104762D02*
X95462990Y-63180952D01*
X95462990Y-63180952D02*
X95539180Y-63257143D01*
X95539180Y-63257143D02*
X95691561Y-63295238D01*
X95691561Y-63295238D02*
X95958228Y-63295238D01*
X95958228Y-63295238D02*
X96110609Y-63257143D01*
X96110609Y-63257143D02*
X96186800Y-63180952D01*
X96186800Y-63180952D02*
X96224895Y-63104762D01*
X96224895Y-63104762D02*
X96224895Y-62952381D01*
X96224895Y-62952381D02*
X96186800Y-62876190D01*
X96186800Y-62876190D02*
X96110609Y-62800000D01*
X96110609Y-62800000D02*
X95958228Y-62761904D01*
X95958228Y-62761904D02*
X95691561Y-62761904D01*
X95691561Y-62761904D02*
X95539180Y-62800000D01*
X95539180Y-62800000D02*
X95462990Y-62876190D01*
X95462990Y-62876190D02*
X95424895Y-62952381D01*
X95691561Y-63980952D02*
X96224895Y-63980952D01*
X95386800Y-63790476D02*
X95958228Y-63599999D01*
X95958228Y-63599999D02*
X95958228Y-64095238D01*
X95424895Y-64323809D02*
X95424895Y-64857143D01*
X95424895Y-64857143D02*
X96224895Y-64514285D01*
X98002990Y-61238095D02*
X97964895Y-61161905D01*
X97964895Y-61161905D02*
X97964895Y-61047619D01*
X97964895Y-61047619D02*
X98002990Y-60933333D01*
X98002990Y-60933333D02*
X98079180Y-60857143D01*
X98079180Y-60857143D02*
X98155371Y-60819048D01*
X98155371Y-60819048D02*
X98307752Y-60780952D01*
X98307752Y-60780952D02*
X98422038Y-60780952D01*
X98422038Y-60780952D02*
X98574419Y-60819048D01*
X98574419Y-60819048D02*
X98650609Y-60857143D01*
X98650609Y-60857143D02*
X98726800Y-60933333D01*
X98726800Y-60933333D02*
X98764895Y-61047619D01*
X98764895Y-61047619D02*
X98764895Y-61123810D01*
X98764895Y-61123810D02*
X98726800Y-61238095D01*
X98726800Y-61238095D02*
X98688704Y-61276191D01*
X98688704Y-61276191D02*
X98422038Y-61276191D01*
X98422038Y-61276191D02*
X98422038Y-61123810D01*
X98764895Y-61619048D02*
X97964895Y-61619048D01*
X97964895Y-61619048D02*
X97964895Y-61923810D01*
X97964895Y-61923810D02*
X98002990Y-62000000D01*
X98002990Y-62000000D02*
X98041085Y-62038095D01*
X98041085Y-62038095D02*
X98117276Y-62076191D01*
X98117276Y-62076191D02*
X98231561Y-62076191D01*
X98231561Y-62076191D02*
X98307752Y-62038095D01*
X98307752Y-62038095D02*
X98345847Y-62000000D01*
X98345847Y-62000000D02*
X98383942Y-61923810D01*
X98383942Y-61923810D02*
X98383942Y-61619048D01*
X98764895Y-62419048D02*
X97964895Y-62419048D01*
X97964895Y-62952381D02*
X97964895Y-63104762D01*
X97964895Y-63104762D02*
X98002990Y-63180952D01*
X98002990Y-63180952D02*
X98079180Y-63257143D01*
X98079180Y-63257143D02*
X98231561Y-63295238D01*
X98231561Y-63295238D02*
X98498228Y-63295238D01*
X98498228Y-63295238D02*
X98650609Y-63257143D01*
X98650609Y-63257143D02*
X98726800Y-63180952D01*
X98726800Y-63180952D02*
X98764895Y-63104762D01*
X98764895Y-63104762D02*
X98764895Y-62952381D01*
X98764895Y-62952381D02*
X98726800Y-62876190D01*
X98726800Y-62876190D02*
X98650609Y-62800000D01*
X98650609Y-62800000D02*
X98498228Y-62761904D01*
X98498228Y-62761904D02*
X98231561Y-62761904D01*
X98231561Y-62761904D02*
X98079180Y-62800000D01*
X98079180Y-62800000D02*
X98002990Y-62876190D01*
X98002990Y-62876190D02*
X97964895Y-62952381D01*
X98231561Y-63980952D02*
X98764895Y-63980952D01*
X97926800Y-63790476D02*
X98498228Y-63599999D01*
X98498228Y-63599999D02*
X98498228Y-64095238D01*
X98307752Y-64514285D02*
X98269657Y-64438095D01*
X98269657Y-64438095D02*
X98231561Y-64400000D01*
X98231561Y-64400000D02*
X98155371Y-64361904D01*
X98155371Y-64361904D02*
X98117276Y-64361904D01*
X98117276Y-64361904D02*
X98041085Y-64400000D01*
X98041085Y-64400000D02*
X98002990Y-64438095D01*
X98002990Y-64438095D02*
X97964895Y-64514285D01*
X97964895Y-64514285D02*
X97964895Y-64666666D01*
X97964895Y-64666666D02*
X98002990Y-64742857D01*
X98002990Y-64742857D02*
X98041085Y-64780952D01*
X98041085Y-64780952D02*
X98117276Y-64819047D01*
X98117276Y-64819047D02*
X98155371Y-64819047D01*
X98155371Y-64819047D02*
X98231561Y-64780952D01*
X98231561Y-64780952D02*
X98269657Y-64742857D01*
X98269657Y-64742857D02*
X98307752Y-64666666D01*
X98307752Y-64666666D02*
X98307752Y-64514285D01*
X98307752Y-64514285D02*
X98345847Y-64438095D01*
X98345847Y-64438095D02*
X98383942Y-64400000D01*
X98383942Y-64400000D02*
X98460133Y-64361904D01*
X98460133Y-64361904D02*
X98612514Y-64361904D01*
X98612514Y-64361904D02*
X98688704Y-64400000D01*
X98688704Y-64400000D02*
X98726800Y-64438095D01*
X98726800Y-64438095D02*
X98764895Y-64514285D01*
X98764895Y-64514285D02*
X98764895Y-64666666D01*
X98764895Y-64666666D02*
X98726800Y-64742857D01*
X98726800Y-64742857D02*
X98688704Y-64780952D01*
X98688704Y-64780952D02*
X98612514Y-64819047D01*
X98612514Y-64819047D02*
X98460133Y-64819047D01*
X98460133Y-64819047D02*
X98383942Y-64780952D01*
X98383942Y-64780952D02*
X98345847Y-64742857D01*
X98345847Y-64742857D02*
X98307752Y-64666666D01*
X100542990Y-61238095D02*
X100504895Y-61161905D01*
X100504895Y-61161905D02*
X100504895Y-61047619D01*
X100504895Y-61047619D02*
X100542990Y-60933333D01*
X100542990Y-60933333D02*
X100619180Y-60857143D01*
X100619180Y-60857143D02*
X100695371Y-60819048D01*
X100695371Y-60819048D02*
X100847752Y-60780952D01*
X100847752Y-60780952D02*
X100962038Y-60780952D01*
X100962038Y-60780952D02*
X101114419Y-60819048D01*
X101114419Y-60819048D02*
X101190609Y-60857143D01*
X101190609Y-60857143D02*
X101266800Y-60933333D01*
X101266800Y-60933333D02*
X101304895Y-61047619D01*
X101304895Y-61047619D02*
X101304895Y-61123810D01*
X101304895Y-61123810D02*
X101266800Y-61238095D01*
X101266800Y-61238095D02*
X101228704Y-61276191D01*
X101228704Y-61276191D02*
X100962038Y-61276191D01*
X100962038Y-61276191D02*
X100962038Y-61123810D01*
X101304895Y-61619048D02*
X100504895Y-61619048D01*
X100504895Y-61619048D02*
X100504895Y-61923810D01*
X100504895Y-61923810D02*
X100542990Y-62000000D01*
X100542990Y-62000000D02*
X100581085Y-62038095D01*
X100581085Y-62038095D02*
X100657276Y-62076191D01*
X100657276Y-62076191D02*
X100771561Y-62076191D01*
X100771561Y-62076191D02*
X100847752Y-62038095D01*
X100847752Y-62038095D02*
X100885847Y-62000000D01*
X100885847Y-62000000D02*
X100923942Y-61923810D01*
X100923942Y-61923810D02*
X100923942Y-61619048D01*
X101304895Y-62419048D02*
X100504895Y-62419048D01*
X100504895Y-62952381D02*
X100504895Y-63104762D01*
X100504895Y-63104762D02*
X100542990Y-63180952D01*
X100542990Y-63180952D02*
X100619180Y-63257143D01*
X100619180Y-63257143D02*
X100771561Y-63295238D01*
X100771561Y-63295238D02*
X101038228Y-63295238D01*
X101038228Y-63295238D02*
X101190609Y-63257143D01*
X101190609Y-63257143D02*
X101266800Y-63180952D01*
X101266800Y-63180952D02*
X101304895Y-63104762D01*
X101304895Y-63104762D02*
X101304895Y-62952381D01*
X101304895Y-62952381D02*
X101266800Y-62876190D01*
X101266800Y-62876190D02*
X101190609Y-62800000D01*
X101190609Y-62800000D02*
X101038228Y-62761904D01*
X101038228Y-62761904D02*
X100771561Y-62761904D01*
X100771561Y-62761904D02*
X100619180Y-62800000D01*
X100619180Y-62800000D02*
X100542990Y-62876190D01*
X100542990Y-62876190D02*
X100504895Y-62952381D01*
X100771561Y-63980952D02*
X101304895Y-63980952D01*
X100466800Y-63790476D02*
X101038228Y-63599999D01*
X101038228Y-63599999D02*
X101038228Y-64095238D01*
X100504895Y-64780952D02*
X100504895Y-64400000D01*
X100504895Y-64400000D02*
X100885847Y-64361904D01*
X100885847Y-64361904D02*
X100847752Y-64400000D01*
X100847752Y-64400000D02*
X100809657Y-64476190D01*
X100809657Y-64476190D02*
X100809657Y-64666666D01*
X100809657Y-64666666D02*
X100847752Y-64742857D01*
X100847752Y-64742857D02*
X100885847Y-64780952D01*
X100885847Y-64780952D02*
X100962038Y-64819047D01*
X100962038Y-64819047D02*
X101152514Y-64819047D01*
X101152514Y-64819047D02*
X101228704Y-64780952D01*
X101228704Y-64780952D02*
X101266800Y-64742857D01*
X101266800Y-64742857D02*
X101304895Y-64666666D01*
X101304895Y-64666666D02*
X101304895Y-64476190D01*
X101304895Y-64476190D02*
X101266800Y-64400000D01*
X101266800Y-64400000D02*
X101228704Y-64361904D01*
D11*
X8957619Y-15663697D02*
X8310000Y-15663697D01*
X8633809Y-15987507D02*
X8633809Y-15339888D01*
X7945714Y-15218459D02*
X7905238Y-15177983D01*
X7905238Y-15177983D02*
X7824285Y-15137507D01*
X7824285Y-15137507D02*
X7621904Y-15137507D01*
X7621904Y-15137507D02*
X7540952Y-15177983D01*
X7540952Y-15177983D02*
X7500476Y-15218459D01*
X7500476Y-15218459D02*
X7459999Y-15299411D01*
X7459999Y-15299411D02*
X7459999Y-15380364D01*
X7459999Y-15380364D02*
X7500476Y-15501792D01*
X7500476Y-15501792D02*
X7986190Y-15987507D01*
X7986190Y-15987507D02*
X7459999Y-15987507D01*
X6731428Y-15420840D02*
X6731428Y-15987507D01*
X6933809Y-15097031D02*
X7136190Y-15704173D01*
X7136190Y-15704173D02*
X6609999Y-15704173D01*
X6407618Y-15137507D02*
X6124285Y-15987507D01*
X6124285Y-15987507D02*
X5840951Y-15137507D01*
X8957619Y-45663697D02*
X8310000Y-45663697D01*
X8633809Y-45987507D02*
X8633809Y-45339888D01*
X7945714Y-45218459D02*
X7905238Y-45177983D01*
X7905238Y-45177983D02*
X7824285Y-45137507D01*
X7824285Y-45137507D02*
X7621904Y-45137507D01*
X7621904Y-45137507D02*
X7540952Y-45177983D01*
X7540952Y-45177983D02*
X7500476Y-45218459D01*
X7500476Y-45218459D02*
X7459999Y-45299411D01*
X7459999Y-45299411D02*
X7459999Y-45380364D01*
X7459999Y-45380364D02*
X7500476Y-45501792D01*
X7500476Y-45501792D02*
X7986190Y-45987507D01*
X7986190Y-45987507D02*
X7459999Y-45987507D01*
X6731428Y-45420840D02*
X6731428Y-45987507D01*
X6933809Y-45097031D02*
X7136190Y-45704173D01*
X7136190Y-45704173D02*
X6609999Y-45704173D01*
X6407618Y-45137507D02*
X6124285Y-45987507D01*
X6124285Y-45987507D02*
X5840951Y-45137507D01*
X13187618Y-15177983D02*
X13268571Y-15137507D01*
X13268571Y-15137507D02*
X13389999Y-15137507D01*
X13389999Y-15137507D02*
X13511428Y-15177983D01*
X13511428Y-15177983D02*
X13592380Y-15258935D01*
X13592380Y-15258935D02*
X13632857Y-15339888D01*
X13632857Y-15339888D02*
X13673333Y-15501792D01*
X13673333Y-15501792D02*
X13673333Y-15623221D01*
X13673333Y-15623221D02*
X13632857Y-15785126D01*
X13632857Y-15785126D02*
X13592380Y-15866078D01*
X13592380Y-15866078D02*
X13511428Y-15947031D01*
X13511428Y-15947031D02*
X13389999Y-15987507D01*
X13389999Y-15987507D02*
X13309047Y-15987507D01*
X13309047Y-15987507D02*
X13187618Y-15947031D01*
X13187618Y-15947031D02*
X13147142Y-15906554D01*
X13147142Y-15906554D02*
X13147142Y-15623221D01*
X13147142Y-15623221D02*
X13309047Y-15623221D01*
X12782857Y-15987507D02*
X12782857Y-15137507D01*
X12782857Y-15137507D02*
X12297142Y-15987507D01*
X12297142Y-15987507D02*
X12297142Y-15137507D01*
X11892381Y-15987507D02*
X11892381Y-15137507D01*
X11892381Y-15137507D02*
X11690000Y-15137507D01*
X11690000Y-15137507D02*
X11568571Y-15177983D01*
X11568571Y-15177983D02*
X11487619Y-15258935D01*
X11487619Y-15258935D02*
X11447142Y-15339888D01*
X11447142Y-15339888D02*
X11406666Y-15501792D01*
X11406666Y-15501792D02*
X11406666Y-15623221D01*
X11406666Y-15623221D02*
X11447142Y-15785126D01*
X11447142Y-15785126D02*
X11487619Y-15866078D01*
X11487619Y-15866078D02*
X11568571Y-15947031D01*
X11568571Y-15947031D02*
X11690000Y-15987507D01*
X11690000Y-15987507D02*
X11892381Y-15987507D01*
X13754284Y-45542269D02*
X14037618Y-45542269D01*
X14037618Y-45987507D02*
X14037618Y-45137507D01*
X14037618Y-45137507D02*
X13632856Y-45137507D01*
X13349523Y-45744650D02*
X12944761Y-45744650D01*
X13430475Y-45987507D02*
X13147142Y-45137507D01*
X13147142Y-45137507D02*
X12863808Y-45987507D01*
X12580476Y-45987507D02*
X12580476Y-45137507D01*
X12580476Y-45137507D02*
X12094761Y-45987507D01*
X12094761Y-45987507D02*
X12094761Y-45137507D01*
X11690000Y-45663697D02*
X11042381Y-45663697D01*
X44234523Y-26887507D02*
X44517857Y-26482745D01*
X44720238Y-26887507D02*
X44720238Y-26037507D01*
X44720238Y-26037507D02*
X44396428Y-26037507D01*
X44396428Y-26037507D02*
X44315476Y-26077983D01*
X44315476Y-26077983D02*
X44274999Y-26118459D01*
X44274999Y-26118459D02*
X44234523Y-26199411D01*
X44234523Y-26199411D02*
X44234523Y-26320840D01*
X44234523Y-26320840D02*
X44274999Y-26401792D01*
X44274999Y-26401792D02*
X44315476Y-26442269D01*
X44315476Y-26442269D02*
X44396428Y-26482745D01*
X44396428Y-26482745D02*
X44720238Y-26482745D01*
X43870238Y-26442269D02*
X43586904Y-26442269D01*
X43465476Y-26887507D02*
X43870238Y-26887507D01*
X43870238Y-26887507D02*
X43870238Y-26037507D01*
X43870238Y-26037507D02*
X43465476Y-26037507D01*
X43141666Y-26847031D02*
X43020237Y-26887507D01*
X43020237Y-26887507D02*
X42817856Y-26887507D01*
X42817856Y-26887507D02*
X42736904Y-26847031D01*
X42736904Y-26847031D02*
X42696428Y-26806554D01*
X42696428Y-26806554D02*
X42655951Y-26725602D01*
X42655951Y-26725602D02*
X42655951Y-26644650D01*
X42655951Y-26644650D02*
X42696428Y-26563697D01*
X42696428Y-26563697D02*
X42736904Y-26523221D01*
X42736904Y-26523221D02*
X42817856Y-26482745D01*
X42817856Y-26482745D02*
X42979761Y-26442269D01*
X42979761Y-26442269D02*
X43060713Y-26401792D01*
X43060713Y-26401792D02*
X43101190Y-26361316D01*
X43101190Y-26361316D02*
X43141666Y-26280364D01*
X43141666Y-26280364D02*
X43141666Y-26199411D01*
X43141666Y-26199411D02*
X43101190Y-26118459D01*
X43101190Y-26118459D02*
X43060713Y-26077983D01*
X43060713Y-26077983D02*
X42979761Y-26037507D01*
X42979761Y-26037507D02*
X42777380Y-26037507D01*
X42777380Y-26037507D02*
X42655951Y-26077983D01*
X42291666Y-26442269D02*
X42008332Y-26442269D01*
X41886904Y-26887507D02*
X42291666Y-26887507D01*
X42291666Y-26887507D02*
X42291666Y-26037507D01*
X42291666Y-26037507D02*
X41886904Y-26037507D01*
X41644046Y-26037507D02*
X41158332Y-26037507D01*
X41401189Y-26887507D02*
X41401189Y-26037507D01*
X44153570Y-36442269D02*
X44032142Y-36482745D01*
X44032142Y-36482745D02*
X43991665Y-36523221D01*
X43991665Y-36523221D02*
X43951189Y-36604173D01*
X43951189Y-36604173D02*
X43951189Y-36725602D01*
X43951189Y-36725602D02*
X43991665Y-36806554D01*
X43991665Y-36806554D02*
X44032142Y-36847031D01*
X44032142Y-36847031D02*
X44113094Y-36887507D01*
X44113094Y-36887507D02*
X44436904Y-36887507D01*
X44436904Y-36887507D02*
X44436904Y-36037507D01*
X44436904Y-36037507D02*
X44153570Y-36037507D01*
X44153570Y-36037507D02*
X44072618Y-36077983D01*
X44072618Y-36077983D02*
X44032142Y-36118459D01*
X44032142Y-36118459D02*
X43991665Y-36199411D01*
X43991665Y-36199411D02*
X43991665Y-36280364D01*
X43991665Y-36280364D02*
X44032142Y-36361316D01*
X44032142Y-36361316D02*
X44072618Y-36401792D01*
X44072618Y-36401792D02*
X44153570Y-36442269D01*
X44153570Y-36442269D02*
X44436904Y-36442269D01*
X43424999Y-36037507D02*
X43263094Y-36037507D01*
X43263094Y-36037507D02*
X43182142Y-36077983D01*
X43182142Y-36077983D02*
X43101189Y-36158935D01*
X43101189Y-36158935D02*
X43060713Y-36320840D01*
X43060713Y-36320840D02*
X43060713Y-36604173D01*
X43060713Y-36604173D02*
X43101189Y-36766078D01*
X43101189Y-36766078D02*
X43182142Y-36847031D01*
X43182142Y-36847031D02*
X43263094Y-36887507D01*
X43263094Y-36887507D02*
X43424999Y-36887507D01*
X43424999Y-36887507D02*
X43505951Y-36847031D01*
X43505951Y-36847031D02*
X43586904Y-36766078D01*
X43586904Y-36766078D02*
X43627380Y-36604173D01*
X43627380Y-36604173D02*
X43627380Y-36320840D01*
X43627380Y-36320840D02*
X43586904Y-36158935D01*
X43586904Y-36158935D02*
X43505951Y-36077983D01*
X43505951Y-36077983D02*
X43424999Y-36037507D01*
X42534523Y-36037507D02*
X42372618Y-36037507D01*
X42372618Y-36037507D02*
X42291666Y-36077983D01*
X42291666Y-36077983D02*
X42210713Y-36158935D01*
X42210713Y-36158935D02*
X42170237Y-36320840D01*
X42170237Y-36320840D02*
X42170237Y-36604173D01*
X42170237Y-36604173D02*
X42210713Y-36766078D01*
X42210713Y-36766078D02*
X42291666Y-36847031D01*
X42291666Y-36847031D02*
X42372618Y-36887507D01*
X42372618Y-36887507D02*
X42534523Y-36887507D01*
X42534523Y-36887507D02*
X42615475Y-36847031D01*
X42615475Y-36847031D02*
X42696428Y-36766078D01*
X42696428Y-36766078D02*
X42736904Y-36604173D01*
X42736904Y-36604173D02*
X42736904Y-36320840D01*
X42736904Y-36320840D02*
X42696428Y-36158935D01*
X42696428Y-36158935D02*
X42615475Y-36077983D01*
X42615475Y-36077983D02*
X42534523Y-36037507D01*
X41927380Y-36037507D02*
X41441666Y-36037507D01*
X41684523Y-36887507D02*
X41684523Y-36037507D01*
X138654047Y-49137507D02*
X138168333Y-49137507D01*
X138411190Y-49987507D02*
X138411190Y-49137507D01*
X137399285Y-49906554D02*
X137439761Y-49947031D01*
X137439761Y-49947031D02*
X137561190Y-49987507D01*
X137561190Y-49987507D02*
X137642142Y-49987507D01*
X137642142Y-49987507D02*
X137763571Y-49947031D01*
X137763571Y-49947031D02*
X137844523Y-49866078D01*
X137844523Y-49866078D02*
X137885000Y-49785126D01*
X137885000Y-49785126D02*
X137925476Y-49623221D01*
X137925476Y-49623221D02*
X137925476Y-49501792D01*
X137925476Y-49501792D02*
X137885000Y-49339888D01*
X137885000Y-49339888D02*
X137844523Y-49258935D01*
X137844523Y-49258935D02*
X137763571Y-49177983D01*
X137763571Y-49177983D02*
X137642142Y-49137507D01*
X137642142Y-49137507D02*
X137561190Y-49137507D01*
X137561190Y-49137507D02*
X137439761Y-49177983D01*
X137439761Y-49177983D02*
X137399285Y-49218459D01*
X137035000Y-49663697D02*
X136387381Y-49663697D01*
X136711190Y-49987507D02*
X136711190Y-49339888D01*
X138552857Y-67663697D02*
X137905238Y-67663697D01*
X138229047Y-67987507D02*
X138229047Y-67339888D01*
X137095714Y-67137507D02*
X137500476Y-67137507D01*
X137500476Y-67137507D02*
X137540952Y-67542269D01*
X137540952Y-67542269D02*
X137500476Y-67501792D01*
X137500476Y-67501792D02*
X137419523Y-67461316D01*
X137419523Y-67461316D02*
X137217142Y-67461316D01*
X137217142Y-67461316D02*
X137136190Y-67501792D01*
X137136190Y-67501792D02*
X137095714Y-67542269D01*
X137095714Y-67542269D02*
X137055237Y-67623221D01*
X137055237Y-67623221D02*
X137055237Y-67825602D01*
X137055237Y-67825602D02*
X137095714Y-67906554D01*
X137095714Y-67906554D02*
X137136190Y-67947031D01*
X137136190Y-67947031D02*
X137217142Y-67987507D01*
X137217142Y-67987507D02*
X137419523Y-67987507D01*
X137419523Y-67987507D02*
X137500476Y-67947031D01*
X137500476Y-67947031D02*
X137540952Y-67906554D01*
X136812380Y-67137507D02*
X136529047Y-67987507D01*
X136529047Y-67987507D02*
X136245713Y-67137507D01*
X143035714Y-78847031D02*
X142914285Y-78887507D01*
X142914285Y-78887507D02*
X142711904Y-78887507D01*
X142711904Y-78887507D02*
X142630952Y-78847031D01*
X142630952Y-78847031D02*
X142590476Y-78806554D01*
X142590476Y-78806554D02*
X142549999Y-78725602D01*
X142549999Y-78725602D02*
X142549999Y-78644650D01*
X142549999Y-78644650D02*
X142590476Y-78563697D01*
X142590476Y-78563697D02*
X142630952Y-78523221D01*
X142630952Y-78523221D02*
X142711904Y-78482745D01*
X142711904Y-78482745D02*
X142873809Y-78442269D01*
X142873809Y-78442269D02*
X142954761Y-78401792D01*
X142954761Y-78401792D02*
X142995238Y-78361316D01*
X142995238Y-78361316D02*
X143035714Y-78280364D01*
X143035714Y-78280364D02*
X143035714Y-78199411D01*
X143035714Y-78199411D02*
X142995238Y-78118459D01*
X142995238Y-78118459D02*
X142954761Y-78077983D01*
X142954761Y-78077983D02*
X142873809Y-78037507D01*
X142873809Y-78037507D02*
X142671428Y-78037507D01*
X142671428Y-78037507D02*
X142549999Y-78077983D01*
X142226190Y-78847031D02*
X142104761Y-78887507D01*
X142104761Y-78887507D02*
X141902380Y-78887507D01*
X141902380Y-78887507D02*
X141821428Y-78847031D01*
X141821428Y-78847031D02*
X141780952Y-78806554D01*
X141780952Y-78806554D02*
X141740475Y-78725602D01*
X141740475Y-78725602D02*
X141740475Y-78644650D01*
X141740475Y-78644650D02*
X141780952Y-78563697D01*
X141780952Y-78563697D02*
X141821428Y-78523221D01*
X141821428Y-78523221D02*
X141902380Y-78482745D01*
X141902380Y-78482745D02*
X142064285Y-78442269D01*
X142064285Y-78442269D02*
X142145237Y-78401792D01*
X142145237Y-78401792D02*
X142185714Y-78361316D01*
X142185714Y-78361316D02*
X142226190Y-78280364D01*
X142226190Y-78280364D02*
X142226190Y-78199411D01*
X142226190Y-78199411D02*
X142185714Y-78118459D01*
X142185714Y-78118459D02*
X142145237Y-78077983D01*
X142145237Y-78077983D02*
X142064285Y-78037507D01*
X142064285Y-78037507D02*
X141861904Y-78037507D01*
X141861904Y-78037507D02*
X141740475Y-78077983D01*
X140890475Y-78887507D02*
X141173809Y-78482745D01*
X141376190Y-78887507D02*
X141376190Y-78037507D01*
X141376190Y-78037507D02*
X141052380Y-78037507D01*
X141052380Y-78037507D02*
X140971428Y-78077983D01*
X140971428Y-78077983D02*
X140930951Y-78118459D01*
X140930951Y-78118459D02*
X140890475Y-78199411D01*
X140890475Y-78199411D02*
X140890475Y-78320840D01*
X140890475Y-78320840D02*
X140930951Y-78401792D01*
X140930951Y-78401792D02*
X140971428Y-78442269D01*
X140971428Y-78442269D02*
X141052380Y-78482745D01*
X141052380Y-78482745D02*
X141376190Y-78482745D01*
X139878571Y-78887507D02*
X139878571Y-78037507D01*
X139878571Y-78037507D02*
X139595237Y-78644650D01*
X139595237Y-78644650D02*
X139311904Y-78037507D01*
X139311904Y-78037507D02*
X139311904Y-78887507D01*
X138907142Y-78442269D02*
X138623808Y-78442269D01*
X138502380Y-78887507D02*
X138907142Y-78887507D01*
X138907142Y-78887507D02*
X138907142Y-78037507D01*
X138907142Y-78037507D02*
X138502380Y-78037507D01*
X138178570Y-78644650D02*
X137773808Y-78644650D01*
X138259522Y-78887507D02*
X137976189Y-78037507D01*
X137976189Y-78037507D02*
X137692855Y-78887507D01*
X137449999Y-78847031D02*
X137328570Y-78887507D01*
X137328570Y-78887507D02*
X137126189Y-78887507D01*
X137126189Y-78887507D02*
X137045237Y-78847031D01*
X137045237Y-78847031D02*
X137004761Y-78806554D01*
X137004761Y-78806554D02*
X136964284Y-78725602D01*
X136964284Y-78725602D02*
X136964284Y-78644650D01*
X136964284Y-78644650D02*
X137004761Y-78563697D01*
X137004761Y-78563697D02*
X137045237Y-78523221D01*
X137045237Y-78523221D02*
X137126189Y-78482745D01*
X137126189Y-78482745D02*
X137288094Y-78442269D01*
X137288094Y-78442269D02*
X137369046Y-78401792D01*
X137369046Y-78401792D02*
X137409523Y-78361316D01*
X137409523Y-78361316D02*
X137449999Y-78280364D01*
X137449999Y-78280364D02*
X137449999Y-78199411D01*
X137449999Y-78199411D02*
X137409523Y-78118459D01*
X137409523Y-78118459D02*
X137369046Y-78077983D01*
X137369046Y-78077983D02*
X137288094Y-78037507D01*
X137288094Y-78037507D02*
X137085713Y-78037507D01*
X137085713Y-78037507D02*
X136964284Y-78077983D01*
X143734047Y-49137507D02*
X143248333Y-49137507D01*
X143491190Y-49987507D02*
X143491190Y-49137507D01*
X142479285Y-49906554D02*
X142519761Y-49947031D01*
X142519761Y-49947031D02*
X142641190Y-49987507D01*
X142641190Y-49987507D02*
X142722142Y-49987507D01*
X142722142Y-49987507D02*
X142843571Y-49947031D01*
X142843571Y-49947031D02*
X142924523Y-49866078D01*
X142924523Y-49866078D02*
X142965000Y-49785126D01*
X142965000Y-49785126D02*
X143005476Y-49623221D01*
X143005476Y-49623221D02*
X143005476Y-49501792D01*
X143005476Y-49501792D02*
X142965000Y-49339888D01*
X142965000Y-49339888D02*
X142924523Y-49258935D01*
X142924523Y-49258935D02*
X142843571Y-49177983D01*
X142843571Y-49177983D02*
X142722142Y-49137507D01*
X142722142Y-49137507D02*
X142641190Y-49137507D01*
X142641190Y-49137507D02*
X142519761Y-49177983D01*
X142519761Y-49177983D02*
X142479285Y-49218459D01*
X142115000Y-49663697D02*
X141467381Y-49663697D01*
X144138809Y-67947031D02*
X144017380Y-67987507D01*
X144017380Y-67987507D02*
X143814999Y-67987507D01*
X143814999Y-67987507D02*
X143734047Y-67947031D01*
X143734047Y-67947031D02*
X143693571Y-67906554D01*
X143693571Y-67906554D02*
X143653094Y-67825602D01*
X143653094Y-67825602D02*
X143653094Y-67744650D01*
X143653094Y-67744650D02*
X143693571Y-67663697D01*
X143693571Y-67663697D02*
X143734047Y-67623221D01*
X143734047Y-67623221D02*
X143814999Y-67582745D01*
X143814999Y-67582745D02*
X143976904Y-67542269D01*
X143976904Y-67542269D02*
X144057856Y-67501792D01*
X144057856Y-67501792D02*
X144098333Y-67461316D01*
X144098333Y-67461316D02*
X144138809Y-67380364D01*
X144138809Y-67380364D02*
X144138809Y-67299411D01*
X144138809Y-67299411D02*
X144098333Y-67218459D01*
X144098333Y-67218459D02*
X144057856Y-67177983D01*
X144057856Y-67177983D02*
X143976904Y-67137507D01*
X143976904Y-67137507D02*
X143774523Y-67137507D01*
X143774523Y-67137507D02*
X143653094Y-67177983D01*
X143329285Y-67947031D02*
X143207856Y-67987507D01*
X143207856Y-67987507D02*
X143005475Y-67987507D01*
X143005475Y-67987507D02*
X142924523Y-67947031D01*
X142924523Y-67947031D02*
X142884047Y-67906554D01*
X142884047Y-67906554D02*
X142843570Y-67825602D01*
X142843570Y-67825602D02*
X142843570Y-67744650D01*
X142843570Y-67744650D02*
X142884047Y-67663697D01*
X142884047Y-67663697D02*
X142924523Y-67623221D01*
X142924523Y-67623221D02*
X143005475Y-67582745D01*
X143005475Y-67582745D02*
X143167380Y-67542269D01*
X143167380Y-67542269D02*
X143248332Y-67501792D01*
X143248332Y-67501792D02*
X143288809Y-67461316D01*
X143288809Y-67461316D02*
X143329285Y-67380364D01*
X143329285Y-67380364D02*
X143329285Y-67299411D01*
X143329285Y-67299411D02*
X143288809Y-67218459D01*
X143288809Y-67218459D02*
X143248332Y-67177983D01*
X143248332Y-67177983D02*
X143167380Y-67137507D01*
X143167380Y-67137507D02*
X142964999Y-67137507D01*
X142964999Y-67137507D02*
X142843570Y-67177983D01*
X141993570Y-67987507D02*
X142276904Y-67582745D01*
X142479285Y-67987507D02*
X142479285Y-67137507D01*
X142479285Y-67137507D02*
X142155475Y-67137507D01*
X142155475Y-67137507D02*
X142074523Y-67177983D01*
X142074523Y-67177983D02*
X142034046Y-67218459D01*
X142034046Y-67218459D02*
X141993570Y-67299411D01*
X141993570Y-67299411D02*
X141993570Y-67420840D01*
X141993570Y-67420840D02*
X142034046Y-67501792D01*
X142034046Y-67501792D02*
X142074523Y-67542269D01*
X142074523Y-67542269D02*
X142155475Y-67582745D01*
X142155475Y-67582745D02*
X142479285Y-67582745D01*
X141629285Y-67663697D02*
X140981666Y-67663697D01*
D12*
X12333332Y-12450577D02*
X12285713Y-12402958D01*
X12285713Y-12402958D02*
X12190475Y-12355339D01*
X12190475Y-12355339D02*
X11952380Y-12355339D01*
X11952380Y-12355339D02*
X11857142Y-12402958D01*
X11857142Y-12402958D02*
X11809523Y-12450577D01*
X11809523Y-12450577D02*
X11761904Y-12545815D01*
X11761904Y-12545815D02*
X11761904Y-12641053D01*
X11761904Y-12641053D02*
X11809523Y-12783910D01*
X11809523Y-12783910D02*
X12380951Y-13355339D01*
X12380951Y-13355339D02*
X11761904Y-13355339D01*
X10904761Y-12688672D02*
X10904761Y-13355339D01*
X11142856Y-12307720D02*
X11380951Y-13022005D01*
X11380951Y-13022005D02*
X10761904Y-13022005D01*
X10523808Y-12355339D02*
X10190475Y-13355339D01*
X10190475Y-13355339D02*
X9857142Y-12355339D01*
X8761903Y-13355339D02*
X8761903Y-12355339D01*
X8285713Y-13355339D02*
X8285713Y-12355339D01*
X8285713Y-12355339D02*
X7714285Y-13355339D01*
X7714285Y-13355339D02*
X7714285Y-12355339D01*
X12619047Y-41131529D02*
X12952380Y-41131529D01*
X12952380Y-41655339D02*
X12952380Y-40655339D01*
X12952380Y-40655339D02*
X12476190Y-40655339D01*
X12142856Y-41369624D02*
X11666666Y-41369624D01*
X12238094Y-41655339D02*
X11904761Y-40655339D01*
X11904761Y-40655339D02*
X11571428Y-41655339D01*
X11238094Y-41655339D02*
X11238094Y-40655339D01*
X11238094Y-40655339D02*
X10666666Y-41655339D01*
X10666666Y-41655339D02*
X10666666Y-40655339D01*
X9238094Y-40655339D02*
X9047618Y-40655339D01*
X9047618Y-40655339D02*
X8952380Y-40702958D01*
X8952380Y-40702958D02*
X8857142Y-40798196D01*
X8857142Y-40798196D02*
X8809523Y-40988672D01*
X8809523Y-40988672D02*
X8809523Y-41322005D01*
X8809523Y-41322005D02*
X8857142Y-41512481D01*
X8857142Y-41512481D02*
X8952380Y-41607720D01*
X8952380Y-41607720D02*
X9047618Y-41655339D01*
X9047618Y-41655339D02*
X9238094Y-41655339D01*
X9238094Y-41655339D02*
X9333332Y-41607720D01*
X9333332Y-41607720D02*
X9428570Y-41512481D01*
X9428570Y-41512481D02*
X9476189Y-41322005D01*
X9476189Y-41322005D02*
X9476189Y-40988672D01*
X9476189Y-40988672D02*
X9428570Y-40798196D01*
X9428570Y-40798196D02*
X9333332Y-40702958D01*
X9333332Y-40702958D02*
X9238094Y-40655339D01*
X8380951Y-40655339D02*
X8380951Y-41464862D01*
X8380951Y-41464862D02*
X8333332Y-41560100D01*
X8333332Y-41560100D02*
X8285713Y-41607720D01*
X8285713Y-41607720D02*
X8190475Y-41655339D01*
X8190475Y-41655339D02*
X7999999Y-41655339D01*
X7999999Y-41655339D02*
X7904761Y-41607720D01*
X7904761Y-41607720D02*
X7857142Y-41560100D01*
X7857142Y-41560100D02*
X7809523Y-41464862D01*
X7809523Y-41464862D02*
X7809523Y-40655339D01*
X7476189Y-40655339D02*
X6904761Y-40655339D01*
X7190475Y-41655339D02*
X7190475Y-40655339D01*
X142857142Y-44455339D02*
X142285714Y-44455339D01*
X142571428Y-45455339D02*
X142571428Y-44455339D01*
X141952380Y-45455339D02*
X141952380Y-44455339D01*
X141952380Y-44931529D02*
X141380952Y-44931529D01*
X141380952Y-45455339D02*
X141380952Y-44455339D01*
X140904761Y-44931529D02*
X140571428Y-44931529D01*
X140428571Y-45455339D02*
X140904761Y-45455339D01*
X140904761Y-45455339D02*
X140904761Y-44455339D01*
X140904761Y-44455339D02*
X140428571Y-44455339D01*
X139428571Y-45455339D02*
X139761904Y-44979148D01*
X139999999Y-45455339D02*
X139999999Y-44455339D01*
X139999999Y-44455339D02*
X139619047Y-44455339D01*
X139619047Y-44455339D02*
X139523809Y-44502958D01*
X139523809Y-44502958D02*
X139476190Y-44550577D01*
X139476190Y-44550577D02*
X139428571Y-44645815D01*
X139428571Y-44645815D02*
X139428571Y-44788672D01*
X139428571Y-44788672D02*
X139476190Y-44883910D01*
X139476190Y-44883910D02*
X139523809Y-44931529D01*
X139523809Y-44931529D02*
X139619047Y-44979148D01*
X139619047Y-44979148D02*
X139999999Y-44979148D01*
X138999999Y-45455339D02*
X138999999Y-44455339D01*
X138999999Y-44455339D02*
X138666666Y-45169624D01*
X138666666Y-45169624D02*
X138333333Y-44455339D01*
X138333333Y-44455339D02*
X138333333Y-45455339D01*
X137666666Y-44455339D02*
X137476190Y-44455339D01*
X137476190Y-44455339D02*
X137380952Y-44502958D01*
X137380952Y-44502958D02*
X137285714Y-44598196D01*
X137285714Y-44598196D02*
X137238095Y-44788672D01*
X137238095Y-44788672D02*
X137238095Y-45122005D01*
X137238095Y-45122005D02*
X137285714Y-45312481D01*
X137285714Y-45312481D02*
X137380952Y-45407720D01*
X137380952Y-45407720D02*
X137476190Y-45455339D01*
X137476190Y-45455339D02*
X137666666Y-45455339D01*
X137666666Y-45455339D02*
X137761904Y-45407720D01*
X137761904Y-45407720D02*
X137857142Y-45312481D01*
X137857142Y-45312481D02*
X137904761Y-45122005D01*
X137904761Y-45122005D02*
X137904761Y-44788672D01*
X137904761Y-44788672D02*
X137857142Y-44598196D01*
X137857142Y-44598196D02*
X137761904Y-44502958D01*
X137761904Y-44502958D02*
X137666666Y-44455339D01*
X143071428Y-65007719D02*
X142928571Y-65055338D01*
X142928571Y-65055338D02*
X142690476Y-65055338D01*
X142690476Y-65055338D02*
X142595238Y-65007719D01*
X142595238Y-65007719D02*
X142547619Y-64960099D01*
X142547619Y-64960099D02*
X142500000Y-64864861D01*
X142500000Y-64864861D02*
X142500000Y-64769623D01*
X142500000Y-64769623D02*
X142547619Y-64674385D01*
X142547619Y-64674385D02*
X142595238Y-64626766D01*
X142595238Y-64626766D02*
X142690476Y-64579147D01*
X142690476Y-64579147D02*
X142880952Y-64531528D01*
X142880952Y-64531528D02*
X142976190Y-64483909D01*
X142976190Y-64483909D02*
X143023809Y-64436290D01*
X143023809Y-64436290D02*
X143071428Y-64341052D01*
X143071428Y-64341052D02*
X143071428Y-64245814D01*
X143071428Y-64245814D02*
X143023809Y-64150576D01*
X143023809Y-64150576D02*
X142976190Y-64102957D01*
X142976190Y-64102957D02*
X142880952Y-64055338D01*
X142880952Y-64055338D02*
X142642857Y-64055338D01*
X142642857Y-64055338D02*
X142500000Y-64102957D01*
X142119047Y-65007719D02*
X141976190Y-65055338D01*
X141976190Y-65055338D02*
X141738095Y-65055338D01*
X141738095Y-65055338D02*
X141642857Y-65007719D01*
X141642857Y-65007719D02*
X141595238Y-64960099D01*
X141595238Y-64960099D02*
X141547619Y-64864861D01*
X141547619Y-64864861D02*
X141547619Y-64769623D01*
X141547619Y-64769623D02*
X141595238Y-64674385D01*
X141595238Y-64674385D02*
X141642857Y-64626766D01*
X141642857Y-64626766D02*
X141738095Y-64579147D01*
X141738095Y-64579147D02*
X141928571Y-64531528D01*
X141928571Y-64531528D02*
X142023809Y-64483909D01*
X142023809Y-64483909D02*
X142071428Y-64436290D01*
X142071428Y-64436290D02*
X142119047Y-64341052D01*
X142119047Y-64341052D02*
X142119047Y-64245814D01*
X142119047Y-64245814D02*
X142071428Y-64150576D01*
X142071428Y-64150576D02*
X142023809Y-64102957D01*
X142023809Y-64102957D02*
X141928571Y-64055338D01*
X141928571Y-64055338D02*
X141690476Y-64055338D01*
X141690476Y-64055338D02*
X141547619Y-64102957D01*
X140547619Y-65055338D02*
X140880952Y-64579147D01*
X141119047Y-65055338D02*
X141119047Y-64055338D01*
X141119047Y-64055338D02*
X140738095Y-64055338D01*
X140738095Y-64055338D02*
X140642857Y-64102957D01*
X140642857Y-64102957D02*
X140595238Y-64150576D01*
X140595238Y-64150576D02*
X140547619Y-64245814D01*
X140547619Y-64245814D02*
X140547619Y-64388671D01*
X140547619Y-64388671D02*
X140595238Y-64483909D01*
X140595238Y-64483909D02*
X140642857Y-64531528D01*
X140642857Y-64531528D02*
X140738095Y-64579147D01*
X140738095Y-64579147D02*
X141119047Y-64579147D01*
X139166666Y-64055338D02*
X138976190Y-64055338D01*
X138976190Y-64055338D02*
X138880952Y-64102957D01*
X138880952Y-64102957D02*
X138785714Y-64198195D01*
X138785714Y-64198195D02*
X138738095Y-64388671D01*
X138738095Y-64388671D02*
X138738095Y-64722004D01*
X138738095Y-64722004D02*
X138785714Y-64912480D01*
X138785714Y-64912480D02*
X138880952Y-65007719D01*
X138880952Y-65007719D02*
X138976190Y-65055338D01*
X138976190Y-65055338D02*
X139166666Y-65055338D01*
X139166666Y-65055338D02*
X139261904Y-65007719D01*
X139261904Y-65007719D02*
X139357142Y-64912480D01*
X139357142Y-64912480D02*
X139404761Y-64722004D01*
X139404761Y-64722004D02*
X139404761Y-64388671D01*
X139404761Y-64388671D02*
X139357142Y-64198195D01*
X139357142Y-64198195D02*
X139261904Y-64102957D01*
X139261904Y-64102957D02*
X139166666Y-64055338D01*
X138309523Y-64055338D02*
X138309523Y-64864861D01*
X138309523Y-64864861D02*
X138261904Y-64960099D01*
X138261904Y-64960099D02*
X138214285Y-65007719D01*
X138214285Y-65007719D02*
X138119047Y-65055338D01*
X138119047Y-65055338D02*
X137928571Y-65055338D01*
X137928571Y-65055338D02*
X137833333Y-65007719D01*
X137833333Y-65007719D02*
X137785714Y-64960099D01*
X137785714Y-64960099D02*
X137738095Y-64864861D01*
X137738095Y-64864861D02*
X137738095Y-64055338D01*
X137404761Y-64055338D02*
X136833333Y-64055338D01*
X137119047Y-65055338D02*
X137119047Y-64055338D01*
%LPC*%
D13*
%TO.C,J5*%
X151395000Y-33890000D03*
X151395000Y-28110000D03*
D14*
X150895000Y-35320000D03*
D15*
X155075000Y-35320000D03*
D14*
X150895000Y-26680000D03*
D15*
X155075000Y-26680000D03*
%TD*%
D16*
%TO.C,J4*%
X137460000Y-52000000D03*
X142540000Y-52000000D03*
%TD*%
D17*
%TO.C,SW2*%
X40750000Y-39750000D03*
X45250000Y-39750000D03*
X40750000Y-44250000D03*
X45250000Y-44250000D03*
%TD*%
%TO.C,SW1*%
X40750000Y-29750000D03*
X45250000Y-29750000D03*
X40750000Y-34250000D03*
X45250000Y-34250000D03*
%TD*%
D16*
%TO.C,J2*%
X7460000Y-48000000D03*
X12540000Y-48000000D03*
%TD*%
%TO.C,J1*%
X7460000Y-18000000D03*
X12540000Y-18000000D03*
%TD*%
D18*
%TO.C,F1*%
X21000000Y-18000000D03*
X43000000Y-18000000D03*
%TD*%
D19*
%TO.C,Q1*%
X42460000Y-48000000D03*
X45000000Y-48000000D03*
X47540000Y-48000000D03*
%TD*%
%TO.C,U4*%
X25000000Y-72000000D03*
X25000000Y-84000000D03*
X47000000Y-72000000D03*
X47000000Y-84000000D03*
%TD*%
D20*
%TO.C,D1*%
X22920000Y-48000000D03*
X33080000Y-48000000D03*
%TD*%
D21*
%TO.C,JGPIO1*%
X104000000Y-92000000D03*
X106540000Y-92000000D03*
X109080000Y-92000000D03*
X111620000Y-92000000D03*
X114160000Y-92000000D03*
X116700000Y-92000000D03*
%TD*%
D22*
%TO.C,C4*%
X7460000Y-23200000D03*
X12540000Y-23200000D03*
%TD*%
D16*
%TO.C,J3*%
X137460000Y-70000000D03*
X142540000Y-70000000D03*
%TD*%
D23*
%TO.C,PADESP22*%
X90780000Y-58500000D03*
%TD*%
%TO.C,PADESP16*%
X75540000Y-58500000D03*
%TD*%
%TO.C,PADESP35*%
X108000000Y-34200000D03*
%TD*%
%TO.C,PADESP24*%
X95860000Y-58500000D03*
%TD*%
%TO.C,PADESP11*%
X62500000Y-46900000D03*
%TD*%
%TO.C,PADESP20*%
X85700000Y-58500000D03*
%TD*%
%TO.C,PADESP37*%
X108000000Y-29120000D03*
%TD*%
%TO.C,PADESP6*%
X62500000Y-34200000D03*
%TD*%
%TO.C,PADESP9*%
X62500000Y-41820000D03*
%TD*%
%TO.C,PADESP21*%
X88240000Y-58500000D03*
%TD*%
%TO.C,PADESP3*%
X62500000Y-26580000D03*
%TD*%
%TO.C,PADESP33*%
X108000000Y-39280000D03*
%TD*%
%TO.C,PADESP7*%
X62500000Y-36740000D03*
%TD*%
%TO.C,PADESP1*%
X62500000Y-21500000D03*
%TD*%
%TO.C,PADESP31*%
X108000000Y-44360000D03*
%TD*%
%TO.C,PADESP29*%
X108250000Y-49440000D03*
%TD*%
%TO.C,PADESP27*%
X108000000Y-54520000D03*
%TD*%
%TO.C,PADESP10*%
X62500000Y-44360000D03*
%TD*%
%TO.C,PADESP40*%
X108000000Y-21500000D03*
%TD*%
%TO.C,PADESP34*%
X108000000Y-36740000D03*
%TD*%
%TO.C,PADESP25*%
X98400000Y-58500000D03*
%TD*%
%TO.C,PADESP39*%
X108000000Y-24040000D03*
%TD*%
%TO.C,PADESP12*%
X62500000Y-49440000D03*
%TD*%
%TO.C,PADESP23*%
X93320000Y-58500000D03*
%TD*%
%TO.C,PADESP32*%
X108000000Y-41820000D03*
%TD*%
D22*
%TO.C,FID6*%
X154000000Y-94000000D03*
%TD*%
D23*
%TO.C,PADESP5*%
X62500000Y-31660000D03*
%TD*%
%TO.C,PADESP2*%
X62500000Y-24040000D03*
%TD*%
%TO.C,PADESP4*%
X62500000Y-29120000D03*
%TD*%
%TO.C,PADESP26*%
X100940000Y-58500000D03*
%TD*%
%TO.C,PADESP18*%
X80620000Y-58500000D03*
%TD*%
%TO.C,PADESP38*%
X108000000Y-26580000D03*
%TD*%
%TO.C,PADESP8*%
X62500000Y-39280000D03*
%TD*%
%TO.C,PADESP14*%
X62500000Y-54520000D03*
%TD*%
%TO.C,PADESP36*%
X108000000Y-31660000D03*
%TD*%
D22*
%TO.C,FID5*%
X154000000Y-6000000D03*
%TD*%
D23*
%TO.C,PADESP28*%
X108000000Y-51980000D03*
%TD*%
%TO.C,PADESP15*%
X73000000Y-58500000D03*
%TD*%
%TO.C,PADESP30*%
X108000000Y-46900000D03*
%TD*%
D22*
%TO.C,FID4*%
X6000000Y-6000000D03*
%TD*%
D23*
%TO.C,PADESP19*%
X83160000Y-58500000D03*
%TD*%
%TO.C,PADESP17*%
X78080000Y-58500000D03*
%TD*%
%TO.C,PADESP13*%
X62500000Y-51980000D03*
%TD*%
%LPD*%
M02*
