<?xml version="1.0" standalone="no"?>
 <!DOCTYPE svg PUBLIC "-//W3C//DTD SVG 1.1//EN"
 "http://www.w3.org/Graphics/SVG/1.1/DTD/svg11.dtd">
<svg
  xmlns:svg="http://www.w3.org/2000/svg"
  xmlns="http://www.w3.org/2000/svg"
  xmlns:xlink="http://www.w3.org/1999/xlink"
  version="1.1"
  width="160.5280mm" height="102.8446mm" viewBox="0.0000 0.0000 160.5280 102.8446">
<title>SVG Image created as kicad_bottom.svg date 2026/07/04 22:13:30 </title>
  <desc>Image generated by PCBNEW </desc>
<g style="fill:#000000; fill-opacity:1.0000;stroke:#000000; stroke-opacity:1.0000;
stroke-linecap:round; stroke-linejoin:round;"
 transform="translate(0 0) scale(1 1)">
<path style="fill:#4D7FC4; fill-opacity:1.0000; stroke:none;fill-rule:evenodd;"
d="M 136.7183,73.9750
136.7183,71.5750
139.1183,71.5750
139.1183,73.9750
Z" />
<path style="fill:#4D7FC4; fill-opacity:1.0000; stroke:none;fill-rule:evenodd;"
d="M 141.7983,73.9750
141.7983,71.5750
144.1983,71.5750
144.1983,73.9750
Z" />
<path style="fill:#4D7FC4; fill-opacity:1.0000; stroke:none;fill-rule:evenodd;"
d="M 40.4083,33.3250
40.4083,31.7250
42.0083,31.7250
42.0083,33.3250
Z" />
<path style="fill:#4D7FC4; fill-opacity:1.0000; stroke:none;fill-rule:evenodd;"
d="M 44.9083,33.3250
44.9083,31.7250
46.5083,31.7250
46.5083,33.3250
Z" />
<path style="fill:#4D7FC4; fill-opacity:1.0000; stroke:none;fill-rule:evenodd;"
d="M 40.4083,37.8250
40.4083,36.2250
42.0083,36.2250
42.0083,37.8250
Z" />
<path style="fill:#4D7FC4; fill-opacity:1.0000; stroke:none;fill-rule:evenodd;"
d="M 44.9083,37.8250
44.9083,36.2250
46.5083,36.2250
46.5083,37.8250
Z" />
</g>
<g style="fill:#4D7FC4; fill-opacity:1.0000; stroke:none;">
<circle cx="82.5583" cy="29.5350" r="0.3000" />
</g>
<g style="fill:#4D7FC4; fill-opacity:1.0000; stroke:none;">
<circle cx="82.5583" cy="30.9350" r="0.3000" />
</g>
<g style="fill:#4D7FC4; fill-opacity:1.0000; stroke:none;">
<circle cx="83.2583" cy="28.8350" r="0.3000" />
</g>
<g style="fill:#4D7FC4; fill-opacity:1.0000; stroke:none;">
<circle cx="83.2583" cy="30.2350" r="0.3000" />
</g>
<g style="fill:#4D7FC4; fill-opacity:1.0000; stroke:none;">
<circle cx="83.2583" cy="31.6350" r="0.3000" />
</g>
<g style="fill:#4D7FC4; fill-opacity:1.0000; stroke:none;">
<circle cx="83.9583" cy="29.5350" r="0.3000" />
</g>
<g style="fill:#4D7FC4; fill-opacity:1.0000; stroke:none;">
<circle cx="83.9583" cy="30.9350" r="0.3000" />
</g>
<g style="fill:#4D7FC4; fill-opacity:1.0000; stroke:none;">
<circle cx="84.6583" cy="28.8350" r="0.3000" />
</g>
<g style="fill:#4D7FC4; fill-opacity:1.0000; stroke:none;">
<circle cx="84.6583" cy="30.2350" r="0.3000" />
</g>
<g style="fill:#4D7FC4; fill-opacity:1.0000; stroke:none;">
<circle cx="84.6583" cy="31.6350" r="0.3000" />
</g>
<g style="fill:#4D7FC4; fill-opacity:1.0000; stroke:none;">
<circle cx="85.3583" cy="29.5350" r="0.3000" />
</g>
<g style="fill:#4D7FC4; fill-opacity:1.0000; stroke:none;">
<circle cx="85.3583" cy="30.9350" r="0.3000" />
<path style="fill:#4D7FC4; fill-opacity:1.0000; stroke:none;fill-rule:evenodd;"
d="M 22.4783,51.6750
22.4783,49.8750
24.2783,49.8750
24.2783,51.6750
Z" />
<path style="fill:#4D7FC4; fill-opacity:1.0000; stroke:none;fill-rule:evenodd;"
d="M 32.6383,51.6750
32.6383,49.8750
34.4383,49.8750
34.4383,51.6750
Z" />
<path style="fill:#4D7FC4; fill-opacity:1.0000; stroke:none;fill-rule:evenodd;"
d="M 147.9583,28.3250
147.9583,26.8250
149.9583,26.8250
149.9583,28.3250
Z" />
<path style="fill:#4D7FC4; fill-opacity:1.0000; stroke:none;fill-rule:evenodd;"
d="M 147.9583,34.7250
147.9583,33.2250
149.9583,33.2250
149.9583,34.7250
Z" />
<path style="fill:#4D7FC4; fill-opacity:1.0000; stroke:none;fill-rule:evenodd;"
d="M 6.7183,21.9750
6.7183,19.5750
9.1183,19.5750
9.1183,21.9750
Z" />
<path style="fill:#4D7FC4; fill-opacity:1.0000; stroke:none;fill-rule:evenodd;"
d="M 11.7983,21.9750
11.7983,19.5750
14.1983,19.5750
14.1983,21.9750
Z" />
<path style="fill:#4D7FC4; fill-opacity:1.0000; stroke:none;fill-rule:evenodd;"
d="M 40.4083,43.3250
40.4083,41.7250
42.0083,41.7250
42.0083,43.3250
Z" />
<path style="fill:#4D7FC4; fill-opacity:1.0000; stroke:none;fill-rule:evenodd;"
d="M 44.9083,43.3250
44.9083,41.7250
46.5083,41.7250
46.5083,43.3250
Z" />
<path style="fill:#4D7FC4; fill-opacity:1.0000; stroke:none;fill-rule:evenodd;"
d="M 40.4083,47.8250
40.4083,46.2250
42.0083,46.2250
42.0083,47.8250
Z" />
<path style="fill:#4D7FC4; fill-opacity:1.0000; stroke:none;fill-rule:evenodd;"
d="M 44.9083,47.8250
44.9083,46.2250
46.5083,46.2250
46.5083,47.8250
Z" />
<path style="fill:#4D7FC4; fill-opacity:1.0000; stroke:none;fill-rule:evenodd;"
d="M 6.7183,51.9750
6.7183,49.5750
9.1183,49.5750
9.1183,51.9750
Z" />
<path style="fill:#4D7FC4; fill-opacity:1.0000; stroke:none;fill-rule:evenodd;"
d="M 11.7983,51.9750
11.7983,49.5750
14.1983,49.5750
14.1983,51.9750
Z" />
<path style="fill:#4D7FC4; fill-opacity:1.0000; stroke:none;fill-rule:evenodd;"
d="M 20.2583,21.9750
20.2583,19.5750
22.6583,19.5750
22.6583,21.9750
Z" />
<path style="fill:#4D7FC4; fill-opacity:1.0000; stroke:none;fill-rule:evenodd;"
d="M 42.2583,21.9750
42.2583,19.5750
44.6583,19.5750
44.6583,21.9750
Z" />
<path style="fill:#4D7FC4; fill-opacity:1.0000; stroke:none;fill-rule:evenodd;"
d="M 136.7183,55.9750
136.7183,53.5750
139.1183,53.5750
139.1183,55.9750
Z" />
<path style="fill:#4D7FC4; fill-opacity:1.0000; stroke:none;fill-rule:evenodd;"
d="M 141.7983,55.9750
141.7983,53.5750
144.1983,53.5750
144.1983,55.9750
Z" />
<path style="fill:#4D7FC4; fill-opacity:1.0000; stroke:none;fill-rule:evenodd;"
d="M 41.9183,51.7750
41.9183,49.7750
43.9183,49.7750
43.9183,51.7750
Z" />
<path style="fill:#4D7FC4; fill-opacity:1.0000; stroke:none;fill-rule:evenodd;"
d="M 44.4583,51.7750
44.4583,49.7750
46.4583,49.7750
46.4583,51.7750
Z" />
<path style="fill:#4D7FC4; fill-opacity:1.0000; stroke:none;fill-rule:evenodd;"
d="M 46.9983,51.7750
46.9983,49.7750
48.9983,49.7750
48.9983,51.7750
Z" />
<path style="fill:#4D7FC4; fill-opacity:1.0000; stroke:none;fill-rule:evenodd;"
d="M 24.4583,75.7750
24.4583,73.7750
26.4583,73.7750
26.4583,75.7750
Z" />
<path style="fill:#4D7FC4; fill-opacity:1.0000; stroke:none;fill-rule:evenodd;"
d="M 24.4583,87.7750
24.4583,85.7750
26.4583,85.7750
26.4583,87.7750
Z" />
<path style="fill:#4D7FC4; fill-opacity:1.0000; stroke:none;fill-rule:evenodd;"
d="M 46.4583,75.7750
46.4583,73.7750
48.4583,73.7750
48.4583,75.7750
Z" />
<path style="fill:#4D7FC4; fill-opacity:1.0000; stroke:none;fill-rule:evenodd;"
d="M 46.4583,87.7750
46.4583,85.7750
48.4583,85.7750
48.4583,87.7750
Z" />
</g>
<g style="fill:#4D7FC4; fill-opacity:1.0000; stroke:none;">
<circle cx="108.6429" cy="59.4356" r="0.4000" />
</g>
<g style="fill:#4D7FC4; fill-opacity:1.0000; stroke:none;">
<circle cx="109.3221" cy="74.5267" r="0.4000" />
</g>
<g style="fill:#4D7FC4; fill-opacity:1.0000; stroke:none;">
<circle cx="79.6194" cy="28.3577" r="0.4000" />
</g>
<g style="fill:#4D7FC4; fill-opacity:1.0000; stroke:none;">
<circle cx="84.6264" cy="54.2478" r="0.4000" />
</g>
<g style="fill:#4D7FC4; fill-opacity:1.0000; stroke:none;">
<circle cx="74.5044" cy="88.8667" r="0.4000" />
</g>
<g style="fill:#4D7FC4; fill-opacity:1.0000; stroke:none;">
<circle cx="82.0713" cy="25.0550" r="0.4000" />
</g>
<g style="fill:#4D7FC4; fill-opacity:1.0000; stroke:none;">
<circle cx="64.5083" cy="49.6509" r="0.4000" />
</g>
<g style="fill:#4D7FC4; fill-opacity:1.0000; stroke:none;">
<circle cx="111.5083" cy="29.8864" r="0.4000" />
</g>
<g style="fill:#4D7FC4; fill-opacity:1.0000; stroke:none;">
<circle cx="117.5083" cy="72.7146" r="0.4000" />
</g>
<g style="fill:#4D7FC4; fill-opacity:1.0000; stroke:none;">
<circle cx="86.0991" cy="37.7550" r="0.4000" />
</g>
<g style="fill:#4D7FC4; fill-opacity:1.0000; stroke:none;">
<circle cx="89.8930" cy="41.5489" r="0.4000" />
</g>
<g style="fill:#4D7FC4; fill-opacity:1.0000; stroke:none;">
<circle cx="85.3939" cy="39.0183" r="0.4000" />
</g>
<g style="fill:#4D7FC4; fill-opacity:1.0000; stroke:none;">
<circle cx="88.1820" cy="42.1729" r="0.4000" />
</g>
<g style="fill:#4D7FC4; fill-opacity:1.0000; stroke:none;">
<circle cx="49.3964" cy="39.6105" r="0.4000" />
</g>
<g style="fill:#4D7FC4; fill-opacity:1.0000; stroke:none;">
<circle cx="77.0797" cy="40.2304" r="0.4000" />
</g>
<g style="fill:#4D7FC4; fill-opacity:1.0000; stroke:none;">
<circle cx="78.9232" cy="38.3869" r="0.4000" />
</g>
<g style="fill:#4D7FC4; fill-opacity:1.0000; stroke:none;">
<circle cx="123.5083" cy="44.7750" r="0.4000" />
</g>
<g style="fill:#4D7FC4; fill-opacity:1.0000; stroke:none;">
<circle cx="141.4583" cy="32.5750" r="0.4000" />
</g>
<g style="fill:none;
stroke:#4D7FC4; stroke-width:0.2000; stroke-opacity:1;
stroke-linecap:round; stroke-linejoin:round;">
<path d="M108.6429 73.8475
L109.3221 74.5267
" />
<path d="M108.6429 59.4356
L108.6429 73.8475
" />
<path d="M47.9983 50.7750
L47.9983 52.0767
" />
<path d="M45.7083 47.0250
L45.7083 48.1267
" />
<path d="M48.7600 52.8384
L48.7600 84.1716
" />
<path d="M42.3100 39.2284
L41.2083 38.1267
" />
<path d="M42.3100 44.8216
L42.3100 39.2284
" />
<path d="M47.4583 86.7750
L47.4583 85.4733
" />
<path d="M47.9983 50.7750
L47.9983 49.4733
" />
<path d="M41.2083 37.0250
L41.2083 38.1267
" />
<path d="M48.7600 84.1716
L47.4583 85.4733
" />
<path d="M47.9983 52.0767
L48.7600 52.8384
" />
<path d="M41.2083 45.9233
L42.3100 44.8216
" />
<path d="M47.0549 49.4733
L45.7083 48.1267
" />
<path d="M47.9983 49.4733
L47.0549 49.4733
" />
<path d="M148.9583 33.9750
L148.9583 27.5750
" />
<path d="M41.2083 47.0250
L41.2083 45.9233
" />
<path d="M43.4583 20.7750
L43.4583 22.2767
" />
<path d="M33.5383 65.3933
L33.5383 50.7750
" />
<path d="M25.4583 74.7750
L25.4583 73.4733
" />
<path d="M25.4583 73.4733
L33.5383 65.3933
" />
<path d="M43.4583 22.2767
L33.5383 32.1967
" />
<path d="M33.5383 32.1967
L33.5383 50.7750
" />
<path d="M84.6264 78.7447
L74.5044 88.8667
" />
<path d="M79.6194 49.2408
L84.6264 54.2478
" />
<path d="M79.6194 28.3577
L79.6194 49.2408
" />
<path d="M84.6264 54.2478
L84.6264 78.7447
" />
<path d="M82.0713 25.0550
L64.5083 42.6180
" />
<path d="M64.5083 42.6180
L64.5083 49.6509
" />
<path d="M111.5083 29.8864
L111.5083 66.7146
" />
<path d="M111.5083 66.7146
L117.5083 72.7146
" />
<path d="M89.8930 41.5489
L86.0991 37.7550
" />
<path d="M88.1820 42.1729
L88.1820 41.8064
" />
<path d="M88.1820 41.8064
L85.3939 39.0183
" />
<path d="M49.3964 37.3148
L49.3964 39.6105
" />
<path d="M45.7083 33.6267
L49.3964 37.3148
" />
<path d="M45.7083 32.5250
L45.7083 33.6267
" />
<path d="M77.0797 40.2304
L78.9232 38.3869
" />
<path d="M123.5083 22.7750
L123.5083 44.7750
" />
<path d="M141.4583 22.7750
L123.5083 22.7750
" />
<path d="M141.4583 32.5750
L141.4583 22.7750
" />
<path style="fill:#02FFEE; fill-opacity:0.4000; stroke:none;fill-rule:evenodd;"
d="M 136.7183,73.9750
136.7183,71.5750
139.1183,71.5750
139.1183,73.9750
Z" />
<path style="fill:#02FFEE; fill-opacity:0.4000; stroke:none;fill-rule:evenodd;"
d="M 141.7983,73.9750
141.7983,71.5750
144.1983,71.5750
144.1983,73.9750
Z" />
<path style="fill:#02FFEE; fill-opacity:0.4000; stroke:none;fill-rule:evenodd;"
d="M 40.4083,33.3250
40.4083,31.7250
42.0083,31.7250
42.0083,33.3250
Z" />
<path style="fill:#02FFEE; fill-opacity:0.4000; stroke:none;fill-rule:evenodd;"
d="M 44.9083,33.3250
44.9083,31.7250
46.5083,31.7250
46.5083,33.3250
Z" />
<path style="fill:#02FFEE; fill-opacity:0.4000; stroke:none;fill-rule:evenodd;"
d="M 40.4083,37.8250
40.4083,36.2250
42.0083,36.2250
42.0083,37.8250
Z" />
<path style="fill:#02FFEE; fill-opacity:0.4000; stroke:none;fill-rule:evenodd;"
d="M 44.9083,37.8250
44.9083,36.2250
46.5083,36.2250
46.5083,37.8250
Z" />
<path style="fill:#02FFEE; fill-opacity:0.4000; stroke:none;fill-rule:evenodd;"
d="M 22.4783,51.6750
22.4783,49.8750
24.2783,49.8750
24.2783,51.6750
Z" />
<path style="fill:#02FFEE; fill-opacity:0.4000; stroke:none;fill-rule:evenodd;"
d="M 32.6383,51.6750
32.6383,49.8750
34.4383,49.8750
34.4383,51.6750
Z" />
<path style="fill:#02FFEE; fill-opacity:0.4000; stroke:none;fill-rule:evenodd;"
d="M 147.9583,28.3250
147.9583,26.8250
149.9583,26.8250
149.9583,28.3250
Z" />
<path style="fill:#02FFEE; fill-opacity:0.4000; stroke:none;fill-rule:evenodd;"
d="M 147.9583,34.7250
147.9583,33.2250
149.9583,33.2250
149.9583,34.7250
Z" />
<path style="fill:#02FFEE; fill-opacity:0.4000; stroke:none;fill-rule:evenodd;"
d="M 6.7183,21.9750
6.7183,19.5750
9.1183,19.5750
9.1183,21.9750
Z" />
<path style="fill:#02FFEE; fill-opacity:0.4000; stroke:none;fill-rule:evenodd;"
d="M 11.7983,21.9750
11.7983,19.5750
14.1983,19.5750
14.1983,21.9750
Z" />
<path style="fill:#02FFEE; fill-opacity:0.4000; stroke:none;fill-rule:evenodd;"
d="M 40.4083,43.3250
40.4083,41.7250
42.0083,41.7250
42.0083,43.3250
Z" />
<path style="fill:#02FFEE; fill-opacity:0.4000; stroke:none;fill-rule:evenodd;"
d="M 44.9083,43.3250
44.9083,41.7250
46.5083,41.7250
46.5083,43.3250
Z" />
<path style="fill:#02FFEE; fill-opacity:0.4000; stroke:none;fill-rule:evenodd;"
d="M 40.4083,47.8250
40.4083,46.2250
42.0083,46.2250
42.0083,47.8250
Z" />
<path style="fill:#02FFEE; fill-opacity:0.4000; stroke:none;fill-rule:evenodd;"
d="M 44.9083,47.8250
44.9083,46.2250
46.5083,46.2250
46.5083,47.8250
Z" />
<path style="fill:#02FFEE; fill-opacity:0.4000; stroke:none;fill-rule:evenodd;"
d="M 6.7183,51.9750
6.7183,49.5750
9.1183,49.5750
9.1183,51.9750
Z" />
<path style="fill:#02FFEE; fill-opacity:0.4000; stroke:none;fill-rule:evenodd;"
d="M 11.7983,51.9750
11.7983,49.5750
14.1983,49.5750
14.1983,51.9750
Z" />
<path style="fill:#02FFEE; fill-opacity:0.4000; stroke:none;fill-rule:evenodd;"
d="M 20.2583,21.9750
20.2583,19.5750
22.6583,19.5750
22.6583,21.9750
Z" />
<path style="fill:#02FFEE; fill-opacity:0.4000; stroke:none;fill-rule:evenodd;"
d="M 42.2583,21.9750
42.2583,19.5750
44.6583,19.5750
44.6583,21.9750
Z" />
<path style="fill:#02FFEE; fill-opacity:0.4000; stroke:none;fill-rule:evenodd;"
d="M 136.7183,55.9750
136.7183,53.5750
139.1183,53.5750
139.1183,55.9750
Z" />
<path style="fill:#02FFEE; fill-opacity:0.4000; stroke:none;fill-rule:evenodd;"
d="M 141.7983,55.9750
141.7983,53.5750
144.1983,53.5750
144.1983,55.9750
Z" />
<path style="fill:#02FFEE; fill-opacity:0.4000; stroke:none;fill-rule:evenodd;"
d="M 41.9183,51.7750
41.9183,49.7750
43.9183,49.7750
43.9183,51.7750
Z" />
<path style="fill:#02FFEE; fill-opacity:0.4000; stroke:none;fill-rule:evenodd;"
d="M 44.4583,51.7750
44.4583,49.7750
46.4583,49.7750
46.4583,51.7750
Z" />
<path style="fill:#02FFEE; fill-opacity:0.4000; stroke:none;fill-rule:evenodd;"
d="M 46.9983,51.7750
46.9983,49.7750
48.9983,49.7750
48.9983,51.7750
Z" />
<path style="fill:#02FFEE; fill-opacity:0.4000; stroke:none;fill-rule:evenodd;"
d="M 24.4583,75.7750
24.4583,73.7750
26.4583,73.7750
26.4583,75.7750
Z" />
<path style="fill:#02FFEE; fill-opacity:0.4000; stroke:none;fill-rule:evenodd;"
d="M 24.4583,87.7750
24.4583,85.7750
26.4583,85.7750
26.4583,87.7750
Z" />
<path style="fill:#02FFEE; fill-opacity:0.4000; stroke:none;fill-rule:evenodd;"
d="M 46.4583,75.7750
46.4583,73.7750
48.4583,73.7750
48.4583,75.7750
Z" />
<path style="fill:#02FFEE; fill-opacity:0.4000; stroke:none;fill-rule:evenodd;"
d="M 46.4583,87.7750
46.4583,85.7750
48.4583,85.7750
48.4583,87.7750
Z" />
</g>
<g style="fill:none;
stroke:#D0D2CD; stroke-width:0.1500; stroke-opacity:1;
stroke-linecap:round; stroke-linejoin:round;">
<path d="M0.4583 2.7750
L160.4583 2.7750
" />
<path d="M0.4583 102.7750
L0.4583 2.7750
" />
<path d="M160.4583 2.7750
L160.4583 102.7750
" />
<path d="M160.4583 102.7750
L0.4583 102.7750
" />
</g>
<g style="fill:#FFFFFF; fill-opacity:1.0000; stroke:none;">
<circle cx="108.6429" cy="59.4356" r="0.2000" />
</g>
<g style="fill:#FFFFFF; fill-opacity:1.0000; stroke:none;">
<circle cx="109.3221" cy="74.5267" r="0.2000" />
</g>
<g style="fill:#FFFFFF; fill-opacity:1.0000; stroke:none;">
<circle cx="79.6194" cy="28.3577" r="0.2000" />
</g>
<g style="fill:#FFFFFF; fill-opacity:1.0000; stroke:none;">
<circle cx="84.6264" cy="54.2478" r="0.2000" />
</g>
<g style="fill:#FFFFFF; fill-opacity:1.0000; stroke:none;">
<circle cx="74.5044" cy="88.8667" r="0.2000" />
</g>
<g style="fill:#FFFFFF; fill-opacity:1.0000; stroke:none;">
<circle cx="82.0713" cy="25.0550" r="0.2000" />
</g>
<g style="fill:#FFFFFF; fill-opacity:1.0000; stroke:none;">
<circle cx="64.5083" cy="49.6509" r="0.2000" />
</g>
<g style="fill:#FFFFFF; fill-opacity:1.0000; stroke:none;">
<circle cx="111.5083" cy="29.8864" r="0.2000" />
</g>
<g style="fill:#FFFFFF; fill-opacity:1.0000; stroke:none;">
<circle cx="117.5083" cy="72.7146" r="0.2000" />
</g>
<g style="fill:#FFFFFF; fill-opacity:1.0000; stroke:none;">
<circle cx="86.0991" cy="37.7550" r="0.2000" />
</g>
<g style="fill:#FFFFFF; fill-opacity:1.0000; stroke:none;">
<circle cx="89.8930" cy="41.5489" r="0.2000" />
</g>
<g style="fill:#FFFFFF; fill-opacity:1.0000; stroke:none;">
<circle cx="85.3939" cy="39.0183" r="0.2000" />
</g>
<g style="fill:#FFFFFF; fill-opacity:1.0000; stroke:none;">
<circle cx="88.1820" cy="42.1729" r="0.2000" />
</g>
<g style="fill:#FFFFFF; fill-opacity:1.0000; stroke:none;">
<circle cx="49.3964" cy="39.6105" r="0.2000" />
</g>
<g style="fill:#FFFFFF; fill-opacity:1.0000; stroke:none;">
<circle cx="77.0797" cy="40.2304" r="0.2000" />
</g>
<g style="fill:#FFFFFF; fill-opacity:1.0000; stroke:none;">
<circle cx="78.9232" cy="38.3869" r="0.2000" />
</g>
<g style="fill:#FFFFFF; fill-opacity:1.0000; stroke:none;">
<circle cx="123.5083" cy="44.7750" r="0.2000" />
</g>
<g style="fill:#FFFFFF; fill-opacity:1.0000; stroke:none;">
<circle cx="141.4583" cy="32.5750" r="0.2000" />
</g>
<g style="fill:#FFFFFF; fill-opacity:1.0000; stroke:none;">
<circle cx="137.9183" cy="72.7750" r="0.6500" />
</g>
<g style="fill:#FFFFFF; fill-opacity:1.0000; stroke:none;">
<circle cx="142.9983" cy="72.7750" r="0.6500" />
</g>
<g style="fill:#FFFFFF; fill-opacity:1.0000; stroke:none;">
<circle cx="41.2083" cy="32.5250" r="0.4500" />
</g>
<g style="fill:#FFFFFF; fill-opacity:1.0000; stroke:none;">
<circle cx="45.7083" cy="32.5250" r="0.4500" />
</g>
<g style="fill:#FFFFFF; fill-opacity:1.0000; stroke:none;">
<circle cx="41.2083" cy="37.0250" r="0.4500" />
</g>
<g style="fill:#FFFFFF; fill-opacity:1.0000; stroke:none;">
<circle cx="45.7083" cy="37.0250" r="0.4500" />
</g>
<g style="fill:#FFFFFF; fill-opacity:1.0000; stroke:none;">
<circle cx="82.5583" cy="29.5350" r="0.1500" />
</g>
<g style="fill:#FFFFFF; fill-opacity:1.0000; stroke:none;">
<circle cx="82.5583" cy="30.9350" r="0.1500" />
</g>
<g style="fill:#FFFFFF; fill-opacity:1.0000; stroke:none;">
<circle cx="83.2583" cy="28.8350" r="0.1500" />
</g>
<g style="fill:#FFFFFF; fill-opacity:1.0000; stroke:none;">
<circle cx="83.2583" cy="30.2350" r="0.1500" />
</g>
<g style="fill:#FFFFFF; fill-opacity:1.0000; stroke:none;">
<circle cx="83.2583" cy="31.6350" r="0.1500" />
</g>
<g style="fill:#FFFFFF; fill-opacity:1.0000; stroke:none;">
<circle cx="83.9583" cy="29.5350" r="0.1500" />
</g>
<g style="fill:#FFFFFF; fill-opacity:1.0000; stroke:none;">
<circle cx="83.9583" cy="30.9350" r="0.1500" />
</g>
<g style="fill:#FFFFFF; fill-opacity:1.0000; stroke:none;">
<circle cx="84.6583" cy="28.8350" r="0.1500" />
</g>
<g style="fill:#FFFFFF; fill-opacity:1.0000; stroke:none;">
<circle cx="84.6583" cy="30.2350" r="0.1500" />
</g>
<g style="fill:#FFFFFF; fill-opacity:1.0000; stroke:none;">
<circle cx="84.6583" cy="31.6350" r="0.1500" />
</g>
<g style="fill:#FFFFFF; fill-opacity:1.0000; stroke:none;">
<circle cx="85.3583" cy="29.5350" r="0.1500" />
</g>
<g style="fill:#FFFFFF; fill-opacity:1.0000; stroke:none;">
<circle cx="85.3583" cy="30.9350" r="0.1500" />
</g>
<g style="fill:#FFFFFF; fill-opacity:1.0000; stroke:none;">
<circle cx="23.3783" cy="50.7750" r="0.5000" />
</g>
<g style="fill:#FFFFFF; fill-opacity:1.0000; stroke:none;">
<circle cx="33.5383" cy="50.7750" r="0.5000" />
</g>
<g style="fill:#FFFFFF; fill-opacity:1.0000; stroke:none;">
<circle cx="148.9583" cy="27.5750" r="0.5000" />
</g>
<g style="fill:#FFFFFF; fill-opacity:1.0000; stroke:none;">
<circle cx="148.9583" cy="33.9750" r="0.5000" />
</g>
<g style="fill:#FFFFFF; fill-opacity:1.0000; stroke:none;">
<circle cx="7.9183" cy="20.7750" r="0.6500" />
</g>
<g style="fill:#FFFFFF; fill-opacity:1.0000; stroke:none;">
<circle cx="12.9983" cy="20.7750" r="0.6500" />
</g>
<g style="fill:#FFFFFF; fill-opacity:1.0000; stroke:none;">
<circle cx="41.2083" cy="42.5250" r="0.4500" />
</g>
<g style="fill:#FFFFFF; fill-opacity:1.0000; stroke:none;">
<circle cx="45.7083" cy="42.5250" r="0.4500" />
</g>
<g style="fill:#FFFFFF; fill-opacity:1.0000; stroke:none;">
<circle cx="41.2083" cy="47.0250" r="0.4500" />
</g>
<g style="fill:#FFFFFF; fill-opacity:1.0000; stroke:none;">
<circle cx="45.7083" cy="47.0250" r="0.4500" />
</g>
<g style="fill:#FFFFFF; fill-opacity:1.0000; stroke:none;">
<circle cx="7.9183" cy="50.7750" r="0.6500" />
</g>
<g style="fill:#FFFFFF; fill-opacity:1.0000; stroke:none;">
<circle cx="12.9983" cy="50.7750" r="0.6500" />
</g>
<g style="fill:#FFFFFF; fill-opacity:1.0000; stroke:none;">
<circle cx="21.4583" cy="20.7750" r="0.6500" />
</g>
<g style="fill:#FFFFFF; fill-opacity:1.0000; stroke:none;">
<circle cx="43.4583" cy="20.7750" r="0.6500" />
</g>
<g style="fill:#FFFFFF; fill-opacity:1.0000; stroke:none;">
<circle cx="137.9183" cy="54.7750" r="0.6500" />
</g>
<g style="fill:#FFFFFF; fill-opacity:1.0000; stroke:none;">
<circle cx="142.9983" cy="54.7750" r="0.6500" />
</g>
<g style="fill:#FFFFFF; fill-opacity:1.0000; stroke:none;">
<circle cx="42.9183" cy="50.7750" r="0.5500" />
</g>
<g style="fill:#FFFFFF; fill-opacity:1.0000; stroke:none;">
<circle cx="45.4583" cy="50.7750" r="0.5500" />
</g>
<g style="fill:#FFFFFF; fill-opacity:1.0000; stroke:none;">
<circle cx="47.9983" cy="50.7750" r="0.5500" />
</g>
<g style="fill:#FFFFFF; fill-opacity:1.0000; stroke:none;">
<circle cx="25.4583" cy="74.7750" r="0.5500" />
</g>
<g style="fill:#FFFFFF; fill-opacity:1.0000; stroke:none;">
<circle cx="25.4583" cy="86.7750" r="0.5500" />
</g>
<g style="fill:#FFFFFF; fill-opacity:1.0000; stroke:none;">
<circle cx="47.4583" cy="74.7750" r="0.5500" />
</g>
<g style="fill:#FFFFFF; fill-opacity:1.0000; stroke:none;">
<circle cx="47.4583" cy="86.7750" r="0.5500" />
</g>
</svg>
