M48
; DRILL file {KiCad 9.0.8+dfsg-1} date 2026-07-05T12:23:31+0200
; FORMAT={-:-/ absolute / metric / decimal}
; #@! TF.CreationDate,2026-07-05T12:23:31+02:00
; #@! TF.GenerationSoftware,Kicad,Pcbnew,9.0.8+dfsg-1
; #@! TF.FileFunction,MixedPlating,1,2
FMAT,2
METRIC
; #@! TA.AperFunction,Plated,PTH,ViaDrill
T1C0.300
; #@! TA.AperFunction,Plated,PTH,ComponentDrill
T2C0.300
; #@! TA.AperFunction,Plated,PTH,ComponentDrill
T3C0.600
; #@! TA.AperFunction,Plated,PTH,ComponentDrill
T4C0.900
; #@! TA.AperFunction,Plated,PTH,ComponentDrill
T5C1.000
; #@! TA.AperFunction,Plated,PTH,ComponentDrill
T6C1.100
; #@! TA.AperFunction,Plated,PTH,ComponentDrill
T7C1.300
; #@! TA.AperFunction,NonPlated,NPTH,ComponentDrill
T8C0.650
%
G90
G05
T1
X63.903Y-33.948
X64.26Y-19.74
X64.466Y-32.863
X64.523Y-25.961
X65.138Y-27.36
X65.53Y-21.01
X65.571Y-23.55
X65.797Y-22.598
X66.09Y-34.98
X66.906Y-24.82
X67.129Y-30.393
X67.275Y-33.367
X67.632Y-29.9
X73.242Y-43.965
X73.966Y-36.622
X73.989Y-38.28
X75.029Y-57.418
X78.518Y-39.942
X78.708Y-39.011
X81.626Y-35.694
X81.825Y-39.157
X83.615Y-38.97
X87.259Y-39.147
X87.798Y-40.395
X88.175Y-39.139
X88.213Y-50.676
X89.693Y-39.146
X90.244Y-44.692
X90.351Y-36.196
X92.452Y-39.714
X96.312Y-39.68
X96.318Y-37.613
X96.388Y-33.71
X97.214Y-55.743
X101.987Y-23.637
X103.655Y-29.585
X104.119Y-23.015
X104.177Y-30.086
X104.327Y-32.44
X104.843Y-34.98
X106.363Y-28.694
X108.06Y-25.185
X108.126Y-32.662
X108.142Y-27.592
X108.185Y-57.593
X108.912Y-30.296
X110.147Y-25.911
X112.547Y-24.984
X116.969Y-70.044
X137.065Y-27.0
X139.894Y-31.625
T2
X82.1Y-26.76
X82.1Y-28.16
X82.8Y-26.06
X82.8Y-27.46
X82.8Y-28.86
X83.5Y-26.76
X83.5Y-28.16
X84.2Y-26.06
X84.2Y-27.46
X84.2Y-28.86
X84.9Y-26.76
X84.9Y-28.16
T4
X7.46Y-23.2
X12.54Y-23.2
X40.75Y-29.75
X40.75Y-34.25
X40.75Y-39.75
X40.75Y-44.25
X45.25Y-29.75
X45.25Y-34.25
X45.25Y-39.75
X45.25Y-44.25
T5
X22.92Y-48.0
X33.08Y-48.0
T6
X25.0Y-72.0
X25.0Y-84.0
X42.46Y-48.0
X45.0Y-48.0
X47.0Y-72.0
X47.0Y-84.0
X47.54Y-48.0
T7
X7.46Y-18.0
X7.46Y-48.0
X12.54Y-18.0
X12.54Y-48.0
X21.0Y-18.0
X43.0Y-18.0
X137.46Y-52.0
X137.46Y-70.0
X142.54Y-52.0
X142.54Y-70.0
T8
X142.395Y-28.11
X142.395Y-33.89
T3
X141.345Y-26.68G85X142.445Y-26.68
G05
X141.345Y-35.32G85X142.445Y-35.32
G05
X145.775Y-26.68G85X146.375Y-26.68
G05
X145.775Y-35.32G85X146.375Y-35.32
G05
M30
